M48
;Layer_Color=9474304
;FILE_FORMAT=2:4
INCH,TZ
;TYPE=PLATED
T2F00S00C0.0280
T3F00S00C0.0300
T4F00S00C0.0433
T5F00S00C0.0472
T6F00S00C0.0512
T7F00S00C0.0610
;TYPE=NON_PLATED
T8F00S00C0.0827
T9F00S00C0.1063
%
T02
X47281Y28193
X47756Y31142
X46181Y30039
X43661Y30433
X42480Y29685
X40118Y26575
X40591Y25118
X40456Y22087
X40819Y20630
X41535Y18858
X37717Y19882
X35472Y20551
X35433Y19252
X36457Y22126
X34252Y23425
X33543Y23268
X32441Y25433
X32913Y26535
X32317Y27366
X31809Y27748
X31293Y27940
X32905Y30476
X35742Y30516
X35585Y31146
X35630Y29016
X37638Y28031
X30157Y28937
X28150Y29635
X27126Y30276
X25827Y29882
X27126Y25906
X27008Y24843
X26929Y21614
X30512Y19331
X30984Y18898
X24094Y25906
X26181Y34567
X30512Y38465
X31181Y40748
X29843Y40787
Y42283
X26693Y43740
X38268Y43346
X44094Y40039
X44030Y38704
X45236Y37441
X46181Y40276
X45282Y32009
X42323Y31811
X38819Y34094
X38189
X36417Y33976
X36614Y35591
X32008Y36496
X33144Y33154
X33816Y32369
T03
X24640Y36854
X26608
X25624Y40398
Y42366
X33892Y41972
X35860
T04
X22081Y22287
Y23665
Y26815
Y28193
Y29571
Y30949
Y32327
Y33705
Y35083
Y36461
Y37839
Y40791
Y42169
T05
X21821Y19020
X22821
X23821
X24821
X25821
X26821
X27821
X28821
X47356Y32874
Y33874
Y34874
Y35874
T06
X34679Y37642
X41652
T07
X42848Y23921
X45959
T08
X48937Y18307
X30000Y22480
X20754Y44961
X48937
T09
X44404Y19886
M30
