G04*
G04 #@! TF.GenerationSoftware,Altium Limited,Altium Designer,21.1.1 (26)*
G04*
G04 Layer_Physical_Order=1*
G04 Layer_Color=255*
%FSLAX25Y25*%
%MOIN*%
G70*
G04*
G04 #@! TF.SameCoordinates,48ED7441-6B8D-405F-B593-7732F9BA20C5*
G04*
G04*
G04 #@! TF.FilePolarity,Positive*
G04*
G01*
G75*
%ADD10C,0.01000*%
%ADD16C,0.02000*%
%ADD19R,0.06299X0.11811*%
%ADD20R,0.22835X0.24410*%
%ADD34R,0.24410X0.22835*%
%ADD35R,0.11811X0.06299*%
%ADD53R,0.05315X0.02362*%
%ADD54R,0.04921X0.03937*%
%ADD55R,0.05512X0.10630*%
%ADD56R,0.05906X0.06299*%
%ADD57R,0.07087X0.05512*%
%ADD58R,0.05512X0.07087*%
%ADD59R,0.10630X0.05512*%
%ADD60O,0.05315X0.01575*%
%ADD61R,0.07087X0.07480*%
G04:AMPARAMS|DCode=62|XSize=62.99mil|YSize=55.12mil|CornerRadius=13.78mil|HoleSize=0mil|Usage=FLASHONLY|Rotation=270.000|XOffset=0mil|YOffset=0mil|HoleType=Round|Shape=RoundedRectangle|*
%AMROUNDEDRECTD62*
21,1,0.06299,0.02756,0,0,270.0*
21,1,0.03543,0.05512,0,0,270.0*
1,1,0.02756,-0.01378,-0.01772*
1,1,0.02756,-0.01378,0.01772*
1,1,0.02756,0.01378,0.01772*
1,1,0.02756,0.01378,-0.01772*
%
%ADD62ROUNDEDRECTD62*%
%ADD63R,0.04016X0.08504*%
%ADD64R,0.32795X0.27520*%
%ADD65R,0.04862X0.07520*%
%ADD66R,0.07284X0.02559*%
%ADD67R,0.07087X0.05118*%
%ADD68O,0.07795X0.02087*%
%ADD69R,0.06299X0.05906*%
%ADD70O,0.06496X0.01772*%
%ADD71R,0.06004X0.02559*%
%ADD72R,0.10236X0.12598*%
%ADD73R,0.06102X0.02756*%
%ADD74R,0.05807X0.01772*%
%ADD75C,0.03000*%
%ADD76C,0.01500*%
%ADD77C,0.05000*%
%ADD78C,0.04000*%
%ADD79C,0.04500*%
%ADD80C,0.08268*%
%ADD81O,0.11811X0.07874*%
%ADD82C,0.06496*%
%ADD83C,0.08858*%
%ADD84O,0.06299X0.03543*%
%ADD85C,0.06000*%
%ADD86C,0.08661*%
%ADD87O,0.07874X0.11811*%
%ADD88C,0.09055*%
%ADD89C,0.05000*%
G36*
X492748Y466587D02*
X494935Y466001D01*
X497028Y465134D01*
X498989Y464002D01*
X500786Y462623D01*
X502387Y461022D01*
X503766Y459225D01*
X504898Y457264D01*
X505765Y455172D01*
X506351Y452984D01*
X506647Y450739D01*
Y449606D01*
Y183071D01*
Y181939D01*
X506351Y179693D01*
X505765Y177506D01*
X504898Y175413D01*
X503766Y173452D01*
X502387Y171655D01*
X500786Y170054D01*
X498989Y168675D01*
X497028Y167543D01*
X494935Y166676D01*
X492748Y166090D01*
X490502Y165794D01*
X206405D01*
X204160Y166090D01*
X201972Y166676D01*
X199880Y167543D01*
X197918Y168675D01*
X196122Y170054D01*
X194520Y171655D01*
X193142Y173452D01*
X192009Y175413D01*
X191143Y177506D01*
X190557Y179693D01*
X190261Y181939D01*
Y183071D01*
Y449606D01*
Y450739D01*
X190557Y452984D01*
X191143Y455172D01*
X192009Y457264D01*
X193142Y459225D01*
X194520Y461022D01*
X196122Y462623D01*
X197918Y464002D01*
X199880Y465134D01*
X201972Y466001D01*
X204160Y466587D01*
X206405Y466883D01*
X490503D01*
X492748Y466587D01*
D02*
G37*
%LPC*%
G36*
X250547Y454386D02*
X242248D01*
Y446480D01*
X250547D01*
Y446903D01*
X253665D01*
Y445496D01*
X262752D01*
Y453008D01*
X258634D01*
X258005Y453490D01*
X257154Y453843D01*
X256240Y453963D01*
X250547D01*
Y454386D01*
D02*
G37*
G36*
X385774Y445715D02*
X382818D01*
Y441972D01*
X385774D01*
Y445715D01*
D02*
G37*
G36*
X382418D02*
X379462D01*
Y441972D01*
X382418D01*
Y445715D01*
D02*
G37*
G36*
X320626Y454858D02*
X313764D01*
Y454258D01*
X298566D01*
Y440298D01*
X315164D01*
Y445339D01*
X320626D01*
Y454858D01*
D02*
G37*
G36*
X282968D02*
X276106D01*
Y445339D01*
X281569D01*
Y440298D01*
X298166D01*
Y454258D01*
X282968D01*
Y454858D01*
D02*
G37*
G36*
X489370Y460468D02*
X488401D01*
X488302Y460449D01*
X488202D01*
X486300Y460071D01*
X486207Y460032D01*
X486109Y460013D01*
X484318Y459271D01*
X484234Y459215D01*
X484141Y459176D01*
X482529Y458099D01*
X482458Y458028D01*
X482375Y457972D01*
X481004Y456601D01*
X480948Y456518D01*
X480877Y456447D01*
X479800Y454835D01*
X479762Y454742D01*
X479706Y454659D01*
X478964Y452867D01*
X478944Y452769D01*
X478906Y452676D01*
X478528Y450775D01*
Y450674D01*
X478508Y450576D01*
X478508Y449606D01*
Y448637D01*
X478528Y448538D01*
Y448438D01*
X478906Y446536D01*
X478944Y446444D01*
X478964Y446345D01*
X479706Y444554D01*
X479762Y444470D01*
X479800Y444378D01*
X480877Y442766D01*
X480948Y442695D01*
X481004Y442611D01*
X482375Y441240D01*
X482458Y441184D01*
X482529Y441113D01*
X484141Y440036D01*
X484234Y439998D01*
X484318Y439942D01*
X486109Y439200D01*
X486207Y439181D01*
X486300Y439142D01*
X488202Y438764D01*
X488302D01*
X488401Y438744D01*
X490340D01*
X490438Y438764D01*
X490538D01*
X492440Y439142D01*
X492533Y439181D01*
X492631Y439200D01*
X494422Y439942D01*
X494506Y439998D01*
X494599Y440036D01*
X496211Y441113D01*
X496282Y441184D01*
X496365Y441240D01*
X497736Y442611D01*
X497792Y442695D01*
X497863Y442766D01*
X498940Y444378D01*
X498979Y444470D01*
X499034Y444554D01*
X499776Y446345D01*
X499796Y446444D01*
X499834Y446536D01*
X500213Y448438D01*
Y448538D01*
X500232Y448637D01*
Y450576D01*
X500213Y450674D01*
Y450775D01*
X499834Y452676D01*
X499796Y452769D01*
X499776Y452867D01*
X499034Y454659D01*
X498979Y454742D01*
X498940Y454835D01*
X497863Y456447D01*
X497792Y456518D01*
X497736Y456601D01*
X496365Y457972D01*
X496282Y458028D01*
X496211Y458099D01*
X494599Y459176D01*
X494506Y459215D01*
X494422Y459271D01*
X492631Y460013D01*
X492533Y460032D01*
X492440Y460071D01*
X490538Y460449D01*
X490438D01*
X490340Y460468D01*
X489370Y460468D01*
D02*
G37*
G36*
X208507D02*
X206568D01*
X206470Y460449D01*
X206369D01*
X204468Y460071D01*
X204375Y460032D01*
X204276Y460013D01*
X202485Y459271D01*
X202402Y459215D01*
X202309Y459176D01*
X200697Y458099D01*
X200626Y458028D01*
X200542Y457972D01*
X199171Y456601D01*
X199116Y456518D01*
X199045Y456447D01*
X197967Y454835D01*
X197929Y454742D01*
X197873Y454659D01*
X197131Y452867D01*
X197112Y452769D01*
X197073Y452676D01*
X196695Y450775D01*
Y450674D01*
X196675Y450576D01*
Y448637D01*
X196695Y448538D01*
Y448438D01*
X197073Y446536D01*
X197112Y446444D01*
X197131Y446345D01*
X197873Y444554D01*
X197929Y444470D01*
X197967Y444378D01*
X199045Y442766D01*
X199116Y442695D01*
X199171Y442611D01*
X200542Y441240D01*
X200626Y441184D01*
X200697Y441113D01*
X202309Y440036D01*
X202402Y439998D01*
X202485Y439942D01*
X204276Y439200D01*
X204375Y439181D01*
X204468Y439142D01*
X206369Y438764D01*
X206470D01*
X206568Y438744D01*
X208507D01*
X208605Y438764D01*
X208706D01*
X210607Y439142D01*
X210700Y439181D01*
X210799Y439200D01*
X212590Y439942D01*
X212673Y439998D01*
X212766Y440036D01*
X214378Y441113D01*
X214449Y441184D01*
X214533Y441240D01*
X215904Y442611D01*
X215959Y442695D01*
X216030Y442766D01*
X217108Y444378D01*
X217146Y444470D01*
X217202Y444554D01*
X217944Y446345D01*
X217963Y446444D01*
X218002Y446536D01*
X218380Y448438D01*
Y448538D01*
X218400Y448637D01*
Y450576D01*
X218380Y450674D01*
Y450775D01*
X218002Y452676D01*
X217963Y452769D01*
X217944Y452867D01*
X217202Y454659D01*
X217146Y454742D01*
X217108Y454835D01*
X216030Y456447D01*
X215959Y456518D01*
X215904Y456601D01*
X214533Y457972D01*
X214449Y458028D01*
X214378Y458099D01*
X212766Y459176D01*
X212673Y459215D01*
X212590Y459271D01*
X210799Y460013D01*
X210700Y460032D01*
X210607Y460071D01*
X208706Y460449D01*
X208605D01*
X208507Y460468D01*
D02*
G37*
G36*
X258009Y440597D02*
X254265D01*
Y437641D01*
X258009D01*
Y440597D01*
D02*
G37*
G36*
X398185Y446315D02*
X390673D01*
Y437228D01*
X398185D01*
Y438241D01*
X403075D01*
Y437622D01*
X410980D01*
Y445921D01*
X403075D01*
Y445302D01*
X398185D01*
Y446315D01*
D02*
G37*
G36*
X262152Y440597D02*
X258409D01*
Y437441D01*
Y434285D01*
X262152D01*
Y434892D01*
X266731D01*
X266929Y434853D01*
X267905Y435047D01*
X268731Y435599D01*
X269284Y436426D01*
X269478Y437402D01*
X269284Y438377D01*
X268731Y439204D01*
X268692Y439243D01*
X267865Y439796D01*
X266890Y439990D01*
X262152D01*
Y440597D01*
D02*
G37*
G36*
X385774Y441572D02*
X382618D01*
X379462D01*
Y437828D01*
X379622D01*
Y433494D01*
X379725Y432711D01*
X380027Y431981D01*
X380508Y431354D01*
X380538Y431325D01*
X381164Y430844D01*
X381894Y430542D01*
X382677Y430439D01*
X383460Y430542D01*
X384190Y430844D01*
X384817Y431325D01*
X385298Y431952D01*
X385600Y432681D01*
X385703Y433465D01*
X385673Y433689D01*
Y437828D01*
X385774D01*
Y441572D01*
D02*
G37*
G36*
X250547Y440213D02*
X242248D01*
Y432307D01*
X245555D01*
X252139Y425723D01*
X251932Y425223D01*
X223189D01*
X222447Y425651D01*
X221366Y425941D01*
X220248D01*
X219167Y425651D01*
X218199Y425092D01*
X217408Y424301D01*
X216848Y423333D01*
X216559Y422252D01*
Y421134D01*
X216848Y420053D01*
X217408Y419085D01*
X218199Y418294D01*
X219167Y417734D01*
X220248Y417445D01*
X221366D01*
X222447Y417734D01*
X223189Y418163D01*
X254001D01*
X254915Y418283D01*
X255766Y418636D01*
X256497Y419197D01*
X256876Y419691D01*
X257784Y419934D01*
X258126Y420131D01*
X275250D01*
X281450Y413932D01*
Y398071D01*
X281570Y397157D01*
X281923Y396306D01*
X281972Y396241D01*
Y392819D01*
X287988D01*
X288143Y392383D01*
Y384769D01*
X283075Y379701D01*
X282514Y378970D01*
X282161Y378118D01*
X282041Y377205D01*
Y371905D01*
X279453D01*
Y357307D01*
X291689D01*
Y361076D01*
X299350D01*
X300264Y361196D01*
X301115Y361549D01*
X301847Y362110D01*
X312624Y372887D01*
X342504D01*
X343397Y371994D01*
X344658Y371266D01*
X346064Y370890D01*
X347519D01*
X348925Y371266D01*
X350185Y371994D01*
X351215Y373023D01*
X351942Y374284D01*
X352319Y375690D01*
Y377145D01*
X351942Y378551D01*
X351215Y379811D01*
X350185Y380840D01*
X348925Y381568D01*
X347519Y381945D01*
X346064D01*
X344658Y381568D01*
X343397Y380840D01*
X342504Y379947D01*
X311161D01*
X310248Y379827D01*
X309396Y379474D01*
X308665Y378913D01*
X297888Y368137D01*
X291689D01*
Y371905D01*
X289101D01*
Y375743D01*
X294169Y380811D01*
X294730Y381542D01*
X295083Y382393D01*
X295203Y383307D01*
Y396470D01*
X295701Y396567D01*
X295958Y396274D01*
Y393419D01*
X298166D01*
Y398071D01*
X298566D01*
Y393419D01*
X300774D01*
Y396281D01*
X300987Y396558D01*
X301289Y397288D01*
X301392Y398071D01*
Y407425D01*
X301451Y407874D01*
X301348Y408657D01*
X301046Y409387D01*
X300565Y410014D01*
X299938Y410495D01*
X299208Y410797D01*
X298425Y410900D01*
X297642Y410797D01*
X296912Y410495D01*
X296286Y410014D01*
X296227Y409955D01*
X295746Y409328D01*
X295443Y408598D01*
X295340Y407815D01*
Y400050D01*
X294840Y399851D01*
X294681Y400020D01*
Y403323D01*
X288665D01*
X288510Y403759D01*
Y415394D01*
X288390Y416307D01*
X288038Y417159D01*
X287476Y417890D01*
X279209Y426158D01*
X278478Y426719D01*
X277626Y427071D01*
X276713Y427192D01*
X259528D01*
X259459Y427719D01*
X259106Y428571D01*
X258545Y429302D01*
X253918Y433929D01*
X254269Y434285D01*
X254764Y434285D01*
X258009D01*
Y437241D01*
X254265D01*
Y434785D01*
X254265Y434289D01*
X253909Y433938D01*
X250547Y437299D01*
Y440213D01*
D02*
G37*
G36*
X359050Y423124D02*
X358802D01*
Y419924D01*
X362002D01*
Y420172D01*
X361771Y421037D01*
X361323Y421812D01*
X360690Y422445D01*
X359915Y422893D01*
X359050Y423124D01*
D02*
G37*
G36*
X358402D02*
X358155D01*
X357290Y422893D01*
X356515Y422445D01*
X355882Y421812D01*
X355434Y421037D01*
X355202Y420172D01*
Y419924D01*
X358402D01*
Y423124D01*
D02*
G37*
G36*
X315164Y439898D02*
X281569D01*
Y425939D01*
X294895D01*
Y422835D01*
X295015Y421921D01*
X295368Y421069D01*
X295929Y420338D01*
X296660Y419777D01*
X297512Y419425D01*
X298425Y419304D01*
X299339Y419425D01*
X300190Y419777D01*
X300921Y420338D01*
X301482Y421069D01*
X301835Y421921D01*
X301955Y422835D01*
Y425939D01*
X315164D01*
Y439898D01*
D02*
G37*
G36*
X362002Y419524D02*
X358802D01*
Y416324D01*
X359050D01*
X359915Y416556D01*
X360690Y417004D01*
X361323Y417637D01*
X361771Y418412D01*
X362002Y419277D01*
Y419524D01*
D02*
G37*
G36*
X358402D02*
X355202D01*
Y419277D01*
X355434Y418412D01*
X355882Y417637D01*
X356515Y417004D01*
X357290Y416556D01*
X358155Y416324D01*
X358402D01*
Y419524D01*
D02*
G37*
G36*
X339444Y423724D02*
X338391D01*
X337373Y423452D01*
X336461Y422925D01*
X335717Y422181D01*
X335190Y421268D01*
X334917Y420251D01*
Y419198D01*
X335190Y418181D01*
X335717Y417268D01*
X336461Y416524D01*
X337373Y415997D01*
X338391Y415724D01*
X339444D01*
X340461Y415997D01*
X341373Y416524D01*
X342118Y417268D01*
X342645Y418181D01*
X342917Y419198D01*
Y420251D01*
X342645Y421268D01*
X342118Y422181D01*
X341373Y422925D01*
X340461Y423452D01*
X339444Y423724D01*
D02*
G37*
G36*
X221287Y411561D02*
X221007D01*
Y408113D01*
X224455D01*
Y408394D01*
X224206Y409321D01*
X223726Y410153D01*
X223047Y410833D01*
X222215Y411313D01*
X221287Y411561D01*
D02*
G37*
G36*
X220607D02*
X220327D01*
X219399Y411313D01*
X218567Y410833D01*
X217888Y410153D01*
X217408Y409321D01*
X217159Y408394D01*
Y408113D01*
X220607D01*
Y411561D01*
D02*
G37*
G36*
X425153Y445921D02*
X417248D01*
Y437622D01*
X425153D01*
Y439223D01*
X428826D01*
X438002Y430047D01*
Y429347D01*
X428134D01*
Y402937D01*
X437831D01*
X437958Y402778D01*
X438083Y402437D01*
X437683Y401745D01*
X437445Y400854D01*
Y399933D01*
X437683Y399043D01*
X438144Y398245D01*
X438796Y397593D01*
X439594Y397132D01*
X440484Y396894D01*
X441406D01*
X442296Y397132D01*
X443094Y397593D01*
X443746Y398245D01*
X444206Y399043D01*
X444445Y399933D01*
Y400854D01*
X444206Y401745D01*
X443807Y402437D01*
X443932Y402778D01*
X444058Y402937D01*
X452969D01*
Y406545D01*
X454650D01*
Y405339D01*
X459521D01*
X459546Y405266D01*
X459614Y404839D01*
X459480Y404704D01*
X458999Y404077D01*
X458697Y403348D01*
X458594Y402565D01*
Y400439D01*
X455250D01*
Y397483D01*
X460964D01*
Y397083D01*
X455250D01*
Y394128D01*
X459120D01*
Y389809D01*
X458990D01*
Y386066D01*
X462146D01*
X465302D01*
Y389809D01*
X465172D01*
Y394128D01*
X466679D01*
Y394258D01*
X469620D01*
Y394128D01*
X473363D01*
Y397283D01*
Y400439D01*
X469620D01*
Y400309D01*
X466679D01*
Y400439D01*
X464646D01*
Y401760D01*
X464734Y401973D01*
X464837Y402756D01*
X464734Y403539D01*
X464431Y404269D01*
X463994Y404839D01*
X464107Y405339D01*
X467279D01*
Y406545D01*
X469020D01*
Y405339D01*
X478106D01*
Y412850D01*
X469020D01*
Y411644D01*
X467279D01*
Y412850D01*
X454650D01*
Y411644D01*
X452969D01*
Y429347D01*
X443100D01*
Y431102D01*
X442906Y432078D01*
X442354Y432905D01*
X431684Y443574D01*
X430857Y444127D01*
X429882Y444321D01*
X425153D01*
Y445921D01*
D02*
G37*
G36*
X224455Y407713D02*
X221007D01*
Y404265D01*
X221287D01*
X222215Y404514D01*
X223047Y404994D01*
X223726Y405673D01*
X224206Y406505D01*
X224455Y407433D01*
Y407713D01*
D02*
G37*
G36*
X220607D02*
X217159D01*
Y407433D01*
X217408Y406505D01*
X217888Y405673D01*
X218567Y404994D01*
X219399Y404514D01*
X220327Y404265D01*
X220607D01*
Y407713D01*
D02*
G37*
G36*
X256688Y407376D02*
X256440D01*
Y404176D01*
X259640D01*
Y404424D01*
X259408Y405289D01*
X258961Y406064D01*
X258328Y406697D01*
X257553Y407145D01*
X256688Y407376D01*
D02*
G37*
G36*
X256040D02*
X255792D01*
X254928Y407145D01*
X254152Y406697D01*
X253520Y406064D01*
X253072Y405289D01*
X252840Y404424D01*
Y404176D01*
X256040D01*
Y407376D01*
D02*
G37*
G36*
X259640Y403776D02*
X256440D01*
Y400576D01*
X256688D01*
X257553Y400808D01*
X258328Y401256D01*
X258961Y401889D01*
X259408Y402664D01*
X259640Y403529D01*
Y403776D01*
D02*
G37*
G36*
X256040D02*
X252840D01*
Y403529D01*
X253072Y402664D01*
X253520Y401889D01*
X254152Y401256D01*
X254928Y400808D01*
X255792Y400576D01*
X256040D01*
Y403776D01*
D02*
G37*
G36*
X477506Y400439D02*
X473763D01*
Y397483D01*
X477506D01*
Y400439D01*
D02*
G37*
G36*
Y397083D02*
X473763D01*
Y394128D01*
X477506D01*
Y397083D01*
D02*
G37*
G36*
X311811Y410506D02*
X311028Y410403D01*
X310298Y410101D01*
X309671Y409620D01*
X309620Y409569D01*
X309139Y408942D01*
X308837Y408212D01*
X308734Y407429D01*
Y398131D01*
X308726Y398071D01*
X308829Y397288D01*
X309132Y396558D01*
X309344Y396281D01*
Y393419D01*
X311552D01*
Y398071D01*
X311952D01*
Y393419D01*
X314160D01*
Y396278D01*
X314380Y396566D01*
X314683Y397296D01*
X314786Y398079D01*
Y407092D01*
X314837Y407480D01*
X314734Y408263D01*
X314432Y408993D01*
X313951Y409620D01*
X313324Y410101D01*
X312594Y410403D01*
X311811Y410506D01*
D02*
G37*
G36*
X431355Y394534D02*
X428006D01*
Y388428D01*
X431355D01*
Y394534D01*
D02*
G37*
G36*
X435105D02*
X431755D01*
Y388228D01*
X431555D01*
Y388028D01*
X428006D01*
Y381923D01*
X429624D01*
Y375205D01*
X429727Y374422D01*
X430029Y373692D01*
X430250Y373404D01*
Y368734D01*
X433206D01*
Y374449D01*
X433405D01*
Y374649D01*
X436561D01*
Y380164D01*
X435675D01*
Y385203D01*
X437852D01*
X438156Y384899D01*
X438782Y384418D01*
X439512Y384116D01*
X440295Y384013D01*
X441079Y384116D01*
X441808Y384418D01*
X442435Y384899D01*
X442916Y385526D01*
X443218Y386256D01*
X443321Y387039D01*
X443218Y387822D01*
X442916Y388552D01*
X442435Y389178D01*
X441245Y390368D01*
X440619Y390849D01*
X439889Y391151D01*
X439106Y391254D01*
X435105D01*
Y394534D01*
D02*
G37*
G36*
X465302Y385666D02*
X462346D01*
Y381923D01*
X465302D01*
Y385666D01*
D02*
G37*
G36*
X461946D02*
X458990D01*
Y381923D01*
X461946D01*
Y385666D01*
D02*
G37*
G36*
X308067Y403323D02*
X302051D01*
Y398208D01*
X302033Y398071D01*
X302041Y398011D01*
Y386316D01*
X301857Y385997D01*
X301618Y385106D01*
Y384185D01*
X301857Y383295D01*
X302317Y382497D01*
X302969Y381845D01*
X303767Y381384D01*
X304657Y381146D01*
X305579D01*
X306469Y381384D01*
X307267Y381845D01*
X307919Y382497D01*
X308380Y383295D01*
X308618Y384185D01*
Y385106D01*
X308380Y385997D01*
X308093Y386493D01*
Y398063D01*
X308067Y398260D01*
Y403323D01*
D02*
G37*
G36*
X417165Y381345D02*
X416716D01*
Y376617D01*
X421443D01*
Y377066D01*
X421107Y378319D01*
X420459Y379443D01*
X419541Y380360D01*
X418418Y381009D01*
X417165Y381345D01*
D02*
G37*
G36*
X416316D02*
X415867D01*
X414614Y381009D01*
X413490Y380360D01*
X412573Y379443D01*
X411924Y378319D01*
X411588Y377066D01*
Y376617D01*
X416316D01*
Y381345D01*
D02*
G37*
G36*
X421443Y376217D02*
X416716D01*
Y371490D01*
X417165D01*
X418418Y371826D01*
X419541Y372474D01*
X420459Y373392D01*
X421107Y374515D01*
X421443Y375769D01*
Y376217D01*
D02*
G37*
G36*
X416316D02*
X411588D01*
Y375769D01*
X411924Y374515D01*
X412573Y373392D01*
X413490Y372474D01*
X414614Y371826D01*
X415867Y371490D01*
X416316D01*
Y376217D01*
D02*
G37*
G36*
X477713Y390409D02*
X470201D01*
Y381323D01*
X470427D01*
Y375433D01*
X470547Y374519D01*
X470791Y373929D01*
Y370299D01*
X478697D01*
Y378598D01*
X477487D01*
Y381323D01*
X477713D01*
Y390409D01*
D02*
G37*
G36*
X453697Y395134D02*
X445398D01*
Y381323D01*
X448208D01*
X448236Y381264D01*
X447920Y380764D01*
X441461D01*
Y368134D01*
X448972D01*
Y371900D01*
X449813D01*
Y365606D01*
X447760D01*
Y356520D01*
X455272D01*
Y365606D01*
X454911D01*
Y371880D01*
X456618D01*
Y370299D01*
X464524D01*
Y378598D01*
X456618D01*
Y376978D01*
X454911D01*
Y380315D01*
X454717Y381290D01*
X454165Y382117D01*
X453746Y382536D01*
Y386579D01*
X453697Y386825D01*
Y395134D01*
D02*
G37*
G36*
X266530Y371943D02*
X266283D01*
Y368743D01*
X269483D01*
Y368991D01*
X269251Y369856D01*
X268803Y370631D01*
X268170Y371264D01*
X267395Y371712D01*
X266530Y371943D01*
D02*
G37*
G36*
X265883D02*
X265635D01*
X264770Y371712D01*
X263995Y371264D01*
X263362Y370631D01*
X262914Y369856D01*
X262683Y368991D01*
Y368743D01*
X265883D01*
Y371943D01*
D02*
G37*
G36*
X436561Y374249D02*
X433605D01*
Y368734D01*
X436561D01*
Y374249D01*
D02*
G37*
G36*
X335390Y371905D02*
X323153D01*
Y367986D01*
X321838D01*
X321430Y368222D01*
X320539Y368461D01*
X319618D01*
X318728Y368222D01*
X317930Y367761D01*
X317278Y367110D01*
X316817Y366312D01*
X316579Y365421D01*
Y364500D01*
X316817Y363610D01*
X317278Y362812D01*
X317930Y362160D01*
X318728Y361699D01*
X319618Y361461D01*
X320539D01*
X321430Y361699D01*
X321838Y361935D01*
X323153D01*
Y357307D01*
X335390D01*
Y371905D01*
D02*
G37*
G36*
X221509Y383717D02*
X220105D01*
X218749Y383353D01*
X217534Y382651D01*
X216541Y381659D01*
X215840Y380443D01*
X215476Y379088D01*
Y377684D01*
X215840Y376328D01*
X216541Y375113D01*
X217534Y374120D01*
X218749Y373418D01*
X220105Y373055D01*
X221509D01*
X222865Y373418D01*
X224080Y374120D01*
X225068Y375108D01*
X235197D01*
X241559Y368746D01*
X240697Y367884D01*
X225068D01*
X224080Y368872D01*
X222865Y369574D01*
X221509Y369937D01*
X220105D01*
X218749Y369574D01*
X217534Y368872D01*
X216541Y367879D01*
X215840Y366664D01*
X215476Y365308D01*
Y363905D01*
X215840Y362549D01*
X216541Y361333D01*
X217534Y360341D01*
X218749Y359639D01*
X220105Y359276D01*
X221509D01*
X222865Y359639D01*
X224080Y360341D01*
X225068Y361328D01*
X242055D01*
X242479Y361384D01*
X242903Y361440D01*
X243694Y361767D01*
X244373Y362288D01*
X246195Y364110D01*
X249025Y361280D01*
Y342342D01*
X248017Y341334D01*
X247496Y340655D01*
X247231Y340016D01*
X240770D01*
Y338032D01*
X240270Y337825D01*
X239100Y338994D01*
X239104Y339016D01*
X238910Y339991D01*
X238357Y340818D01*
X227630Y351546D01*
X226803Y352098D01*
X225939Y352270D01*
X225775Y352884D01*
X225073Y354100D01*
X224080Y355092D01*
X222865Y355794D01*
X221509Y356157D01*
X220105D01*
X218749Y355794D01*
X217534Y355092D01*
X216541Y354100D01*
X215840Y352884D01*
X215476Y351529D01*
Y350125D01*
X215840Y348769D01*
X216541Y347554D01*
X217534Y346561D01*
X218749Y345859D01*
X220105Y345496D01*
X221509D01*
X222865Y345859D01*
X224080Y346561D01*
X224714Y347195D01*
X224771D01*
X231908Y340058D01*
X231717Y339596D01*
X225491D01*
X225073Y340320D01*
X224080Y341313D01*
X222865Y342015D01*
X221509Y342378D01*
X220105D01*
X218749Y342015D01*
X217534Y341313D01*
X216541Y340320D01*
X215840Y339105D01*
X215476Y337749D01*
Y336345D01*
X215840Y334990D01*
X216541Y333774D01*
X217534Y332782D01*
X218749Y332080D01*
X220105Y331716D01*
X221509D01*
X222865Y332080D01*
X224080Y332782D01*
X225073Y333774D01*
X225491Y334498D01*
X232618D01*
X232640Y334503D01*
X233640Y333502D01*
X233433Y333002D01*
X227992D01*
X227017Y332808D01*
X226190Y332255D01*
X222317Y328382D01*
X221509Y328598D01*
X220105D01*
X218749Y328235D01*
X217534Y327533D01*
X216541Y326541D01*
X215840Y325325D01*
X215476Y323970D01*
Y322566D01*
X215840Y321210D01*
X216541Y319995D01*
X217534Y319002D01*
X218749Y318300D01*
X220105Y317937D01*
X221509D01*
X222865Y318300D01*
X224080Y319002D01*
X225073Y319995D01*
X225775Y321210D01*
X226138Y322566D01*
Y323970D01*
X225921Y324777D01*
X229048Y327904D01*
X233898D01*
X234873Y328098D01*
X235700Y328650D01*
X235712Y328668D01*
X236811D01*
X237002Y328206D01*
X236577Y327781D01*
X236555Y327785D01*
X235580Y327591D01*
X234753Y327039D01*
X222317Y314602D01*
X221509Y314819D01*
X220105D01*
X218749Y314456D01*
X217534Y313754D01*
X216541Y312761D01*
X215840Y311546D01*
X215476Y310190D01*
Y308786D01*
X215840Y307431D01*
X216541Y306215D01*
X217534Y305223D01*
X218749Y304521D01*
X220105Y304157D01*
X221509D01*
X222865Y304521D01*
X224080Y305223D01*
X225073Y306215D01*
X225775Y307431D01*
X226138Y308786D01*
Y310190D01*
X225921Y310998D01*
X233152Y318229D01*
X233541Y317910D01*
X233074Y317212D01*
X232880Y316236D01*
Y301544D01*
X229594Y298258D01*
X225491D01*
X225073Y298982D01*
X224080Y299974D01*
X222865Y300676D01*
X221509Y301039D01*
X220105D01*
X218749Y300676D01*
X217534Y299974D01*
X216541Y298982D01*
X215840Y297766D01*
X215476Y296410D01*
Y295007D01*
X215840Y293651D01*
X216541Y292436D01*
X217534Y291443D01*
X218749Y290741D01*
X220105Y290378D01*
X221509D01*
X222865Y290741D01*
X224080Y291443D01*
X225073Y292436D01*
X225491Y293160D01*
X230650D01*
X231625Y293354D01*
X232452Y293906D01*
X235918Y297372D01*
X236380Y297181D01*
Y289296D01*
X231562Y284478D01*
X225491D01*
X225073Y285202D01*
X224080Y286195D01*
X222865Y286896D01*
X221509Y287260D01*
X220105D01*
X218749Y286896D01*
X217534Y286195D01*
X216541Y285202D01*
X215840Y283987D01*
X215476Y282631D01*
Y281227D01*
X215840Y279872D01*
X216541Y278656D01*
X217534Y277663D01*
X218749Y276962D01*
X220105Y276598D01*
X221509D01*
X222865Y276962D01*
X224080Y277663D01*
X225073Y278656D01*
X225491Y279380D01*
X232618D01*
X233594Y279574D01*
X234420Y280127D01*
X239418Y285124D01*
X239880Y284933D01*
Y280985D01*
X229594Y270699D01*
X225491D01*
X225073Y271423D01*
X224080Y272415D01*
X222865Y273117D01*
X221509Y273480D01*
X220105D01*
X218749Y273117D01*
X217534Y272415D01*
X216541Y271423D01*
X215840Y270207D01*
X215476Y268851D01*
Y267448D01*
X215840Y266092D01*
X216541Y264877D01*
X217534Y263884D01*
X218749Y263182D01*
X220105Y262819D01*
X221509D01*
X222865Y263182D01*
X224080Y263884D01*
X225073Y264877D01*
X225491Y265601D01*
X230650D01*
X231625Y265795D01*
X232452Y266347D01*
X244232Y278127D01*
X244784Y278954D01*
X244978Y279929D01*
Y302017D01*
X245606Y302645D01*
X251656D01*
X252631Y302839D01*
X253458Y303391D01*
X256931Y306864D01*
X258921D01*
X259168Y306913D01*
X263933D01*
Y316000D01*
X256421D01*
Y311962D01*
X255875D01*
X254900Y311768D01*
X254073Y311216D01*
X252584Y309727D01*
X252122Y309918D01*
Y316000D01*
X250915D01*
Y318541D01*
X250721Y319517D01*
X250168Y320344D01*
X249342Y320896D01*
X248577Y321048D01*
Y326008D01*
Y328567D01*
Y331126D01*
Y335685D01*
X249077Y336019D01*
X249486Y335849D01*
X250335Y335738D01*
X251183Y335849D01*
X251974Y336177D01*
X252653Y336698D01*
X254621Y338666D01*
X255142Y339345D01*
X255469Y340136D01*
X255581Y340984D01*
Y362638D01*
X255469Y363486D01*
X255142Y364277D01*
X254621Y364956D01*
X250358Y369219D01*
X250125Y370087D01*
X249598Y370999D01*
X248854Y371744D01*
X247942Y372271D01*
X247074Y372503D01*
X238873Y380704D01*
X238194Y381225D01*
X237403Y381552D01*
X236979Y381608D01*
X236555Y381664D01*
X225068D01*
X224080Y382651D01*
X222865Y383353D01*
X221509Y383717D01*
D02*
G37*
G36*
X269483Y368343D02*
X266283D01*
Y365143D01*
X266530D01*
X267395Y365375D01*
X268170Y365823D01*
X268803Y366456D01*
X269251Y367231D01*
X269483Y368096D01*
Y368343D01*
D02*
G37*
G36*
X265883D02*
X262683D01*
Y368096D01*
X262914Y367231D01*
X263362Y366456D01*
X263995Y365823D01*
X264770Y365375D01*
X265635Y365143D01*
X265883D01*
Y368343D01*
D02*
G37*
G36*
X475531Y363115D02*
X473763D01*
Y358940D01*
X479880D01*
X479757Y359872D01*
X479320Y360927D01*
X478625Y361833D01*
X477719Y362528D01*
X476664Y362965D01*
X475531Y363115D01*
D02*
G37*
G36*
X473363D02*
X471594D01*
X470462Y362965D01*
X469407Y362528D01*
X468501Y361833D01*
X467806Y360927D01*
X467369Y359872D01*
X467246Y358940D01*
X473363D01*
Y363115D01*
D02*
G37*
G36*
X479880Y358540D02*
X473763D01*
Y354366D01*
X475531D01*
X476664Y354515D01*
X477719Y354952D01*
X478625Y355647D01*
X479320Y356553D01*
X479757Y357608D01*
X479880Y358540D01*
D02*
G37*
G36*
X473363D02*
X467246D01*
X467369Y357608D01*
X467806Y356553D01*
X468501Y355647D01*
X469407Y354952D01*
X470462Y354515D01*
X471594Y354366D01*
X473363D01*
Y358540D01*
D02*
G37*
G36*
X362358Y360291D02*
X354847D01*
Y351205D01*
X362358D01*
Y353278D01*
X363820D01*
X363993Y353105D01*
X364791Y352644D01*
X365681Y352406D01*
X366602D01*
X367493Y352644D01*
X368291Y353105D01*
X368942Y353756D01*
X369403Y354555D01*
X369642Y355445D01*
Y356366D01*
X369403Y357257D01*
X368942Y358055D01*
X368291Y358706D01*
X367493Y359167D01*
X366602Y359405D01*
X365681D01*
X364791Y359167D01*
X363993Y358706D01*
X363662Y358376D01*
X362358D01*
Y360291D01*
D02*
G37*
G36*
X443461Y365606D02*
X435949D01*
Y363102D01*
X433996D01*
X433216Y362947D01*
X432554Y362505D01*
X430290Y360241D01*
X429848Y359580D01*
X429693Y358799D01*
Y354878D01*
X427583D01*
Y347001D01*
X427106D01*
X427106Y347001D01*
X426424Y346865D01*
X425845Y346478D01*
X425845Y346478D01*
X422754Y343388D01*
X422367Y342809D01*
X422231Y342126D01*
Y330709D01*
X422367Y330026D01*
X422754Y329447D01*
X425843Y326358D01*
Y321098D01*
X425605Y321000D01*
X425343Y320931D01*
X424579Y321372D01*
X423689Y321610D01*
X423251D01*
X422985Y321935D01*
Y327401D01*
X422985Y327402D01*
X422849Y328084D01*
X422463Y328663D01*
X422462Y328663D01*
X418458Y332668D01*
Y350350D01*
X418881Y350983D01*
X419075Y351959D01*
X418881Y352934D01*
X418328Y353761D01*
X415523Y356566D01*
X414696Y357119D01*
X413721Y357313D01*
X382224D01*
X381249Y357119D01*
X380422Y356566D01*
X375363Y351507D01*
X374810Y350680D01*
X374616Y349705D01*
Y337850D01*
X366605D01*
X366411Y338087D01*
X366358Y338344D01*
X366911Y339171D01*
X367097Y340106D01*
X369740Y342750D01*
X369879D01*
Y345905D01*
Y349061D01*
X366135D01*
Y346354D01*
X363608Y343827D01*
X363146Y344018D01*
Y349661D01*
X354059D01*
Y348454D01*
X352319D01*
Y349661D01*
X349832D01*
Y351205D01*
X350547D01*
Y360291D01*
X343035D01*
Y351205D01*
X344735D01*
Y349661D01*
X343232D01*
Y345754D01*
X332383Y334905D01*
X331898Y335035D01*
X330976D01*
X330086Y334797D01*
X329288Y334336D01*
X328636Y333684D01*
X328175Y332886D01*
X327937Y331996D01*
Y331813D01*
X327475Y331622D01*
X321357Y337739D01*
X320531Y338292D01*
X319555Y338486D01*
X274224D01*
X273249Y338292D01*
X272422Y337739D01*
X272211Y337423D01*
X271711Y337437D01*
Y337457D01*
X271111D01*
Y337930D01*
X267807D01*
Y338330D01*
X271111D01*
Y339416D01*
X269033D01*
X268490Y339778D01*
X267807Y339914D01*
X264252D01*
X264166Y340346D01*
X263966Y340644D01*
Y344395D01*
X264166Y344694D01*
X264360Y345669D01*
X264166Y346645D01*
X263613Y347472D01*
X262787Y348024D01*
X261811Y348218D01*
X260836Y348024D01*
X260009Y347472D01*
X259615Y347078D01*
X259062Y346251D01*
X258868Y345276D01*
Y339764D01*
X259062Y338788D01*
X259615Y337961D01*
X260009Y337568D01*
X260836Y337015D01*
X261811Y336821D01*
X261849Y336829D01*
X262368Y336481D01*
X263051Y336346D01*
X263051Y336346D01*
X263903D01*
Y333685D01*
Y331126D01*
Y328567D01*
Y326008D01*
Y323449D01*
Y320890D01*
Y318331D01*
X271711D01*
X272103Y318071D01*
X273944Y316229D01*
Y304138D01*
X273444Y303987D01*
X273062Y304558D01*
X272235Y305111D01*
X271260Y305305D01*
X270284Y305111D01*
X269457Y304558D01*
X269103Y304204D01*
X268551Y303377D01*
X268356Y302402D01*
Y300676D01*
X267454D01*
Y299098D01*
X270905D01*
Y298698D01*
X267454D01*
Y297120D01*
X268870D01*
X269020Y296947D01*
X268792Y296447D01*
X265084D01*
X264109Y296253D01*
X263282Y295700D01*
X261524Y293943D01*
X260972Y293116D01*
X260778Y292140D01*
Y275777D01*
X260972Y274802D01*
X261524Y273975D01*
X263282Y272217D01*
X263687Y271947D01*
X263535Y271447D01*
X260138D01*
X259162Y271253D01*
X258335Y270700D01*
X254044Y266409D01*
X253491Y265582D01*
X253297Y264606D01*
Y263638D01*
X252244D01*
Y266520D01*
X253500D01*
Y271276D01*
X250924D01*
X250773Y271776D01*
X251251Y272095D01*
X251268Y272120D01*
X252900D01*
Y273698D01*
X249449D01*
X245998D01*
Y272120D01*
X247630D01*
X247646Y272095D01*
X248125Y271776D01*
X247973Y271276D01*
X245398D01*
Y266520D01*
X247146D01*
Y263638D01*
X246185D01*
Y261643D01*
X243306D01*
X243094Y261856D01*
X242296Y262317D01*
X241406Y262555D01*
X240484D01*
X239594Y262317D01*
X238796Y261856D01*
X238144Y261204D01*
X237683Y260406D01*
X237445Y259516D01*
Y258594D01*
X237683Y257704D01*
X238144Y256906D01*
X238796Y256254D01*
X239594Y255794D01*
X240484Y255555D01*
X241406D01*
X242296Y255794D01*
X243094Y256254D01*
X243385Y256545D01*
X246185D01*
Y254551D01*
X247392D01*
Y252847D01*
X246185D01*
Y243760D01*
X253297D01*
Y242369D01*
X253033Y242105D01*
X251197D01*
X250951Y242056D01*
X246185D01*
Y239932D01*
X223537D01*
X223415Y240053D01*
X222447Y240612D01*
X221366Y240902D01*
X220248D01*
X219167Y240612D01*
X218199Y240053D01*
X217408Y239262D01*
X216848Y238293D01*
X216559Y237213D01*
Y236094D01*
X216848Y235014D01*
X217408Y234045D01*
X218199Y233254D01*
X219167Y232695D01*
X220248Y232405D01*
X221366D01*
X222447Y232695D01*
X223415Y233254D01*
X223537Y233376D01*
X246185D01*
Y232969D01*
X246663D01*
Y231515D01*
X246185D01*
Y222429D01*
X253697D01*
Y231515D01*
X253219D01*
Y232969D01*
X253697D01*
Y237007D01*
X254089D01*
X255065Y237201D01*
X255891Y237754D01*
X257649Y239511D01*
X258096Y240180D01*
X258596Y240029D01*
Y237713D01*
X264908D01*
Y241456D01*
X264778D01*
Y244360D01*
X264908D01*
Y245339D01*
X270018D01*
X270801Y245442D01*
X271531Y245744D01*
X272158Y246225D01*
X272218Y246286D01*
X272699Y246912D01*
X273002Y247642D01*
X273105Y248425D01*
X273002Y249208D01*
X272699Y249938D01*
X272218Y250565D01*
X271592Y251046D01*
X270862Y251348D01*
X270079Y251451D01*
X269617Y251390D01*
X264908D01*
Y252247D01*
X264778D01*
Y255151D01*
X264908D01*
Y256049D01*
X271110D01*
X271260Y256029D01*
X272043Y256132D01*
X272256Y256221D01*
X278144D01*
X278927Y256324D01*
X279657Y256626D01*
X280284Y257107D01*
X283242Y260065D01*
X283242Y260065D01*
X283723Y260692D01*
X284025Y261422D01*
X284128Y262205D01*
X284128Y262205D01*
Y263025D01*
X285380D01*
Y265981D01*
X281437D01*
X277494D01*
Y263025D01*
X277494Y263025D01*
X277494D01*
X277251Y262632D01*
X276891Y262272D01*
X271451D01*
X270668Y262169D01*
X270502Y262101D01*
X264908D01*
Y263038D01*
X261952D01*
Y259095D01*
X261552D01*
Y263038D01*
X258895D01*
X258596Y263038D01*
X258395Y263455D01*
Y263550D01*
X261194Y266349D01*
X270905D01*
X271765Y266520D01*
X274957D01*
Y271276D01*
X274957D01*
Y271520D01*
X274957D01*
Y276227D01*
X276894D01*
Y274236D01*
X285980D01*
Y281349D01*
X309518D01*
X309768Y280916D01*
X309672Y280749D01*
X309433Y279858D01*
Y278983D01*
X274320Y243869D01*
X273767Y243042D01*
X273573Y242067D01*
Y216230D01*
X273255Y215977D01*
X272791Y216181D01*
Y216602D01*
X272553Y217493D01*
X272092Y218291D01*
X271440Y218942D01*
X270642Y219403D01*
X269752Y219642D01*
X268831D01*
X267940Y219403D01*
X267142Y218942D01*
X266910Y218710D01*
X265508D01*
Y220724D01*
X257996D01*
Y211638D01*
X257616Y211348D01*
X254077D01*
X253697Y211638D01*
X253697Y211848D01*
Y220724D01*
X246185D01*
Y219459D01*
X240095D01*
X234363Y225192D01*
X233684Y225713D01*
X232893Y226040D01*
X232469Y226096D01*
X232045Y226152D01*
X223537D01*
X223415Y226273D01*
X222447Y226833D01*
X221366Y227122D01*
X220248D01*
X219167Y226833D01*
X218199Y226273D01*
X217408Y225482D01*
X216848Y224514D01*
X216559Y223433D01*
Y222315D01*
X216848Y221234D01*
X217408Y220266D01*
X218199Y219475D01*
X219167Y218916D01*
X220248Y218626D01*
X221366D01*
X222447Y218916D01*
X223415Y219475D01*
X223537Y219596D01*
X230687D01*
X236420Y213863D01*
X237099Y213342D01*
X237889Y213015D01*
X238738Y212903D01*
X245831D01*
X246185Y212549D01*
X246185Y211638D01*
X245805Y211348D01*
X234842D01*
X233867Y211154D01*
X233040Y210602D01*
X219424Y196985D01*
X218209Y197145D01*
X216920Y196975D01*
X215719Y196478D01*
X214687Y195686D01*
X213896Y194655D01*
X213399Y193454D01*
X213229Y192165D01*
Y188228D01*
X213399Y186940D01*
X213896Y185739D01*
X214687Y184707D01*
X215719Y183916D01*
X216920Y183418D01*
X218209Y183249D01*
X219497Y183418D01*
X220698Y183916D01*
X221730Y184707D01*
X222521Y185739D01*
X222938Y186745D01*
X223479D01*
X223896Y185739D01*
X224688Y184707D01*
X225719Y183916D01*
X226920Y183418D01*
X228209Y183249D01*
X229498Y183418D01*
X230698Y183916D01*
X231730Y184707D01*
X232521Y185739D01*
X233019Y186940D01*
X233188Y188228D01*
Y192165D01*
X233019Y193454D01*
X232521Y194655D01*
X231730Y195686D01*
X230698Y196478D01*
X229498Y196975D01*
X228209Y197145D01*
X227393Y197037D01*
X227159Y197511D01*
X235898Y206250D01*
X258035D01*
X258227Y205788D01*
X249424Y196985D01*
X248209Y197145D01*
X246920Y196975D01*
X245719Y196478D01*
X244688Y195686D01*
X243896Y194655D01*
X243399Y193454D01*
X243229Y192165D01*
Y188228D01*
X243399Y186940D01*
X243896Y185739D01*
X244688Y184707D01*
X245719Y183916D01*
X246920Y183418D01*
X248209Y183249D01*
X249498Y183418D01*
X250698Y183916D01*
X251730Y184707D01*
X252521Y185739D01*
X252938Y186745D01*
X253479D01*
X253896Y185739D01*
X254688Y184707D01*
X255719Y183916D01*
X256920Y183418D01*
X258209Y183249D01*
X259497Y183418D01*
X260699Y183916D01*
X261730Y184707D01*
X262521Y185739D01*
X262938Y186745D01*
X263479D01*
X263896Y185739D01*
X264687Y184707D01*
X265719Y183916D01*
X266920Y183418D01*
X268209Y183249D01*
X269497Y183418D01*
X270698Y183916D01*
X271730Y184707D01*
X272521Y185739D01*
X272938Y186745D01*
X273479D01*
X273896Y185739D01*
X274688Y184707D01*
X275719Y183916D01*
X276920Y183418D01*
X278209Y183249D01*
X279498Y183418D01*
X280698Y183916D01*
X281730Y184707D01*
X282521Y185739D01*
X282938Y186745D01*
X283479D01*
X283896Y185739D01*
X284687Y184707D01*
X285719Y183916D01*
X286920Y183418D01*
X288209Y183249D01*
X289497Y183418D01*
X290699Y183916D01*
X291730Y184707D01*
X292521Y185739D01*
X293019Y186940D01*
X293188Y188228D01*
Y192165D01*
X293019Y193454D01*
X292521Y194655D01*
X291730Y195686D01*
X290699Y196478D01*
X289497Y196975D01*
X288209Y197145D01*
X286920Y196975D01*
X285719Y196478D01*
X284687Y195686D01*
X283896Y194655D01*
X283479Y193649D01*
X282938D01*
X282521Y194655D01*
X281730Y195686D01*
X280698Y196478D01*
X279498Y196975D01*
X278209Y197145D01*
X276920Y196975D01*
X275719Y196478D01*
X274688Y195686D01*
X273896Y194655D01*
X273479Y193649D01*
X272938D01*
X272521Y194655D01*
X271730Y195686D01*
X270698Y196478D01*
X269497Y196975D01*
X268209Y197145D01*
X267393Y197037D01*
X267159Y197511D01*
X269098Y199450D01*
X272654D01*
X273629Y199644D01*
X274456Y200197D01*
X284762Y210503D01*
X285315Y211329D01*
X285509Y212305D01*
Y238232D01*
X306937Y259660D01*
X311717D01*
X312693Y259854D01*
X313520Y260407D01*
X323274Y270161D01*
X323630D01*
X324520Y270400D01*
X325318Y270861D01*
X325970Y271512D01*
X326431Y272310D01*
X326533Y272690D01*
X327015Y272819D01*
X327976Y271859D01*
X328803Y271306D01*
X329778Y271112D01*
X336752D01*
X336773Y271117D01*
X338437Y269453D01*
X338230Y268953D01*
X333390D01*
Y267825D01*
X331613D01*
X331283Y268155D01*
X330485Y268616D01*
X329595Y268854D01*
X328673D01*
X327783Y268616D01*
X326985Y268155D01*
X326333Y267503D01*
X325872Y266705D01*
X325634Y265815D01*
Y264894D01*
X325872Y264003D01*
X326333Y263205D01*
X326985Y262554D01*
X327783Y262093D01*
X328673Y261854D01*
X329595D01*
X330485Y262093D01*
X331283Y262554D01*
X331456Y262727D01*
X333390D01*
Y261441D01*
X342476D01*
Y262677D01*
X342988D01*
X343429Y262535D01*
Y257976D01*
X346983D01*
X347095Y257901D01*
X348071Y257707D01*
X356385D01*
X358419Y255673D01*
X358212Y255173D01*
X357012D01*
Y253868D01*
X349533D01*
X348557Y253674D01*
X347730Y253121D01*
X345973Y251364D01*
X345421Y250537D01*
X345227Y249562D01*
Y246118D01*
X344020D01*
Y237981D01*
X343520Y237608D01*
X342981Y237752D01*
X342605D01*
X339721Y240636D01*
Y246118D01*
X332209D01*
Y237032D01*
X336116D01*
X339020Y234127D01*
Y233791D01*
X339258Y232901D01*
X339719Y232103D01*
X340371Y231451D01*
X341169Y230991D01*
X341806Y230820D01*
X342986Y229639D01*
Y225114D01*
X343035Y224868D01*
Y219315D01*
X344242D01*
Y217575D01*
X343035D01*
Y208488D01*
X350547D01*
Y213809D01*
X355799D01*
X356775Y214003D01*
X356888Y214079D01*
X359801D01*
Y218638D01*
X360230Y218809D01*
X364072D01*
X364567Y218711D01*
X365542Y218905D01*
X366369Y219457D01*
X371201Y224289D01*
X371842Y224417D01*
X372652Y224958D01*
X372878Y224914D01*
X373152Y224831D01*
Y224079D01*
X373151Y224079D01*
Y223638D01*
X373152D01*
X373152Y223579D01*
Y219079D01*
X373151D01*
Y218638D01*
X373152D01*
Y214079D01*
X374853D01*
Y212244D01*
X375047Y211269D01*
X375599Y210442D01*
X377469Y208572D01*
X378296Y208019D01*
X379272Y207825D01*
X382405D01*
Y207170D01*
X374401D01*
X374401Y207170D01*
X373718Y207034D01*
X373140Y206647D01*
X373140Y206647D01*
X369028Y202536D01*
X363760D01*
X362963Y202378D01*
X362287Y201926D01*
X361835Y201250D01*
X361677Y200453D01*
X361835Y199655D01*
X362287Y198980D01*
X362963Y198528D01*
X363760Y198369D01*
X369468D01*
X370266Y198528D01*
X370550Y198718D01*
X371050Y198451D01*
Y197508D01*
X370154D01*
X369882Y197454D01*
X369468Y197536D01*
X363760D01*
X362963Y197378D01*
X362287Y196926D01*
X361835Y196250D01*
X361677Y195453D01*
X361835Y194656D01*
X362287Y193980D01*
X362963Y193528D01*
X363760Y193369D01*
X369468D01*
X370266Y193528D01*
X370882Y193939D01*
X371956D01*
X372639Y194075D01*
X373218Y194462D01*
X374096Y195341D01*
X374453Y195875D01*
X374581Y195956D01*
X374963Y196072D01*
X375016Y196018D01*
X375814Y195557D01*
X376705Y195319D01*
X376757D01*
X376948Y194857D01*
X374328Y192237D01*
X370476D01*
X370266Y192377D01*
X369468Y192536D01*
X363760D01*
X362963Y192377D01*
X362287Y191926D01*
X361835Y191250D01*
X361677Y190453D01*
X361835Y189655D01*
X362287Y188980D01*
X362963Y188528D01*
X363760Y188369D01*
X369468D01*
X370266Y188528D01*
X370476Y188669D01*
X375067D01*
X375750Y188804D01*
X376329Y189191D01*
X381186Y194048D01*
X381683Y193999D01*
X381696Y193980D01*
X382372Y193528D01*
X383169Y193369D01*
X388466D01*
X388673Y192869D01*
X388339Y192536D01*
X383169D01*
X382372Y192377D01*
X381696Y191926D01*
X381244Y191250D01*
X381086Y190453D01*
X381244Y189655D01*
X381696Y188980D01*
X382372Y188528D01*
X383169Y188369D01*
X388878D01*
X389675Y188528D01*
X390351Y188980D01*
X390803Y189655D01*
X390877Y190026D01*
X392906Y192055D01*
X409748D01*
X409863Y191917D01*
X409628Y191417D01*
X406206D01*
X405423Y191314D01*
X404693Y191012D01*
X404689Y191008D01*
X396742D01*
X395959Y190905D01*
X395928Y190892D01*
X392750D01*
Y188133D01*
X396693D01*
Y187733D01*
X392750D01*
Y187497D01*
X392489Y187237D01*
X386024D01*
X385341Y187101D01*
X385076Y186924D01*
X383169D01*
X382606Y186812D01*
X382129Y186493D01*
X381810Y186016D01*
X381737Y185653D01*
X386024D01*
Y185253D01*
X381737D01*
X381810Y184890D01*
X382129Y184412D01*
X382606Y184093D01*
X383169Y183981D01*
X385076D01*
X385341Y183804D01*
X386024Y183668D01*
X393228D01*
X393911Y183804D01*
X394490Y184191D01*
X395273Y184974D01*
X396185D01*
X396693Y184907D01*
X397067Y184956D01*
X405797D01*
X406580Y185059D01*
X406612Y185073D01*
X409790D01*
Y185365D01*
X415163D01*
X415946Y185469D01*
X416676Y185771D01*
X417303Y186252D01*
X417494Y186443D01*
X417975Y187070D01*
X418277Y187800D01*
X418380Y188583D01*
X418277Y189366D01*
X417975Y190096D01*
X417494Y190722D01*
X416867Y191203D01*
X416138Y191506D01*
X415354Y191609D01*
X414571Y191506D01*
X414358Y191417D01*
X413626D01*
X413474Y191917D01*
X413654Y192037D01*
X418279Y196662D01*
X418831Y197489D01*
X419025Y198465D01*
Y226149D01*
X426894Y234018D01*
X427770Y233784D01*
X429199D01*
X430580Y234154D01*
X431818Y234868D01*
X432829Y235879D01*
X433543Y237117D01*
X433913Y238498D01*
Y239927D01*
X433543Y241308D01*
X432829Y242546D01*
X431818Y243557D01*
X430580Y244272D01*
X429199Y244642D01*
X429232Y245128D01*
X451247D01*
X454725Y241650D01*
X454528Y241308D01*
X454157Y239927D01*
Y238498D01*
X454528Y237117D01*
X455242Y235879D01*
X456253Y234868D01*
X457491Y234154D01*
X458872Y233784D01*
X460301D01*
X461682Y234154D01*
X462920Y234868D01*
X463931Y235879D01*
X464646Y237117D01*
X465016Y238498D01*
Y239927D01*
X464646Y241308D01*
X463931Y242546D01*
X462920Y243557D01*
X461682Y244272D01*
X460301Y244642D01*
X458943D01*
X455286Y248300D01*
X455286Y248300D01*
X454106Y249480D01*
X453279Y250032D01*
X452303Y250226D01*
X424744D01*
X423769Y250032D01*
X422942Y249480D01*
X410892Y237430D01*
X410339Y236603D01*
X410145Y235627D01*
Y226496D01*
X409683Y226305D01*
X408477Y227511D01*
Y239025D01*
X420888Y251435D01*
X421274Y252014D01*
X421410Y252697D01*
X421410Y252697D01*
Y266559D01*
X423382D01*
Y275646D01*
X415870D01*
X415603Y276035D01*
Y276996D01*
X415870Y277386D01*
X423382D01*
Y285387D01*
X424373D01*
X426700Y283060D01*
Y281551D01*
X424728D01*
Y272465D01*
X432240D01*
Y280213D01*
X432702Y280404D01*
X433048Y280058D01*
Y273415D01*
X433184Y272732D01*
X433571Y272154D01*
X435589Y270136D01*
X435589Y270136D01*
X436168Y269749D01*
X436850Y269613D01*
X443347D01*
X444029Y269749D01*
X444608Y270136D01*
X446717Y272245D01*
X447179Y272053D01*
Y270318D01*
X450922D01*
Y273274D01*
X448142D01*
X447732Y273774D01*
X447788Y274055D01*
Y278173D01*
X455665D01*
Y282871D01*
X456127Y283062D01*
X456818Y282371D01*
Y278799D01*
X456954Y278116D01*
X457341Y277537D01*
X461337Y273541D01*
X461337Y273541D01*
X461916Y273155D01*
X462598Y273019D01*
X462599Y273019D01*
X482074D01*
X482484Y272519D01*
X482430Y272244D01*
X482487Y271955D01*
X482077Y271455D01*
X479839D01*
Y271472D01*
X472917D01*
Y265535D01*
X479839D01*
Y267886D01*
X484132D01*
X484252Y267863D01*
X487992D01*
X488690Y268001D01*
X489281Y268396D01*
X489676Y268988D01*
X489815Y269685D01*
X489757Y269974D01*
X489970Y270462D01*
X490123Y270503D01*
X490658Y270610D01*
X491237Y270997D01*
X492206Y271967D01*
X492207Y271967D01*
X492210Y271972D01*
X492710Y271820D01*
Y270279D01*
X496654D01*
X500597D01*
Y274219D01*
X499202D01*
Y275387D01*
X500597D01*
Y279328D01*
X496654D01*
Y279728D01*
X500597D01*
Y283668D01*
X499202D01*
Y285966D01*
X499597Y286230D01*
X500077Y286948D01*
X500206Y287595D01*
X496654D01*
Y287995D01*
X500206D01*
X500077Y288643D01*
X499597Y289361D01*
X498879Y289841D01*
X498032Y290009D01*
X497840D01*
X497629Y290150D01*
X496654Y290344D01*
X496131Y290240D01*
X489811D01*
X489668Y290455D01*
X489080Y290848D01*
X488386Y290986D01*
X487208D01*
Y287402D01*
X487008D01*
Y287202D01*
X483817D01*
Y285630D01*
X483955Y284936D01*
X484348Y284348D01*
X484550Y284213D01*
X484398Y283713D01*
X479386D01*
X475971Y287128D01*
X475392Y287515D01*
X474709Y287650D01*
X460855D01*
X452880Y295625D01*
X453072Y296087D01*
X459799D01*
Y297014D01*
X460232Y297264D01*
X460460Y297132D01*
X461350Y296894D01*
X462272D01*
X463162Y297132D01*
X463960Y297593D01*
X464198Y297831D01*
X464698Y297624D01*
Y296687D01*
X467654D01*
Y300630D01*
X467854D01*
Y300830D01*
X471010D01*
Y304573D01*
X470880D01*
Y307513D01*
X471010D01*
Y308431D01*
X477260D01*
X477559Y308391D01*
X478342Y308494D01*
X479072Y308797D01*
X479699Y309278D01*
X480180Y309904D01*
X480482Y310634D01*
X480585Y311417D01*
X480482Y312200D01*
X480180Y312930D01*
X479699Y313557D01*
X479659Y313596D01*
X479033Y314077D01*
X478303Y314380D01*
X477520Y314483D01*
X471010D01*
Y315400D01*
X468054D01*
Y311457D01*
X467854D01*
Y311257D01*
X464698D01*
Y307513D01*
X464828D01*
Y304573D01*
X464698D01*
Y303163D01*
X464198Y302956D01*
X463960Y303194D01*
X463162Y303655D01*
X462272Y303894D01*
X461350D01*
X460460Y303655D01*
X460232Y303524D01*
X459799Y303774D01*
Y305173D01*
X458592D01*
Y306913D01*
X459799D01*
Y316000D01*
X454201D01*
X453884Y316387D01*
X453936Y316653D01*
X453936Y316653D01*
Y318684D01*
X454083Y318830D01*
X454084Y318830D01*
X454470Y319409D01*
X454606Y320092D01*
X454470Y320775D01*
X454084Y321354D01*
X453467Y321970D01*
X452888Y322357D01*
X452205Y322493D01*
X449857D01*
X449447Y322993D01*
X449502Y323268D01*
X449355Y324004D01*
X448992Y324547D01*
X449355Y325091D01*
X449502Y325827D01*
X449355Y326563D01*
X448938Y327186D01*
X448315Y327603D01*
X447579Y327750D01*
X443282D01*
X443075Y328250D01*
X443574Y328749D01*
X444127Y329576D01*
X444321Y330551D01*
Y332898D01*
X445921D01*
Y340803D01*
X437622D01*
Y332898D01*
X439223D01*
Y331607D01*
X437706Y330090D01*
X437153Y329263D01*
X436959Y328287D01*
Y316590D01*
X436497Y316399D01*
X434970Y317926D01*
Y332799D01*
X435882D01*
Y340705D01*
X428458D01*
X428267Y341167D01*
X428632Y341532D01*
X447366D01*
Y334866D01*
X456453D01*
Y336073D01*
X460657D01*
X466775Y329955D01*
X466615Y328740D01*
X466785Y327451D01*
X467282Y326250D01*
X468073Y325219D01*
X469105Y324428D01*
X470306Y323930D01*
X471594Y323761D01*
X475531D01*
X476820Y323930D01*
X478021Y324428D01*
X479053Y325219D01*
X479844Y326250D01*
X480341Y327451D01*
X480511Y328740D01*
X480341Y330029D01*
X479844Y331230D01*
X479053Y332261D01*
X478021Y333053D01*
X477015Y333470D01*
Y334011D01*
X478021Y334428D01*
X479053Y335219D01*
X479844Y336250D01*
X480341Y337451D01*
X480511Y338740D01*
X480341Y340029D01*
X479844Y341230D01*
X479053Y342261D01*
X478021Y343053D01*
X477015Y343470D01*
Y344011D01*
X478021Y344428D01*
X479053Y345219D01*
X479844Y346250D01*
X480341Y347451D01*
X480511Y348740D01*
X480341Y350029D01*
X479844Y351230D01*
X479053Y352261D01*
X478021Y353053D01*
X476820Y353550D01*
X475531Y353720D01*
X471594D01*
X470306Y353550D01*
X469105Y353053D01*
X468073Y352261D01*
X467282Y351230D01*
X466785Y350029D01*
X466615Y348740D01*
X466700Y348094D01*
X465607Y347001D01*
X456453D01*
Y354189D01*
X447366D01*
Y353277D01*
X445921D01*
Y354976D01*
X437622D01*
Y347071D01*
X437151Y347001D01*
X435882D01*
Y354878D01*
X433772D01*
Y357955D01*
X434841Y359024D01*
X435949D01*
Y356520D01*
X443461D01*
Y365606D01*
D02*
G37*
G36*
X374022Y349061D02*
X370279D01*
Y346106D01*
X374022D01*
Y349061D01*
D02*
G37*
G36*
Y345706D02*
X370279D01*
Y342750D01*
X374022D01*
Y345706D01*
D02*
G37*
G36*
X467654Y315400D02*
X464698D01*
Y311657D01*
X467654D01*
Y315400D01*
D02*
G37*
G36*
X471010Y300430D02*
X468054D01*
Y296687D01*
X471010D01*
Y300430D01*
D02*
G37*
G36*
X249449Y301447D02*
X248473Y301253D01*
X247646Y300700D01*
X247630Y300676D01*
X245998D01*
Y299098D01*
X249449D01*
Y298698D01*
X245998D01*
Y297120D01*
X246900D01*
Y295676D01*
X245998D01*
Y294098D01*
X249449D01*
X252900D01*
Y295676D01*
X251998D01*
Y296309D01*
X258070D01*
X258268Y296270D01*
X259243Y296464D01*
X260070Y297017D01*
X260623Y297843D01*
X260817Y298819D01*
X260623Y299794D01*
X260070Y300621D01*
X260031Y300661D01*
X259204Y301213D01*
X258228Y301407D01*
X249647D01*
X249449Y301447D01*
D02*
G37*
G36*
X252900Y293698D02*
X249449D01*
X245998D01*
Y292120D01*
X246900D01*
Y290676D01*
X245998D01*
Y289098D01*
X249449D01*
X252900D01*
Y290676D01*
X251998D01*
Y292120D01*
X252900D01*
Y293698D01*
D02*
G37*
G36*
X486808Y290986D02*
X485630D01*
X484936Y290848D01*
X484348Y290455D01*
X483955Y289867D01*
X483817Y289173D01*
Y287602D01*
X486808D01*
Y290986D01*
D02*
G37*
G36*
X252900Y288698D02*
X249449D01*
X245998D01*
Y287120D01*
X246900D01*
Y285676D01*
X245998D01*
Y284098D01*
X249449D01*
X252900D01*
Y285676D01*
X251998D01*
Y287120D01*
X252900D01*
Y288698D01*
D02*
G37*
G36*
Y283698D02*
X249449D01*
X245998D01*
Y282120D01*
X246900D01*
Y280676D01*
X245998D01*
Y279098D01*
X249449D01*
X252900D01*
Y280676D01*
X251998D01*
Y282120D01*
X252900D01*
Y283698D01*
D02*
G37*
G36*
Y278698D02*
X249449D01*
X245998D01*
Y277120D01*
X246900D01*
Y275676D01*
X245998D01*
Y274098D01*
X249449D01*
X252900D01*
Y275676D01*
X251998D01*
Y277120D01*
X252900D01*
Y278698D01*
D02*
G37*
G36*
X455065Y273274D02*
X451322D01*
Y270318D01*
X455065D01*
Y273274D01*
D02*
G37*
G36*
Y269918D02*
X451322D01*
Y266962D01*
X455065D01*
Y269918D01*
D02*
G37*
G36*
X450922D02*
X447179D01*
Y266962D01*
X450922D01*
Y269918D01*
D02*
G37*
G36*
X285380Y269337D02*
X281637D01*
Y266381D01*
X285380D01*
Y269337D01*
D02*
G37*
G36*
X281237D02*
X277494D01*
Y266381D01*
X281237D01*
Y269337D01*
D02*
G37*
G36*
X500597Y269879D02*
X496654D01*
X492710D01*
Y265939D01*
X494105D01*
Y264754D01*
X490005D01*
X489668Y265258D01*
X489080Y265651D01*
X488386Y265789D01*
X487208D01*
Y262205D01*
X486808D01*
Y265789D01*
X485630D01*
X484936Y265651D01*
X484348Y265258D01*
X483955Y264670D01*
X483817Y263976D01*
Y263179D01*
X476378D01*
X475471Y262998D01*
X473517D01*
Y260830D01*
X476378D01*
Y260430D01*
X473517D01*
Y258261D01*
X475471D01*
X476378Y258081D01*
X485752D01*
X486727Y258275D01*
X487244Y258620D01*
X488386D01*
X489080Y258758D01*
X489668Y259151D01*
X490005Y259656D01*
X493854D01*
X494153Y259456D01*
X495129Y259262D01*
X496654D01*
X497629Y259456D01*
X497840Y259597D01*
X498032D01*
X498879Y259765D01*
X499597Y260245D01*
X500077Y260964D01*
X500206Y261611D01*
X496654D01*
Y262011D01*
X500206D01*
X500077Y262658D01*
X499597Y263377D01*
X499202Y263640D01*
Y265939D01*
X500597D01*
Y269879D01*
D02*
G37*
G36*
X341876Y256542D02*
X338133D01*
Y253586D01*
X341876D01*
Y256542D01*
D02*
G37*
G36*
Y253186D02*
X338133D01*
Y250230D01*
X341876D01*
Y253186D01*
D02*
G37*
G36*
X324951Y256880D02*
X324410D01*
X323434Y256686D01*
X322607Y256133D01*
X322410Y255936D01*
X321858Y255109D01*
X321664Y254134D01*
Y250400D01*
X320072D01*
Y247444D01*
X324016D01*
X327959D01*
Y250400D01*
X327959D01*
X328111Y250837D01*
X333990D01*
Y250230D01*
X337733D01*
Y253386D01*
Y256542D01*
X333990D01*
Y255935D01*
X326951D01*
X326753Y256133D01*
X325926Y256686D01*
X324951Y256880D01*
D02*
G37*
G36*
X327959Y247044D02*
X324216D01*
Y244088D01*
X327959D01*
Y247044D01*
D02*
G37*
G36*
X323816D02*
X320072D01*
Y244088D01*
X323816D01*
Y247044D01*
D02*
G37*
G36*
X264908Y237313D02*
X258596D01*
Y233570D01*
X258726D01*
Y230915D01*
X258596D01*
Y227172D01*
X261752D01*
X264908D01*
Y230915D01*
X264778D01*
Y233570D01*
X264908D01*
Y237313D01*
D02*
G37*
G36*
X335433Y235226D02*
X334458Y235032D01*
X333631Y234480D01*
X333404Y234253D01*
X332852Y233426D01*
X332658Y232451D01*
Y227802D01*
X331824D01*
Y224058D01*
X334980D01*
X338136D01*
Y227802D01*
X337756D01*
Y231653D01*
X337788Y231702D01*
X337982Y232677D01*
X337788Y233653D01*
X337235Y234480D01*
X336408Y235032D01*
X335433Y235226D01*
D02*
G37*
G36*
X264908Y226772D02*
X261952D01*
Y223029D01*
X264908D01*
Y226772D01*
D02*
G37*
G36*
X261552D02*
X258596D01*
Y223029D01*
X261552D01*
Y226772D01*
D02*
G37*
G36*
X328559Y239189D02*
X319472D01*
Y231677D01*
X321467D01*
Y229150D01*
X319866D01*
Y221244D01*
X328165D01*
Y229150D01*
X326565D01*
Y231677D01*
X328559D01*
Y239189D01*
D02*
G37*
G36*
X300969Y235665D02*
X299031D01*
X298932Y235646D01*
X298832D01*
X296930Y235267D01*
X296837Y235229D01*
X296739Y235209D01*
X294948Y234468D01*
X294864Y234412D01*
X294771Y234373D01*
X293159Y233296D01*
X293088Y233225D01*
X293005Y233169D01*
X291634Y231798D01*
X291578Y231715D01*
X291507Y231644D01*
X290430Y230032D01*
X290391Y229939D01*
X290336Y229855D01*
X289594Y228064D01*
X289574Y227966D01*
X289536Y227873D01*
X289158Y225972D01*
Y225871D01*
X289138Y225773D01*
Y223834D01*
X289158Y223735D01*
Y223635D01*
X289536Y221733D01*
X289574Y221640D01*
X289594Y221542D01*
X290336Y219751D01*
X290391Y219667D01*
X290430Y219574D01*
X291507Y217962D01*
X291578Y217891D01*
X291634Y217808D01*
X293005Y216437D01*
X293088Y216381D01*
X293159Y216310D01*
X294771Y215233D01*
X294864Y215195D01*
X294948Y215139D01*
X296739Y214397D01*
X296837Y214377D01*
X296930Y214339D01*
X298832Y213961D01*
X298932D01*
X299031Y213941D01*
X300969D01*
X301068Y213961D01*
X301168D01*
X303070Y214339D01*
X303163Y214377D01*
X303261Y214397D01*
X305052Y215139D01*
X305136Y215195D01*
X305229Y215233D01*
X306841Y216310D01*
X306912Y216381D01*
X306995Y216437D01*
X308366Y217808D01*
X308422Y217891D01*
X308493Y217962D01*
X309570Y219574D01*
X309609Y219667D01*
X309664Y219751D01*
X310406Y221542D01*
X310426Y221640D01*
X310464Y221733D01*
X310842Y223635D01*
Y223735D01*
X310862Y223834D01*
Y225773D01*
X310842Y225871D01*
Y225972D01*
X310464Y227873D01*
X310426Y227966D01*
X310406Y228064D01*
X309664Y229855D01*
X309609Y229939D01*
X309570Y230032D01*
X308493Y231644D01*
X308422Y231715D01*
X308366Y231798D01*
X306995Y233169D01*
X306912Y233225D01*
X306841Y233296D01*
X305229Y234373D01*
X305136Y234412D01*
X305052Y234468D01*
X303261Y235209D01*
X303163Y235229D01*
X303070Y235267D01*
X301168Y235646D01*
X301068D01*
X300969Y235665D01*
D02*
G37*
G36*
X338136Y223658D02*
X334980D01*
X331824D01*
Y219915D01*
X332431D01*
Y216975D01*
X331824D01*
Y213231D01*
X338136D01*
Y216975D01*
X337529D01*
Y219915D01*
X338136D01*
Y223658D01*
D02*
G37*
G36*
Y212831D02*
X335180D01*
Y209088D01*
X338136D01*
Y212831D01*
D02*
G37*
G36*
X334780D02*
X331824D01*
Y209088D01*
X334780D01*
Y212831D01*
D02*
G37*
G36*
X311758Y203924D02*
X305653D01*
Y200574D01*
X311758D01*
Y203924D01*
D02*
G37*
G36*
X305253D02*
X299147D01*
Y200574D01*
X305253D01*
Y203924D01*
D02*
G37*
G36*
X444657Y205173D02*
X443413D01*
X442193Y204930D01*
X441044Y204454D01*
X440010Y203763D01*
X439130Y202884D01*
X438439Y201850D01*
X437963Y200700D01*
X437720Y199480D01*
Y198236D01*
X437963Y197016D01*
X438439Y195867D01*
X439130Y194833D01*
X440010Y193953D01*
X441044Y193262D01*
X442193Y192786D01*
X443413Y192543D01*
X444657D01*
X445877Y192786D01*
X447027Y193262D01*
X448061Y193953D01*
X448941Y194833D01*
X449632Y195867D01*
X450108Y197016D01*
X450350Y198236D01*
Y199480D01*
X450108Y200700D01*
X449632Y201850D01*
X448941Y202884D01*
X448061Y203763D01*
X447027Y204454D01*
X445877Y204930D01*
X444657Y205173D01*
D02*
G37*
G36*
X238409Y196513D02*
Y190397D01*
X242583D01*
Y192165D01*
X242434Y193298D01*
X241997Y194353D01*
X241302Y195258D01*
X240396Y195954D01*
X239341Y196391D01*
X238409Y196513D01*
D02*
G37*
G36*
X238009D02*
X237076Y196391D01*
X236021Y195954D01*
X235116Y195258D01*
X234420Y194353D01*
X233983Y193298D01*
X233834Y192165D01*
Y190397D01*
X238009D01*
Y196513D01*
D02*
G37*
G36*
X328165Y214976D02*
X319866D01*
Y207071D01*
X321467D01*
Y203795D01*
X320161D01*
Y178961D01*
X346571D01*
Y196309D01*
X347957D01*
Y195102D01*
X352041D01*
X352071Y195011D01*
X352140Y194602D01*
X351681Y194003D01*
X351378Y193273D01*
X351275Y192490D01*
Y190203D01*
X348557D01*
Y187247D01*
X354272D01*
X359987D01*
Y190203D01*
X357327D01*
Y192295D01*
X357357Y192520D01*
X357254Y193303D01*
X356951Y194033D01*
X356514Y194602D01*
X356627Y195102D01*
X360587D01*
Y202614D01*
X357281D01*
X357277Y203114D01*
X357525Y203363D01*
X357986Y204161D01*
X358224Y205051D01*
Y205973D01*
X357986Y206863D01*
X357525Y207661D01*
X356873Y208313D01*
X356075Y208773D01*
X355185Y209012D01*
X354264D01*
X353374Y208773D01*
X352575Y208313D01*
X351924Y207661D01*
X351463Y206863D01*
X351224Y205973D01*
Y205051D01*
X351463Y204161D01*
X351924Y203363D01*
X352172Y203114D01*
X352168Y202614D01*
X347957D01*
Y201407D01*
X346571D01*
Y203795D01*
X326565D01*
Y207071D01*
X328165D01*
Y214976D01*
D02*
G37*
G36*
X359987Y186847D02*
X354472D01*
Y183891D01*
X359987D01*
Y186847D01*
D02*
G37*
G36*
X354072D02*
X348557D01*
Y183891D01*
X354072D01*
Y186847D01*
D02*
G37*
G36*
X242583Y189997D02*
X238409D01*
Y183880D01*
X239341Y184003D01*
X240396Y184440D01*
X241302Y185135D01*
X241997Y186041D01*
X242434Y187096D01*
X242583Y188228D01*
Y189997D01*
D02*
G37*
G36*
X238009D02*
X233834D01*
Y188228D01*
X233983Y187096D01*
X234420Y186041D01*
X235116Y185135D01*
X236021Y184440D01*
X237076Y184003D01*
X238009Y183880D01*
Y189997D01*
D02*
G37*
G36*
X369468Y187536D02*
X363760D01*
X362963Y187378D01*
X362287Y186926D01*
X361835Y186250D01*
X361677Y185453D01*
X361835Y184655D01*
X362287Y183980D01*
X362963Y183528D01*
X363760Y183369D01*
X369468D01*
X370266Y183528D01*
X370942Y183980D01*
X371393Y184655D01*
X371552Y185453D01*
X371393Y186250D01*
X370942Y186926D01*
X370266Y187378D01*
X369468Y187536D01*
D02*
G37*
G36*
X311758Y200174D02*
X305453D01*
X299147D01*
Y196824D01*
X302259D01*
Y194245D01*
X302195Y194090D01*
X302092Y193307D01*
X302195Y192524D01*
X302498Y191794D01*
X302978Y191167D01*
X303605Y190687D01*
X304335Y190384D01*
X305118Y190281D01*
X305901Y190384D01*
X306108Y190470D01*
X306520Y190099D01*
X306343Y189437D01*
Y188516D01*
X306581Y187625D01*
X306924Y187031D01*
X306671Y186537D01*
X306664Y186531D01*
X298547D01*
Y178232D01*
X312358D01*
Y183864D01*
X312391Y184031D01*
Y186576D01*
X312643Y186827D01*
X313104Y187625D01*
X313342Y188516D01*
Y189437D01*
X313104Y190327D01*
X312643Y191125D01*
X311992Y191777D01*
X311193Y192238D01*
X310303Y192476D01*
X309382D01*
X308570Y192259D01*
X308358Y192413D01*
X308187Y192639D01*
X308208Y192691D01*
X308311Y193474D01*
Y196824D01*
X311758D01*
Y200174D01*
D02*
G37*
G36*
X490340Y193933D02*
X488401D01*
X488302Y193913D01*
X488202D01*
X486300Y193535D01*
X486207Y193497D01*
X486109Y193477D01*
X484318Y192735D01*
X484234Y192679D01*
X484141Y192641D01*
X482529Y191564D01*
X482458Y191493D01*
X482375Y191437D01*
X481004Y190066D01*
X480948Y189983D01*
X480877Y189912D01*
X479800Y188300D01*
X479762Y188207D01*
X479706Y188123D01*
X478964Y186332D01*
X478944Y186233D01*
X478906Y186141D01*
X478528Y184239D01*
Y184139D01*
X478508Y184040D01*
Y182102D01*
X478528Y182003D01*
Y181903D01*
X478906Y180001D01*
X478944Y179908D01*
X478964Y179810D01*
X479706Y178018D01*
X479762Y177935D01*
X479800Y177842D01*
X480877Y176230D01*
X480948Y176159D01*
X481004Y176076D01*
X482375Y174705D01*
X482458Y174649D01*
X482529Y174578D01*
X484141Y173501D01*
X484234Y173462D01*
X484318Y173407D01*
X486109Y172665D01*
X486207Y172645D01*
X486300Y172607D01*
X488202Y172228D01*
X488302D01*
X488401Y172209D01*
X490340D01*
X490438Y172228D01*
X490538D01*
X492440Y172607D01*
X492533Y172645D01*
X492631Y172665D01*
X494422Y173407D01*
X494506Y173462D01*
X494599Y173501D01*
X496211Y174578D01*
X496282Y174649D01*
X496365Y174705D01*
X497736Y176076D01*
X497792Y176159D01*
X497863Y176230D01*
X498940Y177842D01*
X498979Y177935D01*
X499034Y178018D01*
X499776Y179810D01*
X499796Y179908D01*
X499834Y180001D01*
X500213Y181903D01*
Y182003D01*
X500232Y182102D01*
Y184040D01*
X500213Y184139D01*
Y184239D01*
X499834Y186141D01*
X499796Y186233D01*
X499776Y186332D01*
X499034Y188123D01*
X498979Y188207D01*
X498940Y188300D01*
X497863Y189912D01*
X497792Y189983D01*
X497736Y190066D01*
X496365Y191437D01*
X496282Y191493D01*
X496211Y191564D01*
X494599Y192641D01*
X494506Y192679D01*
X494422Y192735D01*
X492631Y193477D01*
X492533Y193497D01*
X492440Y193535D01*
X490538Y193913D01*
X490438D01*
X490340Y193933D01*
D02*
G37*
%LPD*%
G36*
X414723Y350156D02*
X414889Y350045D01*
Y346165D01*
X414389Y346014D01*
X414243Y346232D01*
X411881Y348594D01*
X411054Y349146D01*
X410587Y349239D01*
Y351433D01*
X403075D01*
Y347084D01*
X402575Y346877D01*
X400759Y348692D01*
X399932Y349245D01*
X398957Y349439D01*
X398776D01*
Y351433D01*
X391264D01*
Y343111D01*
X390110D01*
X389991Y343288D01*
X389769Y343510D01*
Y345634D01*
X389575Y346609D01*
X389120Y347290D01*
Y350046D01*
X385377D01*
Y346890D01*
X384977D01*
Y350046D01*
X381818D01*
X381611Y350546D01*
X383280Y352215D01*
X412665D01*
X414723Y350156D01*
D02*
G37*
G36*
X391864Y336402D02*
Y336263D01*
X395020D01*
Y335863D01*
X391864D01*
Y332120D01*
X392471D01*
Y329180D01*
X391864D01*
Y325436D01*
X395020D01*
Y325036D01*
X391864D01*
Y324898D01*
X390024Y323058D01*
X389524Y323103D01*
Y327536D01*
X387579D01*
Y331323D01*
X389720D01*
Y338013D01*
X390252D01*
X391864Y336402D01*
D02*
G37*
G36*
X354059Y342150D02*
X361692D01*
X362102Y341650D01*
X362015Y341210D01*
X361988Y341183D01*
X361436Y340357D01*
X361284Y339593D01*
X358941Y337250D01*
X358802D01*
Y334095D01*
Y330939D01*
X362546D01*
Y333646D01*
X365073Y336174D01*
X365535Y335982D01*
Y330339D01*
X367530D01*
Y310333D01*
X364903Y307706D01*
X359822D01*
X359570Y307958D01*
X358772Y308419D01*
X358530Y308484D01*
X358381Y309041D01*
X358647Y309308D01*
X359108Y310106D01*
X359347Y310996D01*
Y311917D01*
X359108Y312808D01*
X358647Y313606D01*
X357996Y314257D01*
X357197Y314718D01*
X356307Y314957D01*
X355386D01*
X354496Y314718D01*
X353697Y314257D01*
X353213Y313773D01*
X352713Y313980D01*
Y317535D01*
X352713D01*
Y317976D01*
X352713D01*
Y322535D01*
X352713D01*
Y322976D01*
X352713D01*
Y327536D01*
X350325D01*
Y330339D01*
X352319D01*
Y337850D01*
X343245D01*
X342900Y338213D01*
X346837Y342150D01*
X352319D01*
Y343357D01*
X354059D01*
Y342150D01*
D02*
G37*
G36*
X412443Y313306D02*
X412388Y313032D01*
X412535Y312296D01*
X412951Y311672D01*
X413082Y311584D01*
X413180Y311094D01*
X413100Y310974D01*
X413040Y310672D01*
X416673D01*
Y310273D01*
X413040D01*
X413100Y309971D01*
X413384Y309545D01*
X413462Y309494D01*
Y308892D01*
X413384Y308840D01*
X413100Y308415D01*
X413040Y308113D01*
X416673D01*
Y307713D01*
X413040D01*
X413100Y307412D01*
X413180Y307292D01*
X413082Y306802D01*
X412951Y306714D01*
X412535Y306090D01*
X412459Y305710D01*
X412410Y305691D01*
X411939Y305657D01*
X411463Y306369D01*
X410774Y307058D01*
X409947Y307611D01*
X408971Y307805D01*
X401659D01*
X401468Y308267D01*
X402719Y309518D01*
X403075Y309866D01*
X410587D01*
Y313806D01*
X412033D01*
X412443Y313306D01*
D02*
G37*
G36*
X278189Y316388D02*
X306423D01*
X319034Y303778D01*
X319861Y303225D01*
X320598Y303079D01*
Y302024D01*
X313508D01*
Y302024D01*
X313244D01*
Y302024D01*
X305929D01*
Y301627D01*
X298661D01*
X298661Y301627D01*
X297979Y301491D01*
X297400Y301104D01*
X297400Y301104D01*
X296472Y300177D01*
X296010Y300368D01*
Y302202D01*
X292267D01*
Y299246D01*
X294888D01*
X295079Y298784D01*
X293599Y297303D01*
X293212Y296724D01*
X293076Y296041D01*
Y294346D01*
X287524D01*
Y293140D01*
X285980D01*
Y294346D01*
X283768D01*
X283501Y294846D01*
X283851Y295371D01*
X284045Y296346D01*
X284015Y296495D01*
Y299246D01*
X285380D01*
Y299853D01*
X288124D01*
Y299246D01*
X291867D01*
Y302401D01*
Y305557D01*
X288124D01*
Y304950D01*
X285380D01*
Y305557D01*
X281637D01*
Y302402D01*
X281237D01*
Y305557D01*
X277513D01*
Y316128D01*
X277899Y316446D01*
X278189Y316388D01*
D02*
G37*
G36*
X435835Y309851D02*
X436662Y309299D01*
X437638Y309105D01*
X437698Y309117D01*
X437981Y308928D01*
X438117Y308357D01*
X435353Y305592D01*
X434966Y305013D01*
X434830Y304331D01*
X434966Y303648D01*
X435353Y303069D01*
X439395Y299027D01*
X439395Y299026D01*
X439974Y298640D01*
X440218Y298591D01*
X440382Y298049D01*
X439557Y297223D01*
X439170Y296644D01*
X439034Y295961D01*
Y293990D01*
X438572Y293798D01*
X431312Y301059D01*
Y313721D01*
X431774Y313913D01*
X435835Y309851D01*
D02*
G37*
G36*
X380585Y337595D02*
Y336335D01*
X380634Y336088D01*
Y331323D01*
X382481D01*
Y327536D01*
X380240D01*
Y322976D01*
X383444D01*
X383596Y322476D01*
X383300Y322279D01*
X383080Y322058D01*
X382997Y321936D01*
X380840D01*
Y320456D01*
X384882D01*
Y320056D01*
X380840D01*
Y318576D01*
X382997D01*
X383080Y318454D01*
X383698Y318040D01*
X383701Y318022D01*
X383554Y317535D01*
X380240D01*
Y313035D01*
X380240Y312976D01*
X380240D01*
Y312535D01*
X380240D01*
Y308035D01*
X380240Y307976D01*
X380240D01*
Y307535D01*
X380240D01*
Y302976D01*
X380240D01*
Y302535D01*
X380240D01*
Y298036D01*
X380240Y297976D01*
X380240D01*
Y297535D01*
X380240D01*
Y293036D01*
X380240Y292976D01*
X380240D01*
Y292535D01*
X380240D01*
Y287976D01*
X380240D01*
Y287535D01*
X380240D01*
Y282976D01*
X379799Y282834D01*
X376526D01*
X376378Y282864D01*
X375402Y282670D01*
X374576Y282117D01*
X374023Y281290D01*
X373829Y280315D01*
X374023Y279340D01*
X374576Y278513D01*
X374605Y278483D01*
X375432Y277930D01*
X376408Y277736D01*
X379823D01*
X380240Y277535D01*
Y273036D01*
X380240Y272976D01*
X380240D01*
Y272535D01*
X380240D01*
Y267976D01*
X379811Y267805D01*
X378300D01*
X361586Y284519D01*
X360759Y285071D01*
X359784Y285265D01*
X354272D01*
X353296Y285071D01*
X353154Y284976D01*
X352713Y285212D01*
Y287535D01*
X353142Y287707D01*
X355804D01*
X356299Y287609D01*
X357275Y287803D01*
X358102Y288355D01*
X358654Y289182D01*
X358848Y290158D01*
X358654Y291133D01*
X358102Y291960D01*
X358003Y292058D01*
X357176Y292611D01*
X356201Y292805D01*
X353142D01*
X352713Y292976D01*
Y297535D01*
X353142Y297707D01*
X369266D01*
X370242Y297901D01*
X371069Y298453D01*
X378968Y306353D01*
X379520Y307180D01*
X379714Y308155D01*
Y337582D01*
X380153Y337835D01*
X380585Y337595D01*
D02*
G37*
G36*
X297661Y295666D02*
Y293528D01*
X300083D01*
X300343Y293354D01*
X301319Y293160D01*
X301594D01*
X301801Y292660D01*
X300932Y291791D01*
X300599Y291725D01*
X299772Y291173D01*
X299220Y290346D01*
X299026Y289370D01*
X299220Y288395D01*
X299772Y287568D01*
X300599Y287015D01*
X300944Y286947D01*
X300895Y286447D01*
X296881D01*
X296610Y286835D01*
Y292424D01*
X296644Y292597D01*
X296644Y292597D01*
Y295302D01*
X297200Y295857D01*
X297661Y295666D01*
D02*
G37*
G36*
X313508Y292831D02*
Y292215D01*
X313459Y291968D01*
X313508Y291722D01*
Y289394D01*
X320598D01*
Y287681D01*
X320580Y287668D01*
X320027Y286842D01*
X319933Y286369D01*
X319542Y286447D01*
X302796D01*
X302747Y286947D01*
X303091Y287015D01*
X303918Y287568D01*
X305058Y288707D01*
X309268D01*
X310243Y288901D01*
X311070Y289454D01*
X311389Y289772D01*
X311537Y289994D01*
X312644D01*
Y291375D01*
X309587D01*
Y291775D01*
X312644D01*
Y292872D01*
X313144Y293070D01*
X313508Y292831D01*
D02*
G37*
G36*
X423059Y296648D02*
X423155Y296168D01*
X423541Y295589D01*
X424120Y295202D01*
X424803Y295066D01*
X425486Y295202D01*
X426065Y295589D01*
X426452Y296168D01*
X426587Y296850D01*
Y297342D01*
X426789Y297486D01*
X427069Y297568D01*
X438511Y286126D01*
Y281551D01*
X436539D01*
X436195Y281908D01*
X436094Y282059D01*
X427088Y291065D01*
X426510Y291452D01*
X425827Y291587D01*
X421210D01*
X420864Y292087D01*
X420958Y292559D01*
X420812Y293295D01*
X420448Y293839D01*
X420812Y294382D01*
X420958Y295118D01*
X420812Y295854D01*
X420448Y296398D01*
X420812Y296941D01*
X420958Y297677D01*
X420868Y298132D01*
X421329Y298378D01*
X423059Y296648D01*
D02*
G37*
G36*
X472153Y283582D02*
X472132Y283578D01*
X471553Y283191D01*
X471166Y282612D01*
X471030Y281929D01*
X471166Y281246D01*
X471553Y280667D01*
X472132Y280281D01*
X472815Y280145D01*
X473023D01*
X474508Y278660D01*
X475087Y278273D01*
X475770Y278137D01*
X475770Y278137D01*
X482074D01*
X482484Y277637D01*
X482430Y277362D01*
X482484Y277087D01*
X482074Y276587D01*
X463338D01*
X460387Y279538D01*
Y283110D01*
X460387Y283110D01*
X460293Y283582D01*
X460575Y284023D01*
X460659Y284082D01*
X472104D01*
X472153Y283582D01*
D02*
G37*
G36*
X411571Y266559D02*
X412035Y266472D01*
Y251566D01*
X399497Y239028D01*
X394528D01*
X394528Y239028D01*
X393845Y238893D01*
X393266Y238506D01*
X393034Y238274D01*
X392572Y238465D01*
Y249143D01*
X392732Y249262D01*
X393232Y249011D01*
Y241953D01*
X400744D01*
Y245990D01*
X402723D01*
X403698Y246184D01*
X404525Y246737D01*
X405469Y247681D01*
X406366D01*
X407257Y247920D01*
X408055Y248380D01*
X408706Y249032D01*
X409167Y249830D01*
X409406Y250720D01*
Y251642D01*
X409167Y252532D01*
X408706Y253330D01*
X408055Y253982D01*
X407257Y254443D01*
X406366Y254681D01*
X405445D01*
X404555Y254443D01*
X403757Y253982D01*
X403105Y253330D01*
X402644Y252532D01*
X402473Y251895D01*
X401667Y251088D01*
X398244D01*
X397998Y251039D01*
X395008D01*
X394801Y251513D01*
X395030Y251798D01*
X397874D01*
X398557Y251934D01*
X399136Y252321D01*
X401793Y254978D01*
X401793Y254978D01*
X402180Y255557D01*
X402316Y256240D01*
Y257607D01*
X402602Y257837D01*
X403075Y257629D01*
Y255732D01*
X410587D01*
Y264819D01*
X403939D01*
X403622Y265205D01*
X403730Y265748D01*
X403651Y266147D01*
X403950Y266548D01*
X404078Y266559D01*
X411571D01*
Y266559D01*
D02*
G37*
G36*
X353296Y280362D02*
X354272Y280168D01*
X358728D01*
X375442Y263454D01*
X376269Y262901D01*
X377244Y262707D01*
X379811D01*
X380240Y262535D01*
Y257976D01*
X382481D01*
Y251039D01*
X381421D01*
Y249045D01*
X380131D01*
X377909Y251266D01*
Y255173D01*
X368823D01*
Y247661D01*
X374305D01*
X377272Y244694D01*
X378099Y244141D01*
X379075Y243947D01*
X381421D01*
Y241953D01*
X388933D01*
X389003Y241482D01*
Y236276D01*
X382405D01*
Y231683D01*
X382119Y231491D01*
X381017Y230390D01*
X380556Y230581D01*
Y231158D01*
X377153D01*
Y231558D01*
X380556D01*
Y233038D01*
X377680D01*
X377153Y233143D01*
X375431D01*
X375431Y233143D01*
X374904Y233038D01*
X374701D01*
X374384Y233424D01*
X374439Y233701D01*
Y235850D01*
X377909D01*
Y243362D01*
X368823D01*
Y235850D01*
X369341D01*
Y234855D01*
X363393Y228907D01*
X360807D01*
X360655Y229407D01*
X360995Y229635D01*
X363357Y231997D01*
X363910Y232824D01*
X364104Y233799D01*
Y235850D01*
X366098D01*
Y243362D01*
X357012D01*
Y235850D01*
X359006D01*
Y234855D01*
X358137Y233986D01*
X355878D01*
X354903Y233792D01*
X354672Y233638D01*
X351797D01*
Y229079D01*
X351797D01*
Y228638D01*
X351797D01*
Y224079D01*
X354471D01*
X354619Y223592D01*
X354615Y223574D01*
X353997Y223161D01*
X353915Y223038D01*
X352397D01*
Y221558D01*
X355799D01*
Y221158D01*
X352397D01*
Y219679D01*
X353844D01*
X354089Y219398D01*
X353916Y218907D01*
X350770D01*
X350547Y219315D01*
Y228402D01*
X348084D01*
Y230695D01*
X347890Y231670D01*
X347338Y232497D01*
X346020Y233816D01*
Y234713D01*
X345781Y235603D01*
X345320Y236401D01*
X345152Y236570D01*
X345343Y237032D01*
X351532D01*
Y246118D01*
X350325D01*
Y248506D01*
X350589Y248770D01*
X357012D01*
Y247661D01*
X366098D01*
Y255173D01*
X363809D01*
Y256437D01*
X363615Y257413D01*
X363062Y258239D01*
X359243Y262058D01*
X358416Y262611D01*
X357441Y262805D01*
X353142D01*
X352713Y262976D01*
Y267476D01*
X352713Y267535D01*
X352713D01*
Y267976D01*
X352713D01*
Y272535D01*
X352713D01*
Y272976D01*
X352713D01*
Y277535D01*
X352713D01*
Y277976D01*
X352713D01*
Y280221D01*
X353154Y280457D01*
X353296Y280362D01*
D02*
G37*
G36*
X404909Y238740D02*
Y226772D01*
X405045Y226089D01*
X405431Y225510D01*
X407271Y223670D01*
Y222205D01*
X406771Y222053D01*
X406359Y222669D01*
X406340Y222688D01*
X405513Y223241D01*
X404537Y223435D01*
X401128D01*
Y224849D01*
X400521D01*
Y227789D01*
X401128D01*
Y231532D01*
X397972D01*
Y231932D01*
X401128D01*
Y235676D01*
X401453Y235945D01*
X401498Y235982D01*
X401498Y235982D01*
X404447Y238931D01*
X404909Y238740D01*
D02*
G37*
G36*
X407271Y219528D02*
Y218849D01*
X402675Y214254D01*
X402288Y213675D01*
X402153Y212992D01*
Y207826D01*
X401590Y207263D01*
X401128Y207455D01*
Y209879D01*
X397972D01*
Y210279D01*
X401128D01*
Y214022D01*
X400521D01*
Y216962D01*
X401128D01*
Y218337D01*
X404458D01*
X404557Y218317D01*
X405533Y218511D01*
X406359Y219064D01*
X406771Y219679D01*
X407271Y219528D01*
D02*
G37*
%LPC*%
G36*
X358402Y337250D02*
X354659D01*
Y334295D01*
X358402D01*
Y337250D01*
D02*
G37*
G36*
Y333894D02*
X354659D01*
Y330939D01*
X358402D01*
Y333894D01*
D02*
G37*
G36*
X296010Y305557D02*
X292267D01*
Y302602D01*
X296010D01*
Y305557D01*
D02*
G37*
%LPD*%
D10*
X266289Y290501D02*
X267085Y291298D01*
X274467D01*
X275728Y292559D01*
X391379Y195740D02*
X410004D01*
D16*
X433996Y361063D02*
X439705D01*
X431732Y358799D02*
X433996Y361063D01*
X431732Y350925D02*
Y358799D01*
D19*
X449547Y388228D02*
D03*
X431555D02*
D03*
D20*
X440551Y416142D02*
D03*
D34*
X333366Y191378D02*
D03*
D35*
X305453Y200374D02*
D03*
Y182382D02*
D03*
D53*
X309587Y291575D02*
D03*
Y299843D02*
D03*
X301319Y295709D02*
D03*
D54*
X476378Y268504D02*
D03*
Y260630D02*
D03*
D55*
X445217Y374449D02*
D03*
X433405D02*
D03*
X317264Y295709D02*
D03*
X329075D02*
D03*
D56*
X474744Y374449D02*
D03*
X460571D02*
D03*
X421201Y441772D02*
D03*
X407028D02*
D03*
D57*
X385177Y335079D02*
D03*
Y346890D02*
D03*
X370079Y345905D02*
D03*
Y334095D02*
D03*
X473563Y409094D02*
D03*
Y397284D02*
D03*
X347776Y334095D02*
D03*
Y345905D02*
D03*
X358602Y334095D02*
D03*
Y345905D02*
D03*
X451122Y281929D02*
D03*
Y270118D02*
D03*
X451909Y338622D02*
D03*
Y350433D02*
D03*
X337933Y265197D02*
D03*
Y253386D02*
D03*
X373366Y251417D02*
D03*
Y239606D02*
D03*
X361555Y251417D02*
D03*
Y239606D02*
D03*
X324016Y235433D02*
D03*
Y247244D02*
D03*
X258209Y449252D02*
D03*
Y437441D02*
D03*
X281437Y290591D02*
D03*
Y302402D02*
D03*
Y266181D02*
D03*
Y277992D02*
D03*
X292067Y290591D02*
D03*
Y302402D02*
D03*
D58*
X456043Y311457D02*
D03*
X467854D02*
D03*
X428484Y277008D02*
D03*
X440295D02*
D03*
X419626Y281929D02*
D03*
X407815D02*
D03*
X394035Y298661D02*
D03*
X405847D02*
D03*
X382618Y441772D02*
D03*
X394429D02*
D03*
X473957Y385866D02*
D03*
X462146D02*
D03*
X397972Y210079D02*
D03*
X386161D02*
D03*
X358602Y355748D02*
D03*
X346791D02*
D03*
X456043Y300630D02*
D03*
X467854D02*
D03*
X406831Y336063D02*
D03*
X395020D02*
D03*
X406831Y325236D02*
D03*
X395020D02*
D03*
Y260276D02*
D03*
X406831D02*
D03*
X407815Y271102D02*
D03*
X419626D02*
D03*
X439705Y361063D02*
D03*
X451516D02*
D03*
X406831Y346890D02*
D03*
X395020D02*
D03*
X406831Y314409D02*
D03*
X395020D02*
D03*
X346791Y213032D02*
D03*
X334980D02*
D03*
Y223858D02*
D03*
X346791D02*
D03*
X397972Y231732D02*
D03*
X386161D02*
D03*
X397972Y220905D02*
D03*
X386161D02*
D03*
X347776Y241575D02*
D03*
X335965D02*
D03*
X385177Y246496D02*
D03*
X396988D02*
D03*
X261752Y226972D02*
D03*
X249941D02*
D03*
Y259095D02*
D03*
X261752D02*
D03*
X249941Y248304D02*
D03*
X261752D02*
D03*
Y216181D02*
D03*
X249941D02*
D03*
Y237513D02*
D03*
X261752D02*
D03*
X260177Y311457D02*
D03*
X248366D02*
D03*
D59*
X396988Y283898D02*
D03*
Y272087D02*
D03*
X460965Y409094D02*
D03*
Y397284D02*
D03*
X354272Y198858D02*
D03*
Y187047D02*
D03*
D60*
X486122Y277362D02*
D03*
Y279921D02*
D03*
Y269685D02*
D03*
Y272244D02*
D03*
Y274803D02*
D03*
D61*
X496654Y270079D02*
D03*
Y279528D02*
D03*
D62*
X487008Y262205D02*
D03*
Y287402D02*
D03*
D63*
X284980Y398071D02*
D03*
X291673D02*
D03*
X298366D02*
D03*
X305059D02*
D03*
X311752D02*
D03*
D64*
X298366Y440098D02*
D03*
D65*
X317195Y450098D02*
D03*
X279537D02*
D03*
D66*
X348071Y325256D02*
D03*
Y320256D02*
D03*
Y315256D02*
D03*
Y310256D02*
D03*
Y305256D02*
D03*
Y300256D02*
D03*
Y295256D02*
D03*
Y290256D02*
D03*
Y285256D02*
D03*
Y280256D02*
D03*
Y275256D02*
D03*
Y270256D02*
D03*
Y265256D02*
D03*
Y260256D02*
D03*
X384882D02*
D03*
Y265256D02*
D03*
Y270256D02*
D03*
Y275256D02*
D03*
Y280256D02*
D03*
Y285256D02*
D03*
Y290256D02*
D03*
Y295256D02*
D03*
Y300256D02*
D03*
Y305256D02*
D03*
Y310256D02*
D03*
Y315256D02*
D03*
Y320256D02*
D03*
Y325256D02*
D03*
D67*
X405847Y188031D02*
D03*
Y199449D02*
D03*
X396693Y187933D02*
D03*
Y199350D02*
D03*
D68*
X386024Y185453D02*
D03*
Y190453D02*
D03*
Y195453D02*
D03*
Y200453D02*
D03*
X366614Y185453D02*
D03*
Y190453D02*
D03*
Y195453D02*
D03*
Y200453D02*
D03*
D69*
X441772Y351024D02*
D03*
Y336850D02*
D03*
X431732Y350925D02*
D03*
Y336752D02*
D03*
X324016Y225197D02*
D03*
Y211024D02*
D03*
X246398Y436260D02*
D03*
Y450433D02*
D03*
D70*
X445217Y292559D02*
D03*
Y295118D02*
D03*
Y297677D02*
D03*
Y300236D02*
D03*
Y302795D02*
D03*
Y305354D02*
D03*
Y307913D02*
D03*
Y310472D02*
D03*
Y313032D02*
D03*
Y315591D02*
D03*
Y318150D02*
D03*
Y320709D02*
D03*
Y323268D02*
D03*
Y325827D02*
D03*
X416673Y292559D02*
D03*
Y295118D02*
D03*
Y297677D02*
D03*
Y300236D02*
D03*
Y302795D02*
D03*
Y305354D02*
D03*
Y307913D02*
D03*
Y310472D02*
D03*
Y313032D02*
D03*
Y315591D02*
D03*
Y318150D02*
D03*
Y320709D02*
D03*
Y323268D02*
D03*
Y325827D02*
D03*
D71*
X377153Y216358D02*
D03*
Y221358D02*
D03*
Y226358D02*
D03*
Y231358D02*
D03*
X355799D02*
D03*
Y226358D02*
D03*
Y221358D02*
D03*
Y216358D02*
D03*
D72*
X329272Y364606D02*
D03*
X285571D02*
D03*
D73*
X249449Y268898D02*
D03*
Y273898D02*
D03*
Y278898D02*
D03*
Y283898D02*
D03*
Y288898D02*
D03*
Y293898D02*
D03*
Y298898D02*
D03*
X270905D02*
D03*
Y293898D02*
D03*
Y288898D02*
D03*
Y283898D02*
D03*
Y278898D02*
D03*
Y273898D02*
D03*
Y268898D02*
D03*
D74*
X267807Y320216D02*
D03*
Y322776D02*
D03*
Y325335D02*
D03*
Y327894D02*
D03*
Y330453D02*
D03*
Y333012D02*
D03*
Y335571D02*
D03*
Y338130D02*
D03*
X244673D02*
D03*
Y335571D02*
D03*
Y333012D02*
D03*
Y330453D02*
D03*
Y327894D02*
D03*
Y325335D02*
D03*
Y322776D02*
D03*
Y320216D02*
D03*
D75*
X383134Y336335D02*
X384390Y335079D01*
X381890Y340404D02*
X383134Y339160D01*
X384390Y335079D02*
X385177D01*
X383134Y336335D02*
Y339160D01*
X381890Y340404D02*
Y340945D01*
X388572Y340562D02*
X391308D01*
X395020Y325236D02*
Y336850D01*
X385965Y346890D02*
X387221Y345634D01*
X388189Y340945D02*
Y341486D01*
X387221Y342455D02*
Y345634D01*
Y342455D02*
X388189Y341486D01*
X385177Y346890D02*
X385965D01*
X388189Y340945D02*
X388572Y340562D01*
X391308D02*
X395020Y336850D01*
X302116Y289370D02*
X304002Y291256D01*
X301575Y289370D02*
X302116D01*
X309268Y291256D02*
X309587Y291575D01*
X304002Y291256D02*
X309268D01*
X301319Y295709D02*
X317264D01*
X485752Y260630D02*
X487008Y261886D01*
Y262205D01*
X476378Y260630D02*
X485752D01*
X487008Y287402D02*
X487298Y287691D01*
X496550D02*
X496654Y287795D01*
X487298Y287691D02*
X496550D01*
X496654Y279528D02*
Y287795D01*
Y270079D02*
Y279528D01*
Y261811D02*
Y270079D01*
X494735Y262205D02*
X495129Y261811D01*
X487008Y262205D02*
X494735D01*
X495129Y261811D02*
X496654D01*
X305881Y262209D02*
X311717D01*
X323169Y273661D01*
X282960Y239288D02*
X305881Y262209D01*
X440551Y416142D02*
Y431102D01*
X421201Y441772D02*
X429882D01*
X440551Y431102D01*
X324016Y225197D02*
Y235433D01*
X406831Y325236D02*
Y336063D01*
X358681Y355827D02*
X366063D01*
X358602Y355748D02*
X358681Y355827D01*
X366063D02*
X366142Y355906D01*
X364556Y340146D02*
Y341170D01*
X364173Y339764D02*
X364556Y340146D01*
X369291Y345905D02*
X370079D01*
X364556Y341170D02*
X369291Y345905D01*
X359390Y334095D02*
X363791Y338495D01*
Y339381D02*
X364173Y339764D01*
X358602Y334095D02*
X359390D01*
X363791Y338495D02*
Y339381D01*
X440945Y415748D02*
X447598Y409094D01*
X440551Y416142D02*
X440945Y415748D01*
Y400394D02*
Y415748D01*
X451197Y381480D02*
Y386579D01*
Y381480D02*
X452362Y380315D01*
X449547Y388228D02*
X451197Y386579D01*
X452362Y374410D02*
Y380315D01*
X452382Y374429D02*
X460551D01*
X452362Y374410D02*
X452382Y374429D01*
X460551D02*
X460571Y374449D01*
X451516Y361063D02*
X452362Y361909D01*
Y374410D01*
X452323Y374449D02*
X452362Y374410D01*
X445217Y374449D02*
X452323D01*
X461713Y338622D02*
X471594Y328740D01*
X451909Y338622D02*
X461713D01*
X471594Y328740D02*
X473563D01*
X456043Y301417D02*
Y311457D01*
Y300630D02*
Y301417D01*
X461693Y300512D02*
X461811Y300394D01*
X456043Y300630D02*
X456161Y300512D01*
X461693D01*
X346791Y216929D02*
Y223858D01*
X347362Y216358D02*
X355799D01*
X346791Y216929D02*
X347362Y216358D01*
X345535Y225114D02*
Y230695D01*
X342520Y233711D02*
X345535Y230695D01*
X342520Y233711D02*
Y234252D01*
X345535Y225114D02*
X346791Y223858D01*
X342500Y234252D02*
X342520D01*
X335965Y240787D02*
Y241575D01*
Y240787D02*
X342500Y234252D01*
X337854Y265276D02*
X337933Y265197D01*
X329213Y265276D02*
X337854D01*
X329134Y265354D02*
X329213Y265276D01*
X396988Y247284D02*
X398244Y248539D01*
X402723D01*
X405364Y251181D01*
X396988Y246496D02*
Y247284D01*
X405364Y251181D02*
X405905D01*
X396742Y199400D02*
X405797D01*
X396693Y199350D02*
X396742Y199400D01*
X405797D02*
X405847Y199449D01*
X406752D01*
X407812Y200508D01*
Y205917D01*
X408194Y206299D01*
X354272Y198858D02*
X354724Y199311D01*
Y205512D01*
X305453Y182382D02*
X308193D01*
X309842Y184031D01*
Y188976D01*
X261772Y216161D02*
X269272D01*
X269291Y216142D01*
X261752Y216181D02*
X261772Y216161D01*
X240945Y259055D02*
X240984Y259095D01*
X249941D01*
X261417Y345276D02*
X261811Y345669D01*
X261417Y339764D02*
Y345276D01*
Y339764D02*
X261811Y339370D01*
X324016Y200728D02*
X333366Y191378D01*
X324016Y200728D02*
Y211024D01*
X364567Y221260D02*
X370079Y226772D01*
X370866D01*
X364469Y221358D02*
X364567Y221260D01*
X355799Y221358D02*
X364469D01*
X325896Y253386D02*
X337933D01*
X324951Y254331D02*
X325896Y253386D01*
X324410Y254331D02*
X324951D01*
X324213Y254134D02*
X324410Y254331D01*
X324016Y247244D02*
X324213Y247441D01*
Y254134D01*
X335207Y224085D02*
Y232451D01*
X334980Y223858D02*
X335207Y224085D01*
Y232451D02*
X335433Y232677D01*
X334980Y213032D02*
Y223858D01*
X397992Y220886D02*
X404537D01*
X397972Y220905D02*
X397992Y220886D01*
X404537D02*
X404557Y220866D01*
X397972Y220905D02*
Y231732D01*
Y210079D02*
Y220905D01*
X281467Y296376D02*
Y302372D01*
Y296376D02*
X281496Y296346D01*
X281437Y302402D02*
X281467Y302372D01*
X281437Y302402D02*
X292067D01*
X356201Y290256D02*
X356299Y290158D01*
X348071Y290256D02*
X356201D01*
X399547Y272087D02*
X400803Y270831D01*
Y266126D02*
Y270831D01*
Y266126D02*
X401181Y265748D01*
X396988Y272087D02*
X399547D01*
X376408Y280285D02*
X384852D01*
X376378Y280315D02*
X376408Y280285D01*
X384852D02*
X384882Y280256D01*
X385030Y334931D02*
X385177Y335079D01*
X384882Y325256D02*
X385030Y325404D01*
Y334931D01*
X385102Y320476D02*
X391047D01*
X395020Y324449D01*
Y325236D01*
X384882Y320256D02*
X385102Y320476D01*
X249449Y293898D02*
Y298898D01*
Y288898D02*
Y293898D01*
Y283898D02*
Y288898D01*
Y278898D02*
Y283898D01*
Y273898D02*
Y278898D01*
X249488Y298858D02*
X258228D01*
X258268Y298819D01*
X249449Y298898D02*
X249488Y298858D01*
X270905Y302402D02*
X271260Y302756D01*
X270905Y298898D02*
Y302402D01*
X266890Y437441D02*
X266929Y437402D01*
X258209Y437441D02*
X266890D01*
X447598Y409094D02*
X460965D01*
X357421Y305157D02*
X365959D01*
X370079Y309277D02*
Y334095D01*
X365959Y305157D02*
X370079Y309277D01*
X377165Y349705D02*
X382224Y354764D01*
X377165Y308155D02*
Y349705D01*
X369266Y300256D02*
X377165Y308155D01*
X348071Y310256D02*
X348291Y310476D01*
X338162Y323694D02*
X341600Y320256D01*
X348120Y305207D02*
X357372D01*
X348071Y305256D02*
X348120Y305207D01*
X348291Y310476D02*
X354325D01*
X355305Y311457D02*
X355847D01*
X354325Y310476D02*
X355305Y311457D01*
X357372Y305207D02*
X357421Y305157D01*
X341600Y320256D02*
X348071D01*
X333366Y191378D02*
X340846Y198858D01*
X354272D01*
X460965Y409094D02*
X473563D01*
X305915Y265609D02*
X317786Y277481D01*
X318088D01*
X304473Y265609D02*
X305915D01*
X279560Y213713D02*
Y240696D01*
X304473Y265609D01*
X329047Y304758D02*
X329075Y304730D01*
Y295709D02*
Y304730D01*
X333001Y331918D02*
X346988Y345905D01*
X331820Y331918D02*
X333001D01*
X331437Y331535D02*
X331820Y331918D01*
X346988Y345905D02*
X347776D01*
X312933Y278878D02*
Y279398D01*
X276122Y242067D02*
X312933Y278878D01*
X315330Y325737D02*
X334336Y306731D01*
X277824Y325737D02*
X315330D01*
X334336Y288001D02*
Y306731D01*
X277846Y329137D02*
X316739D01*
X337736Y289887D02*
Y308139D01*
X316739Y329137D02*
X337736Y308139D01*
X318147Y332537D02*
X338828Y311856D01*
X339522D02*
X341280Y310099D01*
X279468Y332537D02*
X318147D01*
X341280Y297234D02*
Y310099D01*
X338828Y311856D02*
X339522D01*
X340236Y315256D02*
X348071D01*
X319555Y335937D02*
X340236Y315256D01*
X274224Y335937D02*
X319555D01*
X268042Y201999D02*
X272654D01*
X282960Y212305D02*
Y239288D01*
X258209Y192165D02*
X268042Y201999D01*
X272654D02*
X282960Y212305D01*
X258209Y190197D02*
Y192165D01*
X271246Y205399D02*
X279560Y213713D01*
X269837Y208799D02*
X276122Y215084D01*
Y242067D01*
X234842Y208799D02*
X269837D01*
X218209Y192165D02*
X234842Y208799D01*
X261442Y205399D02*
X271246D01*
X248209Y190197D02*
Y192165D01*
X261442Y205399D01*
X218209Y190197D02*
Y192165D01*
X451614Y350728D02*
X451909Y350433D01*
X441772Y351024D02*
X442067Y350728D01*
X451614D01*
X439508Y314803D02*
Y328287D01*
X432421Y316870D02*
X437638Y311653D01*
X432421Y316870D02*
Y336063D01*
X431732Y336752D02*
X432421Y336063D01*
X441772Y330551D02*
Y336850D01*
X439508Y328287D02*
X441772Y330551D01*
X410079Y346791D02*
X412441Y344429D01*
X406929Y346791D02*
X410079D01*
X406831Y346890D02*
X406929Y346791D01*
X412441Y326758D02*
Y344429D01*
X413721Y354764D02*
X416526Y351959D01*
X452303Y247677D02*
X453483Y246497D01*
X412694Y235627D02*
X424744Y247677D01*
X459587Y239213D02*
Y240394D01*
X424744Y247677D02*
X452303D01*
X453483Y246497D02*
X459587Y240394D01*
X374153Y251417D02*
X379075Y246496D01*
X385030Y246644D02*
Y260108D01*
X379075Y246496D02*
X385177D01*
X385177Y246496D01*
X373366Y251417D02*
X374153D01*
X379272Y210374D02*
X385866D01*
X377181Y216358D02*
X377402Y216138D01*
X385866Y210374D02*
X386161Y210079D01*
X377402Y212244D02*
Y216138D01*
X377153Y216358D02*
X377181D01*
X377402Y212244D02*
X379272Y210374D01*
X263327Y275777D02*
Y292140D01*
Y275777D02*
X265084Y274020D01*
X263327Y292140D02*
X265084Y293898D01*
Y274020D02*
X270783D01*
X265084Y293898D02*
X270905D01*
X307479Y318937D02*
X320836Y305580D01*
X278189Y318937D02*
X307479D01*
X277824Y325737D02*
X277824Y325737D01*
X278537Y322337D02*
X308888D01*
X270783Y274020D02*
X270905Y273898D01*
Y288898D02*
X278957D01*
X280650Y290591D02*
X281437D01*
X292067D01*
X278957Y288898D02*
X280650Y290591D01*
X319542Y283898D02*
X329778Y273661D01*
X336752D01*
X322382Y285866D02*
X331043Y277205D01*
X337736D01*
X348041Y265226D02*
X348071Y265256D01*
X337933Y265197D02*
X337963Y265226D01*
X348041D01*
X361457Y251319D02*
X361555Y251417D01*
X349533Y251319D02*
X361457D01*
X347776Y249562D02*
X349533Y251319D01*
X347776Y241575D02*
Y249562D01*
X361260Y251713D02*
X361555Y251417D01*
X361260Y251713D02*
Y256437D01*
X348071Y260256D02*
X357441D01*
X361260Y256437D01*
X377193Y221398D02*
X385669D01*
X377153Y221358D02*
X377193Y221398D01*
X385669D02*
X386161Y220905D01*
X383921Y229689D02*
X384906D01*
X377153Y226358D02*
X380591D01*
X383921Y229689D01*
X386161Y230945D02*
Y231732D01*
X384906Y229689D02*
X386161Y230945D01*
X347996Y325256D02*
X348071D01*
X347776Y325476D02*
Y334095D01*
Y325476D02*
X347996Y325256D01*
X347776Y345905D02*
X358602D01*
X347284Y346398D02*
Y355256D01*
Y346398D02*
X347776Y345905D01*
X346791Y355748D02*
X347284Y355256D01*
X441083Y351024D02*
X441181Y350925D01*
X371890Y238350D02*
X373146Y239606D01*
X373366D01*
X371890Y233701D02*
Y238350D01*
X371791Y233701D02*
X371890D01*
X364449Y226358D02*
X371791Y233701D01*
X355799Y226358D02*
X364449D01*
X361555Y233799D02*
Y239606D01*
X359193Y231437D02*
X361555Y233799D01*
X355878Y231437D02*
X359193D01*
X355799Y231358D02*
X355878Y231437D01*
X416476Y227205D02*
X428484Y239213D01*
X412694Y199491D02*
Y235627D01*
X411852Y193840D02*
X416476Y198465D01*
Y227205D01*
X308888Y322337D02*
X324224Y307000D01*
X277810Y329173D02*
X277846Y329137D01*
X332308Y280748D02*
X337343D01*
X325180Y287877D02*
X332308Y280748D01*
X377244Y265256D02*
X384882D01*
X359784Y282716D02*
X377244Y265256D01*
X354272Y282716D02*
X359784D01*
X337736Y289887D02*
X342147Y285476D01*
X334336Y288001D02*
X337497Y284840D01*
X337497Y284840D02*
X337581D01*
X341280Y297234D02*
X343037Y295476D01*
X347850D01*
X348071Y295256D01*
Y300256D02*
X369266D01*
X382224Y354764D02*
X413721D01*
X395020Y346890D02*
X398957D01*
X400925Y344921D01*
Y311329D02*
Y344921D01*
X394035Y298661D02*
Y298780D01*
Y297874D02*
Y298661D01*
X385102Y300036D02*
X392779D01*
X394035Y298780D01*
X384882Y300256D02*
X385102Y300036D01*
X406559Y283185D02*
X407815Y281929D01*
X394429Y283898D02*
X396988D01*
X393071Y285256D02*
X394429Y283898D01*
X384882Y285256D02*
X393071D01*
X404438Y275267D02*
X407815Y271890D01*
X404438Y275267D02*
Y275395D01*
X407815Y271102D02*
Y271890D01*
X401840Y277992D02*
X404438Y275395D01*
X391083Y277992D02*
X401840D01*
X388567Y275476D02*
X391083Y277992D01*
X384882Y275256D02*
X385102Y275476D01*
X388567D01*
X395020Y260276D02*
X395020Y260276D01*
X395020Y260276D02*
Y264424D01*
X393262Y266181D02*
X395020Y264424D01*
X392067Y266181D02*
X393262D01*
X384882Y260256D02*
X385030Y260108D01*
Y246644D02*
X385177Y246496D01*
X406831Y272087D02*
X407815Y271102D01*
X384882Y305256D02*
X408971D01*
X409660Y304567D01*
X385102Y315036D02*
X394394D01*
X395020Y314409D01*
X384882Y315256D02*
X385102Y315036D01*
X390620Y308966D02*
X398563D01*
X400925Y311329D01*
X389551Y310035D02*
X390620Y308966D01*
X384882Y310256D02*
X385102Y310035D01*
X389551D01*
X270905Y283898D02*
X319542D01*
X316008Y291968D02*
X317264Y293224D01*
Y295709D01*
X271028Y278776D02*
X280654D01*
X281437Y277992D01*
X270905Y278898D02*
X271028Y278776D01*
X249941Y238300D02*
X251197Y239556D01*
X254089D01*
X255847Y241313D01*
Y264606D02*
X260138Y268898D01*
X255847Y241313D02*
Y264606D01*
X249941Y237513D02*
Y238300D01*
X260138Y268898D02*
X270905D01*
X249941Y248304D02*
Y259095D01*
X249573Y268898D02*
X249695Y268776D01*
Y259341D02*
Y268776D01*
Y259341D02*
X249941Y259095D01*
X249449Y268898D02*
X249573D01*
X251656Y305194D02*
X255875Y309413D01*
X258921D02*
X260177Y310669D01*
X244550Y305194D02*
X251656D01*
X255875Y309413D02*
X258921D01*
X220807Y268150D02*
X230650D01*
X238929Y288240D02*
Y311862D01*
X232618Y281929D02*
X238929Y288240D01*
X242429Y279929D02*
Y303073D01*
X238929Y311862D02*
X240492Y313425D01*
X230650Y268150D02*
X242429Y279929D01*
X235429Y316236D02*
X236555Y317362D01*
X230650Y295709D02*
X235429Y300488D01*
Y316236D01*
X260177Y310669D02*
Y311457D01*
X242429Y303073D02*
X244550Y305194D01*
X220807Y281929D02*
X232618D01*
X220807Y295709D02*
X230650D01*
X248366Y311457D02*
Y318541D01*
X221890Y349744D02*
X225827D01*
X220807Y350827D02*
X221890Y349744D01*
X225827D02*
X236555Y339016D01*
X220807Y337047D02*
X232618D01*
X220807Y323268D02*
X227992Y330453D01*
X233898D01*
X220807Y309488D02*
X236555Y325236D01*
D76*
X294860Y296041D02*
X298661Y299843D01*
X309587D01*
X292854Y290591D02*
X294860Y292597D01*
Y296041D01*
X292067Y290591D02*
X292854D01*
X477545Y269671D02*
X486108D01*
X486122Y269685D01*
X476378Y268504D02*
X477545Y269671D01*
X473762Y281929D02*
X475770Y279921D01*
X486122D01*
X472815Y281929D02*
X473762D01*
X486136Y272258D02*
X489975D01*
X486122Y272244D02*
X486136Y272258D01*
X490945Y273228D02*
Y279708D01*
X489975Y272258D02*
X490945Y273228D01*
X488724Y281929D02*
X490945Y279708D01*
X478646Y281929D02*
X488724D01*
X474709Y285866D02*
X478646Y281929D01*
X458602Y278799D02*
Y283110D01*
X462598Y274803D02*
X486604D01*
X458602Y278799D02*
X462598Y274803D01*
X449154Y292559D02*
X458602Y283110D01*
X424016Y330709D02*
X427628Y327097D01*
Y299533D02*
X440295Y286865D01*
X427628Y299533D02*
Y327097D01*
X429528Y300320D02*
X444429Y285418D01*
X425916Y331496D02*
X429528Y327884D01*
Y300320D02*
Y327884D01*
X425916Y331496D02*
Y341339D01*
X427893Y343317D02*
X467018D01*
X425916Y341339D02*
X427893Y343317D01*
X424016Y330709D02*
Y342126D01*
X427106Y345216D02*
X466346D01*
X424016Y342126D02*
X427106Y345216D01*
X423209Y318130D02*
X423228Y318110D01*
X416673Y318150D02*
X416693Y318130D01*
X423209D01*
X413865Y318202D02*
X416621D01*
X406831Y324449D02*
X408837Y322443D01*
X416621Y318202D02*
X416673Y318150D01*
X409624Y322443D02*
X413865Y318202D01*
X408837Y322443D02*
X409624D01*
X406831Y324449D02*
Y325236D01*
X393228Y185453D02*
X395709Y187933D01*
X386024Y185453D02*
X393228D01*
X395709Y187933D02*
X396693D01*
X377165Y198819D02*
X378799Y200453D01*
X386024D01*
X375926Y203485D02*
X390181D01*
X372835Y200394D02*
X375926Y203485D01*
X372835Y196602D02*
Y200394D01*
X366614Y195453D02*
X366726Y195565D01*
X369995D02*
X370154Y195724D01*
X371956D02*
X372835Y196602D01*
X370154Y195724D02*
X371956D01*
X366726Y195565D02*
X369995D01*
X401575Y204724D02*
X403937Y207087D01*
X394107Y204724D02*
X401575D01*
X391164Y201782D02*
X394107Y204724D01*
X403937Y212992D02*
X409055Y218110D01*
X406693Y226772D02*
X409055Y224410D01*
Y218110D02*
Y224410D01*
X406693Y226772D02*
Y239764D01*
X403937Y207087D02*
Y212992D01*
X406693Y239764D02*
X419626Y252697D01*
X261811Y339370D02*
X263051Y338130D01*
X267807D01*
X370866Y226772D02*
Y226793D01*
X375431Y231358D01*
X377153D01*
X424803Y296850D02*
Y297427D01*
X421733Y300497D02*
Y306614D01*
Y300497D02*
X424803Y297427D01*
X420381Y310420D02*
X421259Y309542D01*
Y307087D02*
Y309542D01*
X416725Y310420D02*
X420381D01*
X416673Y310472D02*
X416725Y310420D01*
X421259Y307087D02*
X421733Y306614D01*
X420485Y307861D02*
X421259Y307087D01*
X416673Y307913D02*
X416725Y307861D01*
X420485D01*
X440657Y300288D02*
X445165D01*
X436614Y304331D02*
X440657Y300288D01*
X445165D02*
X445217Y300236D01*
X440197Y307913D02*
X445217D01*
X436614Y304331D02*
X440197Y307913D01*
X455098Y301575D02*
X456043Y300630D01*
X451575Y301575D02*
X455098D01*
X445217Y302795D02*
X450354D01*
X451575Y301575D01*
X452106Y305354D02*
X456043Y301417D01*
X445217Y305354D02*
X452106D01*
X452152Y316653D02*
Y319423D01*
X445217Y315591D02*
X451090D01*
X452152Y319423D02*
X452822Y320092D01*
X451090Y315591D02*
X452152Y316653D01*
X450326Y318150D02*
X452269Y320092D01*
X445217Y318150D02*
X450326D01*
X452269Y320092D02*
X452822D01*
X452205Y320709D02*
X452822Y320092D01*
X445217Y320709D02*
X452205D01*
X407815Y281929D02*
Y285866D01*
X466346Y345216D02*
X469870Y348740D01*
X467018Y343317D02*
X471594Y338740D01*
X473563D01*
X469870Y348740D02*
X473563D01*
X440295Y277008D02*
Y286865D01*
X410768Y289803D02*
X425827D01*
X434833Y280797D01*
Y273415D02*
Y280797D01*
X443715Y288819D02*
X448169D01*
X440819Y291716D02*
X443715Y288819D01*
X444429Y280748D02*
Y285418D01*
X440819Y295961D02*
X442011Y297154D01*
X440819Y291716D02*
Y295961D01*
X442011Y297154D02*
X442258D01*
X442781Y297677D02*
X445217D01*
X442258Y297154D02*
X442781Y297677D01*
X444429Y280748D02*
X446004Y279173D01*
X443347Y271398D02*
X446004Y274055D01*
Y279173D01*
X436850Y271398D02*
X443347D01*
X434833Y273415D02*
X436850Y271398D01*
X410498Y287172D02*
X425112D01*
X428484Y277008D02*
Y283799D01*
X425112Y287172D02*
X428484Y283799D01*
X437638Y311653D02*
X438819Y310472D01*
X439508Y314803D02*
X441227Y313084D01*
X445165D01*
X445217Y313032D01*
X438819Y310472D02*
X445217D01*
X416526Y351959D02*
X416673Y351811D01*
Y331929D02*
Y351811D01*
X421201Y321935D02*
Y327402D01*
X416673Y331929D02*
X421201Y327402D01*
X420027Y320761D02*
X421201Y321935D01*
X416725Y320761D02*
X420027D01*
X416673Y320709D02*
X416725Y320761D01*
X406831Y345905D02*
X407421Y346496D01*
X412441Y326758D02*
X413320Y325879D01*
X416621D01*
X416673Y325827D01*
X419626Y252697D02*
Y271102D01*
X392687Y205992D02*
Y235404D01*
X390787Y206779D02*
Y250138D01*
X390181Y203485D02*
X392687Y205992D01*
X389394Y205385D02*
X390787Y206779D01*
X392687Y235404D02*
X394528Y237244D01*
X374401Y205385D02*
X389394D01*
X390787Y250138D02*
X394232Y253583D01*
X415394Y281929D02*
X419626D01*
X413819Y280354D02*
X415394Y281929D01*
X407332Y290338D02*
X410498Y287172D01*
X407852Y292719D02*
X410768Y289803D01*
X405847Y298661D02*
X407852Y296656D01*
Y292719D02*
Y296656D01*
X400236Y237244D02*
X413819Y250827D01*
Y280354D01*
X394528Y237244D02*
X400236D01*
X400531Y258405D02*
X402402Y260276D01*
X406831D01*
X400531Y256240D02*
Y258405D01*
X397874Y253583D02*
X400531Y256240D01*
X394232Y253583D02*
X397874D01*
X389173Y197646D02*
X391164Y199637D01*
X382261Y197646D02*
X389173D01*
X391164Y199637D02*
Y201782D01*
X375067Y190453D02*
X382261Y197646D01*
X366614Y190453D02*
X375067D01*
X369468Y200453D02*
X374401Y205385D01*
X366614Y200453D02*
X369468D01*
X267167Y279526D02*
X270278D01*
X266289Y280404D02*
Y290501D01*
Y280404D02*
X267167Y279526D01*
X270278D02*
X270905Y278898D01*
X274350Y322776D02*
X278189Y318937D01*
X277266Y325737D02*
X277824D01*
X275109Y327894D02*
X277266Y325737D01*
X267807Y325335D02*
X274478D01*
X277476Y322337D01*
X278537D01*
X267807Y322776D02*
X274350D01*
X267807Y327894D02*
X275109D01*
X275728Y292559D02*
Y316968D01*
X272480Y320216D02*
X275728Y316968D01*
X267807Y320216D02*
X272480D01*
X336752Y273661D02*
X340158Y270256D01*
X348071D01*
X410004Y195740D02*
X412694Y198430D01*
Y199491D01*
X388779Y190453D02*
X392166Y193840D01*
X386136Y195565D02*
X391205D01*
X386024Y195453D02*
X386136Y195565D01*
X391205D02*
X391379Y195740D01*
X392166Y193840D02*
X411852D01*
X386024Y190453D02*
X388779D01*
X445217Y292559D02*
X449154D01*
X445217Y292559D02*
X445217Y292559D01*
X448169Y288819D02*
X451122Y285866D01*
X450864Y295118D02*
X460115Y285866D01*
X474709D01*
X445217Y295118D02*
X450864D01*
X276530Y330453D02*
X277810Y329173D01*
X267807Y330453D02*
X276530D01*
X279085Y332921D02*
X279468Y332537D01*
X272761Y332921D02*
X279085D01*
X339685Y275256D02*
X348071D01*
X337736Y277205D02*
X339685Y275256D01*
X325159Y287898D02*
Y306066D01*
Y287898D02*
X325180Y287877D01*
X324224Y307000D02*
X325159Y306066D01*
X337343Y280748D02*
X337835Y280256D01*
X348071D01*
X339705Y282716D02*
X354272D01*
X337581Y284840D02*
X339705Y282716D01*
X322382Y285866D02*
Y303976D01*
X320836Y305522D02*
Y305580D01*
Y305522D02*
X322382Y303976D01*
X342147Y285476D02*
X347850D01*
X348071Y285256D01*
X267807Y333012D02*
X272670D01*
X272761Y332921D01*
X267807Y335571D02*
X273858D01*
X451122Y281929D02*
Y285866D01*
X392162Y290338D02*
X407332D01*
X387244Y295256D02*
X392162Y290338D01*
X384882Y295256D02*
X387244D01*
X405775Y287906D02*
X407815Y285866D01*
X391011Y287906D02*
X405775D01*
X389191Y289726D02*
X391011Y287906D01*
X385411Y289726D02*
X389191D01*
X384882Y290256D02*
X385411Y289726D01*
X384882Y270256D02*
X387244D01*
X391319Y266181D01*
X392067D01*
X413714Y300760D02*
X414237Y300236D01*
X413468Y300760D02*
X413714D01*
X409660Y304567D02*
X413468Y300760D01*
X414237Y300236D02*
X416673D01*
X408012Y315591D02*
X416673D01*
X406831Y314409D02*
X408012Y315591D01*
X244673Y320216D02*
X246691D01*
X248366Y318541D01*
X249449Y338130D02*
X250335Y339016D01*
X244673Y338130D02*
X249449D01*
X240000Y335571D02*
X244673D01*
X236555Y339016D02*
X240000Y335571D01*
X232618Y337047D02*
X236653Y333012D01*
X244673D01*
X233898Y330453D02*
X244673D01*
X236555Y325236D02*
X239213Y327894D01*
X244673D01*
X240492Y313425D02*
Y321593D01*
X241539Y322640D01*
X244537D01*
X236555Y317362D02*
Y320484D01*
X244537Y325199D02*
X244673Y325335D01*
X236555Y320484D02*
X241270Y325199D01*
X244537D01*
Y322640D02*
X244673Y322776D01*
D77*
X298425Y422835D02*
Y440039D01*
X298366Y440098D02*
X298425Y440039D01*
X473957Y375433D02*
X474744Y374646D01*
Y374449D02*
Y374646D01*
X473957Y375433D02*
Y385866D01*
X394429Y441772D02*
X407028D01*
X285571Y364606D02*
X299350D01*
X311161Y376417D02*
X346791D01*
X299350Y364606D02*
X311161Y376417D01*
X285571Y364606D02*
Y377205D01*
X291673Y383307D01*
Y398071D01*
X256240Y450433D02*
X257421Y449252D01*
X258209D01*
X246398Y450433D02*
X256240D01*
X246595Y436260D02*
X256049Y426805D01*
Y423853D02*
Y426805D01*
Y423853D02*
X256240Y423661D01*
X246398Y436260D02*
X246595D01*
X284980Y398071D02*
Y415394D01*
X276713Y423661D02*
X284980Y415394D01*
X256240Y423661D02*
X276713D01*
X220807Y421693D02*
X254001D01*
D78*
X328917Y364961D02*
X329272Y364606D01*
X320079Y364961D02*
X328917D01*
X305059Y398071D02*
X305067Y398063D01*
Y384697D02*
Y398063D01*
Y384697D02*
X305118Y384646D01*
X271260Y259055D02*
X271451Y259246D01*
X278144D01*
X281102Y262205D01*
Y265846D01*
X281437Y266181D01*
X261752Y259095D02*
X261772Y259075D01*
X271240D01*
X271260Y259055D01*
X460965Y397284D02*
X461620Y397939D01*
Y402565D01*
X461811Y402756D01*
X461390Y397284D02*
X473563D01*
X462146Y385866D02*
Y396528D01*
X461390Y397284D02*
X462146Y396528D01*
X460965Y397284D02*
X461390D01*
X439106Y388228D02*
X440295Y387039D01*
X431555Y388228D02*
X439106D01*
X432650Y375205D02*
Y387134D01*
X431555Y388228D02*
X432650Y387134D01*
Y375205D02*
X433405Y374449D01*
X477520Y311457D02*
X477559Y311417D01*
X467854Y311457D02*
X477520D01*
X467854Y300630D02*
Y311457D01*
X405847Y188031D02*
X406206Y188391D01*
X415163D01*
X415354Y188583D01*
X396693Y187933D02*
X396742Y187982D01*
X405797D01*
X405847Y188031D01*
X354301Y187077D02*
Y192490D01*
X354272Y187047D02*
X354301Y187077D01*
Y192490D02*
X354331Y192520D01*
X305285Y193474D02*
Y200207D01*
X305118Y193307D02*
X305285Y193474D01*
Y200207D02*
X305453Y200374D01*
X270018Y248364D02*
X270079Y248425D01*
X261752Y248304D02*
X261813Y248364D01*
X270018D01*
X261752Y248304D02*
Y259095D01*
Y237513D02*
Y248304D01*
Y226972D02*
Y237513D01*
X382648Y433494D02*
X382677Y433465D01*
X382618Y441772D02*
X382648Y441742D01*
Y433494D02*
Y441742D01*
X311760Y398079D02*
Y407429D01*
X311752Y398071D02*
X311760Y398079D01*
Y407429D02*
X311811Y407480D01*
X298366Y407815D02*
X298425Y407874D01*
X298366Y398071D02*
Y407815D01*
D79*
X238738Y216181D02*
X249941D01*
X232045Y222874D02*
X238738Y216181D01*
X220807Y222874D02*
X232045D01*
X249941Y237159D02*
Y237513D01*
Y226972D02*
Y237159D01*
X249435Y236653D02*
X249941Y237159D01*
X220807Y236653D02*
X249435D01*
X236555Y378386D02*
X246398Y368543D01*
X220807Y378386D02*
X236555D01*
X220807Y364606D02*
X242055D01*
X220807Y364606D02*
X220807Y364606D01*
X245992Y368543D02*
X246398D01*
X242055Y364606D02*
X245992Y368543D01*
X246398D02*
X252303Y362638D01*
X246398Y368543D02*
X246398D01*
X252303Y340984D02*
Y362638D01*
X250335Y339016D02*
X252303Y340984D01*
D80*
X300000Y224803D02*
D03*
X489370Y449606D02*
D03*
X207538D02*
D03*
X489370Y183071D02*
D03*
D81*
X473563Y348740D02*
D03*
Y328740D02*
D03*
Y358740D02*
D03*
Y338740D02*
D03*
D82*
X220807Y222874D02*
D03*
Y236653D02*
D03*
Y421693D02*
D03*
Y407913D02*
D03*
D83*
X428484Y239213D02*
D03*
X459587D02*
D03*
D84*
X496654Y261811D02*
D03*
Y287795D02*
D03*
D85*
X358602Y419724D02*
D03*
X338917D02*
D03*
X246398Y368543D02*
D03*
X266083D02*
D03*
X256240Y423661D02*
D03*
Y403976D02*
D03*
D86*
X220807Y378386D02*
D03*
Y364606D02*
D03*
Y350827D02*
D03*
Y337047D02*
D03*
Y323268D02*
D03*
Y309488D02*
D03*
Y295709D02*
D03*
Y281929D02*
D03*
Y268150D02*
D03*
D87*
X268209Y190197D02*
D03*
X258209D02*
D03*
X248209D02*
D03*
X228209D02*
D03*
X288209D02*
D03*
X218209D02*
D03*
X238209D02*
D03*
X278209D02*
D03*
D88*
X346791Y376417D02*
D03*
X416516D02*
D03*
D89*
X381890Y340945D02*
D03*
X388189D02*
D03*
X301575Y289370D02*
D03*
X472815Y281929D02*
D03*
X298425Y422835D02*
D03*
X423228Y318110D02*
D03*
X366142Y355906D02*
D03*
X364173Y339764D02*
D03*
X440945Y400394D02*
D03*
X452362Y374410D02*
D03*
X461811Y300394D02*
D03*
X342520Y234252D02*
D03*
X329134Y265354D02*
D03*
X405905Y251181D02*
D03*
X377165Y198819D02*
D03*
X408194Y206299D02*
D03*
X354724Y205512D02*
D03*
X309842Y188976D02*
D03*
X269291Y216142D02*
D03*
X240945Y259055D02*
D03*
X320079Y364961D02*
D03*
X305118Y384646D02*
D03*
X271260Y259055D02*
D03*
X261811Y345669D02*
D03*
X364567Y221260D02*
D03*
X324410Y254331D02*
D03*
X335433Y232677D02*
D03*
X404557Y220866D02*
D03*
X281496Y296346D02*
D03*
X356299Y290158D02*
D03*
X401181Y265748D02*
D03*
X376378Y280315D02*
D03*
X424803Y296850D02*
D03*
X436614Y304331D02*
D03*
X452822Y320092D02*
D03*
X461811Y402756D02*
D03*
X440295Y387039D02*
D03*
X477559Y311417D02*
D03*
X415354Y188583D02*
D03*
X354331Y192520D02*
D03*
X305118Y193307D02*
D03*
X270079Y248425D02*
D03*
X258268Y298819D02*
D03*
X271260Y302756D02*
D03*
X382677Y433465D02*
D03*
X311811Y407480D02*
D03*
X298425Y407874D02*
D03*
X266929Y437402D02*
D03*
X357421Y305157D02*
D03*
X355847Y311457D02*
D03*
X338162Y323694D02*
D03*
X318088Y277481D02*
D03*
X323169Y273661D02*
D03*
X329047Y304758D02*
D03*
X331437Y331535D02*
D03*
X312933Y279398D02*
D03*
M02*
