G04*
G04 #@! TF.GenerationSoftware,Altium Limited,Altium Designer,21.1.1 (26)*
G04*
G04 Layer_Color=16711935*
%FSLAX25Y25*%
%MOIN*%
G70*
G04*
G04 #@! TF.SameCoordinates,BBBE4658-4D14-4CED-8B08-E313B85CDB7B*
G04*
G04*
G04 #@! TF.FilePolarity,Negative*
G04*
G01*
G75*
%ADD42O,0.12402X0.08465*%
%ADD43C,0.07087*%
%ADD44C,0.09449*%
%ADD45O,0.06890X0.04134*%
%ADD46C,0.06591*%
%ADD47C,0.09252*%
%ADD48C,0.12795*%
%ADD49O,0.08465X0.12402*%
%ADD50C,0.09646*%
%ADD51C,0.05591*%
D42*
X473563Y348740D02*
D03*
Y328740D02*
D03*
Y358740D02*
D03*
Y338740D02*
D03*
D43*
X220807Y222874D02*
D03*
Y236653D02*
D03*
Y421693D02*
D03*
Y407913D02*
D03*
D44*
X428484Y239213D02*
D03*
X459587D02*
D03*
D45*
X496654Y261811D02*
D03*
Y287795D02*
D03*
D46*
X358602Y419724D02*
D03*
X338917D02*
D03*
X246398Y368543D02*
D03*
X266083D02*
D03*
X256240Y423661D02*
D03*
Y403976D02*
D03*
D47*
X220807Y378386D02*
D03*
Y364606D02*
D03*
Y350827D02*
D03*
Y337047D02*
D03*
Y323268D02*
D03*
Y309488D02*
D03*
Y295709D02*
D03*
Y281929D02*
D03*
Y268150D02*
D03*
D48*
X300000Y224803D02*
D03*
X489370Y449606D02*
D03*
X207538D02*
D03*
X489370Y183071D02*
D03*
D49*
X268209Y190197D02*
D03*
X258209D02*
D03*
X248209D02*
D03*
X228209D02*
D03*
X288209D02*
D03*
X218209D02*
D03*
X238209D02*
D03*
X278209D02*
D03*
D50*
X346791Y376417D02*
D03*
X416516D02*
D03*
D51*
X298425Y422835D02*
D03*
X434252Y265748D02*
D03*
X423228Y318110D02*
D03*
X366142Y355906D02*
D03*
X364173Y339764D02*
D03*
X440945Y400394D02*
D03*
X452362Y374410D02*
D03*
X461811Y300394D02*
D03*
X480177Y269646D02*
D03*
X342520Y234252D02*
D03*
X329134Y265354D02*
D03*
X405905Y251181D02*
D03*
X377165Y198819D02*
D03*
X408194Y206299D02*
D03*
X354724Y205512D02*
D03*
X309842Y188976D02*
D03*
X269291Y216142D02*
D03*
X240945Y259055D02*
D03*
X320079Y364961D02*
D03*
X305118Y384646D02*
D03*
X271260Y259055D02*
D03*
X261811Y345669D02*
D03*
X364567Y221260D02*
D03*
X324410Y254331D02*
D03*
X335433Y232677D02*
D03*
X404557Y220866D02*
D03*
X281496Y296346D02*
D03*
X356299Y290158D02*
D03*
X401181Y265748D02*
D03*
X376378Y280315D02*
D03*
X385039Y341339D02*
D03*
X424803Y296850D02*
D03*
X436614Y304331D02*
D03*
X452822Y320092D02*
D03*
X461811Y402756D02*
D03*
X440295Y387039D02*
D03*
X477559Y311417D02*
D03*
X415354Y188583D02*
D03*
X354331Y192520D02*
D03*
X305118Y193307D02*
D03*
X270079Y248425D02*
D03*
X258268Y298819D02*
D03*
X271260Y302756D02*
D03*
X382677Y433465D02*
D03*
X311811Y407480D02*
D03*
X298425Y407874D02*
D03*
X266929Y437402D02*
D03*
X357421Y305157D02*
D03*
X355847Y311457D02*
D03*
X338162Y323694D02*
D03*
X318088Y277481D02*
D03*
X323169Y273661D02*
D03*
X329047Y304758D02*
D03*
X331437Y331535D02*
D03*
X312933Y279398D02*
D03*
M02*
