G04*
G04 #@! TF.GenerationSoftware,Altium Limited,Altium Designer,21.1.1 (26)*
G04*
G04 Layer_Color=8388736*
%FSLAX25Y25*%
%MOIN*%
G70*
G04*
G04 #@! TF.SameCoordinates,BBBE4658-4D14-4CED-8B08-E313B85CDB7B*
G04*
G04*
G04 #@! TF.FilePolarity,Negative*
G04*
G01*
G75*
%ADD17R,0.06299X0.11811*%
%ADD18R,0.22835X0.24410*%
%ADD19R,0.06102X0.11221*%
%ADD20R,0.06496X0.06890*%
%ADD21R,0.07677X0.06102*%
%ADD22R,0.06102X0.07677*%
%ADD23R,0.11221X0.06102*%
%ADD24O,0.05906X0.02165*%
%ADD25R,0.07677X0.08071*%
G04:AMPARAMS|DCode=26|XSize=68.9mil|YSize=61.02mil|CornerRadius=16.73mil|HoleSize=0mil|Usage=FLASHONLY|Rotation=270.000|XOffset=0mil|YOffset=0mil|HoleType=Round|Shape=RoundedRectangle|*
%AMROUNDEDRECTD26*
21,1,0.06890,0.02756,0,0,270.0*
21,1,0.03543,0.06102,0,0,270.0*
1,1,0.03347,-0.01378,-0.01772*
1,1,0.03347,-0.01378,0.01772*
1,1,0.03347,0.01378,0.01772*
1,1,0.03347,0.01378,-0.01772*
%
%ADD26ROUNDEDRECTD26*%
%ADD27R,0.04724X0.02953*%
%ADD28R,0.04606X0.09095*%
%ADD29R,0.33386X0.28110*%
%ADD30R,0.05453X0.08110*%
%ADD31R,0.07874X0.03150*%
%ADD32R,0.07677X0.05709*%
%ADD33R,0.24410X0.22835*%
%ADD34R,0.11811X0.06299*%
%ADD35O,0.08386X0.02677*%
%ADD36R,0.06890X0.06496*%
%ADD37O,0.07087X0.02362*%
%ADD38R,0.06594X0.03150*%
%ADD39R,0.10827X0.13189*%
%ADD40R,0.06693X0.03347*%
%ADD41R,0.06398X0.02362*%
%ADD42O,0.12402X0.08465*%
%ADD43C,0.07087*%
%ADD44C,0.09449*%
%ADD45O,0.06890X0.04134*%
%ADD46C,0.06591*%
%ADD47C,0.09252*%
%ADD48C,0.12795*%
%ADD49O,0.08465X0.12402*%
%ADD50C,0.09646*%
%ADD51C,0.05591*%
D17*
X449547Y388228D02*
D03*
X431555D02*
D03*
D18*
X440551Y416142D02*
D03*
D19*
X445217Y374449D02*
D03*
X433405D02*
D03*
X317264Y295709D02*
D03*
X329075D02*
D03*
D20*
X474744Y374449D02*
D03*
X460571D02*
D03*
X421201Y441772D02*
D03*
X407028D02*
D03*
D21*
X385177Y335079D02*
D03*
Y346890D02*
D03*
X370079Y345905D02*
D03*
Y334095D02*
D03*
X473563Y409094D02*
D03*
Y397284D02*
D03*
X347776Y334095D02*
D03*
Y345905D02*
D03*
X358602Y334095D02*
D03*
Y345905D02*
D03*
X451122Y281929D02*
D03*
Y270118D02*
D03*
X451909Y338622D02*
D03*
Y350433D02*
D03*
X337933Y265197D02*
D03*
Y253386D02*
D03*
X373366Y251417D02*
D03*
Y239606D02*
D03*
X361555Y251417D02*
D03*
Y239606D02*
D03*
X324016Y235433D02*
D03*
Y247244D02*
D03*
X258209Y449252D02*
D03*
Y437441D02*
D03*
X281437Y290591D02*
D03*
Y302402D02*
D03*
Y266181D02*
D03*
Y277992D02*
D03*
X292067Y290591D02*
D03*
Y302402D02*
D03*
D22*
X456043Y311457D02*
D03*
X467854D02*
D03*
X428484Y277008D02*
D03*
X440295D02*
D03*
X419626Y281929D02*
D03*
X407815D02*
D03*
X394035Y298661D02*
D03*
X405847D02*
D03*
X382618Y441772D02*
D03*
X394429D02*
D03*
X473957Y385866D02*
D03*
X462146D02*
D03*
X397972Y210079D02*
D03*
X386161D02*
D03*
X358602Y355748D02*
D03*
X346791D02*
D03*
X440295Y266181D02*
D03*
X428484D02*
D03*
X456043Y300630D02*
D03*
X467854D02*
D03*
X406831Y336063D02*
D03*
X395020D02*
D03*
X406831Y325236D02*
D03*
X395020D02*
D03*
Y260276D02*
D03*
X406831D02*
D03*
X407815Y271102D02*
D03*
X419626D02*
D03*
X439705Y361063D02*
D03*
X451516D02*
D03*
X406831Y346890D02*
D03*
X395020D02*
D03*
X406831Y314409D02*
D03*
X395020D02*
D03*
X346791Y213032D02*
D03*
X334980D02*
D03*
Y223858D02*
D03*
X346791D02*
D03*
X397972Y231732D02*
D03*
X386161D02*
D03*
X397972Y220905D02*
D03*
X386161D02*
D03*
X347776Y241575D02*
D03*
X335965D02*
D03*
X385177Y246496D02*
D03*
X396988D02*
D03*
X261752Y226972D02*
D03*
X249941D02*
D03*
Y259095D02*
D03*
X261752D02*
D03*
X249941Y248304D02*
D03*
X261752D02*
D03*
Y216181D02*
D03*
X249941D02*
D03*
Y237513D02*
D03*
X261752D02*
D03*
X260177Y311457D02*
D03*
X248366D02*
D03*
D23*
X396988Y283898D02*
D03*
Y272087D02*
D03*
X460965Y409094D02*
D03*
Y397284D02*
D03*
X354272Y198858D02*
D03*
Y187047D02*
D03*
D24*
X486122Y277362D02*
D03*
Y279921D02*
D03*
Y269685D02*
D03*
Y272244D02*
D03*
Y274803D02*
D03*
D25*
X496654Y270079D02*
D03*
Y279528D02*
D03*
D26*
X487008Y262205D02*
D03*
Y287402D02*
D03*
D27*
X301122Y295709D02*
D03*
X309784Y299449D02*
D03*
Y291968D02*
D03*
D28*
X284980Y398071D02*
D03*
X291673D02*
D03*
X298366D02*
D03*
X305059D02*
D03*
X311752D02*
D03*
D29*
X298366Y440098D02*
D03*
D30*
X317195Y450098D02*
D03*
X279537D02*
D03*
D31*
X348071Y325256D02*
D03*
Y320256D02*
D03*
Y315256D02*
D03*
Y310256D02*
D03*
Y305256D02*
D03*
Y300256D02*
D03*
Y295256D02*
D03*
Y290256D02*
D03*
Y285256D02*
D03*
Y280256D02*
D03*
Y275256D02*
D03*
Y270256D02*
D03*
Y265256D02*
D03*
Y260256D02*
D03*
X384882D02*
D03*
Y265256D02*
D03*
Y270256D02*
D03*
Y275256D02*
D03*
Y280256D02*
D03*
Y285256D02*
D03*
Y290256D02*
D03*
Y295256D02*
D03*
Y300256D02*
D03*
Y305256D02*
D03*
Y310256D02*
D03*
Y315256D02*
D03*
Y320256D02*
D03*
Y325256D02*
D03*
D32*
X405847Y188031D02*
D03*
Y199449D02*
D03*
X396693Y187933D02*
D03*
Y199350D02*
D03*
D33*
X333366Y191378D02*
D03*
D34*
X305453Y200374D02*
D03*
Y182382D02*
D03*
D35*
X386024Y185453D02*
D03*
Y190453D02*
D03*
Y195453D02*
D03*
Y200453D02*
D03*
X366614Y185453D02*
D03*
Y190453D02*
D03*
Y195453D02*
D03*
Y200453D02*
D03*
D36*
X441772Y351024D02*
D03*
Y336850D02*
D03*
X431732Y350925D02*
D03*
Y336752D02*
D03*
X324016Y225197D02*
D03*
Y211024D02*
D03*
X246398Y436260D02*
D03*
Y450433D02*
D03*
D37*
X445217Y292559D02*
D03*
Y295118D02*
D03*
Y297677D02*
D03*
Y300236D02*
D03*
Y302795D02*
D03*
Y305354D02*
D03*
Y307913D02*
D03*
Y310472D02*
D03*
Y313032D02*
D03*
Y315591D02*
D03*
Y318150D02*
D03*
Y320709D02*
D03*
Y323268D02*
D03*
Y325827D02*
D03*
X416673Y292559D02*
D03*
Y295118D02*
D03*
Y297677D02*
D03*
Y300236D02*
D03*
Y302795D02*
D03*
Y305354D02*
D03*
Y307913D02*
D03*
Y310472D02*
D03*
Y313032D02*
D03*
Y315591D02*
D03*
Y318150D02*
D03*
Y320709D02*
D03*
Y323268D02*
D03*
Y325827D02*
D03*
D38*
X377153Y216358D02*
D03*
Y221358D02*
D03*
Y226358D02*
D03*
Y231358D02*
D03*
X355799D02*
D03*
Y226358D02*
D03*
Y221358D02*
D03*
Y216358D02*
D03*
D39*
X329272Y364606D02*
D03*
X285571D02*
D03*
D40*
X249449Y268898D02*
D03*
Y273898D02*
D03*
Y278898D02*
D03*
Y283898D02*
D03*
Y288898D02*
D03*
Y293898D02*
D03*
Y298898D02*
D03*
X270905D02*
D03*
Y293898D02*
D03*
Y288898D02*
D03*
Y283898D02*
D03*
Y278898D02*
D03*
Y273898D02*
D03*
Y268898D02*
D03*
D41*
X267807Y320216D02*
D03*
Y322776D02*
D03*
Y325335D02*
D03*
Y327894D02*
D03*
Y330453D02*
D03*
Y333012D02*
D03*
Y335571D02*
D03*
Y338130D02*
D03*
X244673D02*
D03*
Y335571D02*
D03*
Y333012D02*
D03*
Y330453D02*
D03*
Y327894D02*
D03*
Y325335D02*
D03*
Y322776D02*
D03*
Y320216D02*
D03*
D42*
X473563Y348740D02*
D03*
Y328740D02*
D03*
Y358740D02*
D03*
Y338740D02*
D03*
D43*
X220807Y222874D02*
D03*
Y236653D02*
D03*
Y421693D02*
D03*
Y407913D02*
D03*
D44*
X428484Y239213D02*
D03*
X459587D02*
D03*
D45*
X496654Y261811D02*
D03*
Y287795D02*
D03*
D46*
X358602Y419724D02*
D03*
X338917D02*
D03*
X246398Y368543D02*
D03*
X266083D02*
D03*
X256240Y423661D02*
D03*
Y403976D02*
D03*
D47*
X220807Y378386D02*
D03*
Y364606D02*
D03*
Y350827D02*
D03*
Y337047D02*
D03*
Y323268D02*
D03*
Y309488D02*
D03*
Y295709D02*
D03*
Y281929D02*
D03*
Y268150D02*
D03*
D48*
X300000Y224803D02*
D03*
X489370Y449606D02*
D03*
X207538D02*
D03*
X489370Y183071D02*
D03*
D49*
X268209Y190197D02*
D03*
X258209D02*
D03*
X248209D02*
D03*
X228209D02*
D03*
X288209D02*
D03*
X218209D02*
D03*
X238209D02*
D03*
X278209D02*
D03*
D50*
X346791Y376417D02*
D03*
X416516D02*
D03*
D51*
X298425Y422835D02*
D03*
X434252Y265748D02*
D03*
X423228Y318110D02*
D03*
X366142Y355906D02*
D03*
X364173Y339764D02*
D03*
X440945Y400394D02*
D03*
X452362Y374410D02*
D03*
X461811Y300394D02*
D03*
X480177Y269646D02*
D03*
X342520Y234252D02*
D03*
X329134Y265354D02*
D03*
X405905Y251181D02*
D03*
X377165Y198819D02*
D03*
X408194Y206299D02*
D03*
X354724Y205512D02*
D03*
X309842Y188976D02*
D03*
X269291Y216142D02*
D03*
X240945Y259055D02*
D03*
X320079Y364961D02*
D03*
X305118Y384646D02*
D03*
X271260Y259055D02*
D03*
X261811Y345669D02*
D03*
X364567Y221260D02*
D03*
X324410Y254331D02*
D03*
X335433Y232677D02*
D03*
X404557Y220866D02*
D03*
X281496Y296346D02*
D03*
X356299Y290158D02*
D03*
X401181Y265748D02*
D03*
X376378Y280315D02*
D03*
X385039Y341339D02*
D03*
X424803Y296850D02*
D03*
X436614Y304331D02*
D03*
X452822Y320092D02*
D03*
X461811Y402756D02*
D03*
X440295Y387039D02*
D03*
X477559Y311417D02*
D03*
X415354Y188583D02*
D03*
X354331Y192520D02*
D03*
X305118Y193307D02*
D03*
X270079Y248425D02*
D03*
X258268Y298819D02*
D03*
X271260Y302756D02*
D03*
X382677Y433465D02*
D03*
X311811Y407480D02*
D03*
X298425Y407874D02*
D03*
X266929Y437402D02*
D03*
X357421Y305157D02*
D03*
X355847Y311457D02*
D03*
X338162Y323694D02*
D03*
X318088Y277481D02*
D03*
X323169Y273661D02*
D03*
X329047Y304758D02*
D03*
X331437Y331535D02*
D03*
X312933Y279398D02*
D03*
M02*
