G04*
G04 #@! TF.GenerationSoftware,Altium Limited,Altium Designer,21.1.1 (26)*
G04*
G04 Layer_Physical_Order=1*
G04 Layer_Color=255*
%FSLAX25Y25*%
%MOIN*%
G70*
G04*
G04 #@! TF.SameCoordinates,8F0E7BDE-0208-4869-AEA5-3AB6D08E33FE*
G04*
G04*
G04 #@! TF.FilePolarity,Positive*
G04*
G01*
G75*
%ADD12C,0.01000*%
%ADD16C,0.02000*%
%ADD31R,0.24410X0.22835*%
%ADD32R,0.11811X0.06299*%
%ADD34R,0.22835X0.24410*%
%ADD38R,0.06299X0.11811*%
%ADD52R,0.05906X0.06299*%
%ADD53R,0.07087X0.05512*%
%ADD54R,0.05512X0.07087*%
%ADD55R,0.10630X0.05512*%
%ADD56O,0.05315X0.01575*%
%ADD57R,0.07087X0.07480*%
G04:AMPARAMS|DCode=58|XSize=62.99mil|YSize=55.12mil|CornerRadius=13.78mil|HoleSize=0mil|Usage=FLASHONLY|Rotation=270.000|XOffset=0mil|YOffset=0mil|HoleType=Round|Shape=RoundedRectangle|*
%AMROUNDEDRECTD58*
21,1,0.06299,0.02756,0,0,270.0*
21,1,0.03543,0.05512,0,0,270.0*
1,1,0.02756,-0.01378,-0.01772*
1,1,0.02756,-0.01378,0.01772*
1,1,0.02756,0.01378,0.01772*
1,1,0.02756,0.01378,-0.01772*
%
%ADD58ROUNDEDRECTD58*%
%ADD59R,0.05512X0.10630*%
%ADD60R,0.04134X0.02362*%
%ADD61R,0.04016X0.08504*%
%ADD62R,0.32795X0.27520*%
%ADD63R,0.04862X0.07520*%
%ADD64R,0.07284X0.02559*%
%ADD65R,0.07087X0.05118*%
%ADD66O,0.07795X0.02087*%
%ADD67R,0.06299X0.05906*%
%ADD68O,0.06496X0.01772*%
%ADD69R,0.06004X0.02559*%
%ADD70R,0.10236X0.12598*%
%ADD71R,0.06102X0.02756*%
%ADD72R,0.05807X0.01772*%
%ADD73C,0.03000*%
%ADD74C,0.01500*%
%ADD75C,0.04000*%
%ADD76C,0.05000*%
%ADD77C,0.04500*%
%ADD78C,0.06496*%
%ADD79C,0.08858*%
%ADD80O,0.06299X0.03543*%
%ADD81C,0.06000*%
%ADD82C,0.08661*%
%ADD83C,0.12205*%
%ADD84O,0.07874X0.11811*%
%ADD85O,0.11811X0.07874*%
%ADD86C,0.09055*%
%ADD87C,0.05000*%
D12*
X266289Y290501D02*
X267085Y291298D01*
X274467D01*
X275728Y292559D01*
D16*
X433996Y361063D02*
X439705D01*
X431732Y358799D02*
X433996Y361063D01*
X431732Y350925D02*
Y358799D01*
D31*
X333366Y191378D02*
D03*
D32*
X305453Y200374D02*
D03*
Y182382D02*
D03*
D34*
X440551Y416142D02*
D03*
D38*
X431555Y388228D02*
D03*
X449547D02*
D03*
D52*
X421201Y441772D02*
D03*
X407028D02*
D03*
X460571Y374449D02*
D03*
X474744D02*
D03*
D53*
X385177Y335079D02*
D03*
Y346890D02*
D03*
X370079Y345905D02*
D03*
Y334095D02*
D03*
X473563Y409094D02*
D03*
Y397284D02*
D03*
X347776Y334095D02*
D03*
Y345905D02*
D03*
X358602Y334095D02*
D03*
Y345905D02*
D03*
X451122Y281929D02*
D03*
Y270118D02*
D03*
X451909Y338622D02*
D03*
Y350433D02*
D03*
X337933Y265197D02*
D03*
Y253386D02*
D03*
X373366Y251417D02*
D03*
Y239606D02*
D03*
X361555Y251417D02*
D03*
Y239606D02*
D03*
X324016Y235433D02*
D03*
Y247244D02*
D03*
X258209Y449252D02*
D03*
Y437441D02*
D03*
X281437Y290591D02*
D03*
Y302402D02*
D03*
Y266181D02*
D03*
Y277992D02*
D03*
X292067Y290591D02*
D03*
Y302402D02*
D03*
D54*
X456043Y311457D02*
D03*
X467854D02*
D03*
X428484Y277008D02*
D03*
X440295D02*
D03*
X419626Y281929D02*
D03*
X407815D02*
D03*
X394035Y298661D02*
D03*
X405847D02*
D03*
X382618Y441772D02*
D03*
X394429D02*
D03*
X473957Y385866D02*
D03*
X462146D02*
D03*
X397972Y210079D02*
D03*
X386161D02*
D03*
X358602Y355748D02*
D03*
X346791D02*
D03*
X440295Y266181D02*
D03*
X428484D02*
D03*
X456043Y300630D02*
D03*
X467854D02*
D03*
X406831Y336063D02*
D03*
X395020D02*
D03*
X406831Y325236D02*
D03*
X395020D02*
D03*
Y260276D02*
D03*
X406831D02*
D03*
X407815Y271102D02*
D03*
X419626D02*
D03*
X439705Y361063D02*
D03*
X451516D02*
D03*
X406831Y346890D02*
D03*
X395020D02*
D03*
X406831Y314409D02*
D03*
X395020D02*
D03*
X346791Y213032D02*
D03*
X334980D02*
D03*
Y223858D02*
D03*
X346791D02*
D03*
X397972Y231732D02*
D03*
X386161D02*
D03*
X397972Y220905D02*
D03*
X386161D02*
D03*
X347776Y241575D02*
D03*
X335965D02*
D03*
X385177Y246496D02*
D03*
X396988D02*
D03*
X261752Y226972D02*
D03*
X249941D02*
D03*
Y259095D02*
D03*
X261752D02*
D03*
X249941Y248304D02*
D03*
X261752D02*
D03*
Y216181D02*
D03*
X249941D02*
D03*
Y237513D02*
D03*
X261752D02*
D03*
X260177Y311457D02*
D03*
X248366D02*
D03*
D55*
X396988Y283898D02*
D03*
Y272087D02*
D03*
X460965Y409094D02*
D03*
Y397284D02*
D03*
X354272Y198858D02*
D03*
Y187047D02*
D03*
D56*
X464213Y280551D02*
D03*
Y283110D02*
D03*
Y272874D02*
D03*
Y275433D02*
D03*
Y277992D02*
D03*
D57*
X474744Y273268D02*
D03*
Y282716D02*
D03*
D58*
X465098Y265394D02*
D03*
Y290591D02*
D03*
D59*
X317264Y295709D02*
D03*
X329075D02*
D03*
X433405Y374449D02*
D03*
X445217D02*
D03*
D60*
X301122Y295709D02*
D03*
X309784Y299449D02*
D03*
Y291968D02*
D03*
D61*
X284980Y398071D02*
D03*
X291673D02*
D03*
X298366D02*
D03*
X305059D02*
D03*
X311752D02*
D03*
D62*
X298366Y440098D02*
D03*
D63*
X317195Y450098D02*
D03*
X279537D02*
D03*
D64*
X348071Y325256D02*
D03*
Y320256D02*
D03*
Y315256D02*
D03*
Y310256D02*
D03*
Y305256D02*
D03*
Y300256D02*
D03*
Y295256D02*
D03*
Y290256D02*
D03*
Y285256D02*
D03*
Y280256D02*
D03*
Y275256D02*
D03*
Y270256D02*
D03*
Y265256D02*
D03*
Y260256D02*
D03*
X384882D02*
D03*
Y265256D02*
D03*
Y270256D02*
D03*
Y275256D02*
D03*
Y280256D02*
D03*
Y285256D02*
D03*
Y290256D02*
D03*
Y295256D02*
D03*
Y300256D02*
D03*
Y305256D02*
D03*
Y310256D02*
D03*
Y315256D02*
D03*
Y320256D02*
D03*
Y325256D02*
D03*
D65*
X405847Y188031D02*
D03*
Y199449D02*
D03*
X396693Y187933D02*
D03*
Y199350D02*
D03*
D66*
X386024Y185453D02*
D03*
Y190453D02*
D03*
Y195453D02*
D03*
Y200453D02*
D03*
X366614Y185453D02*
D03*
Y190453D02*
D03*
Y195453D02*
D03*
Y200453D02*
D03*
D67*
X441772Y351024D02*
D03*
Y336850D02*
D03*
X431732Y350925D02*
D03*
Y336752D02*
D03*
X324016Y225197D02*
D03*
Y211024D02*
D03*
X246398Y436260D02*
D03*
Y450433D02*
D03*
D68*
X445217Y292559D02*
D03*
Y295118D02*
D03*
Y297677D02*
D03*
Y300236D02*
D03*
Y302795D02*
D03*
Y305354D02*
D03*
Y307913D02*
D03*
Y310472D02*
D03*
Y313032D02*
D03*
Y315591D02*
D03*
Y318150D02*
D03*
Y320709D02*
D03*
Y323268D02*
D03*
Y325827D02*
D03*
X416673Y292559D02*
D03*
Y295118D02*
D03*
Y297677D02*
D03*
Y300236D02*
D03*
Y302795D02*
D03*
Y305354D02*
D03*
Y307913D02*
D03*
Y310472D02*
D03*
Y313032D02*
D03*
Y315591D02*
D03*
Y318150D02*
D03*
Y320709D02*
D03*
Y323268D02*
D03*
Y325827D02*
D03*
D69*
X377153Y216358D02*
D03*
Y221358D02*
D03*
Y226358D02*
D03*
Y231358D02*
D03*
X355799D02*
D03*
Y226358D02*
D03*
Y221358D02*
D03*
Y216358D02*
D03*
D70*
X329272Y364606D02*
D03*
X285571D02*
D03*
D71*
X249449Y268898D02*
D03*
Y273898D02*
D03*
Y278898D02*
D03*
Y283898D02*
D03*
Y288898D02*
D03*
Y293898D02*
D03*
Y298898D02*
D03*
X270905D02*
D03*
Y293898D02*
D03*
Y288898D02*
D03*
Y283898D02*
D03*
Y278898D02*
D03*
Y273898D02*
D03*
Y268898D02*
D03*
D72*
X267807Y320216D02*
D03*
Y322776D02*
D03*
Y325335D02*
D03*
Y327894D02*
D03*
Y330453D02*
D03*
Y333012D02*
D03*
Y335571D02*
D03*
Y338130D02*
D03*
X244673D02*
D03*
Y335571D02*
D03*
Y333012D02*
D03*
Y330453D02*
D03*
Y327894D02*
D03*
Y325335D02*
D03*
Y322776D02*
D03*
Y320216D02*
D03*
D73*
X305881Y262209D02*
X311717D01*
X323169Y273661D01*
X282960Y239288D02*
X305881Y262209D01*
X428701Y265965D02*
X434035D01*
X434252Y265748D01*
X428484Y266181D02*
X428701Y265965D01*
X440551Y416142D02*
Y431102D01*
X421201Y441772D02*
X429882D01*
X440551Y431102D01*
X324016Y225197D02*
Y235433D01*
X406831Y325236D02*
Y336063D01*
X358681Y355827D02*
X366063D01*
X358602Y355748D02*
X358681Y355827D01*
X366063D02*
X366142Y355906D01*
X364556Y340146D02*
Y341170D01*
X364173Y339764D02*
X364556Y340146D01*
X369291Y345905D02*
X370079D01*
X364556Y341170D02*
X369291Y345905D01*
X359390Y334095D02*
X363791Y338495D01*
Y339381D02*
X364173Y339764D01*
X358602Y334095D02*
X359390D01*
X363791Y338495D02*
Y339381D01*
X440945Y415748D02*
X447598Y409094D01*
X440551Y416142D02*
X440945Y415748D01*
Y400394D02*
Y415748D01*
X451197Y381480D02*
Y386579D01*
Y381480D02*
X452362Y380315D01*
X449547Y388228D02*
X451197Y386579D01*
X452362Y374410D02*
Y380315D01*
X452382Y374429D02*
X460551D01*
X452362Y374410D02*
X452382Y374429D01*
X460551D02*
X460571Y374449D01*
X451516Y361063D02*
X452362Y361909D01*
Y374410D01*
X452323Y374449D02*
X452362Y374410D01*
X445217Y374449D02*
X452323D01*
X461713Y338622D02*
X471594Y328740D01*
X451909Y338622D02*
X461713D01*
X471594Y328740D02*
X473563D01*
X456043Y301417D02*
Y311457D01*
Y300630D02*
Y301417D01*
X461693Y300512D02*
X461811Y300394D01*
X456043Y300630D02*
X456161Y300512D01*
X461693D01*
X346791Y216929D02*
Y223858D01*
X347362Y216358D02*
X355799D01*
X346791Y216929D02*
X347362Y216358D01*
X345535Y225114D02*
Y230695D01*
X342520Y233711D02*
X345535Y230695D01*
X342520Y233711D02*
Y234252D01*
X345535Y225114D02*
X346791Y223858D01*
X342500Y234252D02*
X342520D01*
X335965Y240787D02*
Y241575D01*
Y240787D02*
X342500Y234252D01*
X337854Y265276D02*
X337933Y265197D01*
X329213Y265276D02*
X337854D01*
X329134Y265354D02*
X329213Y265276D01*
X396988Y247284D02*
X398244Y248539D01*
X402723D01*
X405364Y251181D01*
X396988Y246496D02*
Y247284D01*
X405364Y251181D02*
X405905D01*
X396742Y199400D02*
X405797D01*
X396693Y199350D02*
X396742Y199400D01*
X405797D02*
X405847Y199449D01*
X406752D01*
X407812Y200508D01*
Y205917D01*
X408194Y206299D01*
X354272Y198858D02*
X354724Y199311D01*
Y205512D01*
X305453Y182382D02*
X308193D01*
X309842Y184031D01*
Y188976D01*
X261772Y216161D02*
X269272D01*
X269291Y216142D01*
X261752Y216181D02*
X261772Y216161D01*
X240945Y259055D02*
X240984Y259095D01*
X249941D01*
X261417Y345276D02*
X261811Y345669D01*
X261417Y339764D02*
Y345276D01*
Y339764D02*
X261811Y339370D01*
X324016Y200728D02*
X333366Y191378D01*
X324016Y200728D02*
Y211024D01*
X364567Y221260D02*
X370079Y226772D01*
X370866D01*
X364469Y221358D02*
X364567Y221260D01*
X355799Y221358D02*
X364469D01*
X325896Y253386D02*
X337933D01*
X324951Y254331D02*
X325896Y253386D01*
X324410Y254331D02*
X324951D01*
X324213Y254134D02*
X324410Y254331D01*
X324016Y247244D02*
X324213Y247441D01*
Y254134D01*
X335207Y224085D02*
Y232451D01*
X334980Y223858D02*
X335207Y224085D01*
Y232451D02*
X335433Y232677D01*
X334980Y213032D02*
Y223858D01*
X397992Y220886D02*
X404537D01*
X397972Y220905D02*
X397992Y220886D01*
X404537D02*
X404557Y220866D01*
X397972Y220905D02*
Y231732D01*
Y210079D02*
Y220905D01*
X281467Y296376D02*
Y302372D01*
Y296376D02*
X281496Y296346D01*
X281437Y302402D02*
X281467Y302372D01*
X281437Y302402D02*
X292067D01*
X356201Y290256D02*
X356299Y290158D01*
X348071Y290256D02*
X356201D01*
X399547Y272087D02*
X400803Y270831D01*
Y266126D02*
Y270831D01*
Y266126D02*
X401181Y265748D01*
X396988Y272087D02*
X399547D01*
X376408Y280285D02*
X384852D01*
X376378Y280315D02*
X376408Y280285D01*
X384852D02*
X384882Y280256D01*
X390914Y340956D02*
X395020Y336850D01*
X385039Y341339D02*
X385422Y340956D01*
X395020Y336063D02*
Y336850D01*
X385422Y340956D02*
X390914D01*
X385108Y341407D02*
Y346821D01*
X385039Y341339D02*
X385108Y341407D01*
Y346821D02*
X385177Y346890D01*
X385030Y334931D02*
X385177Y335079D01*
X384882Y325256D02*
X385030Y325404D01*
Y334931D01*
X395020Y325236D02*
Y336063D01*
X385102Y320476D02*
X391047D01*
X395020Y324449D01*
Y325236D01*
X384882Y320256D02*
X385102Y320476D01*
X249449Y293898D02*
Y298898D01*
Y288898D02*
Y293898D01*
Y283898D02*
Y288898D01*
Y278898D02*
Y283898D01*
Y273898D02*
Y278898D01*
X249488Y298858D02*
X258228D01*
X258268Y298819D01*
X249449Y298898D02*
X249488Y298858D01*
X270905Y302402D02*
X271260Y302756D01*
X270905Y298898D02*
Y302402D01*
X266890Y437441D02*
X266929Y437402D01*
X258209Y437441D02*
X266890D01*
X447598Y409094D02*
X460965D01*
X357421Y305157D02*
X365959D01*
X370079Y309277D02*
Y334095D01*
X365959Y305157D02*
X370079Y309277D01*
X377165Y349705D02*
X382224Y354764D01*
X377165Y308155D02*
Y349705D01*
X369266Y300256D02*
X377165Y308155D01*
X348071Y310256D02*
X348291Y310476D01*
X338162Y323694D02*
X341600Y320256D01*
X348120Y305207D02*
X357372D01*
X348071Y305256D02*
X348120Y305207D01*
X348291Y310476D02*
X354325D01*
X355305Y311457D02*
X355847D01*
X354325Y310476D02*
X355305Y311457D01*
X357372Y305207D02*
X357421Y305157D01*
X341600Y320256D02*
X348071D01*
X333366Y191378D02*
X340846Y198858D01*
X354272D01*
X460965Y409094D02*
X473563D01*
X305915Y265609D02*
X317786Y277481D01*
X318088D01*
X304473Y265609D02*
X305915D01*
X279560Y213713D02*
Y240696D01*
X304473Y265609D01*
X329047Y304758D02*
X329075Y304730D01*
Y295709D02*
Y304730D01*
X333001Y331918D02*
X346988Y345905D01*
X331820Y331918D02*
X333001D01*
X331437Y331535D02*
X331820Y331918D01*
X346988Y345905D02*
X347776D01*
X312933Y278878D02*
Y279398D01*
X276122Y242067D02*
X312933Y278878D01*
X315330Y325737D02*
X334336Y306731D01*
X277824Y325737D02*
X315330D01*
X334336Y288001D02*
Y306731D01*
X277846Y329137D02*
X316739D01*
X337736Y289887D02*
Y308139D01*
X316739Y329137D02*
X337736Y308139D01*
X318147Y332537D02*
X338828Y311856D01*
X339522D02*
X341280Y310099D01*
X279468Y332537D02*
X318147D01*
X341280Y297234D02*
Y310099D01*
X338828Y311856D02*
X339522D01*
X340236Y315256D02*
X348071D01*
X319555Y335937D02*
X340236Y315256D01*
X274224Y335937D02*
X319555D01*
X268042Y201999D02*
X272654D01*
X282960Y212305D02*
Y239288D01*
X258209Y192165D02*
X268042Y201999D01*
X272654D02*
X282960Y212305D01*
X258209Y190197D02*
Y192165D01*
X271246Y205399D02*
X279560Y213713D01*
X269837Y208799D02*
X276122Y215084D01*
Y242067D01*
X234842Y208799D02*
X269837D01*
X218209Y192165D02*
X234842Y208799D01*
X261442Y205399D02*
X271246D01*
X248209Y190197D02*
Y192165D01*
X261442Y205399D01*
X218209Y190197D02*
Y192165D01*
X451614Y350728D02*
X451909Y350433D01*
X441772Y351024D02*
X442067Y350728D01*
X451614D01*
X439508Y314803D02*
Y328287D01*
X432421Y316870D02*
X437638Y311653D01*
X432421Y316870D02*
Y336063D01*
X431732Y336752D02*
X432421Y336063D01*
X441772Y330551D02*
Y336850D01*
X439508Y328287D02*
X441772Y330551D01*
X410079Y346791D02*
X412441Y344429D01*
X406929Y346791D02*
X410079D01*
X406831Y346890D02*
X406929Y346791D01*
X412441Y326758D02*
Y344429D01*
X413721Y354764D02*
X416526Y351959D01*
X452303Y247677D02*
X453483Y246497D01*
X412694Y235627D02*
X424744Y247677D01*
X459587Y239213D02*
Y240394D01*
X424744Y247677D02*
X452303D01*
X453483Y246497D02*
X459587Y240394D01*
X374153Y251417D02*
X379075Y246496D01*
X385030Y246644D02*
Y260108D01*
X379075Y246496D02*
X385177D01*
X385177Y246496D01*
X373366Y251417D02*
X374153D01*
X379272Y210374D02*
X385866D01*
X377181Y216358D02*
X377402Y216138D01*
X385866Y210374D02*
X386161Y210079D01*
X377402Y212244D02*
Y216138D01*
X377153Y216358D02*
X377181D01*
X377402Y212244D02*
X379272Y210374D01*
X263327Y275777D02*
Y292140D01*
Y275777D02*
X265084Y274020D01*
X263327Y292140D02*
X265084Y293898D01*
Y274020D02*
X270783D01*
X265084Y293898D02*
X270905D01*
X307479Y318937D02*
X320836Y305580D01*
X278189Y318937D02*
X307479D01*
X277824Y325737D02*
X277824Y325737D01*
X278537Y322337D02*
X308888D01*
X270783Y274020D02*
X270905Y273898D01*
Y288898D02*
X278957D01*
X280650Y290591D02*
X281437D01*
X292067D01*
X278957Y288898D02*
X280650Y290591D01*
X319542Y283898D02*
X329778Y273661D01*
X336752D01*
X322382Y285866D02*
X331043Y277205D01*
X337736D01*
X348041Y265226D02*
X348071Y265256D01*
X337933Y265197D02*
X337963Y265226D01*
X348041D01*
X361457Y251319D02*
X361555Y251417D01*
X349533Y251319D02*
X361457D01*
X347776Y249562D02*
X349533Y251319D01*
X347776Y241575D02*
Y249562D01*
X361260Y251713D02*
X361555Y251417D01*
X361260Y251713D02*
Y256437D01*
X348071Y260256D02*
X357441D01*
X361260Y256437D01*
X377193Y221398D02*
X385669D01*
X377153Y221358D02*
X377193Y221398D01*
X385669D02*
X386161Y220905D01*
X383921Y229689D02*
X384906D01*
X377153Y226358D02*
X380591D01*
X383921Y229689D01*
X386161Y230945D02*
Y231732D01*
X384906Y229689D02*
X386161Y230945D01*
X347996Y325256D02*
X348071D01*
X347776Y325476D02*
Y334095D01*
Y325476D02*
X347996Y325256D01*
X347776Y345905D02*
X358602D01*
X347284Y346398D02*
Y355256D01*
Y346398D02*
X347776Y345905D01*
X346791Y355748D02*
X347284Y355256D01*
X441083Y351024D02*
X441181Y350925D01*
X371890Y238350D02*
X373146Y239606D01*
X373366D01*
X371890Y233701D02*
Y238350D01*
X371791Y233701D02*
X371890D01*
X364449Y226358D02*
X371791Y233701D01*
X355799Y226358D02*
X364449D01*
X361555Y233799D02*
Y239606D01*
X359193Y231437D02*
X361555Y233799D01*
X355878Y231437D02*
X359193D01*
X355799Y231358D02*
X355878Y231437D01*
X416476Y227205D02*
X428484Y239213D01*
X412694Y199491D02*
Y235627D01*
X411852Y193840D02*
X416476Y198465D01*
Y227205D01*
X308888Y322337D02*
X324224Y307000D01*
X277810Y329173D02*
X277846Y329137D01*
X332308Y280748D02*
X337343D01*
X325180Y287877D02*
X332308Y280748D01*
X377244Y265256D02*
X384882D01*
X359784Y282716D02*
X377244Y265256D01*
X354272Y282716D02*
X359784D01*
X337736Y289887D02*
X342147Y285476D01*
X334336Y288001D02*
X337497Y284840D01*
X337497Y284840D02*
X337581D01*
X341280Y297234D02*
X343037Y295476D01*
X347850D01*
X348071Y295256D01*
Y300256D02*
X369266D01*
X382224Y354764D02*
X413721D01*
X449079Y268075D02*
Y268862D01*
X440295Y266181D02*
X447185D01*
X450335Y270118D02*
X451122D01*
X449079Y268862D02*
X450335Y270118D01*
X447185Y266181D02*
X449079Y268075D01*
X395020Y346890D02*
X398957D01*
X400925Y344921D01*
Y311329D02*
Y344921D01*
X394035Y298661D02*
Y298780D01*
Y297874D02*
Y298661D01*
X385102Y300036D02*
X392779D01*
X394035Y298780D01*
X384882Y300256D02*
X385102Y300036D01*
X406559Y283185D02*
X407815Y281929D01*
X394429Y283898D02*
X396988D01*
X393071Y285256D02*
X394429Y283898D01*
X384882Y285256D02*
X393071D01*
X404438Y275267D02*
X407815Y271890D01*
X404438Y275267D02*
Y275395D01*
X407815Y271102D02*
Y271890D01*
X401840Y277992D02*
X404438Y275395D01*
X391083Y277992D02*
X401840D01*
X388567Y275476D02*
X391083Y277992D01*
X384882Y275256D02*
X385102Y275476D01*
X388567D01*
X395020Y260276D02*
X395020Y260276D01*
X395020Y260276D02*
Y264424D01*
X393262Y266181D02*
X395020Y264424D01*
X392067Y266181D02*
X393262D01*
X384882Y260256D02*
X385030Y260108D01*
Y246644D02*
X385177Y246496D01*
X406831Y272087D02*
X407815Y271102D01*
X384882Y305256D02*
X408971D01*
X409660Y304567D01*
X385102Y315036D02*
X394394D01*
X395020Y314409D01*
X384882Y315256D02*
X385102Y315036D01*
X390620Y308966D02*
X398563D01*
X400925Y311329D01*
X389551Y310035D02*
X390620Y308966D01*
X384882Y310256D02*
X385102Y310035D01*
X389551D01*
X270905Y283898D02*
X319542D01*
X309784Y291968D02*
Y299449D01*
X316008Y291968D02*
X317264Y293224D01*
X309784Y291968D02*
X316008D01*
X317264Y293224D02*
Y295709D01*
X297654Y295390D02*
X300803D01*
X301122Y295709D01*
X292067Y290591D02*
X292854D01*
X297654Y295390D01*
X271028Y278776D02*
X280654D01*
X281437Y277992D01*
X270905Y278898D02*
X271028Y278776D01*
X249941Y238300D02*
X251197Y239556D01*
X254089D01*
X255847Y241313D01*
Y264606D02*
X260138Y268898D01*
X255847Y241313D02*
Y264606D01*
X249941Y237513D02*
Y238300D01*
X260138Y268898D02*
X270905D01*
X249941Y248304D02*
Y259095D01*
X249573Y268898D02*
X249695Y268776D01*
Y259341D02*
Y268776D01*
Y259341D02*
X249941Y259095D01*
X249449Y268898D02*
X249573D01*
X251656Y305194D02*
X255875Y309413D01*
X258921D02*
X260177Y310669D01*
X244550Y305194D02*
X251656D01*
X255875Y309413D02*
X258921D01*
X220807Y268150D02*
X230650D01*
X238929Y288240D02*
Y311862D01*
X232618Y281929D02*
X238929Y288240D01*
X242429Y279929D02*
Y303073D01*
X238929Y311862D02*
X240492Y313425D01*
X230650Y268150D02*
X242429Y279929D01*
X235429Y316236D02*
X236555Y317362D01*
X230650Y295709D02*
X235429Y300488D01*
Y316236D01*
X260177Y310669D02*
Y311457D01*
X242429Y303073D02*
X244550Y305194D01*
X220807Y281929D02*
X232618D01*
X220807Y295709D02*
X230650D01*
X248366Y311457D02*
Y318541D01*
X221890Y349744D02*
X225827D01*
X220807Y350827D02*
X221890Y349744D01*
X225827D02*
X236555Y339016D01*
X220807Y337047D02*
X232618D01*
X220807Y323268D02*
X227992Y330453D01*
X233898D01*
X220807Y309488D02*
X236555Y325236D01*
D74*
X424016Y330709D02*
X427628Y327097D01*
Y299533D02*
X440295Y286865D01*
X427628Y299533D02*
Y327097D01*
X429528Y300320D02*
X444429Y285418D01*
X425916Y331496D02*
X429528Y327884D01*
Y300320D02*
Y327884D01*
X425916Y331496D02*
Y341339D01*
X427893Y343317D02*
X467018D01*
X425916Y341339D02*
X427893Y343317D01*
X424016Y330709D02*
Y342126D01*
X427106Y345216D02*
X466346D01*
X424016Y342126D02*
X427106Y345216D01*
X423209Y318130D02*
X423228Y318110D01*
X416673Y318150D02*
X416693Y318130D01*
X423209D01*
X413865Y318202D02*
X416621D01*
X406831Y324449D02*
X408837Y322443D01*
X416621Y318202D02*
X416673Y318150D01*
X409624Y322443D02*
X413865Y318202D01*
X408837Y322443D02*
X409624D01*
X406831Y324449D02*
Y325236D01*
X458293Y272860D02*
X464198D01*
X464213Y272874D01*
X458268Y272835D02*
X458293Y272860D01*
X393228Y185453D02*
X395709Y187933D01*
X386024Y185453D02*
X393228D01*
X395709Y187933D02*
X396693D01*
X377165Y198819D02*
X378799Y200453D01*
X386024D01*
X375926Y203485D02*
X390181D01*
X372835Y200394D02*
X375926Y203485D01*
X372835Y196602D02*
Y200394D01*
X366614Y195453D02*
X366726Y195565D01*
X369995D02*
X370154Y195724D01*
X371956D02*
X372835Y196602D01*
X370154Y195724D02*
X371956D01*
X366726Y195565D02*
X369995D01*
X401575Y204724D02*
X403937Y207087D01*
X394107Y204724D02*
X401575D01*
X391164Y201782D02*
X394107Y204724D01*
X403937Y212992D02*
X409055Y218110D01*
X406693Y226772D02*
X409055Y224410D01*
Y218110D02*
Y224410D01*
X406693Y226772D02*
Y239764D01*
X403937Y207087D02*
Y212992D01*
X406693Y239764D02*
X419626Y252697D01*
X261811Y339370D02*
X263051Y338130D01*
X267807D01*
X370866Y226772D02*
Y226793D01*
X375431Y231358D01*
X377153D01*
X424803Y296850D02*
Y297427D01*
X421733Y300497D02*
Y306614D01*
Y300497D02*
X424803Y297427D01*
X420381Y310420D02*
X421259Y309542D01*
Y307087D02*
Y309542D01*
X416725Y310420D02*
X420381D01*
X416673Y310472D02*
X416725Y310420D01*
X421259Y307087D02*
X421733Y306614D01*
X420485Y307861D02*
X421259Y307087D01*
X416673Y307913D02*
X416725Y307861D01*
X420485D01*
X440657Y300288D02*
X445165D01*
X436614Y304331D02*
X440657Y300288D01*
X445165D02*
X445217Y300236D01*
X440197Y307913D02*
X445217D01*
X436614Y304331D02*
X440197Y307913D01*
X455098Y301575D02*
X456043Y300630D01*
X451575Y301575D02*
X455098D01*
X445217Y302795D02*
X450354D01*
X451575Y301575D01*
X452106Y305354D02*
X456043Y301417D01*
X445217Y305354D02*
X452106D01*
X452152Y316653D02*
Y319423D01*
X445217Y315591D02*
X451090D01*
X452152Y319423D02*
X452822Y320092D01*
X451090Y315591D02*
X452152Y316653D01*
X450326Y318150D02*
X452269Y320092D01*
X445217Y318150D02*
X450326D01*
X452269Y320092D02*
X452822D01*
X452205Y320709D02*
X452822Y320092D01*
X445217Y320709D02*
X452205D01*
X407815Y281929D02*
Y285866D01*
X466346Y345216D02*
X469870Y348740D01*
X467018Y343317D02*
X471594Y338740D01*
X473563D01*
X469870Y348740D02*
X473563D01*
X440295Y277008D02*
Y286865D01*
X410768Y289803D02*
X425827D01*
X434833Y280797D01*
Y273415D02*
Y280797D01*
X443715Y288819D02*
X448169D01*
X440819Y291716D02*
X443715Y288819D01*
X444429Y280748D02*
Y285418D01*
X440819Y295961D02*
X442011Y297154D01*
X440819Y291716D02*
Y295961D01*
X442011Y297154D02*
X442258D01*
X442781Y297677D02*
X445217D01*
X442258Y297154D02*
X442781Y297677D01*
X444429Y280748D02*
X446004Y279173D01*
X443347Y271398D02*
X446004Y274055D01*
Y279173D01*
X436850Y271398D02*
X443347D01*
X434833Y273415D02*
X436850Y271398D01*
X410498Y287172D02*
X425112D01*
X428484Y277008D02*
Y283799D01*
X425112Y287172D02*
X428484Y283799D01*
X437638Y311653D02*
X438819Y310472D01*
X439508Y314803D02*
X441227Y313084D01*
X445165D01*
X445217Y313032D01*
X438819Y310472D02*
X445217D01*
X416526Y351959D02*
X416673Y351811D01*
Y331929D02*
Y351811D01*
X421201Y321935D02*
Y327402D01*
X416673Y331929D02*
X421201Y327402D01*
X420027Y320761D02*
X421201Y321935D01*
X416725Y320761D02*
X420027D01*
X416673Y320709D02*
X416725Y320761D01*
X406831Y345905D02*
X407421Y346496D01*
X412441Y326758D02*
X413320Y325879D01*
X416621D01*
X416673Y325827D01*
X419626Y252697D02*
Y271102D01*
X392687Y205992D02*
Y235404D01*
X390787Y206779D02*
Y250138D01*
X390181Y203485D02*
X392687Y205992D01*
X389394Y205385D02*
X390787Y206779D01*
X392687Y235404D02*
X394528Y237244D01*
X374401Y205385D02*
X389394D01*
X390787Y250138D02*
X394232Y253583D01*
X415394Y281929D02*
X419626D01*
X413819Y280354D02*
X415394Y281929D01*
X407332Y290338D02*
X410498Y287172D01*
X407852Y292719D02*
X410768Y289803D01*
X405847Y298661D02*
X407852Y296656D01*
Y292719D02*
Y296656D01*
X400236Y237244D02*
X413819Y250827D01*
Y280354D01*
X394528Y237244D02*
X400236D01*
X400531Y258405D02*
X402402Y260276D01*
X406831D01*
X400531Y256240D02*
Y258405D01*
X397874Y253583D02*
X400531Y256240D01*
X394232Y253583D02*
X397874D01*
X389173Y197646D02*
X391164Y199637D01*
X382261Y197646D02*
X389173D01*
X391164Y199637D02*
Y201782D01*
X375067Y190453D02*
X382261Y197646D01*
X366614Y190453D02*
X375067D01*
X369468Y200453D02*
X374401Y205385D01*
X366614Y200453D02*
X369468D01*
X267167Y279526D02*
X270278D01*
X266289Y280404D02*
Y290501D01*
Y280404D02*
X267167Y279526D01*
X270278D02*
X270905Y278898D01*
X274350Y322776D02*
X278189Y318937D01*
X277266Y325737D02*
X277824D01*
X275109Y327894D02*
X277266Y325737D01*
X267807Y325335D02*
X274478D01*
X277476Y322337D01*
X278537D01*
X267807Y322776D02*
X274350D01*
X267807Y327894D02*
X275109D01*
X275728Y292559D02*
Y316968D01*
X272480Y320216D02*
X275728Y316968D01*
X267807Y320216D02*
X272480D01*
X336752Y273661D02*
X340158Y270256D01*
X348071D01*
X410004Y195740D02*
X412694Y198430D01*
X391379Y195740D02*
X410004D01*
X412694Y198430D02*
Y199491D01*
X388779Y190453D02*
X392166Y193840D01*
X386136Y195565D02*
X391205D01*
X386024Y195453D02*
X386136Y195565D01*
X391205D02*
X391379Y195740D01*
X392166Y193840D02*
X411852D01*
X386024Y190453D02*
X388779D01*
X445217Y292559D02*
X449154D01*
X445217Y292559D02*
X445217Y292559D01*
X449154D02*
X458602Y283110D01*
X448169Y288819D02*
X451122Y285866D01*
X450864Y295118D02*
X460115Y285866D01*
X467264D01*
X445217Y295118D02*
X450864D01*
X458602Y279567D02*
Y283110D01*
Y279567D02*
X460177Y277992D01*
X464213D01*
X467475Y275447D02*
X468839Y276811D01*
X464213Y275433D02*
X464227Y275447D01*
X467475D01*
X468839Y276811D02*
Y284291D01*
X467264Y285866D02*
X468839Y284291D01*
X276530Y330453D02*
X277810Y329173D01*
X267807Y330453D02*
X276530D01*
X279085Y332921D02*
X279468Y332537D01*
X272761Y332921D02*
X279085D01*
X339685Y275256D02*
X348071D01*
X337736Y277205D02*
X339685Y275256D01*
X325159Y287898D02*
Y306066D01*
Y287898D02*
X325180Y287877D01*
X324224Y307000D02*
X325159Y306066D01*
X337343Y280748D02*
X337835Y280256D01*
X348071D01*
X339705Y282716D02*
X354272D01*
X337581Y284840D02*
X339705Y282716D01*
X322382Y285866D02*
Y303976D01*
X320836Y305522D02*
Y305580D01*
Y305522D02*
X322382Y303976D01*
X342147Y285476D02*
X347850D01*
X348071Y285256D01*
X267807Y333012D02*
X272670D01*
X272761Y332921D01*
X267807Y335571D02*
X273858D01*
X451122Y281929D02*
Y285866D01*
X392162Y290338D02*
X407332D01*
X387244Y295256D02*
X392162Y290338D01*
X384882Y295256D02*
X387244D01*
X405775Y287906D02*
X407815Y285866D01*
X391011Y287906D02*
X405775D01*
X389191Y289726D02*
X391011Y287906D01*
X385411Y289726D02*
X389191D01*
X384882Y290256D02*
X385411Y289726D01*
X384882Y270256D02*
X387244D01*
X391319Y266181D01*
X392067D01*
X413714Y300760D02*
X414237Y300236D01*
X413468Y300760D02*
X413714D01*
X409660Y304567D02*
X413468Y300760D01*
X414237Y300236D02*
X416673D01*
X408012Y315591D02*
X416673D01*
X406831Y314409D02*
X408012Y315591D01*
X244673Y320216D02*
X246691D01*
X248366Y318541D01*
X249449Y338130D02*
X250335Y339016D01*
X244673Y338130D02*
X249449D01*
X240000Y335571D02*
X244673D01*
X236555Y339016D02*
X240000Y335571D01*
X232618Y337047D02*
X236653Y333012D01*
X244673D01*
X233898Y330453D02*
X244673D01*
X236555Y325236D02*
X239213Y327894D01*
X244673D01*
X240492Y313425D02*
Y321593D01*
X241539Y322640D01*
X244537D01*
X236555Y317362D02*
Y320484D01*
X244537Y325199D02*
X244673Y325335D01*
X236555Y320484D02*
X241270Y325199D01*
X244537D01*
Y322640D02*
X244673Y322776D01*
D75*
X328917Y364961D02*
X329272Y364606D01*
X320079Y364961D02*
X328917D01*
X305059Y398071D02*
X305067Y398063D01*
Y384697D02*
Y398063D01*
Y384697D02*
X305118Y384646D01*
X271260Y259055D02*
X271451Y259246D01*
X278144D01*
X281102Y262205D01*
Y265846D01*
X281437Y266181D01*
X261752Y259095D02*
X261772Y259075D01*
X271240D01*
X271260Y259055D01*
X460965Y397284D02*
X461620Y397939D01*
Y402565D01*
X461811Y402756D01*
X461390Y397284D02*
X473563D01*
X462146Y385866D02*
Y396528D01*
X461390Y397284D02*
X462146Y396528D01*
X460965Y397284D02*
X461390D01*
X439106Y388228D02*
X440295Y387039D01*
X431555Y388228D02*
X439106D01*
X432650Y375205D02*
Y387134D01*
X431555Y388228D02*
X432650Y387134D01*
Y375205D02*
X433405Y374449D01*
X477520Y311457D02*
X477559Y311417D01*
X467854Y311457D02*
X477520D01*
X467854Y300630D02*
Y311457D01*
X405847Y188031D02*
X406206Y188391D01*
X415163D01*
X415354Y188583D01*
X396693Y187933D02*
X396742Y187982D01*
X405797D01*
X405847Y188031D01*
X354301Y187077D02*
Y192490D01*
X354272Y187047D02*
X354301Y187077D01*
Y192490D02*
X354331Y192520D01*
X305285Y193474D02*
Y200207D01*
X305118Y193307D02*
X305285Y193474D01*
Y200207D02*
X305453Y200374D01*
X270018Y248364D02*
X270079Y248425D01*
X261752Y248304D02*
X261813Y248364D01*
X270018D01*
X261752Y248304D02*
Y259095D01*
Y237513D02*
Y248304D01*
Y226972D02*
Y237513D01*
X382648Y433494D02*
X382677Y433465D01*
X382618Y441772D02*
X382648Y441742D01*
Y433494D02*
Y441742D01*
X311760Y398079D02*
Y407429D01*
X311752Y398071D02*
X311760Y398079D01*
Y407429D02*
X311811Y407480D01*
X298366Y407815D02*
X298425Y407874D01*
X298366Y398071D02*
Y407815D01*
D76*
X298425Y424016D02*
Y440039D01*
X298366Y440098D02*
X298425Y440039D01*
X473957Y375433D02*
X474744Y374646D01*
Y374449D02*
Y374646D01*
X473957Y375433D02*
Y385866D01*
X394429Y441772D02*
X407028D01*
X285571Y364606D02*
X299350D01*
X311161Y376417D02*
X346791D01*
X299350Y364606D02*
X311161Y376417D01*
X285571Y364606D02*
Y377205D01*
X291673Y383307D01*
Y398071D01*
X256240Y450433D02*
X257421Y449252D01*
X258209D01*
X246398Y450433D02*
X256240D01*
X246595Y436260D02*
X256049Y426805D01*
Y423853D02*
Y426805D01*
Y423853D02*
X256240Y423661D01*
X246398Y436260D02*
X246595D01*
X284980Y398071D02*
Y415394D01*
X276713Y423661D02*
X284980Y415394D01*
X256240Y423661D02*
X276713D01*
X220807Y421693D02*
X254001D01*
D77*
X238738Y216181D02*
X249941D01*
X232045Y222874D02*
X238738Y216181D01*
X220807Y222874D02*
X232045D01*
X249941Y237159D02*
Y237513D01*
Y226972D02*
Y237159D01*
X249435Y236653D02*
X249941Y237159D01*
X220807Y236653D02*
X249435D01*
X236555Y378386D02*
X246398Y368543D01*
X220807Y378386D02*
X236555D01*
X220807Y364606D02*
X242055D01*
X220807Y364606D02*
X220807Y364606D01*
X245992Y368543D02*
X246398D01*
X242055Y364606D02*
X245992Y368543D01*
X246398D02*
X252303Y362638D01*
X246398Y368543D02*
X246398D01*
X252303Y340984D02*
Y362638D01*
X250335Y339016D02*
X252303Y340984D01*
D78*
X220807Y222874D02*
D03*
Y236653D02*
D03*
Y421693D02*
D03*
Y407913D02*
D03*
D79*
X428484Y239213D02*
D03*
X459587D02*
D03*
D80*
X474744Y265000D02*
D03*
Y290984D02*
D03*
D81*
X358602Y419724D02*
D03*
X338917D02*
D03*
X246398Y368543D02*
D03*
X266083D02*
D03*
X256240Y423661D02*
D03*
Y403976D02*
D03*
D82*
X220807Y378386D02*
D03*
Y364606D02*
D03*
Y350827D02*
D03*
Y337047D02*
D03*
Y323268D02*
D03*
Y309488D02*
D03*
Y295709D02*
D03*
Y281929D02*
D03*
Y268150D02*
D03*
D83*
X300000Y224803D02*
D03*
X489370Y449606D02*
D03*
X207538D02*
D03*
X489370Y183071D02*
D03*
D84*
X268209Y190197D02*
D03*
X258209D02*
D03*
X248209D02*
D03*
X228209D02*
D03*
X288209D02*
D03*
X218209D02*
D03*
X238209D02*
D03*
X278209D02*
D03*
D85*
X473563Y338740D02*
D03*
Y358740D02*
D03*
Y328740D02*
D03*
Y348740D02*
D03*
D86*
X346791Y376417D02*
D03*
X416516D02*
D03*
D87*
X434252Y265748D02*
D03*
X423228Y318110D02*
D03*
X366142Y355906D02*
D03*
X364173Y339764D02*
D03*
X440945Y400394D02*
D03*
X452362Y374410D02*
D03*
X461811Y300394D02*
D03*
X458268Y272835D02*
D03*
X342520Y234252D02*
D03*
X329134Y265354D02*
D03*
X405905Y251181D02*
D03*
X377165Y198819D02*
D03*
X408194Y206299D02*
D03*
X354724Y205512D02*
D03*
X309842Y188976D02*
D03*
X269291Y216142D02*
D03*
X240945Y259055D02*
D03*
X320079Y364961D02*
D03*
X305118Y384646D02*
D03*
X271260Y259055D02*
D03*
X261811Y345669D02*
D03*
X364567Y221260D02*
D03*
X324410Y254331D02*
D03*
X335433Y232677D02*
D03*
X404557Y220866D02*
D03*
X281496Y296346D02*
D03*
X356299Y290158D02*
D03*
X401181Y265748D02*
D03*
X376378Y280315D02*
D03*
X385039Y341339D02*
D03*
X424803Y296850D02*
D03*
X436614Y304331D02*
D03*
X452822Y320092D02*
D03*
X461811Y402756D02*
D03*
X440295Y387039D02*
D03*
X477559Y311417D02*
D03*
X415354Y188583D02*
D03*
X354331Y192520D02*
D03*
X305118Y193307D02*
D03*
X270079Y248425D02*
D03*
X258268Y298819D02*
D03*
X271260Y302756D02*
D03*
X382677Y433465D02*
D03*
X311811Y407480D02*
D03*
X298425Y407874D02*
D03*
Y424016D02*
D03*
X266929Y437402D02*
D03*
X357421Y305157D02*
D03*
X355847Y311457D02*
D03*
X338162Y323694D02*
D03*
X318088Y277481D02*
D03*
X323169Y273661D02*
D03*
X329047Y304758D02*
D03*
X331437Y331535D02*
D03*
X312933Y279398D02*
D03*
M02*
