G04*
G04 #@! TF.GenerationSoftware,Altium Limited,Altium Designer,21.1.1 (26)*
G04*
G04 Layer_Color=32896*
%FSLAX25Y25*%
%MOIN*%
G70*
G04*
G04 #@! TF.SameCoordinates,D135156B-8277-4391-89A8-FDCD94A43821*
G04*
G04*
G04 #@! TF.FilePolarity,Positive*
G04*
G01*
G75*
G36*
X371445Y432935D02*
X371533D01*
Y432848D01*
X371707D01*
Y432761D01*
X371970D01*
Y432673D01*
X372494D01*
Y432586D01*
X373106D01*
Y432498D01*
X373456D01*
Y432411D01*
X373718D01*
Y432324D01*
X373980D01*
Y432236D01*
X374330D01*
Y432149D01*
X374767D01*
Y432061D01*
X374942D01*
Y431974D01*
X375204D01*
Y431886D01*
X375466D01*
Y431799D01*
X375816D01*
Y431712D01*
X376078D01*
Y431624D01*
X376253D01*
Y431537D01*
X376515D01*
Y431449D01*
X376778D01*
Y431362D01*
X377127D01*
Y431275D01*
X377389D01*
Y431187D01*
X377564D01*
Y431100D01*
X377739D01*
Y431012D01*
X378001D01*
Y430925D01*
X378351D01*
Y430837D01*
X378526D01*
Y430750D01*
X378701D01*
Y430663D01*
X378875D01*
Y430575D01*
X379225D01*
Y430488D01*
X379487D01*
Y430400D01*
X379662D01*
Y430313D01*
X379837D01*
Y430226D01*
X380099D01*
Y430138D01*
X380362D01*
Y430051D01*
X380624D01*
Y429963D01*
X380711D01*
Y429876D01*
X380886D01*
Y429788D01*
X381148D01*
Y429701D01*
X381498D01*
Y429614D01*
X381673D01*
Y429526D01*
X381760D01*
Y429439D01*
X381935D01*
Y429351D01*
X382197D01*
Y429264D01*
X382460D01*
Y429177D01*
X382634D01*
Y429089D01*
X382722D01*
Y429002D01*
X382897D01*
Y428914D01*
X383159D01*
Y428827D01*
X383509D01*
Y428740D01*
X383596D01*
Y428652D01*
X383683D01*
Y428565D01*
X383771D01*
Y428477D01*
X384208D01*
Y428390D01*
X384383D01*
Y428302D01*
X384558D01*
Y428215D01*
X384645D01*
Y428128D01*
X384732D01*
Y428040D01*
X385170D01*
Y427953D01*
X385344D01*
Y427865D01*
X385432D01*
Y427778D01*
X385519D01*
Y427691D01*
X385781D01*
Y427603D01*
X386131D01*
Y427516D01*
X386306D01*
Y427428D01*
X386393D01*
Y427341D01*
X386481D01*
Y427253D01*
X386743D01*
Y427166D01*
X387005D01*
Y427079D01*
X387180D01*
Y426991D01*
X387267D01*
Y426904D01*
X387355D01*
Y426816D01*
X387617D01*
Y426729D01*
X387967D01*
Y426642D01*
X388054D01*
Y426554D01*
X388142D01*
Y426467D01*
X388229D01*
Y426379D01*
X388491D01*
Y426292D01*
X388841D01*
Y426204D01*
X388929D01*
Y426117D01*
X389016D01*
Y426030D01*
X389103D01*
Y425942D01*
X389453D01*
Y425855D01*
X389715D01*
Y425767D01*
X389803D01*
Y425680D01*
X389890D01*
Y425593D01*
X390065D01*
Y425505D01*
X390415D01*
Y425418D01*
X390589D01*
Y425330D01*
X390677D01*
Y425243D01*
X390764D01*
Y425155D01*
X390852D01*
Y425068D01*
X391289D01*
Y424981D01*
X391463D01*
Y424893D01*
X391551D01*
Y424806D01*
X391638D01*
Y424718D01*
X391813D01*
Y424631D01*
X392163D01*
Y424544D01*
X392338D01*
Y424456D01*
X392425D01*
Y424369D01*
X392513D01*
Y424281D01*
X392775D01*
Y424194D01*
X393037D01*
Y424106D01*
X393125D01*
Y424019D01*
X393212D01*
Y423932D01*
X393299D01*
Y423844D01*
X393649D01*
Y423757D01*
X393911D01*
Y423669D01*
X393999D01*
Y423582D01*
X394086D01*
Y423494D01*
X394174D01*
Y423407D01*
X394611D01*
Y423320D01*
X394785D01*
Y423232D01*
X394873D01*
Y423145D01*
X394960D01*
Y423057D01*
X395048D01*
Y422970D01*
X395485D01*
Y422883D01*
X395572D01*
Y422795D01*
X395660D01*
Y422708D01*
X395747D01*
Y422620D01*
X395922D01*
Y422533D01*
X396271D01*
Y422445D01*
X396446D01*
Y422358D01*
X396534D01*
Y422271D01*
Y422183D01*
X396796D01*
Y422096D01*
X397058D01*
Y422008D01*
X397146D01*
Y421921D01*
X397233D01*
Y421834D01*
Y421746D01*
X397146D01*
Y421659D01*
X396796D01*
Y421746D01*
X396534D01*
Y421834D01*
Y421921D01*
X396446D01*
Y422008D01*
X396271D01*
Y422096D01*
X395922D01*
Y422183D01*
X395747D01*
Y422271D01*
X395660D01*
Y422358D01*
Y422445D01*
X395397D01*
Y422533D01*
X395048D01*
Y422620D01*
X394873D01*
Y422708D01*
X394785D01*
Y422795D01*
Y422883D01*
X394523D01*
Y422970D01*
X394174D01*
Y423057D01*
X394086D01*
Y423145D01*
X393999D01*
Y423232D01*
X393911D01*
Y423320D01*
X393562D01*
Y423407D01*
X393299D01*
Y423494D01*
X393212D01*
Y423582D01*
Y423669D01*
X393037D01*
Y423757D01*
X392600D01*
Y423844D01*
X392425D01*
Y423932D01*
X392338D01*
Y424019D01*
X392250D01*
Y424106D01*
X392075D01*
Y424194D01*
X391726D01*
Y424281D01*
X391638D01*
Y424369D01*
X391551D01*
Y424456D01*
X391463D01*
Y424544D01*
X391201D01*
Y424631D01*
X390852D01*
Y424718D01*
X390764D01*
Y424806D01*
X390677D01*
Y424893D01*
X390589D01*
Y424981D01*
X390240D01*
Y425068D01*
X389978D01*
Y425155D01*
X389890D01*
Y425243D01*
X389803D01*
Y425330D01*
X389715D01*
Y425418D01*
X389366D01*
Y425505D01*
X389103D01*
Y425593D01*
X389016D01*
Y425680D01*
X388929D01*
Y425767D01*
X388841D01*
Y425855D01*
X388404D01*
Y425942D01*
X388229D01*
Y426030D01*
X388142D01*
Y426117D01*
X388054D01*
Y426204D01*
X387879D01*
Y426292D01*
X387442D01*
Y426379D01*
X387267D01*
Y426467D01*
X387180D01*
Y426554D01*
X387093D01*
Y426642D01*
X386830D01*
Y426729D01*
X386481D01*
Y426816D01*
X386393D01*
Y426904D01*
X386219D01*
Y426991D01*
X386131D01*
Y427079D01*
X385869D01*
Y427166D01*
X385607D01*
Y427253D01*
X385432D01*
Y427341D01*
X385344D01*
Y427428D01*
X385257D01*
Y427516D01*
X384820D01*
Y427603D01*
X384645D01*
Y427691D01*
X384558D01*
Y427778D01*
X384470D01*
Y427865D01*
X384208D01*
Y427953D01*
X383858D01*
Y428040D01*
X383683D01*
Y428128D01*
X383596D01*
Y428215D01*
X383509D01*
Y428302D01*
X383246D01*
Y428390D01*
X382897D01*
Y428477D01*
X382722D01*
Y428565D01*
X382547D01*
Y428652D01*
X382460D01*
Y428740D01*
X382110D01*
Y428827D01*
X381848D01*
Y428914D01*
X381673D01*
Y429002D01*
X381498D01*
Y429089D01*
X381411D01*
Y429177D01*
X380974D01*
Y429264D01*
X380711D01*
Y429351D01*
X380536D01*
Y429439D01*
X380449D01*
Y429526D01*
X380187D01*
Y429614D01*
X379837D01*
Y429701D01*
X379575D01*
Y429788D01*
X379400D01*
Y429876D01*
X379225D01*
Y429963D01*
X378963D01*
Y430051D01*
X378613D01*
Y430138D01*
X378438D01*
Y430226D01*
X378264D01*
Y430313D01*
X378001D01*
Y430400D01*
X377739D01*
Y430488D01*
X377389D01*
Y430575D01*
X377127D01*
Y430663D01*
X376952D01*
Y430750D01*
X376778D01*
Y430837D01*
X376428D01*
Y430925D01*
X375991D01*
Y431012D01*
X375816D01*
Y431100D01*
X375554D01*
Y431187D01*
X375291D01*
Y431275D01*
X374854D01*
Y431362D01*
X374417D01*
Y431449D01*
X374067D01*
Y431537D01*
X373718D01*
Y431624D01*
X373281D01*
Y431712D01*
X372669D01*
Y431799D01*
X369871D01*
Y431712D01*
X369434D01*
Y431624D01*
X369260D01*
Y431537D01*
X369172D01*
Y431449D01*
X368910D01*
Y431362D01*
X368735D01*
Y431275D01*
X368560D01*
Y431187D01*
X368473D01*
Y431100D01*
X368385D01*
Y431012D01*
Y430925D01*
X368298D01*
Y430837D01*
X368211D01*
Y430750D01*
X368123D01*
Y430663D01*
X368036D01*
Y430575D01*
Y430488D01*
X367948D01*
Y430400D01*
Y430313D01*
Y430226D01*
Y430138D01*
Y430051D01*
X367861D01*
Y429963D01*
Y429876D01*
Y429788D01*
Y429701D01*
Y429614D01*
X367774D01*
Y429526D01*
Y429439D01*
Y429351D01*
Y429264D01*
Y429177D01*
X367861D01*
Y429089D01*
Y429002D01*
Y428914D01*
Y428827D01*
Y428740D01*
Y428652D01*
Y428565D01*
Y428477D01*
X367948D01*
Y428390D01*
Y428302D01*
Y428215D01*
Y428128D01*
Y428040D01*
Y427953D01*
Y427865D01*
X368036D01*
Y427778D01*
Y427691D01*
Y427603D01*
Y427516D01*
X368123D01*
Y427428D01*
Y427341D01*
X368211D01*
Y427253D01*
Y427166D01*
X368298D01*
Y427079D01*
Y426991D01*
Y426904D01*
X368385D01*
Y426816D01*
Y426729D01*
Y426642D01*
Y426554D01*
X368473D01*
Y426467D01*
Y426379D01*
Y426292D01*
X368560D01*
Y426204D01*
X368648D01*
Y426117D01*
Y426030D01*
X368735D01*
Y425942D01*
Y425855D01*
X368823D01*
Y425767D01*
Y425680D01*
Y425593D01*
Y425505D01*
X368910D01*
Y425418D01*
Y425330D01*
X368997D01*
Y425243D01*
X369085D01*
Y425155D01*
Y425068D01*
X369172D01*
Y424981D01*
Y424893D01*
X369260D01*
Y424806D01*
Y424718D01*
Y424631D01*
X369347D01*
Y424544D01*
Y424456D01*
X369434D01*
Y424369D01*
X369522D01*
Y424281D01*
X369609D01*
Y424194D01*
Y424106D01*
Y424019D01*
X369697D01*
Y423932D01*
Y423844D01*
Y423757D01*
X369784D01*
Y423669D01*
X369871D01*
Y423582D01*
X369959D01*
Y423494D01*
Y423407D01*
X370046D01*
Y423320D01*
Y423232D01*
X370134D01*
Y423145D01*
Y423057D01*
X370221D01*
Y422970D01*
Y422883D01*
X370309D01*
Y422795D01*
X370396D01*
Y422708D01*
Y422620D01*
X370483D01*
Y422533D01*
Y422445D01*
X370571D01*
Y422358D01*
Y422271D01*
X370658D01*
Y422183D01*
X370746D01*
Y422096D01*
X370833D01*
Y422008D01*
X370920D01*
Y421921D01*
Y421834D01*
X371008D01*
Y421746D01*
X371095D01*
Y421659D01*
X371183D01*
Y421571D01*
X371270D01*
Y421484D01*
Y421396D01*
X371358D01*
Y421309D01*
Y421222D01*
X371445D01*
Y421134D01*
X371533D01*
Y421047D01*
X371620D01*
Y420959D01*
X371707D01*
Y420872D01*
Y420785D01*
X371795D01*
Y420697D01*
Y420610D01*
X371882D01*
Y420522D01*
X371970D01*
Y420435D01*
X372057D01*
Y420347D01*
X372144D01*
Y420260D01*
Y420173D01*
X372232D01*
Y420085D01*
X372319D01*
Y419998D01*
X372407D01*
Y419910D01*
X372494D01*
Y419823D01*
Y419736D01*
X372582D01*
Y419648D01*
Y419561D01*
X372669D01*
Y419473D01*
X372756D01*
Y419386D01*
X372844D01*
Y419299D01*
X372931D01*
Y419211D01*
Y419124D01*
X373019D01*
Y419036D01*
Y418949D01*
X373106D01*
Y418861D01*
X373193D01*
Y418774D01*
X373281D01*
Y418686D01*
X373368D01*
Y418599D01*
Y418512D01*
X373456D01*
Y418424D01*
X373543D01*
Y418337D01*
X373630D01*
Y418250D01*
X373718D01*
Y418162D01*
Y418075D01*
X373805D01*
Y417987D01*
Y417900D01*
X373893D01*
Y417812D01*
X373980D01*
Y417725D01*
X374067D01*
Y417637D01*
X374155D01*
Y417550D01*
Y417463D01*
X374242D01*
Y417375D01*
X374330D01*
Y417288D01*
Y417201D01*
X374417D01*
Y417113D01*
X374505D01*
Y417026D01*
X374592D01*
Y416938D01*
X374679D01*
Y416851D01*
Y416763D01*
X374767D01*
Y416676D01*
X374854D01*
Y416588D01*
X374942D01*
Y416501D01*
X375029D01*
Y416414D01*
Y416326D01*
X375117D01*
Y416239D01*
X375204D01*
Y416152D01*
X375291D01*
Y416064D01*
X375379D01*
Y415977D01*
Y415889D01*
X375466D01*
Y415802D01*
X375554D01*
Y415714D01*
Y415627D01*
X375641D01*
Y415540D01*
X375729D01*
Y415452D01*
X375816D01*
Y415365D01*
X375903D01*
Y415277D01*
X375991D01*
Y415190D01*
Y415102D01*
X376078D01*
Y415015D01*
X376166D01*
Y414928D01*
X376253D01*
Y414840D01*
X376340D01*
Y414753D01*
X376428D01*
Y414665D01*
Y414578D01*
X376515D01*
Y414491D01*
X376690D01*
Y414403D01*
Y414316D01*
X376778D01*
Y414228D01*
X376865D01*
Y414141D01*
X376952D01*
Y414053D01*
X377040D01*
Y413966D01*
X377127D01*
Y413879D01*
X377215D01*
Y413791D01*
Y413704D01*
X377302D01*
Y413616D01*
X377389D01*
Y413529D01*
X377477D01*
Y413442D01*
X377564D01*
Y413354D01*
X377652D01*
Y413267D01*
X377739D01*
Y413179D01*
X377826D01*
Y413092D01*
X377914D01*
Y413004D01*
Y412917D01*
X378001D01*
Y412830D01*
X378089D01*
Y412742D01*
X378176D01*
Y412655D01*
X378264D01*
Y412567D01*
X378351D01*
Y412480D01*
X378438D01*
Y412393D01*
Y412305D01*
X378526D01*
Y412218D01*
X378613D01*
Y412130D01*
X378701D01*
Y412043D01*
X378788D01*
Y411955D01*
X378875D01*
Y411868D01*
X378963D01*
Y411781D01*
X379050D01*
Y411693D01*
X379138D01*
Y411606D01*
X379225D01*
Y411518D01*
X379313D01*
Y411431D01*
X379400D01*
Y411343D01*
X379487D01*
Y411256D01*
X379575D01*
Y411169D01*
X379662D01*
Y411081D01*
X379750D01*
Y410994D01*
Y410906D01*
X379837D01*
Y410819D01*
X379925D01*
Y410732D01*
X380012D01*
Y410644D01*
X380099D01*
Y410557D01*
X380187D01*
Y410469D01*
X380274D01*
Y410382D01*
X380362D01*
Y410294D01*
X380449D01*
Y410207D01*
X380536D01*
Y410120D01*
X380624D01*
Y410032D01*
X380711D01*
Y409945D01*
X380799D01*
Y409857D01*
X380886D01*
Y409770D01*
X380974D01*
Y409683D01*
X381061D01*
Y409595D01*
X381148D01*
Y409508D01*
X381236D01*
Y409420D01*
X381323D01*
Y409333D01*
X381411D01*
Y409245D01*
X381498D01*
Y409158D01*
X381585D01*
Y409071D01*
X381673D01*
Y408983D01*
X381760D01*
Y408896D01*
X381848D01*
Y408808D01*
X381935D01*
Y408721D01*
X382023D01*
Y408634D01*
X382110D01*
Y408546D01*
X382197D01*
Y408459D01*
X382285D01*
Y408371D01*
X382372D01*
Y408284D01*
X382460D01*
Y408196D01*
X382547D01*
Y408109D01*
X382634D01*
Y408022D01*
X382722D01*
Y407934D01*
X382809D01*
Y407847D01*
X382897D01*
Y407759D01*
X382984D01*
Y407672D01*
X383071D01*
Y407585D01*
X383159D01*
Y407497D01*
X383246D01*
Y407410D01*
X383334D01*
Y407322D01*
X383421D01*
Y407235D01*
X383509D01*
Y407148D01*
X383596D01*
Y407060D01*
X383683D01*
Y406973D01*
X383771D01*
Y406885D01*
X383858D01*
Y406798D01*
X383946D01*
Y406710D01*
X384033D01*
Y406623D01*
X384120D01*
Y406536D01*
X384208D01*
Y406448D01*
X384295D01*
Y406361D01*
X384383D01*
Y406273D01*
X384470D01*
Y406186D01*
X384558D01*
Y406099D01*
X384645D01*
Y406011D01*
X384732D01*
Y405924D01*
X384820D01*
Y405836D01*
X384907D01*
Y405749D01*
X384995D01*
Y405661D01*
X385082D01*
Y405574D01*
X385170D01*
Y405487D01*
X385257D01*
Y405399D01*
X385344D01*
Y405312D01*
X385432D01*
Y405224D01*
X385519D01*
Y405137D01*
X385607D01*
Y405050D01*
X385694D01*
Y404962D01*
X385781D01*
Y404875D01*
X385869D01*
Y404787D01*
X385956D01*
Y404700D01*
X386044D01*
Y404612D01*
X386131D01*
Y404525D01*
X386219D01*
Y404438D01*
X386306D01*
Y404350D01*
X386393D01*
Y404263D01*
X386481D01*
Y404175D01*
X386568D01*
Y404088D01*
X386656D01*
Y404001D01*
X386743D01*
Y403913D01*
X386830D01*
Y403826D01*
X387005D01*
Y403738D01*
X387093D01*
Y403651D01*
Y403563D01*
X387180D01*
Y403476D01*
X387267D01*
Y403389D01*
X387442D01*
Y403301D01*
X387530D01*
Y403214D01*
X387617D01*
Y403126D01*
Y403039D01*
X387705D01*
Y402951D01*
X387792D01*
Y402864D01*
X387967D01*
Y402777D01*
X388054D01*
Y402689D01*
X388142D01*
Y402602D01*
Y402514D01*
X388316D01*
Y402427D01*
X388404D01*
Y402340D01*
X388491D01*
Y402252D01*
X388579D01*
Y402165D01*
X388666D01*
Y402077D01*
X388841D01*
Y402165D01*
Y402252D01*
Y402340D01*
X388754D01*
Y402427D01*
X388666D01*
Y402514D01*
X388579D01*
Y402602D01*
Y402689D01*
X388491D01*
Y402777D01*
Y402864D01*
X388404D01*
Y402951D01*
X388316D01*
Y403039D01*
X388229D01*
Y403126D01*
X388142D01*
Y403214D01*
Y403301D01*
X388054D01*
Y403389D01*
Y403476D01*
X387967D01*
Y403563D01*
X387879D01*
Y403651D01*
X387792D01*
Y403738D01*
X387705D01*
Y403826D01*
Y403913D01*
X387617D01*
Y404001D01*
X387530D01*
Y404088D01*
Y404175D01*
X387442D01*
Y404263D01*
X387355D01*
Y404350D01*
X387267D01*
Y404438D01*
Y404525D01*
X387180D01*
Y404612D01*
Y404700D01*
X387093D01*
Y404787D01*
X387005D01*
Y404875D01*
X386918D01*
Y404962D01*
X386830D01*
Y405050D01*
Y405137D01*
X386743D01*
Y405224D01*
Y405312D01*
X386656D01*
Y405399D01*
X386568D01*
Y405487D01*
X386481D01*
Y405574D01*
X386393D01*
Y405661D01*
Y405749D01*
X386306D01*
Y405836D01*
Y405924D01*
X386219D01*
Y406011D01*
X386131D01*
Y406099D01*
X386044D01*
Y406186D01*
Y406273D01*
X385956D01*
Y406361D01*
Y406448D01*
X385869D01*
Y406536D01*
X385781D01*
Y406623D01*
X385694D01*
Y406710D01*
X385607D01*
Y406798D01*
Y406885D01*
X385519D01*
Y406973D01*
Y407060D01*
X385432D01*
Y407148D01*
X385344D01*
Y407235D01*
X385257D01*
Y407322D01*
Y407410D01*
X385170D01*
Y407497D01*
Y407585D01*
X385082D01*
Y407672D01*
X384995D01*
Y407759D01*
Y407847D01*
X384907D01*
Y407934D01*
X384820D01*
Y408022D01*
Y408109D01*
X384732D01*
Y408196D01*
X384645D01*
Y408284D01*
Y408371D01*
X384558D01*
Y408459D01*
X384470D01*
Y408546D01*
X384383D01*
Y408634D01*
Y408721D01*
X384295D01*
Y408808D01*
Y408896D01*
Y408983D01*
X384383D01*
Y409071D01*
X384558D01*
Y408983D01*
X384732D01*
Y408896D01*
Y408808D01*
X384820D01*
Y408721D01*
X384995D01*
Y408634D01*
X385082D01*
Y408546D01*
X385170D01*
Y408459D01*
X385257D01*
Y408371D01*
X385344D01*
Y408284D01*
X385519D01*
Y408196D01*
X385694D01*
Y408109D01*
X385781D01*
Y408022D01*
X385869D01*
Y407934D01*
X386044D01*
Y407847D01*
X386131D01*
Y407759D01*
X386219D01*
Y407672D01*
X386306D01*
Y407585D01*
X386393D01*
Y407497D01*
X386481D01*
Y407410D01*
X386656D01*
Y407322D01*
X386743D01*
Y407235D01*
X386830D01*
Y407148D01*
X386918D01*
Y407060D01*
X387005D01*
Y406973D01*
X387093D01*
Y406885D01*
X387180D01*
Y406798D01*
X387267D01*
Y406710D01*
Y406623D01*
X387355D01*
Y406536D01*
X387442D01*
Y406448D01*
X387530D01*
Y406361D01*
X387617D01*
Y406273D01*
X387705D01*
Y406186D01*
Y406099D01*
Y406011D01*
X387792D01*
Y405924D01*
X387879D01*
Y405836D01*
X387967D01*
Y405749D01*
X388054D01*
Y405661D01*
Y405574D01*
X388142D01*
Y405487D01*
Y405399D01*
X388229D01*
Y405312D01*
Y405224D01*
X388316D01*
Y405137D01*
X388404D01*
Y405050D01*
X388491D01*
Y404962D01*
Y404875D01*
X388579D01*
Y404787D01*
Y404700D01*
X388666D01*
Y404612D01*
Y404525D01*
X388754D01*
Y404438D01*
X388841D01*
Y404350D01*
X388929D01*
Y404263D01*
Y404175D01*
X389016D01*
Y404088D01*
Y404001D01*
X389103D01*
Y403913D01*
X389191D01*
Y403826D01*
Y403738D01*
X389278D01*
Y403651D01*
X389366D01*
Y403563D01*
Y403476D01*
Y403389D01*
X389453D01*
Y403301D01*
X389540D01*
Y403214D01*
X389628D01*
Y403126D01*
X389715D01*
Y403039D01*
Y402951D01*
X389803D01*
Y402864D01*
Y402777D01*
Y402689D01*
X389890D01*
Y402602D01*
X389978D01*
Y402514D01*
X390065D01*
Y402427D01*
Y402340D01*
X390152D01*
Y402252D01*
Y402165D01*
X390240D01*
Y402077D01*
Y401990D01*
X390327D01*
Y401902D01*
X390415D01*
Y401815D01*
X390502D01*
Y401728D01*
Y401640D01*
X390589D01*
Y401553D01*
Y401465D01*
X390677D01*
Y401378D01*
Y401291D01*
X390764D01*
Y401203D01*
X390852D01*
Y401116D01*
X390939D01*
Y401028D01*
X391026D01*
Y400941D01*
Y400853D01*
X391114D01*
Y400766D01*
X391201D01*
Y400679D01*
X391289D01*
Y400591D01*
X391376D01*
Y400504D01*
X391463D01*
Y400416D01*
Y400329D01*
X391551D01*
Y400242D01*
X391638D01*
Y400154D01*
X391726D01*
Y400067D01*
Y399979D01*
X391813D01*
Y399892D01*
X391901D01*
Y399804D01*
Y399717D01*
X391988D01*
Y399630D01*
X392075D01*
Y399542D01*
X392163D01*
Y399455D01*
X392250D01*
Y399367D01*
Y399280D01*
X392338D01*
Y399193D01*
X392425D01*
Y399105D01*
X392513D01*
Y399018D01*
X392600D01*
Y398930D01*
X392687D01*
Y398843D01*
Y398756D01*
X392775D01*
Y398668D01*
Y398581D01*
X392950D01*
Y398493D01*
X393037D01*
Y398406D01*
Y398318D01*
X393125D01*
Y398231D01*
X393212D01*
Y398144D01*
Y398056D01*
X393299D01*
Y397969D01*
X393387D01*
Y397881D01*
X393474D01*
Y397794D01*
X393562D01*
Y397706D01*
X393649D01*
Y397619D01*
X393736D01*
Y397532D01*
X393824D01*
Y397444D01*
X393999D01*
Y397357D01*
X394086D01*
Y397269D01*
X394174D01*
Y397182D01*
X394261D01*
Y397094D01*
X394348D01*
Y397007D01*
X394436D01*
Y396920D01*
X394611D01*
Y396832D01*
X394698D01*
Y396745D01*
X394785D01*
Y396657D01*
X394873D01*
Y396570D01*
X394960D01*
Y396483D01*
X395135D01*
Y396395D01*
X395222D01*
Y396308D01*
X395310D01*
Y396220D01*
X395397D01*
Y396133D01*
X395572D01*
Y396045D01*
X395660D01*
Y395958D01*
X395747D01*
Y395871D01*
X395834D01*
Y395783D01*
X395922D01*
Y395696D01*
X396097D01*
Y395608D01*
X396184D01*
Y395521D01*
X396271D01*
Y395434D01*
X396359D01*
Y395346D01*
X396534D01*
Y395259D01*
X396621D01*
Y395171D01*
X396709D01*
Y395084D01*
X396796D01*
Y394997D01*
X396883D01*
Y394909D01*
X396971D01*
Y394822D01*
X397146D01*
Y394734D01*
X397233D01*
Y394647D01*
X397321D01*
Y394559D01*
X397408D01*
Y394472D01*
X397495D01*
Y394385D01*
X397670D01*
Y394297D01*
X397758D01*
Y394210D01*
X397845D01*
Y394122D01*
X397932D01*
Y394035D01*
X398107D01*
Y393948D01*
X398195D01*
Y393860D01*
X398282D01*
Y393773D01*
X398370D01*
Y393685D01*
X398544D01*
Y393598D01*
X398632D01*
Y393510D01*
X398719D01*
Y393423D01*
X398807D01*
Y393336D01*
X398894D01*
Y393248D01*
X399069D01*
Y393161D01*
X399244D01*
Y393073D01*
X399331D01*
Y392986D01*
X399418D01*
Y392899D01*
X399506D01*
Y392811D01*
X399593D01*
Y392724D01*
X399768D01*
Y392636D01*
X399856D01*
Y392549D01*
X399943D01*
Y392461D01*
X400030D01*
Y392374D01*
X400205D01*
Y392287D01*
X400293D01*
Y392199D01*
X400380D01*
Y392112D01*
X400467D01*
Y392024D01*
X400642D01*
Y391937D01*
X400730D01*
Y391849D01*
X400905D01*
Y391762D01*
X400992D01*
Y391675D01*
X401079D01*
Y391587D01*
X401167D01*
Y391500D01*
X401342D01*
Y391412D01*
X401429D01*
Y391325D01*
X401516D01*
Y391238D01*
X401604D01*
Y391150D01*
X401779D01*
Y391063D01*
X401866D01*
Y390975D01*
X401954D01*
Y390888D01*
X402041D01*
Y390800D01*
X402216D01*
Y390713D01*
X402303D01*
Y390626D01*
X402478D01*
Y390538D01*
X402565D01*
Y390451D01*
X402653D01*
Y390363D01*
X402740D01*
Y390276D01*
X402915D01*
Y390189D01*
X403090D01*
Y390101D01*
X403177D01*
Y390014D01*
X403265D01*
Y389926D01*
X403352D01*
Y389839D01*
X403527D01*
Y389752D01*
X403615D01*
Y389664D01*
X403702D01*
Y389577D01*
X403789D01*
Y389489D01*
X403964D01*
Y389402D01*
X404139D01*
Y389314D01*
X404226D01*
Y389227D01*
X404314D01*
Y389140D01*
X404489D01*
Y389052D01*
X404576D01*
Y388965D01*
X404751D01*
Y388877D01*
X404838D01*
Y388790D01*
X404926D01*
Y388703D01*
X405013D01*
Y388615D01*
X405188D01*
Y388528D01*
X405363D01*
Y388440D01*
X405450D01*
Y388353D01*
X405538D01*
Y388265D01*
X405625D01*
Y388178D01*
X405800D01*
Y388091D01*
X405975D01*
Y388003D01*
X406062D01*
Y387916D01*
X406150D01*
Y387828D01*
X406324D01*
Y387741D01*
X406499D01*
Y387653D01*
X406587D01*
Y387566D01*
X406674D01*
Y387479D01*
X406762D01*
Y387391D01*
X406936D01*
Y387304D01*
X407111D01*
Y387216D01*
X407199D01*
Y387129D01*
X407286D01*
Y387042D01*
Y386954D01*
X407374D01*
Y386867D01*
X407636D01*
Y386779D01*
X407811D01*
Y386692D01*
Y386604D01*
X407723D01*
Y386517D01*
X407374D01*
Y386604D01*
X407286D01*
Y386692D01*
X407199D01*
Y386779D01*
X407024D01*
Y386867D01*
X406674D01*
Y386954D01*
X406587D01*
Y387042D01*
X406499D01*
Y387129D01*
X406412D01*
Y387216D01*
X406237D01*
Y387304D01*
X406062D01*
Y387391D01*
X405975D01*
Y387479D01*
X405887D01*
Y387566D01*
X405800D01*
Y387653D01*
X405625D01*
Y387741D01*
X405450D01*
Y387828D01*
X405363D01*
Y387916D01*
X405275D01*
Y388003D01*
X405188D01*
Y388091D01*
X405013D01*
Y388178D01*
X404838D01*
Y388265D01*
X404751D01*
Y388353D01*
X404664D01*
Y388440D01*
X404576D01*
Y388528D01*
X404314D01*
Y388615D01*
X404226D01*
Y388703D01*
X404139D01*
Y388790D01*
X404052D01*
Y388877D01*
X403877D01*
Y388965D01*
X403702D01*
Y389052D01*
X403615D01*
Y389140D01*
X403527D01*
Y389227D01*
X403440D01*
Y389314D01*
X403265D01*
Y389402D01*
X403090D01*
Y389489D01*
X403003D01*
Y389577D01*
X402915D01*
Y389664D01*
X402828D01*
Y389752D01*
X402653D01*
Y389839D01*
X402565D01*
Y389926D01*
X402478D01*
Y390014D01*
X402391D01*
Y390101D01*
X402216D01*
Y390189D01*
X402128D01*
Y390276D01*
X401954D01*
Y390363D01*
X401866D01*
Y390451D01*
X401779D01*
Y390538D01*
X401691D01*
Y390626D01*
X401516D01*
Y390713D01*
X401342D01*
Y390800D01*
X401254D01*
Y390888D01*
X401167D01*
Y390975D01*
X400992D01*
Y391063D01*
X400905D01*
Y391150D01*
X400817D01*
Y391238D01*
X400730D01*
Y391325D01*
X400642D01*
Y391412D01*
X400467D01*
Y391500D01*
X400293D01*
Y391587D01*
X400205D01*
Y391675D01*
X400118D01*
Y391762D01*
X400030D01*
Y391849D01*
X399856D01*
Y391937D01*
X399768D01*
Y392024D01*
X399681D01*
Y392112D01*
X399593D01*
Y392199D01*
X399506D01*
Y392287D01*
X399331D01*
Y392374D01*
X399244D01*
Y392461D01*
X399156D01*
Y392549D01*
X398981D01*
Y392636D01*
X398894D01*
Y392724D01*
X398807D01*
Y392811D01*
X398632D01*
Y392899D01*
X398544D01*
Y392986D01*
X398457D01*
Y393073D01*
X398370D01*
Y393161D01*
X398195D01*
Y393248D01*
X398107D01*
Y393336D01*
X398020D01*
Y393423D01*
X397932D01*
Y393510D01*
X397758D01*
Y393598D01*
X397670D01*
Y393685D01*
X397583D01*
Y393773D01*
X397495D01*
Y393860D01*
X397408D01*
Y393948D01*
X397233D01*
Y394035D01*
X397146D01*
Y394122D01*
X397058D01*
Y394210D01*
X396971D01*
Y394297D01*
X396883D01*
Y394385D01*
X396709D01*
Y394472D01*
X396621D01*
Y394559D01*
X396534D01*
Y394647D01*
X396446D01*
Y394734D01*
X396271D01*
Y394822D01*
X396009D01*
Y394909D01*
Y394997D01*
X395922D01*
Y395084D01*
X395747D01*
Y394997D01*
Y394909D01*
X395922D01*
Y394822D01*
X396009D01*
Y394734D01*
Y394647D01*
Y394559D01*
X396097D01*
Y394472D01*
X396184D01*
Y394385D01*
X396271D01*
Y394297D01*
X396359D01*
Y394210D01*
X396446D01*
Y394122D01*
Y394035D01*
X396534D01*
Y393948D01*
X396621D01*
Y393860D01*
X396709D01*
Y393773D01*
X396796D01*
Y393685D01*
Y393598D01*
X396883D01*
Y393510D01*
X396971D01*
Y393423D01*
X397058D01*
Y393336D01*
X397146D01*
Y393248D01*
X397233D01*
Y393161D01*
X397321D01*
Y393073D01*
Y392986D01*
X397408D01*
Y392899D01*
X397495D01*
Y392811D01*
X397583D01*
Y392724D01*
X397670D01*
Y392636D01*
X397758D01*
Y392549D01*
X397845D01*
Y392461D01*
X397932D01*
Y392374D01*
X398020D01*
Y392287D01*
X398107D01*
Y392199D01*
X398195D01*
Y392112D01*
Y392024D01*
X398282D01*
Y391937D01*
X398370D01*
Y391849D01*
X398457D01*
Y391762D01*
X398544D01*
Y391675D01*
X398632D01*
Y391587D01*
X398719D01*
Y391500D01*
X398807D01*
Y391412D01*
X398894D01*
Y391325D01*
X398981D01*
Y391238D01*
Y391150D01*
X399069D01*
Y391063D01*
X399156D01*
Y390975D01*
X399244D01*
Y390888D01*
X399331D01*
Y390800D01*
X399418D01*
Y390713D01*
X399506D01*
Y390626D01*
X399593D01*
Y390538D01*
X399681D01*
Y390451D01*
X399768D01*
Y390363D01*
Y390276D01*
X399856D01*
Y390189D01*
X399943D01*
Y390101D01*
X400030D01*
Y390014D01*
X400118D01*
Y389926D01*
X400205D01*
Y389839D01*
Y389752D01*
X400293D01*
Y389664D01*
X400380D01*
Y389577D01*
X400467D01*
Y389489D01*
X400555D01*
Y389402D01*
X400642D01*
Y389314D01*
X400730D01*
Y389227D01*
X400817D01*
Y389140D01*
X400905D01*
Y389052D01*
X400992D01*
Y388965D01*
X401079D01*
Y388877D01*
X401167D01*
Y388790D01*
X401254D01*
Y388703D01*
X401342D01*
Y388615D01*
X401429D01*
Y388528D01*
X401516D01*
Y388440D01*
X401604D01*
Y388353D01*
X401691D01*
Y388265D01*
X401779D01*
Y388178D01*
X401866D01*
Y388091D01*
X401954D01*
Y388003D01*
X402041D01*
Y387916D01*
X402128D01*
Y387828D01*
X402216D01*
Y387741D01*
X402303D01*
Y387653D01*
X402391D01*
Y387566D01*
X402478D01*
Y387479D01*
X402565D01*
Y387391D01*
X402653D01*
Y387304D01*
X402740D01*
Y387216D01*
X402828D01*
Y387129D01*
X402915D01*
Y387042D01*
X403003D01*
Y386954D01*
X403090D01*
Y386867D01*
X403177D01*
Y386779D01*
X403265D01*
Y386692D01*
X403352D01*
Y386604D01*
X403527D01*
Y386517D01*
X403615D01*
Y386430D01*
Y386342D01*
X403702D01*
Y386255D01*
X403789D01*
Y386167D01*
X403964D01*
Y386080D01*
X404052D01*
Y385993D01*
Y385905D01*
X404139D01*
Y385818D01*
X404226D01*
Y385730D01*
X404314D01*
Y385643D01*
X404401D01*
Y385556D01*
X404489D01*
Y385468D01*
Y385381D01*
X404576D01*
Y385293D01*
Y385206D01*
X404751D01*
Y385118D01*
X404838D01*
Y385031D01*
Y384944D01*
Y384856D01*
X404576D01*
Y384944D01*
X404489D01*
Y385031D01*
X404401D01*
Y385118D01*
X404226D01*
Y385206D01*
X404052D01*
Y385293D01*
X403964D01*
Y385381D01*
X403877D01*
Y385468D01*
X403702D01*
Y385556D01*
X403615D01*
Y385643D01*
X403527D01*
Y385730D01*
X403352D01*
Y385818D01*
X403265D01*
Y385905D01*
X403177D01*
Y385993D01*
X403090D01*
Y386080D01*
X402915D01*
Y386167D01*
X402828D01*
Y386255D01*
X402740D01*
Y386342D01*
X402653D01*
Y386430D01*
X402565D01*
Y386517D01*
X402478D01*
Y386604D01*
X402391D01*
Y386692D01*
X402303D01*
Y386779D01*
X402128D01*
Y386867D01*
X402041D01*
Y386954D01*
X401954D01*
Y387042D01*
X401866D01*
Y387129D01*
X401779D01*
Y387216D01*
X401691D01*
Y387304D01*
X401604D01*
Y387391D01*
X401516D01*
Y387479D01*
X401429D01*
Y387566D01*
X401342D01*
Y387653D01*
X401254D01*
Y387741D01*
X401167D01*
Y387828D01*
X401079D01*
Y387916D01*
X400992D01*
Y388003D01*
X400905D01*
Y388091D01*
X400817D01*
Y388178D01*
X400730D01*
Y388265D01*
X400642D01*
Y388353D01*
X400555D01*
Y388440D01*
X400467D01*
Y388528D01*
X400380D01*
Y388615D01*
X400293D01*
Y388703D01*
X400205D01*
Y388790D01*
X400118D01*
Y388877D01*
X400030D01*
Y388965D01*
X399943D01*
Y389052D01*
X399856D01*
Y389140D01*
X399768D01*
Y389227D01*
X399681D01*
Y389314D01*
X399593D01*
Y389402D01*
X399506D01*
Y389489D01*
X399418D01*
Y389577D01*
X399331D01*
Y389664D01*
X399244D01*
Y389752D01*
X399156D01*
Y389839D01*
X399069D01*
Y389926D01*
X398981D01*
Y390014D01*
X398894D01*
Y390101D01*
X398807D01*
Y390189D01*
X398719D01*
Y390276D01*
X398632D01*
Y390363D01*
Y390451D01*
X398544D01*
Y390538D01*
X398457D01*
Y390626D01*
X398370D01*
Y390713D01*
X398282D01*
Y390800D01*
X398195D01*
Y390888D01*
X398107D01*
Y390975D01*
X398020D01*
Y391063D01*
X397932D01*
Y391150D01*
X397845D01*
Y391238D01*
X397758D01*
Y391325D01*
Y391412D01*
X397670D01*
Y391500D01*
X397495D01*
Y391587D01*
X397408D01*
Y391675D01*
Y391762D01*
X397321D01*
Y391849D01*
X397233D01*
Y391937D01*
X397146D01*
Y392024D01*
X397058D01*
Y392112D01*
X396971D01*
Y392199D01*
X396883D01*
Y392287D01*
Y392374D01*
X396796D01*
Y392461D01*
X396621D01*
Y392549D01*
Y392636D01*
X396534D01*
Y392724D01*
X396446D01*
Y392811D01*
X396359D01*
Y392899D01*
X396271D01*
Y392986D01*
X396184D01*
Y393073D01*
Y393161D01*
X396097D01*
Y393248D01*
X396009D01*
Y393336D01*
X395922D01*
Y393423D01*
X395834D01*
Y393510D01*
X395747D01*
Y393598D01*
X395660D01*
Y393685D01*
Y393773D01*
X395572D01*
Y393860D01*
X395485D01*
Y393948D01*
X395397D01*
Y394035D01*
X395310D01*
Y394122D01*
X395222D01*
Y394210D01*
Y394297D01*
X395135D01*
Y394385D01*
X395048D01*
Y394472D01*
X394960D01*
Y394559D01*
X394873D01*
Y394647D01*
X394785D01*
Y394734D01*
X394698D01*
Y394822D01*
X394611D01*
Y394909D01*
X394523D01*
Y394997D01*
Y395084D01*
X394436D01*
Y395171D01*
X394348D01*
Y395259D01*
X394261D01*
Y395346D01*
X394174D01*
Y395434D01*
X394086D01*
Y395521D01*
Y395608D01*
X393999D01*
Y395696D01*
X393911D01*
Y395783D01*
Y395871D01*
X393824D01*
Y395958D01*
X393736D01*
Y396045D01*
X393649D01*
Y396133D01*
X393562D01*
Y396220D01*
X393474D01*
Y396308D01*
Y396395D01*
X393387D01*
Y396483D01*
X393299D01*
Y396570D01*
X393212D01*
Y396657D01*
X393125D01*
Y396745D01*
Y396832D01*
X393037D01*
Y396920D01*
X392950D01*
Y397007D01*
X392862D01*
Y397094D01*
X392775D01*
Y397182D01*
X392687D01*
Y397269D01*
Y397357D01*
X392600D01*
Y397444D01*
X392513D01*
Y397532D01*
X392425D01*
Y397619D01*
X392338D01*
Y397706D01*
Y397794D01*
X392250D01*
Y397881D01*
X392163D01*
Y397969D01*
X392075D01*
Y398056D01*
X391988D01*
Y398144D01*
X391901D01*
Y398231D01*
Y398318D01*
X391813D01*
Y398406D01*
X391726D01*
Y398493D01*
X391638D01*
Y398581D01*
X391463D01*
Y398668D01*
X391376D01*
Y398756D01*
X391289D01*
Y398843D01*
X391201D01*
Y398930D01*
X391026D01*
Y399018D01*
X390852D01*
Y399105D01*
X390677D01*
Y399193D01*
Y399280D01*
X390589D01*
Y399367D01*
Y399455D01*
X390502D01*
Y399542D01*
X390415D01*
Y399630D01*
X390327D01*
Y399717D01*
X390240D01*
Y399804D01*
Y399892D01*
X390152D01*
Y399979D01*
X390065D01*
Y400067D01*
X389978D01*
Y400154D01*
X389890D01*
Y400242D01*
X389803D01*
Y400329D01*
X389715D01*
Y400416D01*
X389628D01*
Y400504D01*
X389540D01*
Y400591D01*
X389453D01*
Y400679D01*
X389366D01*
Y400766D01*
X389191D01*
Y400853D01*
X389103D01*
Y400941D01*
X389016D01*
Y401028D01*
X388929D01*
Y401116D01*
X388841D01*
Y401203D01*
X388754D01*
Y401291D01*
X388666D01*
Y401378D01*
X388579D01*
Y401465D01*
X388491D01*
Y401553D01*
X388316D01*
Y401640D01*
X388229D01*
Y401728D01*
X388142D01*
Y401815D01*
X388054D01*
Y401902D01*
X387967D01*
Y401990D01*
X387879D01*
Y402077D01*
X387792D01*
Y402165D01*
X387705D01*
Y402252D01*
X387617D01*
Y402340D01*
X387530D01*
Y402427D01*
X387442D01*
Y402514D01*
X387355D01*
Y402602D01*
X387267D01*
Y402689D01*
X387180D01*
Y402777D01*
X387093D01*
Y402864D01*
X387005D01*
Y402951D01*
X386918D01*
Y403039D01*
X386830D01*
Y403126D01*
X386743D01*
Y403214D01*
X386656D01*
Y403301D01*
X386481D01*
Y403389D01*
X386393D01*
Y403476D01*
Y403563D01*
X386219D01*
Y403651D01*
X386131D01*
Y403738D01*
X386044D01*
Y403826D01*
X385956D01*
Y403913D01*
X385869D01*
Y404001D01*
X385781D01*
Y404088D01*
X385694D01*
Y404175D01*
X385607D01*
Y404263D01*
X385519D01*
Y404350D01*
X385432D01*
Y404438D01*
X385344D01*
Y404525D01*
X385257D01*
Y404612D01*
X385170D01*
Y404700D01*
X385082D01*
Y404787D01*
X384995D01*
Y404875D01*
X384907D01*
Y404962D01*
X384820D01*
Y405050D01*
X384732D01*
Y405137D01*
X384645D01*
Y405224D01*
X384558D01*
Y405312D01*
X384470D01*
Y405399D01*
X384383D01*
Y405487D01*
X384295D01*
Y405574D01*
X384208D01*
Y405661D01*
X384120D01*
Y405749D01*
X383946D01*
Y405836D01*
X383858D01*
Y405924D01*
X383771D01*
Y406011D01*
X383683D01*
Y406099D01*
X383596D01*
Y406186D01*
X383509D01*
Y406273D01*
X383421D01*
Y406361D01*
X383334D01*
Y406448D01*
X383246D01*
Y406536D01*
X383159D01*
Y406623D01*
X383071D01*
Y406710D01*
X382984D01*
Y406798D01*
X382897D01*
Y406885D01*
X382809D01*
Y406973D01*
X382722D01*
Y407060D01*
X382634D01*
Y407148D01*
X382547D01*
Y407235D01*
X382460D01*
Y407322D01*
X382372D01*
Y407410D01*
X382285D01*
Y407497D01*
X382197D01*
Y407585D01*
X382110D01*
Y407672D01*
X382023D01*
Y407759D01*
X381935D01*
Y407847D01*
X381848D01*
Y407934D01*
X381760D01*
Y408022D01*
X381673D01*
Y408109D01*
X381585D01*
Y408196D01*
X381498D01*
Y408284D01*
X381411D01*
Y408371D01*
X381323D01*
Y408459D01*
X381236D01*
Y408546D01*
X381148D01*
Y408634D01*
X381061D01*
Y408721D01*
X380974D01*
Y408808D01*
X380886D01*
Y408896D01*
Y408983D01*
X380799D01*
Y409071D01*
X380624D01*
Y409158D01*
X380536D01*
Y409245D01*
X380449D01*
Y409333D01*
Y409420D01*
X380274D01*
Y409508D01*
X380187D01*
Y409595D01*
X380099D01*
Y409683D01*
X380012D01*
Y409770D01*
Y409857D01*
X379837D01*
Y409945D01*
X379750D01*
Y410032D01*
X379662D01*
Y410120D01*
Y410207D01*
X379575D01*
Y410294D01*
X379487D01*
Y410382D01*
X379400D01*
Y410469D01*
X379313D01*
Y410557D01*
X379225D01*
Y410644D01*
X379138D01*
Y410732D01*
X379050D01*
Y410819D01*
X378963D01*
Y410906D01*
X378875D01*
Y410994D01*
X378788D01*
Y411081D01*
X378701D01*
Y411169D01*
X378613D01*
Y411256D01*
X378526D01*
Y411343D01*
X378438D01*
Y411431D01*
X378351D01*
Y411518D01*
X378264D01*
Y411606D01*
X378176D01*
Y411693D01*
X378089D01*
Y411781D01*
X378001D01*
Y411868D01*
X377914D01*
Y411955D01*
X377826D01*
Y412043D01*
X377739D01*
Y412130D01*
X377652D01*
Y412218D01*
Y412305D01*
X377564D01*
Y412393D01*
X377477D01*
Y412480D01*
X377302D01*
Y412567D01*
X377215D01*
Y412655D01*
Y412742D01*
X377127D01*
Y412830D01*
X377040D01*
Y412917D01*
X376952D01*
Y413004D01*
X376865D01*
Y413092D01*
X376778D01*
Y413179D01*
X376690D01*
Y413267D01*
X376603D01*
Y413354D01*
X376515D01*
Y413442D01*
X376428D01*
Y413529D01*
X376340D01*
Y413616D01*
Y413704D01*
X376253D01*
Y413791D01*
X376166D01*
Y413879D01*
X376078D01*
Y413966D01*
X375991D01*
Y414053D01*
X375903D01*
Y414141D01*
X375816D01*
Y414228D01*
X375729D01*
Y414316D01*
X375641D01*
Y414403D01*
Y414491D01*
X375554D01*
Y414578D01*
X375466D01*
Y414665D01*
X375379D01*
Y414753D01*
X375291D01*
Y414840D01*
X375204D01*
Y414928D01*
X375117D01*
Y415015D01*
Y415102D01*
X375029D01*
Y415190D01*
X374942D01*
Y415277D01*
X374854D01*
Y415365D01*
X374767D01*
Y415452D01*
X374679D01*
Y415540D01*
Y415627D01*
X374592D01*
Y415714D01*
X374505D01*
Y415802D01*
X374417D01*
Y415889D01*
X374330D01*
Y415977D01*
X374242D01*
Y416064D01*
Y416152D01*
X374155D01*
Y416239D01*
X374067D01*
Y416326D01*
X373980D01*
Y416414D01*
X373893D01*
Y416501D01*
X373805D01*
Y416588D01*
Y416676D01*
X373718D01*
Y416763D01*
X373630D01*
Y416851D01*
X373543D01*
Y416938D01*
X373456D01*
Y417026D01*
Y417113D01*
X373368D01*
Y417201D01*
X373281D01*
Y417288D01*
X373193D01*
Y417375D01*
X373106D01*
Y417463D01*
X373019D01*
Y417550D01*
Y417637D01*
X372931D01*
Y417725D01*
Y417812D01*
X372844D01*
Y417900D01*
X372756D01*
Y417987D01*
X372669D01*
Y418075D01*
X372582D01*
Y418162D01*
Y418250D01*
X372494D01*
Y418337D01*
X372407D01*
Y418424D01*
X372319D01*
Y418512D01*
X372232D01*
Y418599D01*
Y418686D01*
X372144D01*
Y418774D01*
X372057D01*
Y418861D01*
X371970D01*
Y418949D01*
X371882D01*
Y419036D01*
Y419124D01*
X371795D01*
Y419211D01*
X371707D01*
Y419299D01*
Y419386D01*
X371620D01*
Y419473D01*
X371533D01*
Y419561D01*
X371445D01*
Y419648D01*
X371358D01*
Y419736D01*
Y419823D01*
X371270D01*
Y419910D01*
Y419998D01*
X371183D01*
Y420085D01*
X371008D01*
Y420173D01*
Y420260D01*
X370920D01*
Y420347D01*
Y420435D01*
X370833D01*
Y420522D01*
X370746D01*
Y420610D01*
X370658D01*
Y420697D01*
X370571D01*
Y420785D01*
Y420872D01*
X370483D01*
Y420959D01*
Y421047D01*
X370396D01*
Y421134D01*
X370309D01*
Y421222D01*
X370221D01*
Y421309D01*
X370134D01*
Y421396D01*
Y421484D01*
X370046D01*
Y421571D01*
X369959D01*
Y421659D01*
Y421746D01*
X369871D01*
Y421834D01*
X369784D01*
Y421921D01*
X369697D01*
Y422008D01*
X369609D01*
Y422096D01*
Y422183D01*
X369522D01*
Y422271D01*
X369434D01*
Y422358D01*
X369347D01*
Y422445D01*
Y422533D01*
X369260D01*
Y422620D01*
X369172D01*
Y422708D01*
Y422795D01*
X369085D01*
Y422883D01*
X368997D01*
Y422970D01*
X368910D01*
Y423057D01*
X368823D01*
Y423145D01*
Y423232D01*
Y423320D01*
X368735D01*
Y423407D01*
Y423494D01*
X368648D01*
Y423582D01*
X368560D01*
Y423669D01*
X368473D01*
Y423757D01*
Y423844D01*
X368385D01*
Y423932D01*
Y424019D01*
Y424106D01*
X368298D01*
Y424194D01*
Y424281D01*
X368211D01*
Y424369D01*
X368123D01*
Y424456D01*
X368036D01*
Y424544D01*
Y424631D01*
X367948D01*
Y424718D01*
Y424806D01*
Y424893D01*
X367861D01*
Y424981D01*
Y425068D01*
X367774D01*
Y425155D01*
X367686D01*
Y425243D01*
X367599D01*
Y425330D01*
Y425418D01*
Y425505D01*
X367511D01*
Y425593D01*
Y425680D01*
Y425767D01*
X367424D01*
Y425855D01*
X367336D01*
Y425942D01*
Y426030D01*
X367249D01*
Y426117D01*
X367162D01*
Y426204D01*
Y426292D01*
Y426379D01*
X367074D01*
Y426467D01*
Y426554D01*
Y426642D01*
X366987D01*
Y426729D01*
Y426816D01*
X366899D01*
Y426904D01*
X366812D01*
Y426991D01*
Y427079D01*
X366724D01*
Y427166D01*
Y427253D01*
Y427341D01*
Y427428D01*
Y427516D01*
X366637D01*
Y427603D01*
Y427691D01*
Y427778D01*
X366550D01*
Y427865D01*
Y427953D01*
X366462D01*
Y428040D01*
Y428128D01*
X366375D01*
Y428215D01*
Y428302D01*
Y428390D01*
X366287D01*
Y428477D01*
Y428565D01*
Y428652D01*
Y428740D01*
Y428827D01*
X366200D01*
Y428914D01*
Y429002D01*
Y429089D01*
Y429177D01*
Y429264D01*
X366113D01*
Y429351D01*
Y429439D01*
Y429526D01*
Y429614D01*
X366025D01*
Y429701D01*
Y429788D01*
Y429876D01*
Y429963D01*
Y430051D01*
Y430138D01*
Y430226D01*
Y430313D01*
Y430400D01*
Y430488D01*
Y430575D01*
Y430663D01*
Y430750D01*
Y430837D01*
X366113D01*
Y430925D01*
Y431012D01*
Y431100D01*
X366200D01*
Y431187D01*
Y431275D01*
Y431362D01*
X366287D01*
Y431449D01*
Y431537D01*
Y431624D01*
X366375D01*
Y431712D01*
Y431799D01*
X366462D01*
Y431886D01*
X366550D01*
Y431974D01*
X366637D01*
Y432061D01*
X366724D01*
Y432149D01*
X366812D01*
Y432236D01*
X366899D01*
Y432324D01*
X366987D01*
Y432411D01*
X367074D01*
Y432498D01*
X367249D01*
Y432586D01*
X367511D01*
Y432673D01*
X367774D01*
Y432761D01*
X367861D01*
Y432848D01*
X367948D01*
Y432935D01*
Y433023D01*
X371445D01*
Y432935D01*
D02*
G37*
G36*
X397845Y421571D02*
X397932D01*
Y421484D01*
Y421396D01*
X398020D01*
Y421309D01*
X398370D01*
Y421222D01*
X398632D01*
Y421134D01*
Y421047D01*
X398719D01*
Y420959D01*
Y420872D01*
X398282D01*
Y420959D01*
X398107D01*
Y421047D01*
Y421134D01*
X398020D01*
Y421222D01*
Y421309D01*
X397495D01*
Y421396D01*
X397321D01*
Y421484D01*
Y421571D01*
Y421659D01*
X397845D01*
Y421571D01*
D02*
G37*
G36*
X399156Y420785D02*
X399331D01*
Y420697D01*
X399418D01*
Y420610D01*
X399506D01*
Y420522D01*
Y420435D01*
X400030D01*
Y420347D01*
X400118D01*
Y420260D01*
X400205D01*
Y420173D01*
Y420085D01*
X399593D01*
Y420173D01*
Y420260D01*
X399506D01*
Y420347D01*
Y420435D01*
X399069D01*
Y420522D01*
X398894D01*
Y420610D01*
X398807D01*
Y420697D01*
Y420785D01*
Y420872D01*
X399156D01*
Y420785D01*
D02*
G37*
G36*
X400730Y419910D02*
X400905D01*
Y419823D01*
Y419736D01*
Y419648D01*
X400380D01*
Y419736D01*
Y419823D01*
X400293D01*
Y419910D01*
Y419998D01*
X400730D01*
Y419910D01*
D02*
G37*
G36*
X401516Y419473D02*
X401604D01*
Y419386D01*
X401691D01*
Y419299D01*
Y419211D01*
X401254D01*
Y419299D01*
X401167D01*
Y419386D01*
X401079D01*
Y419473D01*
Y419561D01*
X401516D01*
Y419473D01*
D02*
G37*
G36*
X402041Y419124D02*
X402303D01*
Y419036D01*
X402391D01*
Y418949D01*
X402478D01*
Y418861D01*
Y418774D01*
X402041D01*
Y418861D01*
X401866D01*
Y418949D01*
Y419036D01*
X401779D01*
Y419124D01*
X401954D01*
Y419211D01*
X402041D01*
Y419124D01*
D02*
G37*
G36*
X402915Y418686D02*
X403090D01*
Y418599D01*
X403177D01*
Y418512D01*
Y418424D01*
X403265D01*
Y418337D01*
X403702D01*
Y418250D01*
X403789D01*
Y418162D01*
X403877D01*
Y418075D01*
Y417987D01*
X403789D01*
Y417900D01*
X403527D01*
Y417987D01*
X403352D01*
Y418075D01*
X403265D01*
Y418162D01*
X403177D01*
Y418250D01*
X403090D01*
Y418337D01*
X402740D01*
Y418424D01*
X402653D01*
Y418512D01*
X402565D01*
Y418599D01*
X402478D01*
Y418686D01*
X402565D01*
Y418774D01*
X402915D01*
Y418686D01*
D02*
G37*
G36*
X404489Y417812D02*
X404576D01*
Y417725D01*
X404664D01*
Y417637D01*
Y417550D01*
X405013D01*
Y417463D01*
X405188D01*
Y417375D01*
X405275D01*
Y417288D01*
Y417201D01*
Y417113D01*
X404838D01*
Y417201D01*
X404751D01*
Y417288D01*
X404664D01*
Y417375D01*
Y417463D01*
X404314D01*
Y417550D01*
X404052D01*
Y417637D01*
Y417725D01*
X403964D01*
Y417812D01*
Y417900D01*
X404489D01*
Y417812D01*
D02*
G37*
G36*
X309554Y420785D02*
X309903D01*
Y420697D01*
X310253D01*
Y420610D01*
X310603D01*
Y420522D01*
X311040D01*
Y420435D01*
X311652D01*
Y420347D01*
X312001D01*
Y420260D01*
X312351D01*
Y420173D01*
X312701D01*
Y420085D01*
X313138D01*
Y419998D01*
X313575D01*
Y419910D01*
X313925D01*
Y419823D01*
X314274D01*
Y419736D01*
X314711D01*
Y419648D01*
X315236D01*
Y419561D01*
X315760D01*
Y419473D01*
X316110D01*
Y419386D01*
X316372D01*
Y419299D01*
X316722D01*
Y419211D01*
X317246D01*
Y419124D01*
X317684D01*
Y419036D01*
X318033D01*
Y418949D01*
X318295D01*
Y418861D01*
X318645D01*
Y418774D01*
X319257D01*
Y418686D01*
X319694D01*
Y418599D01*
X319956D01*
Y418512D01*
X320306D01*
Y418424D01*
X320743D01*
Y418337D01*
X321268D01*
Y418250D01*
X321530D01*
Y418162D01*
X321880D01*
Y418075D01*
X322142D01*
Y417987D01*
X322491D01*
Y417900D01*
X322929D01*
Y417812D01*
X323191D01*
Y417725D01*
X323453D01*
Y417637D01*
X323715D01*
Y417550D01*
X324240D01*
Y417463D01*
X324589D01*
Y417375D01*
X324852D01*
Y417288D01*
X325201D01*
Y417201D01*
X325464D01*
Y417113D01*
X325901D01*
Y417026D01*
X326163D01*
Y416938D01*
X326425D01*
Y416851D01*
X326688D01*
Y416763D01*
X327037D01*
Y416676D01*
X327562D01*
Y416588D01*
X327824D01*
Y416501D01*
X328086D01*
Y416414D01*
X328348D01*
Y416326D01*
X328698D01*
Y416239D01*
X329135D01*
Y416152D01*
X329397D01*
Y416064D01*
X329660D01*
Y415977D01*
X329922D01*
Y415889D01*
X330359D01*
Y415802D01*
X330796D01*
Y415714D01*
X331058D01*
Y415627D01*
X331321D01*
Y415540D01*
X331583D01*
Y415452D01*
X332020D01*
Y415365D01*
X332457D01*
Y415277D01*
X332719D01*
Y415190D01*
X332981D01*
Y415102D01*
X333244D01*
Y415015D01*
X333593D01*
Y414928D01*
X333856D01*
Y414840D01*
X334031D01*
Y414753D01*
X334118D01*
Y414665D01*
X334468D01*
Y414578D01*
X334730D01*
Y414491D01*
X334905D01*
Y414403D01*
X335080D01*
Y414316D01*
X335167D01*
Y414228D01*
X335604D01*
Y414141D01*
X335866D01*
Y414053D01*
X336041D01*
Y413966D01*
X336128D01*
Y413879D01*
X336303D01*
Y413791D01*
X336653D01*
Y413704D01*
X336915D01*
Y413616D01*
X337090D01*
Y413529D01*
Y413442D01*
X337265D01*
Y413354D01*
X337702D01*
Y413267D01*
X337964D01*
Y413179D01*
X338052D01*
Y413092D01*
X338139D01*
Y413004D01*
Y412917D01*
X338751D01*
Y412830D01*
X339013D01*
Y412742D01*
X339101D01*
Y412655D01*
Y412567D01*
Y412480D01*
X338401D01*
Y412567D01*
X338314D01*
Y412655D01*
X338227D01*
Y412742D01*
X338139D01*
Y412830D01*
X337702D01*
Y412917D01*
X337265D01*
Y413004D01*
X337177D01*
Y413092D01*
X337090D01*
Y413179D01*
X336915D01*
Y413267D01*
X336391D01*
Y413354D01*
X336128D01*
Y413442D01*
X335954D01*
Y413529D01*
X335866D01*
Y413616D01*
X335604D01*
Y413704D01*
X335167D01*
Y413791D01*
X334992D01*
Y413879D01*
X334817D01*
Y413966D01*
X334555D01*
Y414053D01*
X334205D01*
Y414141D01*
X333768D01*
Y414228D01*
X333419D01*
Y414316D01*
X333156D01*
Y414403D01*
X332894D01*
Y414491D01*
X332632D01*
Y414578D01*
X332195D01*
Y414665D01*
X331845D01*
Y414753D01*
X331670D01*
Y414840D01*
X331408D01*
Y414928D01*
X330971D01*
Y415015D01*
X330621D01*
Y415102D01*
X330359D01*
Y415190D01*
X330097D01*
Y415277D01*
X329835D01*
Y415365D01*
X329310D01*
Y415452D01*
X328960D01*
Y415540D01*
X328698D01*
Y415627D01*
X328436D01*
Y415714D01*
X328086D01*
Y415802D01*
X327649D01*
Y415889D01*
X327387D01*
Y415977D01*
X327125D01*
Y416064D01*
X326862D01*
Y416152D01*
X326513D01*
Y416239D01*
X326076D01*
Y416326D01*
X325813D01*
Y416414D01*
X325551D01*
Y416501D01*
X325289D01*
Y416588D01*
X324852D01*
Y416676D01*
X324415D01*
Y416763D01*
X324152D01*
Y416851D01*
X323890D01*
Y416938D01*
X323540D01*
Y417026D01*
X323191D01*
Y417113D01*
X322754D01*
Y417201D01*
X322491D01*
Y417288D01*
X322229D01*
Y417375D01*
X321880D01*
Y417463D01*
X321355D01*
Y417550D01*
X320918D01*
Y417637D01*
X320568D01*
Y417725D01*
X320219D01*
Y417812D01*
X319869D01*
Y417900D01*
X319344D01*
Y417987D01*
X318995D01*
Y418075D01*
X318645D01*
Y418162D01*
X318295D01*
Y418250D01*
X317946D01*
Y418337D01*
X317334D01*
Y418424D01*
X316897D01*
Y418512D01*
X316547D01*
Y418599D01*
X316197D01*
Y418686D01*
X315848D01*
Y418774D01*
X315236D01*
Y418861D01*
X314886D01*
Y418949D01*
X314536D01*
Y419036D01*
X314274D01*
Y419124D01*
X313750D01*
Y419211D01*
X313313D01*
Y419299D01*
X312963D01*
Y419386D01*
X312613D01*
Y419473D01*
X312264D01*
Y419561D01*
X311739D01*
Y419648D01*
X311215D01*
Y419736D01*
X310865D01*
Y419823D01*
X310515D01*
Y419910D01*
X310166D01*
Y419998D01*
X309641D01*
Y420085D01*
X309466D01*
Y420173D01*
X309379D01*
Y420260D01*
X309204D01*
Y420347D01*
X309117D01*
Y420435D01*
X308942D01*
Y420522D01*
X308854D01*
Y420610D01*
X308767D01*
Y420697D01*
Y420785D01*
Y420872D01*
X309554D01*
Y420785D01*
D02*
G37*
G36*
X340062Y412305D02*
X340150D01*
Y412218D01*
Y412130D01*
X339450D01*
Y412218D01*
X339363D01*
Y412305D01*
Y412393D01*
X340062D01*
Y412305D01*
D02*
G37*
G36*
X341024Y411868D02*
Y411781D01*
X340936D01*
Y411693D01*
X340674D01*
Y411781D01*
X340587D01*
Y411868D01*
Y411955D01*
X341024D01*
Y411868D01*
D02*
G37*
G36*
X345395Y409770D02*
X345482D01*
Y409683D01*
X345220D01*
Y409770D01*
X345307D01*
Y409857D01*
X345395D01*
Y409770D01*
D02*
G37*
G36*
X346094Y409420D02*
X346182D01*
Y409333D01*
X346269D01*
Y409245D01*
X346182D01*
Y409158D01*
X345919D01*
Y409245D01*
X345832D01*
Y409333D01*
Y409420D01*
Y409508D01*
X346094D01*
Y409420D01*
D02*
G37*
G36*
X274762Y401378D02*
X274849D01*
Y401291D01*
X275024D01*
Y401203D01*
X275286D01*
Y401116D01*
X275549D01*
Y401028D01*
X275723D01*
Y400941D01*
X275898D01*
Y400853D01*
X275986D01*
Y400766D01*
X276073D01*
Y400679D01*
X276160D01*
Y400591D01*
Y400504D01*
X276248D01*
Y400416D01*
X276335D01*
Y400329D01*
X276423D01*
Y400242D01*
X276510D01*
Y400154D01*
Y400067D01*
X276597D01*
Y399979D01*
X276685D01*
Y399892D01*
X276772D01*
Y399804D01*
X276860D01*
Y399717D01*
X276947D01*
Y399630D01*
X277034D01*
Y399542D01*
Y399455D01*
X277122D01*
Y399367D01*
X277209D01*
Y399280D01*
X277297D01*
Y399193D01*
X277384D01*
Y399105D01*
Y399018D01*
X277472D01*
Y398930D01*
X277559D01*
Y398843D01*
X277646D01*
Y398756D01*
X277734D01*
Y398668D01*
Y398581D01*
X277821D01*
Y398493D01*
Y398406D01*
Y398318D01*
X277734D01*
Y398231D01*
X277472D01*
Y398318D01*
X277297D01*
Y398406D01*
X277209D01*
Y398493D01*
X277122D01*
Y398581D01*
X276860D01*
Y398668D01*
X276597D01*
Y398756D01*
X276423D01*
Y398843D01*
X276335D01*
Y398930D01*
X276248D01*
Y399018D01*
X276160D01*
Y399105D01*
X276073D01*
Y399193D01*
X275986D01*
Y399280D01*
X275898D01*
Y399367D01*
X275811D01*
Y399455D01*
X275723D01*
Y399542D01*
Y399630D01*
X275636D01*
Y399717D01*
Y399804D01*
X275549D01*
Y399892D01*
X275461D01*
Y399979D01*
X275374D01*
Y400067D01*
X275286D01*
Y400154D01*
Y400242D01*
X275199D01*
Y400329D01*
X275111D01*
Y400416D01*
X275024D01*
Y400504D01*
X274937D01*
Y400591D01*
X274849D01*
Y400679D01*
X274762D01*
Y400766D01*
Y400853D01*
X274674D01*
Y400941D01*
X274587D01*
Y401028D01*
X274499D01*
Y401116D01*
X274412D01*
Y401203D01*
Y401291D01*
X274325D01*
Y401378D01*
X274412D01*
Y401465D01*
X274762D01*
Y401378D01*
D02*
G37*
G36*
X405188Y421047D02*
X405275D01*
Y420959D01*
X405450D01*
Y420872D01*
X405713D01*
Y420785D01*
X405887D01*
Y420697D01*
X405975D01*
Y420610D01*
X406150D01*
Y420522D01*
X406324D01*
Y420435D01*
X406499D01*
Y420347D01*
Y420260D01*
X406587D01*
Y420173D01*
Y420085D01*
Y419998D01*
Y419910D01*
Y419823D01*
Y419736D01*
X406674D01*
Y419648D01*
Y419561D01*
Y419473D01*
Y419386D01*
Y419299D01*
X406762D01*
Y419211D01*
Y419124D01*
Y419036D01*
X406849D01*
Y418949D01*
Y418861D01*
Y418774D01*
X406936D01*
Y418686D01*
Y418599D01*
Y418512D01*
Y418424D01*
X407024D01*
Y418337D01*
Y418250D01*
Y418162D01*
Y418075D01*
Y417987D01*
X407111D01*
Y417900D01*
Y417812D01*
Y417725D01*
X407199D01*
Y417637D01*
Y417550D01*
X407286D01*
Y417463D01*
Y417375D01*
X407374D01*
Y417288D01*
Y417201D01*
Y417113D01*
Y417026D01*
Y416938D01*
X407461D01*
Y416851D01*
Y416763D01*
Y416676D01*
Y416588D01*
X407548D01*
Y416501D01*
Y416414D01*
X407636D01*
Y416326D01*
X407723D01*
Y416239D01*
Y416152D01*
Y416064D01*
X407811D01*
Y415977D01*
Y415889D01*
X407898D01*
Y415802D01*
X407985D01*
Y415714D01*
X408073D01*
Y415627D01*
X408160D01*
Y415540D01*
X408248D01*
Y415452D01*
X408510D01*
Y415365D01*
X408685D01*
Y415277D01*
Y415190D01*
X408772D01*
Y415102D01*
X408860D01*
Y415015D01*
X409209D01*
Y414928D01*
X409297D01*
Y414840D01*
X409384D01*
Y414753D01*
X409472D01*
Y414665D01*
X409646D01*
Y414578D01*
X409909D01*
Y414491D01*
X409996D01*
Y414403D01*
X410083D01*
Y414316D01*
X410171D01*
Y414228D01*
X410346D01*
Y414141D01*
X410608D01*
Y414053D01*
X410695D01*
Y413966D01*
X410783D01*
Y413879D01*
X410870D01*
Y413791D01*
X411045D01*
Y413704D01*
X411220D01*
Y413616D01*
X411307D01*
Y413529D01*
X411395D01*
Y413442D01*
X411569D01*
Y413354D01*
X411744D01*
Y413267D01*
X411919D01*
Y413179D01*
X412007D01*
Y413092D01*
X412094D01*
Y413004D01*
X412181D01*
Y412917D01*
X412444D01*
Y412830D01*
X412531D01*
Y412742D01*
X412618D01*
Y412655D01*
X412706D01*
Y412567D01*
X412881D01*
Y412480D01*
X413056D01*
Y412393D01*
X413230D01*
Y412305D01*
Y412218D01*
X413318D01*
Y412130D01*
X413493D01*
Y412043D01*
X413755D01*
Y411955D01*
X413842D01*
Y411868D01*
X413930D01*
Y411781D01*
X414017D01*
Y411693D01*
X414192D01*
Y411606D01*
X414367D01*
Y411518D01*
X414454D01*
Y411431D01*
X414542D01*
Y411343D01*
X414629D01*
Y411256D01*
X414891D01*
Y411169D01*
X414979D01*
Y411081D01*
X415066D01*
Y410994D01*
X415154D01*
Y410906D01*
X415328D01*
Y410819D01*
X415503D01*
Y410732D01*
X415591D01*
Y410644D01*
X415678D01*
Y410557D01*
X415765D01*
Y410469D01*
X415940D01*
Y410382D01*
X416028D01*
Y410294D01*
X416203D01*
Y410207D01*
X416290D01*
Y410120D01*
X416377D01*
Y410032D01*
X416552D01*
Y409945D01*
X416640D01*
Y409857D01*
X416727D01*
Y409770D01*
X416815D01*
Y409683D01*
X416902D01*
Y409595D01*
X417164D01*
Y409508D01*
X417252D01*
Y409420D01*
X417426D01*
Y409333D01*
Y409245D01*
X417601D01*
Y409158D01*
X417776D01*
Y409071D01*
X417864D01*
Y408983D01*
X417951D01*
Y408896D01*
X418038D01*
Y408808D01*
X418213D01*
Y408721D01*
X418388D01*
Y408634D01*
X418475D01*
Y408546D01*
X418563D01*
Y408459D01*
X418650D01*
Y408371D01*
X418825D01*
Y408284D01*
X418913D01*
Y408196D01*
X419000D01*
Y408109D01*
X419087D01*
Y408022D01*
X419262D01*
Y407934D01*
X419350D01*
Y407847D01*
X419524D01*
Y407759D01*
X419612D01*
Y407672D01*
X419699D01*
Y407585D01*
X419787D01*
Y407497D01*
X419962D01*
Y407410D01*
X420049D01*
Y407322D01*
X420136D01*
Y407235D01*
X420224D01*
Y407148D01*
X420311D01*
Y407060D01*
X420486D01*
Y406973D01*
X420661D01*
Y406885D01*
X420748D01*
Y406798D01*
X420836D01*
Y406710D01*
X420923D01*
Y406623D01*
X421098D01*
Y406536D01*
X421185D01*
Y406448D01*
X421273D01*
Y406361D01*
X421360D01*
Y406273D01*
X421448D01*
Y406186D01*
X421623D01*
Y406099D01*
X421710D01*
Y406011D01*
X421797D01*
Y405924D01*
X421885D01*
Y405836D01*
X422059D01*
Y405749D01*
X422234D01*
Y405661D01*
X422322D01*
Y405574D01*
X422409D01*
Y405487D01*
X422497D01*
Y405399D01*
X422584D01*
Y405312D01*
X422759D01*
Y405224D01*
X422846D01*
Y405137D01*
X422934D01*
Y405050D01*
X423021D01*
Y404962D01*
X423109D01*
Y404875D01*
X423283D01*
Y404787D01*
X423371D01*
Y404700D01*
X423458D01*
Y404612D01*
X423546D01*
Y404525D01*
X423633D01*
Y404438D01*
X423808D01*
Y404350D01*
X423895D01*
Y404263D01*
X423983D01*
Y404175D01*
X424070D01*
Y404088D01*
X424158D01*
Y404001D01*
X424332D01*
Y403913D01*
X424420D01*
Y403826D01*
X424507D01*
Y403738D01*
X424595D01*
Y403651D01*
X424769D01*
Y403563D01*
X424857D01*
Y403476D01*
X424944D01*
Y403389D01*
X425032D01*
Y403301D01*
X425119D01*
Y403214D01*
X425207D01*
Y403126D01*
X425381D01*
Y403039D01*
X425469D01*
Y402951D01*
X425556D01*
Y402864D01*
X425644D01*
Y402777D01*
X425731D01*
Y402689D01*
X425818D01*
Y402602D01*
X425906D01*
Y402514D01*
X425993D01*
Y402427D01*
X426081D01*
Y402340D01*
X426168D01*
Y402252D01*
X426256D01*
Y402165D01*
X426343D01*
Y402077D01*
X426430D01*
Y401990D01*
X426605D01*
Y401902D01*
X426693D01*
Y401815D01*
X426780D01*
Y401728D01*
X426867D01*
Y401640D01*
X426955D01*
Y401553D01*
X427042D01*
Y401465D01*
X427130D01*
Y401378D01*
X427217D01*
Y401291D01*
X427305D01*
Y401203D01*
X427392D01*
Y401116D01*
X427479D01*
Y401028D01*
X427567D01*
Y400941D01*
X427654D01*
Y400853D01*
X427742D01*
Y400766D01*
X427829D01*
Y400679D01*
X427916D01*
Y400591D01*
X428004D01*
Y400504D01*
X428091D01*
Y400416D01*
X428179D01*
Y400329D01*
X428266D01*
Y400242D01*
X428354D01*
Y400154D01*
X428441D01*
Y400067D01*
X428528D01*
Y399979D01*
X428616D01*
Y399892D01*
X428703D01*
Y399804D01*
X428791D01*
Y399717D01*
X428878D01*
Y399630D01*
Y399542D01*
X428966D01*
Y399455D01*
X429140D01*
Y399367D01*
Y399280D01*
X429228D01*
Y399193D01*
X429315D01*
Y399105D01*
X429403D01*
Y399018D01*
X429490D01*
Y398930D01*
X429577D01*
Y398843D01*
X429665D01*
Y398756D01*
Y398668D01*
X429752D01*
Y398581D01*
X429927D01*
Y398493D01*
X430015D01*
Y398406D01*
Y398318D01*
X430102D01*
Y398231D01*
X430189D01*
Y398144D01*
X430277D01*
Y398056D01*
X430364D01*
Y397969D01*
X430452D01*
Y397881D01*
Y397794D01*
X430539D01*
Y397706D01*
X430626D01*
Y397619D01*
X430714D01*
Y397532D01*
X430801D01*
Y397444D01*
Y397357D01*
X430889D01*
Y397269D01*
Y397182D01*
X430976D01*
Y397094D01*
X431064D01*
Y397007D01*
X431151D01*
Y396920D01*
X431238D01*
Y396832D01*
Y396745D01*
X431326D01*
Y396657D01*
X431413D01*
Y396570D01*
X431501D01*
Y396483D01*
X431588D01*
Y396395D01*
Y396308D01*
X431675D01*
Y396220D01*
X431588D01*
Y396133D01*
X431501D01*
Y396045D01*
X431326D01*
Y396133D01*
X431064D01*
Y396220D01*
X430889D01*
Y396308D01*
X430801D01*
Y396395D01*
X430626D01*
Y396483D01*
X430364D01*
Y396570D01*
X430189D01*
Y396657D01*
X430102D01*
Y396745D01*
X430015D01*
Y396832D01*
X429927D01*
Y396920D01*
X429840D01*
Y397007D01*
X429752D01*
Y397094D01*
X429665D01*
Y397182D01*
Y397269D01*
X429577D01*
Y397357D01*
Y397444D01*
X429490D01*
Y397532D01*
X429403D01*
Y397619D01*
X429315D01*
Y397706D01*
Y397794D01*
X429228D01*
Y397881D01*
X429140D01*
Y397969D01*
Y398056D01*
X429053D01*
Y398144D01*
X428966D01*
Y398231D01*
X428878D01*
Y398318D01*
X428791D01*
Y398406D01*
Y398493D01*
X428703D01*
Y398581D01*
X428616D01*
Y398668D01*
X428528D01*
Y398756D01*
X428441D01*
Y398843D01*
X428354D01*
Y398930D01*
Y399018D01*
X428266D01*
Y399105D01*
X428091D01*
Y399193D01*
Y399280D01*
X428004D01*
Y399367D01*
X427916D01*
Y399455D01*
X427829D01*
Y399542D01*
X427742D01*
Y399630D01*
X427654D01*
Y399717D01*
X427567D01*
Y399804D01*
Y399892D01*
X427479D01*
Y399979D01*
X427392D01*
Y400067D01*
X427305D01*
Y400154D01*
X427217D01*
Y400242D01*
Y400329D01*
X427130D01*
Y400416D01*
X427042D01*
Y400504D01*
X426955D01*
Y400591D01*
X426867D01*
Y400679D01*
X426780D01*
Y400766D01*
X426693D01*
Y400853D01*
X426605D01*
Y400941D01*
X426518D01*
Y401028D01*
X426430D01*
Y401116D01*
X426343D01*
Y401203D01*
X426256D01*
Y401291D01*
X426168D01*
Y401378D01*
X426081D01*
Y401465D01*
X425993D01*
Y401553D01*
X425906D01*
Y401640D01*
X425818D01*
Y401728D01*
X425731D01*
Y401815D01*
X425644D01*
Y401902D01*
X425556D01*
Y401990D01*
X425469D01*
Y402077D01*
X425381D01*
Y402165D01*
X425294D01*
Y402252D01*
X425207D01*
Y402340D01*
X425119D01*
Y402427D01*
X425032D01*
Y402514D01*
X424944D01*
Y402602D01*
X424857D01*
Y402689D01*
X424769D01*
Y402777D01*
X424595D01*
Y402864D01*
X424507D01*
Y402951D01*
X424420D01*
Y403039D01*
X424332D01*
Y403126D01*
X424245D01*
Y403214D01*
X424158D01*
Y403301D01*
X424070D01*
Y403389D01*
X423983D01*
Y403476D01*
X423808D01*
Y403563D01*
X423721D01*
Y403651D01*
X423633D01*
Y403738D01*
X423546D01*
Y403826D01*
X423458D01*
Y403913D01*
X423371D01*
Y404001D01*
X423283D01*
Y404088D01*
X423196D01*
Y404175D01*
X423021D01*
Y404263D01*
X422934D01*
Y404350D01*
X422846D01*
Y404438D01*
X422759D01*
Y404525D01*
X422672D01*
Y404612D01*
X422584D01*
Y404700D01*
X422409D01*
Y404787D01*
X422322D01*
Y404875D01*
X422234D01*
Y404962D01*
X422147D01*
Y405050D01*
X422059D01*
Y405137D01*
X421972D01*
Y405224D01*
X421797D01*
Y405312D01*
X421710D01*
Y405399D01*
X421623D01*
Y405487D01*
X421535D01*
Y405574D01*
X421360D01*
Y405661D01*
X421273D01*
Y405749D01*
X421098D01*
Y405836D01*
X421010D01*
Y405924D01*
X420923D01*
Y406011D01*
X420836D01*
Y406099D01*
X420748D01*
Y406186D01*
X420573D01*
Y406273D01*
X420486D01*
Y406361D01*
X420399D01*
Y406448D01*
X420311D01*
Y406536D01*
X420136D01*
Y406623D01*
X420049D01*
Y406710D01*
X419962D01*
Y406798D01*
X419874D01*
Y406885D01*
X419699D01*
Y406973D01*
X419612D01*
Y407060D01*
X419437D01*
Y407148D01*
X419350D01*
Y407235D01*
X419262D01*
Y407322D01*
X419175D01*
Y407410D01*
X419000D01*
Y407497D01*
X418913D01*
Y407585D01*
X418825D01*
Y407672D01*
X418738D01*
Y407759D01*
X418563D01*
Y407847D01*
X418475D01*
Y407934D01*
X418388D01*
Y408022D01*
X418301D01*
Y408109D01*
X418213D01*
Y408196D01*
X418038D01*
Y408284D01*
X417864D01*
Y408371D01*
X417776D01*
Y408459D01*
Y408546D01*
X417601D01*
Y408634D01*
X417426D01*
Y408721D01*
X417339D01*
Y408808D01*
X417252D01*
Y408896D01*
X417164D01*
Y408983D01*
X417077D01*
Y409071D01*
X416902D01*
Y409158D01*
X416727D01*
Y409245D01*
X416640D01*
Y409333D01*
X416552D01*
Y409420D01*
X416465D01*
Y409508D01*
X416290D01*
Y409595D01*
X416115D01*
Y409683D01*
X416028D01*
Y409770D01*
X415940D01*
Y409857D01*
X415853D01*
Y409945D01*
X415678D01*
Y410032D01*
X415591D01*
Y410120D01*
X415503D01*
Y410207D01*
X415328D01*
Y410294D01*
X415241D01*
Y410382D01*
X415066D01*
Y410469D01*
X414979D01*
Y410557D01*
X414891D01*
Y410644D01*
X414804D01*
Y410732D01*
X414629D01*
Y410819D01*
X414454D01*
Y410906D01*
X414367D01*
Y410994D01*
X414279D01*
Y411081D01*
X414192D01*
Y411169D01*
X413930D01*
Y411256D01*
X413842D01*
Y411343D01*
X413755D01*
Y411431D01*
X413667D01*
Y411518D01*
X413580D01*
Y411606D01*
X413318D01*
Y411693D01*
X413230D01*
Y411781D01*
X413143D01*
Y411868D01*
X413056D01*
Y411955D01*
X412968D01*
Y412043D01*
X412706D01*
Y412130D01*
X412618D01*
Y412218D01*
X412531D01*
Y412305D01*
X412444D01*
Y412393D01*
X412269D01*
Y412480D01*
X412094D01*
Y412567D01*
X412007D01*
Y412655D01*
X411919D01*
Y412742D01*
X411832D01*
Y412830D01*
X411569D01*
Y412917D01*
X411395D01*
Y413004D01*
X411307D01*
Y413092D01*
X411220D01*
Y413179D01*
X411132D01*
Y413267D01*
X410870D01*
Y413354D01*
X410783D01*
Y413442D01*
X410695D01*
Y413529D01*
X410608D01*
Y413616D01*
X410521D01*
Y413704D01*
X410258D01*
Y413791D01*
X410083D01*
Y413879D01*
X409996D01*
Y413966D01*
Y414053D01*
X409821D01*
Y414141D01*
X409559D01*
Y414228D01*
X409472D01*
Y414316D01*
X409384D01*
Y414403D01*
Y414491D01*
X409209D01*
Y414578D01*
X408860D01*
Y414665D01*
X408772D01*
Y414753D01*
Y414840D01*
X408685D01*
Y414928D01*
X408248D01*
Y414840D01*
Y414753D01*
Y414665D01*
Y414578D01*
Y414491D01*
X408335D01*
Y414403D01*
Y414316D01*
X408423D01*
Y414228D01*
Y414141D01*
X408510D01*
Y414053D01*
X408597D01*
Y413966D01*
Y413879D01*
Y413791D01*
X408685D01*
Y413704D01*
Y413616D01*
Y413529D01*
Y413442D01*
X408772D01*
Y413354D01*
Y413267D01*
X408860D01*
Y413179D01*
Y413092D01*
X408947D01*
Y413004D01*
X409034D01*
Y412917D01*
Y412830D01*
Y412742D01*
Y412655D01*
X409122D01*
Y412567D01*
Y412480D01*
Y412393D01*
X409209D01*
Y412305D01*
Y412218D01*
X409297D01*
Y412130D01*
Y412043D01*
X409384D01*
Y411955D01*
Y411868D01*
X409472D01*
Y411781D01*
Y411693D01*
Y411606D01*
X409559D01*
Y411518D01*
Y411431D01*
Y411343D01*
X409646D01*
Y411256D01*
Y411169D01*
X409734D01*
Y411081D01*
X409821D01*
Y410994D01*
Y410906D01*
X409909D01*
Y410819D01*
Y410732D01*
Y410644D01*
X409996D01*
Y410557D01*
Y410469D01*
Y410382D01*
X410083D01*
Y410294D01*
X410171D01*
Y410207D01*
X410258D01*
Y410120D01*
Y410032D01*
Y409945D01*
X410346D01*
Y409857D01*
Y409770D01*
Y409683D01*
X410433D01*
Y409595D01*
Y409508D01*
X410521D01*
Y409420D01*
Y409333D01*
X410608D01*
Y409245D01*
X410695D01*
Y409158D01*
Y409071D01*
X410783D01*
Y408983D01*
Y408896D01*
Y408808D01*
Y408721D01*
X410870D01*
Y408634D01*
Y408546D01*
X410958D01*
Y408459D01*
X411045D01*
Y408371D01*
Y408284D01*
X411132D01*
Y408196D01*
Y408109D01*
X411220D01*
Y408022D01*
Y407934D01*
Y407847D01*
X411307D01*
Y407759D01*
Y407672D01*
X411395D01*
Y407585D01*
X411482D01*
Y407497D01*
Y407410D01*
X411569D01*
Y407322D01*
Y407235D01*
Y407148D01*
X411657D01*
Y407060D01*
Y406973D01*
Y406885D01*
X411744D01*
Y406798D01*
X411832D01*
Y406710D01*
X411919D01*
Y406623D01*
Y406536D01*
X412007D01*
Y406448D01*
Y406361D01*
Y406273D01*
X412094D01*
Y406186D01*
Y406099D01*
Y406011D01*
X412181D01*
Y405924D01*
X412269D01*
Y405836D01*
X412356D01*
Y405749D01*
Y405661D01*
X412444D01*
Y405574D01*
Y405487D01*
Y405399D01*
Y405312D01*
X412531D01*
Y405224D01*
Y405137D01*
X412618D01*
Y405050D01*
X412706D01*
Y404962D01*
X412793D01*
Y404875D01*
Y404787D01*
Y404700D01*
X412881D01*
Y404612D01*
Y404525D01*
Y404438D01*
X412968D01*
Y404350D01*
X413056D01*
Y404263D01*
Y404175D01*
X413143D01*
Y404088D01*
X413230D01*
Y404001D01*
Y403913D01*
Y403826D01*
X413318D01*
Y403738D01*
Y403651D01*
Y403563D01*
X413405D01*
Y403476D01*
X413493D01*
Y403389D01*
X413580D01*
Y403301D01*
Y403214D01*
X413667D01*
Y403126D01*
Y403039D01*
Y402951D01*
X413755D01*
Y402864D01*
Y402777D01*
Y402689D01*
X413842D01*
Y402602D01*
X413930D01*
Y402514D01*
X414017D01*
Y402427D01*
Y402340D01*
X414105D01*
Y402252D01*
Y402165D01*
Y402077D01*
X414192D01*
Y401990D01*
Y401902D01*
X414279D01*
Y401815D01*
Y401728D01*
X414367D01*
Y401640D01*
X414454D01*
Y401553D01*
Y401465D01*
X414542D01*
Y401378D01*
Y401291D01*
Y401203D01*
X414629D01*
Y401116D01*
Y401028D01*
X414716D01*
Y400941D01*
X414804D01*
Y400853D01*
Y400766D01*
X414891D01*
Y400679D01*
Y400591D01*
X414979D01*
Y400504D01*
Y400416D01*
Y400329D01*
X415066D01*
Y400242D01*
Y400154D01*
X415154D01*
Y400067D01*
X415241D01*
Y399979D01*
X415328D01*
Y399892D01*
Y399804D01*
Y399717D01*
X415416D01*
Y399630D01*
Y399542D01*
Y399455D01*
X415503D01*
Y399367D01*
X415591D01*
Y399280D01*
X415678D01*
Y399193D01*
Y399105D01*
X415765D01*
Y399018D01*
Y398930D01*
Y398843D01*
X415853D01*
Y398756D01*
Y398668D01*
X415940D01*
Y398581D01*
X416028D01*
Y398493D01*
Y398406D01*
X416115D01*
Y398318D01*
X416203D01*
Y398231D01*
Y398144D01*
Y398056D01*
X416290D01*
Y397969D01*
Y397881D01*
Y397794D01*
X416377D01*
Y397706D01*
X416465D01*
Y397619D01*
X416552D01*
Y397532D01*
Y397444D01*
X416640D01*
Y397357D01*
Y397269D01*
Y397182D01*
X416727D01*
Y397094D01*
Y397007D01*
X416815D01*
Y396920D01*
X416902D01*
Y396832D01*
X416989D01*
Y396745D01*
Y396657D01*
X417077D01*
Y396570D01*
Y396483D01*
X417164D01*
Y396395D01*
Y396308D01*
X417252D01*
Y396220D01*
X417339D01*
Y396133D01*
Y396045D01*
X417426D01*
Y395958D01*
Y395871D01*
X417514D01*
Y395783D01*
Y395696D01*
X417601D01*
Y395608D01*
Y395521D01*
X417689D01*
Y395434D01*
X417776D01*
Y395346D01*
X417864D01*
Y395259D01*
Y395171D01*
Y395084D01*
X417951D01*
Y394997D01*
Y394909D01*
X418038D01*
Y394822D01*
Y394734D01*
X418126D01*
Y394647D01*
X418213D01*
Y394559D01*
X418301D01*
Y394472D01*
Y394385D01*
Y394297D01*
X418388D01*
Y394210D01*
Y394122D01*
X418475D01*
Y394035D01*
X418563D01*
Y393948D01*
X418650D01*
Y393860D01*
Y393773D01*
X418738D01*
Y393685D01*
Y393598D01*
Y393510D01*
X418825D01*
Y393423D01*
Y393336D01*
X418913D01*
Y393248D01*
X419000D01*
Y393161D01*
X419087D01*
Y393073D01*
Y392986D01*
X419175D01*
Y392899D01*
Y392811D01*
Y392724D01*
X419262D01*
Y392636D01*
X419350D01*
Y392549D01*
Y392461D01*
X419437D01*
Y392374D01*
X419524D01*
Y392287D01*
Y392199D01*
X419612D01*
Y392112D01*
Y392024D01*
Y391937D01*
X419699D01*
Y391849D01*
X419787D01*
Y391762D01*
X419874D01*
Y391675D01*
Y391587D01*
X419962D01*
Y391500D01*
Y391412D01*
X420049D01*
Y391325D01*
Y391238D01*
Y391150D01*
X420136D01*
Y391063D01*
X420224D01*
Y390975D01*
X420311D01*
Y390888D01*
Y390800D01*
X420399D01*
Y390713D01*
Y390626D01*
X420486D01*
Y390538D01*
Y390451D01*
X420573D01*
Y390363D01*
Y390276D01*
X420661D01*
Y390189D01*
X420748D01*
Y390101D01*
Y390014D01*
X420836D01*
Y389926D01*
Y389839D01*
X420923D01*
Y389752D01*
Y389664D01*
X421010D01*
Y389577D01*
X421098D01*
Y389489D01*
X421185D01*
Y389402D01*
Y389314D01*
X421273D01*
Y389227D01*
Y389140D01*
Y389052D01*
X421360D01*
Y388965D01*
X421448D01*
Y388877D01*
X421535D01*
Y388790D01*
X421623D01*
Y388703D01*
Y388615D01*
X421710D01*
Y388528D01*
Y388440D01*
Y388353D01*
X421797D01*
Y388265D01*
X421885D01*
Y388178D01*
X421972D01*
Y388091D01*
Y388003D01*
X422059D01*
Y387916D01*
Y387828D01*
X422147D01*
Y387741D01*
Y387653D01*
X422234D01*
Y387566D01*
X422322D01*
Y387479D01*
X422409D01*
Y387391D01*
Y387304D01*
X422497D01*
Y387216D01*
Y387129D01*
X422584D01*
Y387042D01*
Y386954D01*
X422672D01*
Y386867D01*
X422759D01*
Y386779D01*
X422846D01*
Y386692D01*
Y386604D01*
X422934D01*
Y386517D01*
Y386430D01*
X423021D01*
Y386342D01*
Y386255D01*
X423109D01*
Y386167D01*
X423196D01*
Y386080D01*
X423283D01*
Y385993D01*
Y385905D01*
X423371D01*
Y385818D01*
Y385730D01*
Y385643D01*
X423458D01*
Y385556D01*
X423546D01*
Y385468D01*
X423633D01*
Y385381D01*
X423721D01*
Y385293D01*
Y385206D01*
Y385118D01*
X423808D01*
Y385031D01*
Y384944D01*
X423895D01*
Y384856D01*
X423983D01*
Y384769D01*
X424070D01*
Y384681D01*
Y384594D01*
X424158D01*
Y384507D01*
Y384419D01*
X424245D01*
Y384332D01*
Y384244D01*
X424332D01*
Y384157D01*
X424420D01*
Y384069D01*
X424507D01*
Y383982D01*
Y383894D01*
X424595D01*
Y383807D01*
Y383720D01*
X424682D01*
Y383632D01*
Y383545D01*
X424769D01*
Y383457D01*
X424857D01*
Y383370D01*
X424944D01*
Y383283D01*
Y383195D01*
X425032D01*
Y383108D01*
Y383020D01*
X425119D01*
Y382933D01*
Y382845D01*
X425207D01*
Y382758D01*
X425294D01*
Y382671D01*
X425381D01*
Y382583D01*
Y382496D01*
X425469D01*
Y382408D01*
Y382321D01*
X425556D01*
Y382234D01*
Y382146D01*
X425644D01*
Y382059D01*
X425731D01*
Y381971D01*
X425818D01*
Y381884D01*
Y381797D01*
X425906D01*
Y381709D01*
Y381622D01*
X425993D01*
Y381534D01*
X426081D01*
Y381447D01*
X426168D01*
Y381359D01*
Y381272D01*
X426256D01*
Y381185D01*
Y381097D01*
X426343D01*
Y381010D01*
Y380922D01*
X426430D01*
Y380835D01*
X426518D01*
Y380748D01*
X426605D01*
Y380660D01*
X426693D01*
Y380573D01*
Y380485D01*
Y380398D01*
X426780D01*
Y380310D01*
X426867D01*
Y380223D01*
Y380136D01*
X426955D01*
Y380048D01*
X427042D01*
Y379961D01*
X427130D01*
Y379873D01*
Y379786D01*
X427217D01*
Y379698D01*
Y379611D01*
X427305D01*
Y379524D01*
X427392D01*
Y379436D01*
X427479D01*
Y379349D01*
Y379261D01*
X427567D01*
Y379174D01*
Y379087D01*
X427654D01*
Y378999D01*
X427742D01*
Y378912D01*
X427829D01*
Y378824D01*
X427916D01*
Y378737D01*
Y378649D01*
X428004D01*
Y378562D01*
Y378475D01*
X428091D01*
Y378387D01*
X428179D01*
Y378300D01*
X428266D01*
Y378212D01*
X428354D01*
Y378125D01*
Y378038D01*
X428441D01*
Y377950D01*
Y377863D01*
X428528D01*
Y377775D01*
X428616D01*
Y377688D01*
X428703D01*
Y377601D01*
Y377513D01*
X428791D01*
Y377426D01*
Y377338D01*
X428878D01*
Y377251D01*
X428966D01*
Y377163D01*
X429053D01*
Y377076D01*
X429140D01*
Y376989D01*
Y376901D01*
X429228D01*
Y376814D01*
Y376726D01*
X429315D01*
Y376639D01*
X429403D01*
Y376552D01*
Y376464D01*
X429490D01*
Y376377D01*
X429577D01*
Y376289D01*
X429665D01*
Y376202D01*
Y376114D01*
X429752D01*
Y376027D01*
X429840D01*
Y375940D01*
X429927D01*
Y375852D01*
X430015D01*
Y375765D01*
Y375677D01*
X430102D01*
Y375590D01*
X430189D01*
Y375502D01*
Y375415D01*
X430277D01*
Y375328D01*
X430364D01*
Y375240D01*
X430452D01*
Y375153D01*
Y375065D01*
X430539D01*
Y374978D01*
X430626D01*
Y374891D01*
X430714D01*
Y374803D01*
X430801D01*
Y374716D01*
Y374628D01*
X430889D01*
Y374541D01*
X430976D01*
Y374453D01*
Y374366D01*
X431064D01*
Y374279D01*
X431151D01*
Y374191D01*
X431238D01*
Y374104D01*
X431326D01*
Y374016D01*
Y373929D01*
X431413D01*
Y373842D01*
X431501D01*
Y373754D01*
X431588D01*
Y373667D01*
X431675D01*
Y373579D01*
Y373492D01*
X431763D01*
Y373405D01*
X431850D01*
Y373317D01*
X431938D01*
Y373230D01*
X432025D01*
Y373142D01*
X432113D01*
Y373055D01*
Y372967D01*
X432200D01*
Y372880D01*
Y372793D01*
X432287D01*
Y372705D01*
X432462D01*
Y372618D01*
X432550D01*
Y372530D01*
Y372443D01*
Y372356D01*
Y372268D01*
X432462D01*
Y372181D01*
X432200D01*
Y372268D01*
X432025D01*
Y372356D01*
X431850D01*
Y372443D01*
X431763D01*
Y372530D01*
X431588D01*
Y372618D01*
X431326D01*
Y372705D01*
X431151D01*
Y372793D01*
X431064D01*
Y372880D01*
X430976D01*
Y372967D01*
Y373055D01*
X430889D01*
Y373142D01*
X430801D01*
Y373230D01*
X430714D01*
Y373317D01*
X430626D01*
Y373405D01*
Y373492D01*
X430539D01*
Y373579D01*
X430452D01*
Y373667D01*
Y373754D01*
X430364D01*
Y373842D01*
X430277D01*
Y373929D01*
X430189D01*
Y374016D01*
X430102D01*
Y374104D01*
Y374191D01*
X430015D01*
Y374279D01*
X429927D01*
Y374366D01*
X429840D01*
Y374453D01*
X429752D01*
Y374541D01*
X429665D01*
Y374628D01*
Y374716D01*
X429577D01*
Y374803D01*
Y374891D01*
X429490D01*
Y374978D01*
X429403D01*
Y375065D01*
X429315D01*
Y375153D01*
X429228D01*
Y375240D01*
Y375328D01*
X429140D01*
Y375415D01*
X429053D01*
Y375502D01*
X428966D01*
Y375590D01*
X428878D01*
Y375677D01*
Y375765D01*
X428791D01*
Y375852D01*
Y375940D01*
X428703D01*
Y376027D01*
X428616D01*
Y376114D01*
X428528D01*
Y376202D01*
X428441D01*
Y376289D01*
Y376377D01*
X428354D01*
Y376464D01*
X428266D01*
Y376552D01*
Y376639D01*
X428179D01*
Y376726D01*
X428091D01*
Y376814D01*
X428004D01*
Y376901D01*
Y376989D01*
X427916D01*
Y377076D01*
X427829D01*
Y377163D01*
X427742D01*
Y377251D01*
X427654D01*
Y377338D01*
Y377426D01*
X427567D01*
Y377513D01*
Y377601D01*
X427479D01*
Y377688D01*
X427392D01*
Y377775D01*
X427305D01*
Y377863D01*
X427217D01*
Y377950D01*
Y378038D01*
X427130D01*
Y378125D01*
Y378212D01*
X427042D01*
Y378300D01*
Y378387D01*
X426955D01*
Y378475D01*
X426867D01*
Y378562D01*
X426780D01*
Y378649D01*
X426693D01*
Y378737D01*
Y378824D01*
X426605D01*
Y378912D01*
Y378999D01*
X426518D01*
Y379087D01*
X426430D01*
Y379174D01*
X426343D01*
Y379261D01*
Y379349D01*
X426256D01*
Y379436D01*
Y379524D01*
X426168D01*
Y379611D01*
X426081D01*
Y379698D01*
X425993D01*
Y379786D01*
X425906D01*
Y379873D01*
Y379961D01*
X425818D01*
Y380048D01*
Y380136D01*
X425731D01*
Y380223D01*
X425644D01*
Y380310D01*
X425556D01*
Y380398D01*
Y380485D01*
X425469D01*
Y380573D01*
Y380660D01*
X425381D01*
Y380748D01*
Y380835D01*
X425294D01*
Y380922D01*
X425207D01*
Y381010D01*
X425119D01*
Y381097D01*
X425032D01*
Y381185D01*
Y381272D01*
Y381359D01*
X424944D01*
Y381447D01*
X424857D01*
Y381534D01*
X424769D01*
Y381622D01*
X424682D01*
Y381709D01*
Y381797D01*
X424595D01*
Y381884D01*
Y381971D01*
X424507D01*
Y382059D01*
Y382146D01*
X424420D01*
Y382234D01*
X424332D01*
Y382321D01*
X424245D01*
Y382408D01*
Y382496D01*
X424158D01*
Y382583D01*
Y382671D01*
X424070D01*
Y382758D01*
X423983D01*
Y382845D01*
Y382933D01*
X423895D01*
Y383020D01*
X423808D01*
Y383108D01*
Y383195D01*
X423721D01*
Y383283D01*
Y383370D01*
X423633D01*
Y383457D01*
X423546D01*
Y383545D01*
X423458D01*
Y383632D01*
Y383720D01*
X423371D01*
Y383807D01*
Y383894D01*
X423283D01*
Y383982D01*
Y384069D01*
X423196D01*
Y384157D01*
X423109D01*
Y384244D01*
X423021D01*
Y384332D01*
Y384419D01*
X422934D01*
Y384507D01*
Y384594D01*
X422846D01*
Y384681D01*
Y384769D01*
X422759D01*
Y384856D01*
X422672D01*
Y384944D01*
X422584D01*
Y385031D01*
Y385118D01*
X422497D01*
Y385206D01*
Y385293D01*
Y385381D01*
X422409D01*
Y385468D01*
X422322D01*
Y385556D01*
X422234D01*
Y385643D01*
X422147D01*
Y385730D01*
Y385818D01*
X422059D01*
Y385905D01*
Y385993D01*
Y386080D01*
X421972D01*
Y386167D01*
X421885D01*
Y386255D01*
X421797D01*
Y386342D01*
Y386430D01*
X421710D01*
Y386517D01*
Y386604D01*
X421623D01*
Y386692D01*
Y386779D01*
X421535D01*
Y386867D01*
X421448D01*
Y386954D01*
X421360D01*
Y387042D01*
Y387129D01*
X421273D01*
Y387216D01*
Y387304D01*
X421185D01*
Y387391D01*
Y387479D01*
X421098D01*
Y387566D01*
X421010D01*
Y387653D01*
X420923D01*
Y387741D01*
Y387828D01*
X420836D01*
Y387916D01*
Y388003D01*
Y388091D01*
X420748D01*
Y388178D01*
X420661D01*
Y388265D01*
X420573D01*
Y388353D01*
Y388440D01*
X420486D01*
Y388528D01*
X420399D01*
Y388615D01*
Y388703D01*
Y388790D01*
X420311D01*
Y388877D01*
X420224D01*
Y388965D01*
X420136D01*
Y389052D01*
Y389140D01*
X420049D01*
Y389227D01*
Y389314D01*
X419962D01*
Y389402D01*
Y389489D01*
X419874D01*
Y389577D01*
X419787D01*
Y389664D01*
X419699D01*
Y389752D01*
Y389839D01*
X419612D01*
Y389926D01*
Y390014D01*
X419524D01*
Y390101D01*
Y390189D01*
X419437D01*
Y390276D01*
X419350D01*
Y390363D01*
Y390451D01*
X419262D01*
Y390538D01*
X419175D01*
Y390626D01*
Y390713D01*
Y390800D01*
X419087D01*
Y390888D01*
Y390975D01*
X419000D01*
Y391063D01*
X418913D01*
Y391150D01*
X418825D01*
Y391238D01*
Y391325D01*
X418738D01*
Y391412D01*
Y391500D01*
X418650D01*
Y391587D01*
Y391675D01*
X418563D01*
Y391762D01*
X418475D01*
Y391849D01*
Y391937D01*
X418388D01*
Y392024D01*
Y392112D01*
X418301D01*
Y392199D01*
Y392287D01*
X418213D01*
Y392374D01*
Y392461D01*
X418126D01*
Y392549D01*
X418038D01*
Y392636D01*
X417951D01*
Y392724D01*
Y392811D01*
Y392899D01*
X417864D01*
Y392986D01*
Y393073D01*
X417776D01*
Y393161D01*
Y393248D01*
X417689D01*
Y393336D01*
X417601D01*
Y393423D01*
X417514D01*
Y393510D01*
Y393598D01*
Y393685D01*
X417426D01*
Y393773D01*
Y393860D01*
X417339D01*
Y393948D01*
X417252D01*
Y394035D01*
X417164D01*
Y394122D01*
Y394210D01*
X417077D01*
Y394297D01*
Y394385D01*
Y394472D01*
X416989D01*
Y394559D01*
Y394647D01*
X416902D01*
Y394734D01*
X416815D01*
Y394822D01*
X416727D01*
Y394909D01*
Y394997D01*
X416640D01*
Y395084D01*
Y395171D01*
Y395259D01*
X416552D01*
Y395346D01*
Y395434D01*
X416465D01*
Y395521D01*
X416377D01*
Y395608D01*
X416290D01*
Y395696D01*
Y395783D01*
X416203D01*
Y395871D01*
Y395958D01*
Y396045D01*
X416115D01*
Y396133D01*
X416028D01*
Y396220D01*
X415940D01*
Y396308D01*
Y396395D01*
X415853D01*
Y396483D01*
Y396570D01*
X415765D01*
Y396657D01*
Y396745D01*
Y396832D01*
X415678D01*
Y396920D01*
X415591D01*
Y397007D01*
X415503D01*
Y397094D01*
X415416D01*
Y397182D01*
Y397269D01*
Y397357D01*
X415328D01*
Y397444D01*
Y397532D01*
X415241D01*
Y397619D01*
Y397706D01*
X415154D01*
Y397794D01*
X415066D01*
Y397881D01*
X414979D01*
Y397969D01*
Y398056D01*
Y398144D01*
X414891D01*
Y398231D01*
Y398318D01*
X414804D01*
Y398406D01*
X414716D01*
Y398493D01*
Y398581D01*
X414629D01*
Y398668D01*
X414542D01*
Y398756D01*
Y398843D01*
Y398930D01*
X414454D01*
Y399018D01*
Y399105D01*
X414367D01*
Y399193D01*
Y399280D01*
X414279D01*
Y399367D01*
X414192D01*
Y399455D01*
Y399542D01*
X414105D01*
Y399630D01*
Y399717D01*
Y399804D01*
X414017D01*
Y399892D01*
Y399979D01*
X413930D01*
Y400067D01*
X413842D01*
Y400154D01*
X413755D01*
Y400242D01*
Y400329D01*
Y400416D01*
X413667D01*
Y400504D01*
Y400591D01*
X413580D01*
Y400679D01*
Y400766D01*
X413493D01*
Y400853D01*
X413405D01*
Y400941D01*
Y401028D01*
X413318D01*
Y401116D01*
Y401203D01*
X413230D01*
Y401291D01*
Y401378D01*
Y401465D01*
X413143D01*
Y401553D01*
X413056D01*
Y401640D01*
Y401728D01*
X412968D01*
Y401815D01*
X412881D01*
Y401902D01*
Y401990D01*
Y402077D01*
X412793D01*
Y402165D01*
Y402252D01*
Y402340D01*
X412706D01*
Y402427D01*
X412618D01*
Y402514D01*
X412531D01*
Y402602D01*
Y402689D01*
X412444D01*
Y402777D01*
Y402864D01*
Y402951D01*
X412356D01*
Y403039D01*
Y403126D01*
X412269D01*
Y403214D01*
Y403301D01*
X412181D01*
Y403389D01*
X412094D01*
Y403476D01*
Y403563D01*
X412007D01*
Y403651D01*
Y403738D01*
Y403826D01*
X411919D01*
Y403913D01*
Y404001D01*
X411832D01*
Y404088D01*
X411744D01*
Y404175D01*
Y404263D01*
X411657D01*
Y404350D01*
Y404438D01*
X411569D01*
Y404525D01*
Y404612D01*
Y404700D01*
X411482D01*
Y404787D01*
Y404875D01*
X411395D01*
Y404962D01*
X411307D01*
Y405050D01*
Y405137D01*
X411220D01*
Y405224D01*
Y405312D01*
X411132D01*
Y405399D01*
Y405487D01*
Y405574D01*
X411045D01*
Y405661D01*
X410958D01*
Y405749D01*
Y405836D01*
X410870D01*
Y405924D01*
X410783D01*
Y406011D01*
Y406099D01*
Y406186D01*
Y406273D01*
X410695D01*
Y406361D01*
Y406448D01*
X410608D01*
Y406536D01*
X410521D01*
Y406623D01*
Y406710D01*
X410433D01*
Y406798D01*
Y406885D01*
X410346D01*
Y406973D01*
Y407060D01*
Y407148D01*
X410258D01*
Y407235D01*
Y407322D01*
X410171D01*
Y407410D01*
X410083D01*
Y407497D01*
Y407585D01*
X409996D01*
Y407672D01*
Y407759D01*
X409909D01*
Y407847D01*
Y407934D01*
Y408022D01*
X409821D01*
Y408109D01*
Y408196D01*
X409734D01*
Y408284D01*
X409646D01*
Y408371D01*
X409559D01*
Y408459D01*
Y408546D01*
Y408634D01*
X409472D01*
Y408721D01*
Y408808D01*
Y408896D01*
X409384D01*
Y408983D01*
Y409071D01*
X409297D01*
Y409158D01*
X409209D01*
Y409245D01*
Y409333D01*
X409122D01*
Y409420D01*
Y409508D01*
Y409595D01*
X409034D01*
Y409683D01*
Y409770D01*
Y409857D01*
X408947D01*
Y409945D01*
X408860D01*
Y410032D01*
X408772D01*
Y410120D01*
Y410207D01*
X408685D01*
Y410294D01*
Y410382D01*
Y410469D01*
Y410557D01*
X408597D01*
Y410644D01*
Y410732D01*
X408510D01*
Y410819D01*
Y410906D01*
X408423D01*
Y410994D01*
X408335D01*
Y411081D01*
Y411169D01*
X408248D01*
Y411256D01*
Y411343D01*
Y411431D01*
Y411518D01*
X408160D01*
Y411606D01*
Y411693D01*
X408073D01*
Y411781D01*
X407985D01*
Y411868D01*
X407898D01*
Y411955D01*
Y412043D01*
Y412130D01*
X407811D01*
Y412218D01*
Y412305D01*
Y412393D01*
X407723D01*
Y412480D01*
Y412567D01*
X407636D01*
Y412655D01*
Y412742D01*
X407548D01*
Y412830D01*
X407461D01*
Y412917D01*
Y413004D01*
Y413092D01*
Y413179D01*
X407374D01*
Y413267D01*
Y413354D01*
Y413442D01*
X407286D01*
Y413529D01*
Y413616D01*
X407199D01*
Y413704D01*
Y413791D01*
X407111D01*
Y413879D01*
Y413966D01*
X407024D01*
Y414053D01*
Y414141D01*
Y414228D01*
X406936D01*
Y414316D01*
Y414403D01*
Y414491D01*
X406849D01*
Y414578D01*
Y414665D01*
X406762D01*
Y414753D01*
X406674D01*
Y414840D01*
Y414928D01*
Y415015D01*
X406587D01*
Y415102D01*
Y415190D01*
Y415277D01*
X406499D01*
Y415365D01*
Y415452D01*
Y415540D01*
X406412D01*
Y415627D01*
Y415714D01*
X406324D01*
Y415802D01*
X406237D01*
Y415889D01*
Y415977D01*
Y416064D01*
X406150D01*
Y416152D01*
Y416239D01*
X406062D01*
Y416326D01*
Y416414D01*
X405975D01*
Y416501D01*
Y416588D01*
X405800D01*
Y416676D01*
X405538D01*
Y416763D01*
X405450D01*
Y416851D01*
Y416938D01*
X405363D01*
Y417026D01*
X405538D01*
Y417113D01*
X405625D01*
Y417201D01*
X405713D01*
Y417288D01*
Y417375D01*
Y417463D01*
Y417550D01*
Y417637D01*
X405625D01*
Y417725D01*
Y417812D01*
Y417900D01*
X405538D01*
Y417987D01*
Y418075D01*
X405450D01*
Y418162D01*
Y418250D01*
X405363D01*
Y418337D01*
Y418424D01*
Y418512D01*
Y418599D01*
X405275D01*
Y418686D01*
Y418774D01*
Y418861D01*
Y418949D01*
Y419036D01*
X405188D01*
Y419124D01*
Y419211D01*
X405101D01*
Y419299D01*
Y419386D01*
X405013D01*
Y419473D01*
Y419561D01*
Y419648D01*
X404926D01*
Y419736D01*
Y419823D01*
Y419910D01*
Y419998D01*
Y420085D01*
Y420173D01*
Y420260D01*
X404838D01*
Y420347D01*
Y420435D01*
Y420522D01*
Y420610D01*
Y420697D01*
Y420785D01*
X404751D01*
Y420872D01*
Y420959D01*
Y421047D01*
Y421134D01*
X405188D01*
Y421047D01*
D02*
G37*
G36*
X367774Y396395D02*
X367948D01*
Y396308D01*
X368123D01*
Y396220D01*
X368211D01*
Y396133D01*
X368560D01*
Y396045D01*
X368735D01*
Y395958D01*
X368823D01*
Y395871D01*
X368910D01*
Y395783D01*
X369085D01*
Y395696D01*
Y395608D01*
X369172D01*
Y395521D01*
X369260D01*
Y395434D01*
Y395346D01*
X369347D01*
Y395259D01*
Y395171D01*
X369434D01*
Y395084D01*
X369522D01*
Y394997D01*
X369609D01*
Y394909D01*
Y394822D01*
X369697D01*
Y394734D01*
Y394647D01*
X369784D01*
Y394559D01*
X369871D01*
Y394472D01*
Y394385D01*
X369959D01*
Y394297D01*
X370046D01*
Y394210D01*
Y394122D01*
X370134D01*
Y394035D01*
Y393948D01*
X370221D01*
Y393860D01*
X370309D01*
Y393773D01*
Y393685D01*
X370396D01*
Y393598D01*
X370483D01*
Y393510D01*
Y393423D01*
X370396D01*
Y393336D01*
Y393248D01*
X370221D01*
Y393336D01*
X370046D01*
Y393423D01*
X369959D01*
Y393510D01*
X369784D01*
Y393598D01*
X369522D01*
Y393685D01*
X369347D01*
Y393773D01*
X369172D01*
Y393860D01*
X369085D01*
Y393948D01*
X368910D01*
Y394035D01*
X368823D01*
Y394122D01*
X368735D01*
Y394210D01*
X368648D01*
Y394297D01*
X368560D01*
Y394385D01*
X368473D01*
Y394472D01*
Y394559D01*
X368385D01*
Y394647D01*
Y394734D01*
X368298D01*
Y394822D01*
X368211D01*
Y394909D01*
Y394997D01*
X368123D01*
Y395084D01*
X368036D01*
Y395171D01*
Y395259D01*
X367948D01*
Y395346D01*
Y395434D01*
X367861D01*
Y395521D01*
X367774D01*
Y395608D01*
X367686D01*
Y395696D01*
Y395783D01*
X367599D01*
Y395871D01*
Y395958D01*
X367511D01*
Y396045D01*
X367424D01*
Y396133D01*
Y396220D01*
X367336D01*
Y396308D01*
Y396395D01*
Y396483D01*
X367774D01*
Y396395D01*
D02*
G37*
G36*
X370134Y383020D02*
X370309D01*
Y382933D01*
X370746D01*
Y382845D01*
X370833D01*
Y382758D01*
X370920D01*
Y382671D01*
X371358D01*
Y382583D01*
X371445D01*
Y382496D01*
X371533D01*
Y382408D01*
X371707D01*
Y382321D01*
X371970D01*
Y382234D01*
X372144D01*
Y382146D01*
X372232D01*
Y382059D01*
X372319D01*
Y381971D01*
X372494D01*
Y381884D01*
X372669D01*
Y381797D01*
X372844D01*
Y381709D01*
X372931D01*
Y381622D01*
X373019D01*
Y381534D01*
X373193D01*
Y381447D01*
X373368D01*
Y381359D01*
X373543D01*
Y381272D01*
Y381185D01*
X373630D01*
Y381097D01*
Y381010D01*
X373019D01*
Y381097D01*
X372844D01*
Y381185D01*
X372756D01*
Y381272D01*
X372669D01*
Y381359D01*
X372494D01*
Y381447D01*
X372319D01*
Y381534D01*
X372232D01*
Y381622D01*
X372144D01*
Y381709D01*
X371970D01*
Y381797D01*
X371795D01*
Y381884D01*
X371620D01*
Y381971D01*
X371445D01*
Y381884D01*
X371358D01*
Y381797D01*
Y381709D01*
Y381622D01*
Y381534D01*
Y381447D01*
Y381359D01*
Y381272D01*
Y381185D01*
Y381097D01*
Y381010D01*
Y380922D01*
X371445D01*
Y380835D01*
Y380748D01*
Y380660D01*
Y380573D01*
Y380485D01*
X371533D01*
Y380398D01*
Y380310D01*
Y380223D01*
Y380136D01*
X371620D01*
Y380048D01*
Y379961D01*
Y379873D01*
Y379786D01*
X371707D01*
Y379698D01*
Y379611D01*
Y379524D01*
Y379436D01*
Y379349D01*
Y379261D01*
X371795D01*
Y379174D01*
Y379087D01*
Y378999D01*
Y378912D01*
X371882D01*
Y378824D01*
Y378737D01*
X371970D01*
Y378649D01*
X372057D01*
Y378562D01*
Y378475D01*
X372144D01*
Y378387D01*
Y378300D01*
Y378212D01*
Y378125D01*
X372057D01*
Y378038D01*
X371882D01*
Y377950D01*
X371795D01*
Y378038D01*
X371183D01*
Y378125D01*
X370221D01*
Y378212D01*
X369784D01*
Y378300D01*
X369260D01*
Y378387D01*
X368735D01*
Y378475D01*
X368473D01*
Y378562D01*
X368298D01*
Y378649D01*
X368211D01*
Y378737D01*
X368036D01*
Y378824D01*
X367948D01*
Y378912D01*
X367774D01*
Y378999D01*
X367686D01*
Y379087D01*
X367599D01*
Y379174D01*
X367511D01*
Y379261D01*
Y379349D01*
X367336D01*
Y379436D01*
Y379524D01*
Y379611D01*
X367686D01*
Y379524D01*
X368211D01*
Y379436D01*
X368823D01*
Y379349D01*
X369697D01*
Y379261D01*
X369784D01*
Y379349D01*
X369959D01*
Y379436D01*
X370046D01*
Y379524D01*
Y379611D01*
Y379698D01*
Y379786D01*
Y379873D01*
X369959D01*
Y379961D01*
Y380048D01*
Y380136D01*
X369871D01*
Y380223D01*
Y380310D01*
X369784D01*
Y380398D01*
Y380485D01*
Y380573D01*
Y380660D01*
X369697D01*
Y380748D01*
Y380835D01*
Y380922D01*
Y381010D01*
Y381097D01*
Y381185D01*
X369609D01*
Y381272D01*
Y381359D01*
Y381447D01*
Y381534D01*
Y381622D01*
Y381709D01*
Y381797D01*
Y381884D01*
Y381971D01*
Y382059D01*
Y382146D01*
X369522D01*
Y382234D01*
Y382321D01*
Y382408D01*
Y382496D01*
Y382583D01*
Y382671D01*
Y382758D01*
Y382845D01*
Y382933D01*
Y383020D01*
X369609D01*
Y383108D01*
X370134D01*
Y383020D01*
D02*
G37*
G36*
X374067Y380835D02*
Y380748D01*
Y380660D01*
X373893D01*
Y380748D01*
X373718D01*
Y380835D01*
Y380922D01*
X374067D01*
Y380835D01*
D02*
G37*
G36*
X380711Y388091D02*
X381061D01*
Y388003D01*
X381148D01*
Y387916D01*
X381236D01*
Y387828D01*
X381323D01*
Y387741D01*
X381585D01*
Y387653D01*
X381760D01*
Y387566D01*
X381848D01*
Y387479D01*
X381935D01*
Y387391D01*
X382023D01*
Y387304D01*
X382110D01*
Y387216D01*
X382285D01*
Y387129D01*
X382372D01*
Y387042D01*
X382460D01*
Y386954D01*
X382634D01*
Y386867D01*
X382984D01*
Y386779D01*
X383071D01*
Y386692D01*
X383159D01*
Y386604D01*
X383246D01*
Y386517D01*
X383421D01*
Y386430D01*
X383509D01*
Y386342D01*
X383683D01*
Y386255D01*
X383771D01*
Y386167D01*
X383858D01*
Y386080D01*
X384033D01*
Y385993D01*
X384120D01*
Y385905D01*
X384208D01*
Y385818D01*
X384295D01*
Y385730D01*
X384383D01*
Y385643D01*
X384558D01*
Y385556D01*
X384645D01*
Y385468D01*
X384732D01*
Y385381D01*
X384820D01*
Y385293D01*
X384907D01*
Y385206D01*
X384995D01*
Y385118D01*
X385082D01*
Y385031D01*
X385170D01*
Y384944D01*
X385257D01*
Y384856D01*
X385344D01*
Y384769D01*
X385519D01*
Y384681D01*
Y384594D01*
X385607D01*
Y384507D01*
X385694D01*
Y384419D01*
X385781D01*
Y384332D01*
X385869D01*
Y384244D01*
X385956D01*
Y384157D01*
X386044D01*
Y384069D01*
X386131D01*
Y383982D01*
X386219D01*
Y383894D01*
X386306D01*
Y383807D01*
X386393D01*
Y383720D01*
X386481D01*
Y383632D01*
Y383545D01*
X386568D01*
Y383457D01*
X386743D01*
Y383370D01*
X386830D01*
Y383283D01*
Y383195D01*
X386918D01*
Y383108D01*
X387005D01*
Y383020D01*
X387093D01*
Y382933D01*
X387180D01*
Y382845D01*
X387267D01*
Y382758D01*
Y382671D01*
X387355D01*
Y382583D01*
X387442D01*
Y382496D01*
X387530D01*
Y382408D01*
X387617D01*
Y382321D01*
X387792D01*
Y382234D01*
X388054D01*
Y382146D01*
X388142D01*
Y382059D01*
X388229D01*
Y381971D01*
X388404D01*
Y381884D01*
X388754D01*
Y381797D01*
X388929D01*
Y381709D01*
X389103D01*
Y381622D01*
X389191D01*
Y381534D01*
X389540D01*
Y381447D01*
X389890D01*
Y381359D01*
X390415D01*
Y381447D01*
X390502D01*
Y381534D01*
X390589D01*
Y381622D01*
Y381709D01*
Y381797D01*
X390502D01*
Y381884D01*
X390415D01*
Y381971D01*
X390327D01*
Y382059D01*
X390240D01*
Y382146D01*
X390152D01*
Y382234D01*
Y382321D01*
X390065D01*
Y382408D01*
X389978D01*
Y382496D01*
X389803D01*
Y382583D01*
X389715D01*
Y382671D01*
X389628D01*
Y382758D01*
X389540D01*
Y382845D01*
X389453D01*
Y382933D01*
X389366D01*
Y383020D01*
X389191D01*
Y383108D01*
X389016D01*
Y383195D01*
X388929D01*
Y383283D01*
X388841D01*
Y383370D01*
X388754D01*
Y383457D01*
X388579D01*
Y383545D01*
X388404D01*
Y383632D01*
X388316D01*
Y383720D01*
X388229D01*
Y383807D01*
X388142D01*
Y383894D01*
X387879D01*
Y383982D01*
X387705D01*
Y384069D01*
X387617D01*
Y384157D01*
Y384244D01*
X387530D01*
Y384332D01*
X387442D01*
Y384419D01*
X387180D01*
Y384507D01*
Y384594D01*
Y384681D01*
X387530D01*
Y384594D01*
X387617D01*
Y384507D01*
X387705D01*
Y384419D01*
X387967D01*
Y384332D01*
X388229D01*
Y384244D01*
X388316D01*
Y384157D01*
Y384069D01*
X388491D01*
Y383982D01*
X388754D01*
Y383894D01*
X388929D01*
Y383807D01*
X389016D01*
Y383720D01*
X389103D01*
Y383632D01*
X389278D01*
Y383545D01*
X389453D01*
Y383457D01*
X389628D01*
Y383370D01*
X389715D01*
Y383283D01*
X389803D01*
Y383195D01*
X389978D01*
Y383108D01*
X390152D01*
Y383020D01*
X390240D01*
Y382933D01*
X390327D01*
Y382845D01*
X390502D01*
Y382758D01*
X390589D01*
Y382671D01*
X390764D01*
Y382583D01*
X390939D01*
Y382496D01*
Y382408D01*
X391114D01*
Y382321D01*
X391201D01*
Y382234D01*
X391376D01*
Y382146D01*
X391463D01*
Y382059D01*
Y381971D01*
X391551D01*
Y381884D01*
X391726D01*
Y381797D01*
X391813D01*
Y381709D01*
X391901D01*
Y381622D01*
X391988D01*
Y381534D01*
Y381447D01*
X392163D01*
Y381359D01*
X392250D01*
Y381272D01*
Y381185D01*
X392338D01*
Y381097D01*
Y381010D01*
X392425D01*
Y380922D01*
Y380835D01*
Y380748D01*
Y380660D01*
Y380573D01*
X392338D01*
Y380485D01*
Y380398D01*
X392250D01*
Y380310D01*
X392163D01*
Y380223D01*
X391813D01*
Y380136D01*
X391638D01*
Y380223D01*
X391114D01*
Y380310D01*
X390852D01*
Y380398D01*
X390677D01*
Y380485D01*
X390415D01*
Y380573D01*
X390065D01*
Y380660D01*
X389890D01*
Y380748D01*
X389803D01*
Y380835D01*
X389628D01*
Y380922D01*
X389453D01*
Y381010D01*
X389191D01*
Y381097D01*
X389016D01*
Y381185D01*
X388929D01*
Y381272D01*
X388666D01*
Y381185D01*
Y381097D01*
X388754D01*
Y381010D01*
X388841D01*
Y380922D01*
X388929D01*
Y380835D01*
Y380748D01*
X389016D01*
Y380660D01*
Y380573D01*
X389191D01*
Y380485D01*
X389278D01*
Y380398D01*
X389366D01*
Y380310D01*
Y380223D01*
X389453D01*
Y380136D01*
X389540D01*
Y380048D01*
X389628D01*
Y379961D01*
X389715D01*
Y379873D01*
Y379786D01*
X389803D01*
Y379698D01*
X389890D01*
Y379611D01*
Y379524D01*
X389978D01*
Y379436D01*
X390065D01*
Y379349D01*
X390152D01*
Y379261D01*
X390240D01*
Y379174D01*
Y379087D01*
X390327D01*
Y378999D01*
X390415D01*
Y378912D01*
X390502D01*
Y378824D01*
X390589D01*
Y378737D01*
Y378649D01*
X390677D01*
Y378562D01*
Y378475D01*
X390764D01*
Y378387D01*
X390852D01*
Y378300D01*
X390939D01*
Y378212D01*
X391026D01*
Y378125D01*
Y378038D01*
X391114D01*
Y377950D01*
Y377863D01*
X391201D01*
Y377775D01*
X391289D01*
Y377688D01*
X391376D01*
Y377601D01*
X391463D01*
Y377513D01*
Y377426D01*
X391551D01*
Y377338D01*
Y377251D01*
X391638D01*
Y377163D01*
X391726D01*
Y377076D01*
X391813D01*
Y376989D01*
X391901D01*
Y376901D01*
Y376814D01*
X391988D01*
Y376726D01*
X392075D01*
Y376639D01*
X392163D01*
Y376552D01*
Y376464D01*
X392250D01*
Y376377D01*
X392338D01*
Y376289D01*
Y376202D01*
X392425D01*
Y376114D01*
Y376027D01*
X392600D01*
Y375940D01*
Y375852D01*
X392687D01*
Y375765D01*
X392775D01*
Y375677D01*
Y375590D01*
X392862D01*
Y375502D01*
X392950D01*
Y375415D01*
X393037D01*
Y375328D01*
X393125D01*
Y375240D01*
Y375153D01*
X393212D01*
Y375065D01*
Y374978D01*
X393299D01*
Y374891D01*
X393387D01*
Y374803D01*
X393474D01*
Y374716D01*
X393562D01*
Y374628D01*
Y374541D01*
X393649D01*
Y374453D01*
Y374366D01*
X393736D01*
Y374279D01*
X393824D01*
Y374191D01*
X393911D01*
Y374104D01*
Y374016D01*
X393999D01*
Y373929D01*
Y373842D01*
X394086D01*
Y373754D01*
X394174D01*
Y373667D01*
X394261D01*
Y373579D01*
X394348D01*
Y373492D01*
Y373405D01*
X394436D01*
Y373317D01*
Y373230D01*
X394523D01*
Y373142D01*
Y373055D01*
X394611D01*
Y372967D01*
X394698D01*
Y372880D01*
X394785D01*
Y372793D01*
Y372705D01*
X394873D01*
Y372618D01*
X394960D01*
Y372530D01*
Y372443D01*
X395048D01*
Y372356D01*
X395135D01*
Y372268D01*
X395222D01*
Y372181D01*
Y372093D01*
X395310D01*
Y372006D01*
Y371918D01*
X395397D01*
Y371831D01*
X395485D01*
Y371744D01*
X395572D01*
Y371656D01*
X395660D01*
Y371569D01*
Y371481D01*
X395747D01*
Y371394D01*
Y371306D01*
X395834D01*
Y371219D01*
X395922D01*
Y371132D01*
X396009D01*
Y371044D01*
Y370957D01*
X396097D01*
Y370869D01*
Y370782D01*
X396184D01*
Y370694D01*
Y370607D01*
X396271D01*
Y370520D01*
X396359D01*
Y370432D01*
X396446D01*
Y370345D01*
Y370257D01*
X396534D01*
Y370170D01*
Y370083D01*
X396621D01*
Y369995D01*
X396709D01*
Y369908D01*
X396796D01*
Y369820D01*
X396883D01*
Y369733D01*
Y369646D01*
X396971D01*
Y369558D01*
Y369471D01*
X397058D01*
Y369383D01*
Y369296D01*
X397146D01*
Y369209D01*
X397233D01*
Y369121D01*
X397321D01*
Y369034D01*
Y368946D01*
X397408D01*
Y368859D01*
Y368771D01*
X397495D01*
Y368684D01*
X397583D01*
Y368597D01*
X397670D01*
Y368509D01*
Y368422D01*
X397758D01*
Y368334D01*
Y368247D01*
X397845D01*
Y368160D01*
X397932D01*
Y368072D01*
X398020D01*
Y367985D01*
X398107D01*
Y367897D01*
Y367810D01*
X398195D01*
Y367722D01*
Y367635D01*
X398282D01*
Y367547D01*
Y367460D01*
X398370D01*
Y367373D01*
X398457D01*
Y367285D01*
X398544D01*
Y367198D01*
Y367110D01*
X398632D01*
Y367023D01*
Y366936D01*
X398719D01*
Y366848D01*
X398807D01*
Y366761D01*
X398894D01*
Y366673D01*
Y366586D01*
X398981D01*
Y366498D01*
Y366411D01*
X399069D01*
Y366324D01*
Y366236D01*
X399156D01*
Y366149D01*
X399244D01*
Y366061D01*
X399331D01*
Y365974D01*
X399418D01*
Y365887D01*
Y365799D01*
Y365712D01*
X399506D01*
Y365624D01*
X399593D01*
Y365537D01*
X399681D01*
Y365450D01*
X399768D01*
Y365362D01*
Y365275D01*
X399856D01*
Y365187D01*
Y365100D01*
X399943D01*
Y365012D01*
Y364925D01*
X400030D01*
Y364838D01*
X400118D01*
Y364750D01*
X400205D01*
Y364663D01*
Y364575D01*
X400293D01*
Y364488D01*
Y364401D01*
X400380D01*
Y364313D01*
X400467D01*
Y364226D01*
X400555D01*
Y364138D01*
Y364051D01*
X400642D01*
Y363963D01*
X400730D01*
Y363876D01*
Y363789D01*
Y363701D01*
X400817D01*
Y363614D01*
X400905D01*
Y363526D01*
X400992D01*
Y363439D01*
X401079D01*
Y363351D01*
Y363264D01*
X401167D01*
Y363177D01*
Y363089D01*
X401254D01*
Y363002D01*
X401342D01*
Y362914D01*
X401429D01*
Y362827D01*
Y362740D01*
X401516D01*
Y362652D01*
Y362565D01*
X401604D01*
Y362477D01*
Y362390D01*
X401691D01*
Y362302D01*
X401779D01*
Y362215D01*
X401866D01*
Y362128D01*
Y362040D01*
X401954D01*
Y361953D01*
Y361865D01*
X402041D01*
Y361778D01*
X402128D01*
Y361691D01*
X402216D01*
Y361603D01*
Y361516D01*
X402303D01*
Y361428D01*
X402391D01*
Y361341D01*
Y361253D01*
X402478D01*
Y361166D01*
Y361079D01*
X402565D01*
Y360991D01*
X402653D01*
Y360904D01*
X402740D01*
Y360816D01*
Y360729D01*
X402828D01*
Y360642D01*
Y360554D01*
X402915D01*
Y360467D01*
X403003D01*
Y360379D01*
X403090D01*
Y360292D01*
Y360205D01*
X403177D01*
Y360117D01*
Y360030D01*
X403265D01*
Y359942D01*
Y359855D01*
X403352D01*
Y359767D01*
X403440D01*
Y359680D01*
X403527D01*
Y359593D01*
X403615D01*
Y359505D01*
Y359418D01*
Y359330D01*
X403702D01*
Y359243D01*
X403789D01*
Y359156D01*
X403877D01*
Y359068D01*
X403964D01*
Y358981D01*
Y358893D01*
X404052D01*
Y358806D01*
Y358718D01*
X404139D01*
Y358631D01*
X404226D01*
Y358544D01*
Y358456D01*
X404314D01*
Y358369D01*
X404401D01*
Y358281D01*
X404489D01*
Y358194D01*
Y358106D01*
X404576D01*
Y358019D01*
Y357932D01*
X404664D01*
Y357844D01*
X404751D01*
Y357757D01*
X404838D01*
Y357669D01*
Y357582D01*
X404926D01*
Y357495D01*
Y357407D01*
X405013D01*
Y357320D01*
X405101D01*
Y357232D01*
X405188D01*
Y357145D01*
Y357057D01*
X405275D01*
Y356970D01*
Y356883D01*
X405363D01*
Y356795D01*
X405450D01*
Y356708D01*
X405538D01*
Y356620D01*
X405625D01*
Y356533D01*
Y356446D01*
X405713D01*
Y356358D01*
Y356271D01*
X405800D01*
Y356183D01*
X405887D01*
Y356096D01*
Y356009D01*
X405975D01*
Y355921D01*
X406062D01*
Y355834D01*
X406150D01*
Y355746D01*
Y355659D01*
X406237D01*
Y355571D01*
Y355484D01*
X406324D01*
Y355397D01*
X406412D01*
Y355309D01*
X406499D01*
Y355222D01*
X406587D01*
Y355134D01*
Y355047D01*
X406674D01*
Y354960D01*
Y354872D01*
X406849D01*
Y354785D01*
Y354697D01*
X406936D01*
Y354610D01*
Y354522D01*
X407024D01*
Y354435D01*
Y354348D01*
X407111D01*
Y354260D01*
X407199D01*
Y354173D01*
X407286D01*
Y354085D01*
X407374D01*
Y353998D01*
Y353910D01*
X407461D01*
Y353823D01*
X407548D01*
Y353736D01*
Y353648D01*
X407636D01*
Y353561D01*
X407723D01*
Y353473D01*
X407811D01*
Y353386D01*
Y353298D01*
X407898D01*
Y353211D01*
Y353124D01*
X407985D01*
Y353036D01*
X408073D01*
Y352949D01*
X408160D01*
Y352861D01*
X408248D01*
Y352774D01*
Y352687D01*
X408335D01*
Y352599D01*
Y352512D01*
X408510D01*
Y352424D01*
X408597D01*
Y352337D01*
Y352250D01*
X408685D01*
Y352162D01*
Y352075D01*
X408772D01*
Y351987D01*
X408860D01*
Y351900D01*
X408947D01*
Y351813D01*
X409034D01*
Y351725D01*
Y351638D01*
X409122D01*
Y351550D01*
Y351463D01*
X409209D01*
Y351375D01*
X409297D01*
Y351288D01*
X409384D01*
Y351201D01*
X409472D01*
Y351113D01*
Y351026D01*
X409559D01*
Y350938D01*
X409646D01*
Y350851D01*
X409734D01*
Y350764D01*
X409821D01*
Y350676D01*
Y350589D01*
X409909D01*
Y350501D01*
X409996D01*
Y350414D01*
Y350326D01*
X410083D01*
Y350239D01*
X410171D01*
Y350151D01*
X410258D01*
Y350064D01*
Y349977D01*
X410346D01*
Y349889D01*
X410433D01*
Y349802D01*
Y349714D01*
X410521D01*
Y349627D01*
X410608D01*
Y349540D01*
X410695D01*
Y349452D01*
X410783D01*
Y349365D01*
Y349277D01*
X410870D01*
Y349190D01*
X410958D01*
Y349102D01*
X411045D01*
Y349015D01*
X411132D01*
Y348928D01*
Y348840D01*
X411220D01*
Y348753D01*
X411307D01*
Y348665D01*
X411395D01*
Y348578D01*
X411482D01*
Y348491D01*
X411569D01*
Y348403D01*
Y348316D01*
X411657D01*
Y348228D01*
X411744D01*
Y348141D01*
X411832D01*
Y348054D01*
Y347966D01*
X411919D01*
Y347879D01*
X412007D01*
Y347791D01*
Y347704D01*
X412094D01*
Y347616D01*
X412181D01*
Y347529D01*
X412269D01*
Y347442D01*
X412356D01*
Y347354D01*
X412444D01*
Y347267D01*
Y347179D01*
X412531D01*
Y347092D01*
X412618D01*
Y347005D01*
X412706D01*
Y346917D01*
X412793D01*
Y346830D01*
X412881D01*
Y346742D01*
Y346655D01*
X412968D01*
Y346567D01*
X413056D01*
Y346480D01*
X413143D01*
Y346393D01*
X413230D01*
Y346305D01*
Y346218D01*
X413318D01*
Y346130D01*
X413405D01*
Y346043D01*
X413493D01*
Y345955D01*
X413580D01*
Y345868D01*
X413667D01*
Y345781D01*
Y345693D01*
X413755D01*
Y345606D01*
X413842D01*
Y345518D01*
X413930D01*
Y345431D01*
X414017D01*
Y345344D01*
Y345256D01*
X414105D01*
Y345169D01*
X414192D01*
Y345081D01*
X414279D01*
Y344994D01*
X414367D01*
Y344906D01*
X414454D01*
Y344819D01*
X414542D01*
Y344732D01*
Y344644D01*
X414629D01*
Y344557D01*
X414716D01*
Y344469D01*
X414804D01*
Y344382D01*
X414891D01*
Y344295D01*
X414979D01*
Y344207D01*
X415066D01*
Y344120D01*
X415154D01*
Y344032D01*
X415241D01*
Y343945D01*
X415328D01*
Y343858D01*
Y343770D01*
X415416D01*
Y343683D01*
X415503D01*
Y343595D01*
X415591D01*
Y343508D01*
X415678D01*
Y343420D01*
X415765D01*
Y343333D01*
Y343246D01*
X415853D01*
Y343158D01*
X415940D01*
Y343071D01*
X416028D01*
Y342983D01*
X416115D01*
Y342896D01*
X416203D01*
Y342809D01*
Y342721D01*
X416290D01*
Y342634D01*
X416377D01*
Y342546D01*
X416465D01*
Y342459D01*
X416552D01*
Y342371D01*
X416640D01*
Y342284D01*
X416727D01*
Y342197D01*
X416815D01*
Y342109D01*
X416902D01*
Y342022D01*
X416989D01*
Y341934D01*
X417077D01*
Y341847D01*
X417164D01*
Y341759D01*
Y341672D01*
X417252D01*
Y341585D01*
X417339D01*
Y341497D01*
X417426D01*
Y341410D01*
X417514D01*
Y341322D01*
X417601D01*
Y341235D01*
X417689D01*
Y341148D01*
X417776D01*
Y341060D01*
X417864D01*
Y340973D01*
X417951D01*
Y340885D01*
X418038D01*
Y340798D01*
X418126D01*
Y340710D01*
X418213D01*
Y340623D01*
X418301D01*
Y340536D01*
X418388D01*
Y340448D01*
X418475D01*
Y340361D01*
X418563D01*
Y340273D01*
X418650D01*
Y340186D01*
X418738D01*
Y340099D01*
X418825D01*
Y340011D01*
X418913D01*
Y339924D01*
X419087D01*
Y339836D01*
X419175D01*
Y339749D01*
X419262D01*
Y339662D01*
X419350D01*
Y339574D01*
X419437D01*
Y339487D01*
X419524D01*
Y339399D01*
X419612D01*
Y339312D01*
X419699D01*
Y339224D01*
X419874D01*
Y339137D01*
X419962D01*
Y339050D01*
X420049D01*
Y338962D01*
X420136D01*
Y338875D01*
X420224D01*
Y338787D01*
X420399D01*
Y338700D01*
X420486D01*
Y338613D01*
X420661D01*
Y338525D01*
X420748D01*
Y338438D01*
X420836D01*
Y338350D01*
X420923D01*
Y338263D01*
X421098D01*
Y338175D01*
X421273D01*
Y338088D01*
X421360D01*
Y338001D01*
Y337913D01*
X421535D01*
Y337826D01*
X421710D01*
Y337738D01*
X421797D01*
Y337651D01*
X421885D01*
Y337563D01*
X421972D01*
Y337476D01*
X422147D01*
Y337389D01*
X422322D01*
Y337301D01*
X422409D01*
Y337214D01*
X422497D01*
Y337126D01*
X422584D01*
Y337039D01*
X422759D01*
Y336951D01*
X422934D01*
Y336864D01*
X423021D01*
Y336777D01*
X423109D01*
Y336689D01*
X423196D01*
Y336602D01*
X423458D01*
Y336514D01*
X423633D01*
Y336427D01*
X423721D01*
Y336340D01*
Y336252D01*
X423808D01*
Y336165D01*
X423983D01*
Y336077D01*
X424158D01*
Y335990D01*
X424245D01*
Y335903D01*
Y335815D01*
X424158D01*
Y335728D01*
X423895D01*
Y335815D01*
X423808D01*
Y335903D01*
X423721D01*
Y335990D01*
X423546D01*
Y336077D01*
X423283D01*
Y336165D01*
X423109D01*
Y336252D01*
X423021D01*
Y336340D01*
X422934D01*
Y336427D01*
X422759D01*
Y336514D01*
X422584D01*
Y336602D01*
X422409D01*
Y336689D01*
Y336777D01*
X422234D01*
Y336864D01*
X422147D01*
Y336951D01*
X421972D01*
Y337039D01*
X421797D01*
Y337126D01*
X421710D01*
Y337214D01*
X421623D01*
Y337301D01*
X421448D01*
Y337389D01*
X421360D01*
Y337476D01*
X421273D01*
Y337563D01*
X421185D01*
Y337651D01*
X421098D01*
Y337738D01*
X420923D01*
Y337826D01*
X420748D01*
Y337913D01*
X420661D01*
Y338001D01*
X420573D01*
Y338088D01*
X420399D01*
Y338175D01*
X420224D01*
Y338263D01*
X420136D01*
Y338350D01*
X420049D01*
Y338438D01*
X419962D01*
Y338525D01*
X419787D01*
Y338613D01*
X419699D01*
Y338700D01*
X419524D01*
Y338787D01*
X419437D01*
Y338875D01*
X419350D01*
Y338962D01*
X419262D01*
Y339050D01*
X419087D01*
Y339137D01*
X419000D01*
Y339224D01*
X418913D01*
Y339312D01*
X418825D01*
Y339399D01*
X418650D01*
Y339487D01*
X418563D01*
Y339574D01*
X418475D01*
Y339662D01*
X418388D01*
Y339749D01*
X418301D01*
Y339836D01*
X418126D01*
Y339924D01*
X418038D01*
Y340011D01*
X417951D01*
Y340099D01*
X417864D01*
Y340186D01*
X417776D01*
Y340273D01*
X417689D01*
Y340361D01*
X417601D01*
Y340448D01*
X417514D01*
Y340536D01*
X417426D01*
Y340623D01*
X417339D01*
Y340710D01*
X417164D01*
Y340798D01*
X417077D01*
Y340885D01*
Y340973D01*
X416989D01*
Y341060D01*
X416902D01*
Y341148D01*
X416727D01*
Y341235D01*
X416640D01*
Y341322D01*
X416552D01*
Y341410D01*
X416465D01*
Y341497D01*
X416377D01*
Y341585D01*
X416290D01*
Y341672D01*
X416203D01*
Y341759D01*
X416115D01*
Y341847D01*
Y341934D01*
X415940D01*
Y342022D01*
X415853D01*
Y342109D01*
Y342197D01*
X415765D01*
Y342284D01*
X415678D01*
Y342371D01*
X415591D01*
Y342459D01*
X415503D01*
Y342546D01*
X415416D01*
Y342634D01*
X415328D01*
Y342721D01*
X415241D01*
Y342809D01*
X415154D01*
Y342896D01*
X415066D01*
Y342983D01*
X414979D01*
Y343071D01*
X414891D01*
Y343158D01*
X414804D01*
Y343246D01*
X414716D01*
Y343333D01*
X414629D01*
Y343420D01*
X414542D01*
Y343508D01*
Y343595D01*
X414454D01*
Y343683D01*
X414367D01*
Y343770D01*
X414279D01*
Y343858D01*
X414192D01*
Y343945D01*
X414105D01*
Y344032D01*
Y344120D01*
X414017D01*
Y344207D01*
X413930D01*
Y344295D01*
X413842D01*
Y344382D01*
X413755D01*
Y344469D01*
X413667D01*
Y344557D01*
Y344644D01*
X413580D01*
Y344732D01*
X413493D01*
Y344819D01*
X413405D01*
Y344906D01*
X413318D01*
Y344994D01*
X413230D01*
Y345081D01*
X413143D01*
Y345169D01*
Y345256D01*
X413056D01*
Y345344D01*
X412968D01*
Y345431D01*
X412881D01*
Y345518D01*
X412793D01*
Y345606D01*
X412706D01*
Y345693D01*
X412618D01*
Y345781D01*
X412531D01*
Y345868D01*
Y345955D01*
X412444D01*
Y346043D01*
X412356D01*
Y346130D01*
X412269D01*
Y346218D01*
X412181D01*
Y346305D01*
X412094D01*
Y346393D01*
X412007D01*
Y346480D01*
Y346567D01*
X411919D01*
Y346655D01*
X411832D01*
Y346742D01*
X411744D01*
Y346830D01*
X411657D01*
Y346917D01*
X411569D01*
Y347005D01*
Y347092D01*
X411482D01*
Y347179D01*
X411395D01*
Y347267D01*
X411307D01*
Y347354D01*
X411220D01*
Y347442D01*
Y347529D01*
X411132D01*
Y347616D01*
X411045D01*
Y347704D01*
X410958D01*
Y347791D01*
X410870D01*
Y347879D01*
Y347966D01*
X410783D01*
Y348054D01*
X410695D01*
Y348141D01*
Y348228D01*
X410608D01*
Y348316D01*
X410433D01*
Y348403D01*
Y348491D01*
X410346D01*
Y348578D01*
X410258D01*
Y348665D01*
Y348753D01*
X410083D01*
Y348840D01*
X409996D01*
Y348928D01*
Y349015D01*
X409909D01*
Y349102D01*
Y349190D01*
X409821D01*
Y349277D01*
X409734D01*
Y349365D01*
X409646D01*
Y349452D01*
X409559D01*
Y349540D01*
Y349627D01*
X409472D01*
Y349714D01*
X409384D01*
Y349802D01*
X409297D01*
Y349889D01*
X409209D01*
Y349977D01*
X409122D01*
Y350064D01*
Y350151D01*
X409034D01*
Y350239D01*
Y350326D01*
X408947D01*
Y350414D01*
X408772D01*
Y350501D01*
Y350589D01*
X408685D01*
Y350676D01*
Y350764D01*
X408597D01*
Y350851D01*
X408510D01*
Y350938D01*
X408423D01*
Y351026D01*
X408335D01*
Y351113D01*
Y351201D01*
X408248D01*
Y351288D01*
Y351375D01*
X408160D01*
Y351463D01*
X408073D01*
Y351550D01*
X407985D01*
Y351638D01*
X407898D01*
Y351725D01*
X407811D01*
Y351813D01*
Y351900D01*
X407723D01*
Y351987D01*
X407636D01*
Y352075D01*
X407548D01*
Y352162D01*
X407461D01*
Y352250D01*
Y352337D01*
X407374D01*
Y352424D01*
Y352512D01*
X407286D01*
Y352599D01*
X407199D01*
Y352687D01*
X407111D01*
Y352774D01*
X407024D01*
Y352861D01*
Y352949D01*
X406936D01*
Y353036D01*
Y353124D01*
X406849D01*
Y353211D01*
X406762D01*
Y353298D01*
X406674D01*
Y353386D01*
X406587D01*
Y353473D01*
Y353561D01*
X406499D01*
Y353648D01*
X406412D01*
Y353736D01*
X406324D01*
Y353823D01*
X406237D01*
Y353910D01*
Y353998D01*
X406150D01*
Y354085D01*
Y354173D01*
X406062D01*
Y354260D01*
Y354348D01*
X405975D01*
Y354435D01*
X405887D01*
Y354522D01*
X405800D01*
Y354610D01*
X405713D01*
Y354697D01*
Y354785D01*
X405625D01*
Y354872D01*
Y354960D01*
X405538D01*
Y355047D01*
X405450D01*
Y355134D01*
X405363D01*
Y355222D01*
Y355309D01*
X405275D01*
Y355397D01*
X405188D01*
Y355484D01*
Y355571D01*
X405101D01*
Y355659D01*
X405013D01*
Y355746D01*
X404926D01*
Y355834D01*
Y355921D01*
X404838D01*
Y356009D01*
Y356096D01*
X404751D01*
Y356183D01*
X404664D01*
Y356271D01*
X404576D01*
Y356358D01*
X404489D01*
Y356446D01*
Y356533D01*
X404401D01*
Y356620D01*
X404314D01*
Y356708D01*
X404226D01*
Y356795D01*
X404139D01*
Y356883D01*
Y356970D01*
X404052D01*
Y357057D01*
Y357145D01*
X403964D01*
Y357232D01*
Y357320D01*
X403877D01*
Y357407D01*
X403789D01*
Y357495D01*
X403702D01*
Y357582D01*
Y357669D01*
X403615D01*
Y357757D01*
Y357844D01*
X403527D01*
Y357932D01*
X403440D01*
Y358019D01*
X403352D01*
Y358106D01*
X403265D01*
Y358194D01*
Y358281D01*
X403177D01*
Y358369D01*
Y358456D01*
X403090D01*
Y358544D01*
X403003D01*
Y358631D01*
X402915D01*
Y358718D01*
Y358806D01*
X402828D01*
Y358893D01*
Y358981D01*
X402740D01*
Y359068D01*
X402653D01*
Y359156D01*
Y359243D01*
X402478D01*
Y359330D01*
Y359418D01*
X402391D01*
Y359505D01*
Y359593D01*
X402303D01*
Y359680D01*
Y359767D01*
X402216D01*
Y359855D01*
X402128D01*
Y359942D01*
X402041D01*
Y360030D01*
Y360117D01*
X401954D01*
Y360205D01*
Y360292D01*
X401866D01*
Y360379D01*
X401779D01*
Y360467D01*
X401691D01*
Y360554D01*
X401604D01*
Y360642D01*
Y360729D01*
X401516D01*
Y360816D01*
Y360904D01*
X401429D01*
Y360991D01*
Y361079D01*
X401342D01*
Y361166D01*
X401254D01*
Y361253D01*
X401167D01*
Y361341D01*
Y361428D01*
X401079D01*
Y361516D01*
Y361603D01*
X400992D01*
Y361691D01*
X400905D01*
Y361778D01*
X400817D01*
Y361865D01*
X400730D01*
Y361953D01*
Y362040D01*
Y362128D01*
X400642D01*
Y362215D01*
X400555D01*
Y362302D01*
Y362390D01*
X400467D01*
Y362477D01*
X400380D01*
Y362565D01*
X400293D01*
Y362652D01*
Y362740D01*
X400205D01*
Y362827D01*
Y362914D01*
X400118D01*
Y363002D01*
X400030D01*
Y363089D01*
X399943D01*
Y363177D01*
Y363264D01*
X399856D01*
Y363351D01*
Y363439D01*
X399768D01*
Y363526D01*
Y363614D01*
X399681D01*
Y363701D01*
X399593D01*
Y363789D01*
X399506D01*
Y363876D01*
X399418D01*
Y363963D01*
Y364051D01*
Y364138D01*
X399331D01*
Y364226D01*
X399244D01*
Y364313D01*
X399156D01*
Y364401D01*
X399069D01*
Y364488D01*
Y364575D01*
X398981D01*
Y364663D01*
Y364750D01*
X398894D01*
Y364838D01*
Y364925D01*
X398807D01*
Y365012D01*
X398719D01*
Y365100D01*
X398632D01*
Y365187D01*
Y365275D01*
X398544D01*
Y365362D01*
Y365450D01*
X398457D01*
Y365537D01*
X398370D01*
Y365624D01*
X398282D01*
Y365712D01*
X398195D01*
Y365799D01*
Y365887D01*
Y365974D01*
X398107D01*
Y366061D01*
X398020D01*
Y366149D01*
Y366236D01*
X397932D01*
Y366324D01*
X397845D01*
Y366411D01*
X397758D01*
Y366498D01*
Y366586D01*
X397670D01*
Y366673D01*
Y366761D01*
X397583D01*
Y366848D01*
X397495D01*
Y366936D01*
X397408D01*
Y367023D01*
Y367110D01*
X397321D01*
Y367198D01*
Y367285D01*
X397233D01*
Y367373D01*
X397146D01*
Y367460D01*
Y367547D01*
X397058D01*
Y367635D01*
X396971D01*
Y367722D01*
Y367810D01*
X396883D01*
Y367897D01*
Y367985D01*
X396796D01*
Y368072D01*
X396709D01*
Y368160D01*
X396621D01*
Y368247D01*
X396534D01*
Y368334D01*
Y368422D01*
X396446D01*
Y368509D01*
Y368597D01*
X396359D01*
Y368684D01*
X396271D01*
Y368771D01*
X396184D01*
Y368859D01*
Y368946D01*
X396097D01*
Y369034D01*
Y369121D01*
X396009D01*
Y369209D01*
Y369296D01*
X395922D01*
Y369383D01*
X395834D01*
Y369471D01*
X395747D01*
Y369558D01*
X395660D01*
Y369646D01*
Y369733D01*
Y369820D01*
X395572D01*
Y369908D01*
X395485D01*
Y369995D01*
X395397D01*
Y370083D01*
X395310D01*
Y370170D01*
Y370257D01*
X395222D01*
Y370345D01*
Y370432D01*
X395135D01*
Y370520D01*
X395048D01*
Y370607D01*
X394960D01*
Y370694D01*
Y370782D01*
X394873D01*
Y370869D01*
Y370957D01*
X394785D01*
Y371044D01*
Y371132D01*
X394698D01*
Y371219D01*
X394611D01*
Y371306D01*
X394523D01*
Y371394D01*
X394436D01*
Y371481D01*
Y371569D01*
X394348D01*
Y371656D01*
Y371744D01*
X394261D01*
Y371831D01*
X394174D01*
Y371918D01*
X394086D01*
Y372006D01*
Y372093D01*
X393999D01*
Y372181D01*
Y372268D01*
X393911D01*
Y372356D01*
Y372443D01*
X393824D01*
Y372530D01*
X393736D01*
Y372618D01*
X393649D01*
Y372705D01*
X393562D01*
Y372793D01*
Y372880D01*
X393474D01*
Y372967D01*
Y373055D01*
X393387D01*
Y373142D01*
X393299D01*
Y373230D01*
X393212D01*
Y373317D01*
X393125D01*
Y373405D01*
Y373492D01*
X393037D01*
Y373579D01*
Y373667D01*
X392950D01*
Y373754D01*
X392862D01*
Y373842D01*
X392775D01*
Y373929D01*
Y374016D01*
X392687D01*
Y374104D01*
Y374191D01*
X392600D01*
Y374279D01*
X392513D01*
Y374366D01*
X392425D01*
Y374453D01*
X392338D01*
Y374541D01*
Y374628D01*
X392250D01*
Y374716D01*
Y374803D01*
X392163D01*
Y374891D01*
X392075D01*
Y374978D01*
X391988D01*
Y375065D01*
Y375153D01*
X391901D01*
Y375240D01*
Y375328D01*
X391813D01*
Y375415D01*
X391726D01*
Y375502D01*
X391638D01*
Y375590D01*
X391551D01*
Y375677D01*
Y375765D01*
X391463D01*
Y375852D01*
X391376D01*
Y375940D01*
Y376027D01*
X391289D01*
Y376114D01*
X391201D01*
Y376202D01*
X391114D01*
Y376289D01*
Y376377D01*
X391026D01*
Y376464D01*
X390939D01*
Y376552D01*
Y376639D01*
X390852D01*
Y376726D01*
X390764D01*
Y376814D01*
X390677D01*
Y376901D01*
Y376989D01*
X390589D01*
Y377076D01*
X390502D01*
Y377163D01*
X390415D01*
Y377251D01*
X390327D01*
Y377338D01*
X390240D01*
Y377426D01*
Y377513D01*
X390152D01*
Y377601D01*
Y377688D01*
X390065D01*
Y377775D01*
X389978D01*
Y377863D01*
X389890D01*
Y377950D01*
Y378038D01*
X389803D01*
Y378125D01*
X389715D01*
Y378212D01*
Y378300D01*
X389628D01*
Y378387D01*
X389540D01*
Y378475D01*
X389453D01*
Y378562D01*
X389366D01*
Y378649D01*
Y378737D01*
X389278D01*
Y378824D01*
Y378912D01*
X389191D01*
Y378999D01*
X389103D01*
Y379087D01*
X389016D01*
Y379174D01*
X388929D01*
Y379261D01*
Y379349D01*
X388841D01*
Y379436D01*
X388754D01*
Y379524D01*
X388666D01*
Y379611D01*
Y379698D01*
X388579D01*
Y379786D01*
X388491D01*
Y379873D01*
Y379961D01*
X388404D01*
Y380048D01*
X388316D01*
Y380136D01*
X388229D01*
Y380223D01*
X388142D01*
Y380310D01*
Y380398D01*
X388054D01*
Y380485D01*
X387967D01*
Y380573D01*
X387879D01*
Y380660D01*
X387792D01*
Y380748D01*
X387705D01*
Y380835D01*
Y380922D01*
X387617D01*
Y381010D01*
X387530D01*
Y381097D01*
X387442D01*
Y381185D01*
X387355D01*
Y381272D01*
Y381359D01*
X387267D01*
Y381447D01*
X387180D01*
Y381534D01*
Y381622D01*
X387093D01*
Y381709D01*
X387005D01*
Y381797D01*
X386918D01*
Y381884D01*
X386830D01*
Y381971D01*
Y382059D01*
X386743D01*
Y382146D01*
X386656D01*
Y382234D01*
X386568D01*
Y382321D01*
X386481D01*
Y382408D01*
X386393D01*
Y382496D01*
X386306D01*
Y382583D01*
X386219D01*
Y382671D01*
X386131D01*
Y382758D01*
X386044D01*
Y382845D01*
X385956D01*
Y382933D01*
Y383020D01*
X385781D01*
Y383108D01*
X385607D01*
Y383195D01*
X385519D01*
Y383283D01*
X385344D01*
Y383370D01*
X385257D01*
Y383457D01*
X385082D01*
Y383545D01*
X384907D01*
Y383632D01*
X384820D01*
Y383720D01*
X384732D01*
Y383807D01*
X384558D01*
Y383894D01*
X384383D01*
Y383982D01*
X384295D01*
Y384069D01*
X384120D01*
Y384157D01*
X384033D01*
Y384244D01*
X383946D01*
Y384332D01*
X383771D01*
Y384419D01*
X383596D01*
Y384507D01*
X383509D01*
Y384594D01*
X383421D01*
Y384681D01*
X383334D01*
Y384769D01*
X383159D01*
Y384856D01*
X383071D01*
Y384944D01*
X382984D01*
Y385031D01*
X382897D01*
Y385118D01*
X382722D01*
Y385206D01*
X382634D01*
Y385293D01*
X382460D01*
Y385381D01*
X382372D01*
Y385468D01*
X382285D01*
Y385556D01*
X382197D01*
Y385643D01*
X382023D01*
Y385730D01*
X381935D01*
Y385818D01*
X381848D01*
Y385905D01*
Y385993D01*
X381673D01*
Y386080D01*
X381585D01*
Y386167D01*
X381498D01*
Y386255D01*
X381411D01*
Y386342D01*
X381323D01*
Y386430D01*
X381236D01*
Y386517D01*
X381148D01*
Y386604D01*
X381061D01*
Y386692D01*
X380974D01*
Y386779D01*
Y386867D01*
X380886D01*
Y386954D01*
X380799D01*
Y387042D01*
X380711D01*
Y387129D01*
X380624D01*
Y387216D01*
Y387304D01*
X380536D01*
Y387391D01*
Y387479D01*
X380449D01*
Y387566D01*
X380362D01*
Y387653D01*
X380274D01*
Y387741D01*
X380187D01*
Y387828D01*
Y387916D01*
Y388003D01*
X380274D01*
Y388091D01*
X380362D01*
Y388178D01*
X380711D01*
Y388091D01*
D02*
G37*
G36*
X320918Y380922D02*
X321355D01*
Y380835D01*
X321530D01*
Y380748D01*
X321705D01*
Y380660D01*
X321880D01*
Y380573D01*
X322229D01*
Y380485D01*
X322404D01*
Y380398D01*
X322579D01*
Y380310D01*
X322754D01*
Y380223D01*
X323103D01*
Y380136D01*
X323278D01*
Y380048D01*
X323453D01*
Y379961D01*
X323628D01*
Y379873D01*
X323890D01*
Y379786D01*
X324240D01*
Y379698D01*
X324415D01*
Y379611D01*
X324589D01*
Y379524D01*
X324764D01*
Y379436D01*
X325026D01*
Y379349D01*
X325464D01*
Y379261D01*
X325726D01*
Y379174D01*
X325988D01*
Y379087D01*
X326163D01*
Y378999D01*
X326513D01*
Y378912D01*
X327824D01*
Y378999D01*
X327999D01*
Y379087D01*
Y379174D01*
X328086D01*
Y379261D01*
X328174D01*
Y379349D01*
X328261D01*
Y379436D01*
X328348D01*
Y379524D01*
X328436D01*
Y379611D01*
Y379698D01*
X328523D01*
Y379786D01*
Y379873D01*
X328611D01*
Y379961D01*
X328698D01*
Y380048D01*
X328785D01*
Y380136D01*
X328960D01*
Y380223D01*
X329135D01*
Y380310D01*
X330009D01*
Y380223D01*
X330359D01*
Y380136D01*
X330709D01*
Y380048D01*
X330796D01*
Y379961D01*
X330884D01*
Y379873D01*
X331058D01*
Y379786D01*
X331233D01*
Y379698D01*
X331758D01*
Y379786D01*
X331845D01*
Y379873D01*
X331932D01*
Y379961D01*
Y380048D01*
X332107D01*
Y380136D01*
X332370D01*
Y380223D01*
X333244D01*
Y380136D01*
X333681D01*
Y380048D01*
X333856D01*
Y379961D01*
X333943D01*
Y379873D01*
X334118D01*
Y379786D01*
X334380D01*
Y379698D01*
X334555D01*
Y379611D01*
X334730D01*
Y379524D01*
X334817D01*
Y379436D01*
X334905D01*
Y379349D01*
X335254D01*
Y379261D01*
X335342D01*
Y379174D01*
X335429D01*
Y379087D01*
X335517D01*
Y378999D01*
X335604D01*
Y378912D01*
X335866D01*
Y378824D01*
X336041D01*
Y378737D01*
X336216D01*
Y378649D01*
X336303D01*
Y378562D01*
X336478D01*
Y378475D01*
X336653D01*
Y378387D01*
X336740D01*
Y378300D01*
X336828D01*
Y378212D01*
X336915D01*
Y378125D01*
X337090D01*
Y378038D01*
X337177D01*
Y377950D01*
X337265D01*
Y377863D01*
X337352D01*
Y377775D01*
X337440D01*
Y377688D01*
X337615D01*
Y377601D01*
X337702D01*
Y377513D01*
X337789D01*
Y377426D01*
X337877D01*
Y377338D01*
Y377251D01*
X338052D01*
Y377163D01*
Y377076D01*
X338139D01*
Y376989D01*
Y376901D01*
X338227D01*
Y376814D01*
Y376726D01*
X338314D01*
Y376639D01*
Y376552D01*
X338401D01*
Y376464D01*
Y376377D01*
Y376289D01*
Y376202D01*
X338314D01*
Y376114D01*
X338227D01*
Y376027D01*
X338139D01*
Y375940D01*
X337090D01*
Y376027D01*
X336653D01*
Y376114D01*
X336566D01*
Y376202D01*
X336391D01*
Y376289D01*
X336128D01*
Y376377D01*
X335866D01*
Y376464D01*
X335691D01*
Y376552D01*
X335604D01*
Y376639D01*
X335517D01*
Y376726D01*
X335254D01*
Y376814D01*
X335080D01*
Y376901D01*
X334905D01*
Y376989D01*
Y377076D01*
X334817D01*
Y377163D01*
X334555D01*
Y377251D01*
X334293D01*
Y377338D01*
X334205D01*
Y377426D01*
X334118D01*
Y377513D01*
X334031D01*
Y377601D01*
X333768D01*
Y377688D01*
X333506D01*
Y377775D01*
X333419D01*
Y377863D01*
Y377950D01*
X333331D01*
Y378038D01*
X332981D01*
Y378125D01*
X332807D01*
Y378212D01*
X332719D01*
Y378300D01*
X332632D01*
Y378387D01*
X332544D01*
Y378475D01*
X332282D01*
Y378562D01*
X332195D01*
Y378649D01*
X332107D01*
Y378737D01*
X332020D01*
Y378824D01*
X331845D01*
Y378912D01*
X331408D01*
Y378999D01*
X331058D01*
Y379087D01*
X330796D01*
Y378999D01*
X330621D01*
Y378912D01*
X330446D01*
Y378824D01*
X330359D01*
Y378737D01*
X330272D01*
Y378649D01*
Y378562D01*
X330184D01*
Y378475D01*
Y378387D01*
X330097D01*
Y378300D01*
X330009D01*
Y378212D01*
X329922D01*
Y378125D01*
X329835D01*
Y378038D01*
X329747D01*
Y377950D01*
X329660D01*
Y377863D01*
X329485D01*
Y377775D01*
X329223D01*
Y377688D01*
X328086D01*
Y377775D01*
X327824D01*
Y377863D01*
X327649D01*
Y377950D01*
X327387D01*
Y378038D01*
X326950D01*
Y378125D01*
X326513D01*
Y378212D01*
X326338D01*
Y378300D01*
X326163D01*
Y378387D01*
X325901D01*
Y378475D01*
X325551D01*
Y378562D01*
X325376D01*
Y378649D01*
X325201D01*
Y378737D01*
X324939D01*
Y378824D01*
X324764D01*
Y378912D01*
X324415D01*
Y378999D01*
X324240D01*
Y379087D01*
X324152D01*
Y379174D01*
X323977D01*
Y379261D01*
X323628D01*
Y379349D01*
X323366D01*
Y379436D01*
X323191D01*
Y379524D01*
X323016D01*
Y379611D01*
X322754D01*
Y379698D01*
X321617D01*
Y379611D01*
X321530D01*
Y379524D01*
X321442D01*
Y379436D01*
X321355D01*
Y379349D01*
X321268D01*
Y379261D01*
X321093D01*
Y379174D01*
Y379087D01*
X321005D01*
Y378999D01*
Y378912D01*
Y378824D01*
Y378737D01*
Y378649D01*
X320918D01*
Y378562D01*
Y378475D01*
Y378387D01*
Y378300D01*
Y378212D01*
Y378125D01*
Y378038D01*
X320830D01*
Y377950D01*
Y377863D01*
X320743D01*
Y377775D01*
Y377688D01*
X320656D01*
Y377601D01*
Y377513D01*
X320568D01*
Y377426D01*
Y377338D01*
X320481D01*
Y377251D01*
X320306D01*
Y377163D01*
X319956D01*
Y377076D01*
X318820D01*
Y377163D01*
X318295D01*
Y377251D01*
X317684D01*
Y377338D01*
X317334D01*
Y377426D01*
X317159D01*
Y377513D01*
X316897D01*
Y377601D01*
X316547D01*
Y377688D01*
X316197D01*
Y377775D01*
X315935D01*
Y377863D01*
X315673D01*
Y377950D01*
X315498D01*
Y378038D01*
X315148D01*
Y378125D01*
X314799D01*
Y378212D01*
X314624D01*
Y378300D01*
X314449D01*
Y378387D01*
X314187D01*
Y378475D01*
X313837D01*
Y378562D01*
X313575D01*
Y378649D01*
X313313D01*
Y378737D01*
X313138D01*
Y378824D01*
X312876D01*
Y378912D01*
X312439D01*
Y378999D01*
X312176D01*
Y379087D01*
X311914D01*
Y379174D01*
X311652D01*
Y379261D01*
X311302D01*
Y379349D01*
X310253D01*
Y379261D01*
X310166D01*
Y379174D01*
X310078D01*
Y379087D01*
Y378999D01*
Y378912D01*
Y378824D01*
Y378737D01*
Y378649D01*
Y378562D01*
Y378475D01*
Y378387D01*
Y378300D01*
Y378212D01*
Y378125D01*
Y378038D01*
Y377950D01*
Y377863D01*
Y377775D01*
Y377688D01*
Y377601D01*
Y377513D01*
X310166D01*
Y377426D01*
Y377338D01*
Y377251D01*
Y377163D01*
Y377076D01*
Y376989D01*
X310078D01*
Y376901D01*
Y376814D01*
Y376726D01*
Y376639D01*
X309991D01*
Y376552D01*
Y376464D01*
X309816D01*
Y376377D01*
X309554D01*
Y376289D01*
X307893D01*
Y376377D01*
X307019D01*
Y376464D01*
X306407D01*
Y376552D01*
X305970D01*
Y376639D01*
X305620D01*
Y376726D01*
X305095D01*
Y376814D01*
X304221D01*
Y376901D01*
X303609D01*
Y376989D01*
X303347D01*
Y376901D01*
X302560D01*
Y376814D01*
X301948D01*
Y376726D01*
X301774D01*
Y376639D01*
Y376552D01*
X301686D01*
Y376464D01*
X301511D01*
Y376377D01*
X301424D01*
Y376289D01*
X301337D01*
Y376202D01*
X301249D01*
Y376114D01*
Y376027D01*
X301162D01*
Y375940D01*
Y375852D01*
X300987D01*
Y375765D01*
X300725D01*
Y375852D01*
X300550D01*
Y375940D01*
X300375D01*
Y376027D01*
X300200D01*
Y376114D01*
X300025D01*
Y376202D01*
X299938D01*
Y376289D01*
X299850D01*
Y376377D01*
X299588D01*
Y376464D01*
X299413D01*
Y376552D01*
X299326D01*
Y376639D01*
X299238D01*
Y376726D01*
Y376814D01*
Y376901D01*
X299326D01*
Y376989D01*
Y377076D01*
X299413D01*
Y377163D01*
X299501D01*
Y377251D01*
X299588D01*
Y377338D01*
Y377426D01*
X299676D01*
Y377513D01*
X299763D01*
Y377601D01*
X299850D01*
Y377688D01*
X300025D01*
Y377775D01*
X300113D01*
Y377863D01*
X300200D01*
Y377950D01*
X300375D01*
Y378038D01*
X300812D01*
Y378125D01*
X301686D01*
Y378212D01*
X302036D01*
Y378125D01*
X302823D01*
Y378038D01*
X303609D01*
Y377950D01*
X304046D01*
Y377863D01*
X304309D01*
Y377775D01*
X304746D01*
Y377688D01*
X305445D01*
Y377601D01*
X306319D01*
Y377513D01*
X306756D01*
Y377426D01*
X307893D01*
Y377513D01*
X308068D01*
Y377601D01*
X308155D01*
Y377688D01*
X308243D01*
Y377775D01*
X308330D01*
Y377863D01*
Y377950D01*
Y378038D01*
Y378125D01*
Y378212D01*
Y378300D01*
Y378387D01*
Y378475D01*
Y378562D01*
Y378649D01*
Y378737D01*
X308243D01*
Y378824D01*
Y378912D01*
Y378999D01*
Y379087D01*
Y379174D01*
Y379261D01*
Y379349D01*
Y379436D01*
Y379524D01*
Y379611D01*
Y379698D01*
Y379786D01*
Y379873D01*
Y379961D01*
Y380048D01*
X308330D01*
Y380136D01*
Y380223D01*
Y380310D01*
X308417D01*
Y380398D01*
Y380485D01*
X308505D01*
Y380573D01*
X309816D01*
Y380485D01*
X310166D01*
Y380398D01*
X310428D01*
Y380310D01*
X310603D01*
Y380223D01*
X310952D01*
Y380136D01*
X311389D01*
Y380048D01*
X311652D01*
Y379961D01*
X311827D01*
Y379873D01*
X312089D01*
Y379786D01*
X312439D01*
Y379698D01*
X312701D01*
Y379611D01*
X312876D01*
Y379524D01*
X313138D01*
Y379436D01*
X313313D01*
Y379349D01*
X313750D01*
Y379261D01*
X313925D01*
Y379174D01*
X314187D01*
Y379087D01*
X314449D01*
Y378999D01*
X314711D01*
Y378912D01*
X315061D01*
Y378824D01*
X315323D01*
Y378737D01*
X315585D01*
Y378649D01*
X315848D01*
Y378562D01*
X316110D01*
Y378475D01*
X316634D01*
Y378387D01*
X317072D01*
Y378300D01*
X317421D01*
Y378212D01*
X317946D01*
Y378125D01*
X318121D01*
Y378212D01*
X318383D01*
Y378300D01*
X318470D01*
Y378387D01*
X318645D01*
Y378475D01*
X318733D01*
Y378562D01*
X318820D01*
Y378649D01*
X318907D01*
Y378737D01*
Y378824D01*
Y378912D01*
Y378999D01*
Y379087D01*
Y379174D01*
X318995D01*
Y379261D01*
Y379349D01*
Y379436D01*
X319082D01*
Y379524D01*
Y379611D01*
Y379698D01*
X319170D01*
Y379786D01*
Y379873D01*
Y379961D01*
X319257D01*
Y380048D01*
Y380136D01*
Y380223D01*
X319344D01*
Y380310D01*
Y380398D01*
X319432D01*
Y380485D01*
X319519D01*
Y380573D01*
X319607D01*
Y380660D01*
X319781D01*
Y380748D01*
X319869D01*
Y380835D01*
X319956D01*
Y380922D01*
X320306D01*
Y381010D01*
X320918D01*
Y380922D01*
D02*
G37*
G36*
X406062Y384244D02*
X406237D01*
Y384157D01*
X406324D01*
Y384069D01*
X406499D01*
Y383982D01*
X407024D01*
Y383894D01*
X407199D01*
Y383807D01*
X407374D01*
Y383720D01*
X407636D01*
Y383632D01*
X407811D01*
Y383545D01*
X408160D01*
Y383457D01*
X408335D01*
Y383370D01*
X408423D01*
Y383283D01*
X408597D01*
Y383195D01*
X408772D01*
Y383108D01*
X409034D01*
Y383020D01*
X409122D01*
Y382933D01*
X409297D01*
Y382845D01*
X409472D01*
Y382758D01*
X409646D01*
Y382671D01*
X409821D01*
Y382583D01*
X409996D01*
Y382496D01*
X410083D01*
Y382408D01*
X410258D01*
Y382321D01*
X410433D01*
Y382234D01*
X410695D01*
Y382146D01*
X410783D01*
Y382059D01*
X410870D01*
Y381971D01*
X410958D01*
Y381884D01*
X411045D01*
Y381797D01*
X411132D01*
Y381709D01*
X411220D01*
Y381622D01*
X411307D01*
Y381534D01*
Y381447D01*
X411395D01*
Y381359D01*
X411482D01*
Y381272D01*
X411569D01*
Y381185D01*
Y381097D01*
X411657D01*
Y381010D01*
X411744D01*
Y380922D01*
X411832D01*
Y380835D01*
Y380748D01*
X411919D01*
Y380660D01*
X412007D01*
Y380573D01*
Y380485D01*
X412094D01*
Y380398D01*
Y380310D01*
X412181D01*
Y380223D01*
X412356D01*
Y380136D01*
X412444D01*
Y380048D01*
Y379961D01*
X412531D01*
Y379873D01*
X412793D01*
Y379961D01*
Y380048D01*
Y380136D01*
Y380223D01*
X412706D01*
Y380310D01*
Y380398D01*
X412618D01*
Y380485D01*
Y380573D01*
Y380660D01*
X412531D01*
Y380748D01*
Y380835D01*
Y380922D01*
X412444D01*
Y381010D01*
Y381097D01*
Y381185D01*
X412356D01*
Y381272D01*
Y381359D01*
Y381447D01*
X412269D01*
Y381534D01*
X412181D01*
Y381622D01*
Y381709D01*
X412094D01*
Y381797D01*
Y381884D01*
X412007D01*
Y381971D01*
Y382059D01*
X411919D01*
Y382146D01*
Y382234D01*
X411832D01*
Y382321D01*
X411744D01*
Y382408D01*
X411657D01*
Y382496D01*
Y382583D01*
X411569D01*
Y382671D01*
X411482D01*
Y382758D01*
Y382845D01*
X411395D01*
Y382933D01*
X411307D01*
Y383020D01*
Y383108D01*
X411220D01*
Y383195D01*
Y383283D01*
Y383370D01*
X411569D01*
Y383283D01*
X411657D01*
Y383195D01*
X411832D01*
Y383108D01*
X412181D01*
Y383020D01*
X412444D01*
Y382933D01*
X412531D01*
Y382845D01*
X412706D01*
Y382758D01*
X412793D01*
Y382671D01*
X412881D01*
Y382583D01*
X412968D01*
Y382496D01*
X413056D01*
Y382408D01*
X413143D01*
Y382321D01*
X413230D01*
Y382234D01*
Y382146D01*
X413318D01*
Y382059D01*
Y381971D01*
X413405D01*
Y381884D01*
X413493D01*
Y381797D01*
X413580D01*
Y381709D01*
X413667D01*
Y381622D01*
Y381534D01*
Y381447D01*
X413755D01*
Y381359D01*
Y381272D01*
X413842D01*
Y381185D01*
X413930D01*
Y381097D01*
X414017D01*
Y381010D01*
Y380922D01*
X414105D01*
Y380835D01*
Y380748D01*
Y380660D01*
X414192D01*
Y380573D01*
Y380485D01*
Y380398D01*
X414279D01*
Y380310D01*
Y380223D01*
X414367D01*
Y380136D01*
X414454D01*
Y380048D01*
Y379961D01*
Y379873D01*
X414542D01*
Y379786D01*
Y379698D01*
Y379611D01*
Y379524D01*
Y379436D01*
Y379349D01*
Y379261D01*
Y379174D01*
X414629D01*
Y379087D01*
Y378999D01*
Y378912D01*
Y378824D01*
Y378737D01*
Y378649D01*
Y378562D01*
Y378475D01*
Y378387D01*
X414542D01*
Y378300D01*
Y378212D01*
Y378125D01*
X414454D01*
Y378038D01*
X414367D01*
Y377950D01*
X413842D01*
Y378038D01*
X413580D01*
Y378125D01*
X413405D01*
Y378212D01*
X413318D01*
Y378300D01*
X413230D01*
Y378387D01*
X413056D01*
Y378475D01*
X412793D01*
Y378562D01*
X412618D01*
Y378649D01*
X412531D01*
Y378737D01*
X412444D01*
Y378824D01*
X412356D01*
Y378912D01*
X412181D01*
Y378999D01*
X412007D01*
Y379087D01*
X411919D01*
Y379174D01*
X411832D01*
Y379261D01*
X411744D01*
Y379349D01*
X411569D01*
Y379436D01*
X411482D01*
Y379524D01*
X411395D01*
Y379611D01*
X411307D01*
Y379698D01*
X411220D01*
Y379786D01*
Y379873D01*
X411132D01*
Y379961D01*
X411045D01*
Y380048D01*
Y380136D01*
X410958D01*
Y380223D01*
X410870D01*
Y380310D01*
X410783D01*
Y380398D01*
Y380485D01*
X410695D01*
Y380573D01*
Y380660D01*
X410608D01*
Y380748D01*
X410521D01*
Y380835D01*
X410433D01*
Y380922D01*
Y381010D01*
X410346D01*
Y381097D01*
Y381185D01*
X410258D01*
Y381272D01*
X410171D01*
Y381359D01*
X410083D01*
Y381447D01*
X409996D01*
Y381534D01*
Y381622D01*
X409909D01*
Y381709D01*
X409821D01*
Y381797D01*
Y381884D01*
X409734D01*
Y381971D01*
X409559D01*
Y382059D01*
X409472D01*
Y382146D01*
X409297D01*
Y382234D01*
X409122D01*
Y382321D01*
X408947D01*
Y382408D01*
X408860D01*
Y382496D01*
X408685D01*
Y382583D01*
X408510D01*
Y382671D01*
X408335D01*
Y382758D01*
X408073D01*
Y382845D01*
X407898D01*
Y382933D01*
X407723D01*
Y383020D01*
X407461D01*
Y383108D01*
X407286D01*
Y383195D01*
X407111D01*
Y383283D01*
X407024D01*
Y383370D01*
X406849D01*
Y383457D01*
X406587D01*
Y383545D01*
X406412D01*
Y383632D01*
X406324D01*
Y383720D01*
Y383807D01*
X406237D01*
Y383894D01*
X406062D01*
Y383982D01*
X405887D01*
Y384069D01*
X405800D01*
Y384157D01*
X405713D01*
Y384244D01*
X405800D01*
Y384332D01*
X406062D01*
Y384244D01*
D02*
G37*
G36*
X287087Y384419D02*
X287525D01*
Y384332D01*
X287699D01*
Y384244D01*
X287787D01*
Y384157D01*
X287874D01*
Y384069D01*
X288049D01*
Y383982D01*
X288311D01*
Y383894D01*
X288486D01*
Y383807D01*
X288574D01*
Y383720D01*
X288661D01*
Y383632D01*
X288836D01*
Y383545D01*
X288923D01*
Y383457D01*
X289098D01*
Y383370D01*
X289186D01*
Y383283D01*
X289273D01*
Y383195D01*
X289360D01*
Y383108D01*
X289535D01*
Y383020D01*
X289623D01*
Y382933D01*
X289710D01*
Y382845D01*
X289797D01*
Y382758D01*
X289972D01*
Y382671D01*
X290060D01*
Y382583D01*
X290147D01*
Y382496D01*
X290234D01*
Y382408D01*
X290409D01*
Y382321D01*
X290497D01*
Y382234D01*
X290584D01*
Y382146D01*
X290672D01*
Y382059D01*
X290846D01*
Y381971D01*
X290934D01*
Y381884D01*
X291021D01*
Y381797D01*
X291196D01*
Y381709D01*
X291283D01*
Y381622D01*
X291371D01*
Y381534D01*
X291546D01*
Y381447D01*
X291633D01*
Y381359D01*
X291808D01*
Y381272D01*
X291896D01*
Y381185D01*
X291983D01*
Y381097D01*
X292158D01*
Y381010D01*
X292245D01*
Y380922D01*
X292333D01*
Y380835D01*
X292420D01*
Y380748D01*
X292507D01*
Y380660D01*
X292682D01*
Y380573D01*
X292857D01*
Y380485D01*
X292945D01*
Y380398D01*
X293032D01*
Y380310D01*
X293119D01*
Y380223D01*
X293382D01*
Y380136D01*
X293556D01*
Y380048D01*
X293819D01*
Y379961D01*
X293993D01*
Y379873D01*
X294168D01*
Y379786D01*
X294431D01*
Y379698D01*
X294693D01*
Y379611D01*
X294780D01*
Y379524D01*
X294955D01*
Y379436D01*
X295042D01*
Y379349D01*
X295305D01*
Y379261D01*
X295480D01*
Y379174D01*
X295567D01*
Y379087D01*
X295654D01*
Y378999D01*
X295829D01*
Y378912D01*
X296004D01*
Y378824D01*
X296179D01*
Y378737D01*
X296266D01*
Y378649D01*
X296354D01*
Y378562D01*
X296441D01*
Y378475D01*
X296616D01*
Y378387D01*
X296791D01*
Y378300D01*
X296878D01*
Y378212D01*
X296966D01*
Y378125D01*
X297141D01*
Y378038D01*
X297228D01*
Y377950D01*
X297403D01*
Y377863D01*
X297490D01*
Y377775D01*
X297578D01*
Y377688D01*
X297665D01*
Y377601D01*
X297752D01*
Y377513D01*
X297840D01*
Y377426D01*
X297927D01*
Y377338D01*
Y377251D01*
Y377163D01*
Y377076D01*
Y376989D01*
Y376901D01*
X297490D01*
Y376989D01*
X297403D01*
Y377076D01*
X297315D01*
Y377163D01*
X297141D01*
Y377251D01*
X296878D01*
Y377338D01*
X296791D01*
Y377426D01*
X296703D01*
Y377513D01*
X296529D01*
Y377601D01*
X296354D01*
Y377688D01*
X296179D01*
Y377775D01*
X296092D01*
Y377863D01*
X295917D01*
Y377950D01*
X295829D01*
Y378038D01*
X295654D01*
Y378125D01*
X295392D01*
Y378212D01*
X295305D01*
Y378300D01*
X295217D01*
Y378387D01*
X295130D01*
Y378475D01*
X294955D01*
Y378562D01*
X294693D01*
Y378649D01*
X294605D01*
Y378737D01*
X294518D01*
Y378824D01*
X294343D01*
Y378912D01*
X294168D01*
Y378999D01*
X293993D01*
Y379087D01*
X293906D01*
Y379174D01*
X293819D01*
Y379261D01*
X293644D01*
Y379349D01*
X293469D01*
Y379436D01*
X293382D01*
Y379524D01*
X293294D01*
Y379611D01*
X293207D01*
Y379698D01*
X293032D01*
Y379786D01*
X292857D01*
Y379873D01*
X292770D01*
Y379961D01*
X292682D01*
Y380048D01*
X292507D01*
Y380136D01*
X292333D01*
Y380223D01*
X292245D01*
Y380310D01*
X292158D01*
Y380398D01*
X292070D01*
Y380485D01*
X291896D01*
Y380573D01*
X291808D01*
Y380660D01*
X291633D01*
Y380748D01*
X291546D01*
Y380835D01*
X291458D01*
Y380922D01*
X291283D01*
Y381010D01*
X291196D01*
Y381097D01*
X291021D01*
Y381185D01*
X290934D01*
Y381272D01*
X290846D01*
Y381359D01*
X290672D01*
Y381447D01*
X290584D01*
Y381534D01*
X290497D01*
Y381622D01*
X290409D01*
Y381709D01*
X290234D01*
Y381797D01*
X290147D01*
Y381884D01*
X290060D01*
Y381971D01*
X289885D01*
Y382059D01*
X289797D01*
Y382146D01*
X289710D01*
Y382234D01*
X289535D01*
Y382321D01*
X289448D01*
Y382408D01*
X289360D01*
Y382496D01*
X289273D01*
Y382583D01*
X289098D01*
Y382671D01*
X289011D01*
Y382758D01*
X288836D01*
Y382845D01*
X288748D01*
Y382933D01*
X288661D01*
Y383020D01*
X288574D01*
Y383108D01*
X288399D01*
Y383195D01*
X288311D01*
Y383283D01*
X288224D01*
Y383370D01*
X288049D01*
Y383457D01*
X287874D01*
Y383545D01*
X287699D01*
Y383632D01*
X287612D01*
Y383720D01*
X287525D01*
Y383807D01*
X287437D01*
Y383894D01*
X287175D01*
Y383982D01*
X287087D01*
Y384069D01*
X287000D01*
Y384157D01*
Y384244D01*
X286913D01*
Y384332D01*
Y384419D01*
Y384507D01*
X287087D01*
Y384419D01*
D02*
G37*
G36*
X383509Y376289D02*
X383683D01*
Y376202D01*
X383771D01*
Y376114D01*
X383858D01*
Y376027D01*
X384120D01*
Y375940D01*
X384295D01*
Y375852D01*
X384470D01*
Y375765D01*
X384558D01*
Y375677D01*
X384645D01*
Y375590D01*
X384732D01*
Y375502D01*
X384907D01*
Y375415D01*
Y375328D01*
Y375240D01*
X384820D01*
Y375153D01*
X384645D01*
Y375065D01*
X384470D01*
Y374978D01*
X384295D01*
Y374891D01*
X384120D01*
Y374803D01*
X384033D01*
Y374716D01*
X383771D01*
Y374628D01*
X383509D01*
Y374716D01*
X383246D01*
Y374803D01*
X383071D01*
Y374891D01*
X382984D01*
Y374978D01*
X382897D01*
Y375065D01*
X382722D01*
Y375153D01*
X382547D01*
Y375240D01*
X382460D01*
Y375328D01*
X382285D01*
Y375415D01*
X382197D01*
Y375502D01*
X382110D01*
Y375590D01*
Y375677D01*
X382023D01*
Y375765D01*
Y375852D01*
X382110D01*
Y375940D01*
X382285D01*
Y376027D01*
X382547D01*
Y376114D01*
X382634D01*
Y376202D01*
X382809D01*
Y376289D01*
X382897D01*
Y376377D01*
X383509D01*
Y376289D01*
D02*
G37*
G36*
X383683Y378999D02*
X383858D01*
Y378912D01*
X384033D01*
Y378824D01*
X384120D01*
Y378737D01*
X384295D01*
Y378649D01*
X384383D01*
Y378562D01*
X384470D01*
Y378475D01*
X384645D01*
Y378387D01*
X384732D01*
Y378300D01*
X384820D01*
Y378212D01*
X384907D01*
Y378125D01*
X384995D01*
Y378038D01*
X385082D01*
Y377950D01*
X385170D01*
Y377863D01*
X385257D01*
Y377775D01*
X385344D01*
Y377688D01*
X385432D01*
Y377601D01*
X385519D01*
Y377513D01*
X385607D01*
Y377426D01*
Y377338D01*
X385694D01*
Y377251D01*
X385781D01*
Y377163D01*
X385869D01*
Y377076D01*
X385956D01*
Y376989D01*
X386044D01*
Y376901D01*
Y376814D01*
X386131D01*
Y376726D01*
X386219D01*
Y376639D01*
X386306D01*
Y376552D01*
X386393D01*
Y376464D01*
Y376377D01*
X386481D01*
Y376289D01*
Y376202D01*
X386568D01*
Y376114D01*
X386656D01*
Y376027D01*
X386743D01*
Y375940D01*
Y375852D01*
X386830D01*
Y375765D01*
Y375677D01*
X386918D01*
Y375590D01*
Y375502D01*
X387005D01*
Y375415D01*
X387093D01*
Y375328D01*
X387180D01*
Y375240D01*
Y375153D01*
Y375065D01*
X387267D01*
Y374978D01*
Y374891D01*
Y374803D01*
X387355D01*
Y374716D01*
Y374628D01*
Y374541D01*
Y374453D01*
Y374366D01*
X387267D01*
Y374279D01*
Y374191D01*
X387180D01*
Y374104D01*
X386830D01*
Y374191D01*
X386568D01*
Y374279D01*
X386219D01*
Y374366D01*
X386131D01*
Y374453D01*
X386044D01*
Y374541D01*
X385956D01*
Y374628D01*
X385869D01*
Y374716D01*
X385607D01*
Y374803D01*
X385519D01*
Y374891D01*
X385432D01*
Y374978D01*
Y375065D01*
Y375153D01*
Y375240D01*
X385519D01*
Y375328D01*
Y375415D01*
Y375502D01*
X385432D01*
Y375590D01*
Y375677D01*
X385344D01*
Y375765D01*
Y375852D01*
Y375940D01*
X385257D01*
Y376027D01*
Y376114D01*
X385170D01*
Y376202D01*
Y376289D01*
Y376377D01*
X385082D01*
Y376464D01*
Y376552D01*
X384995D01*
Y376639D01*
X384907D01*
Y376726D01*
X384820D01*
Y376814D01*
Y376901D01*
X384732D01*
Y376989D01*
Y377076D01*
X384645D01*
Y377163D01*
X384558D01*
Y377251D01*
X384470D01*
Y377338D01*
X384383D01*
Y377426D01*
X384295D01*
Y377513D01*
Y377601D01*
X384208D01*
Y377688D01*
X384120D01*
Y377775D01*
X384033D01*
Y377863D01*
X383946D01*
Y377950D01*
X383858D01*
Y378038D01*
X383771D01*
Y378125D01*
X383683D01*
Y378212D01*
X383596D01*
Y378300D01*
X383509D01*
Y378387D01*
X383421D01*
Y378475D01*
X383246D01*
Y378562D01*
X383159D01*
Y378649D01*
Y378737D01*
Y378824D01*
Y378912D01*
X383246D01*
Y378999D01*
X383421D01*
Y379087D01*
X383683D01*
Y378999D01*
D02*
G37*
G36*
X330621Y410819D02*
X330796D01*
Y410732D01*
X330971D01*
Y410644D01*
X331146D01*
Y410557D01*
X331233D01*
Y410469D01*
X331408D01*
Y410382D01*
X331670D01*
Y410294D01*
X331845D01*
Y410207D01*
X331932D01*
Y410120D01*
Y410032D01*
X332020D01*
Y409945D01*
Y409857D01*
X332107D01*
Y409770D01*
Y409683D01*
X332195D01*
Y409595D01*
Y409508D01*
Y409420D01*
X332282D01*
Y409333D01*
Y409245D01*
Y409158D01*
Y409071D01*
Y408983D01*
X332370D01*
Y408896D01*
Y408808D01*
Y408721D01*
Y408634D01*
Y408546D01*
X332457D01*
Y408459D01*
Y408371D01*
X332544D01*
Y408284D01*
Y408196D01*
Y408109D01*
X332632D01*
Y408022D01*
Y407934D01*
Y407847D01*
X332719D01*
Y407759D01*
Y407672D01*
Y407585D01*
Y407497D01*
Y407410D01*
Y407322D01*
X332807D01*
Y407235D01*
Y407148D01*
Y407060D01*
Y406973D01*
X332894D01*
Y406885D01*
Y406798D01*
X332981D01*
Y406710D01*
Y406623D01*
Y406536D01*
X333069D01*
Y406448D01*
Y406361D01*
Y406273D01*
Y406186D01*
X333156D01*
Y406099D01*
Y406011D01*
Y405924D01*
Y405836D01*
Y405749D01*
Y405661D01*
X333244D01*
Y405574D01*
Y405487D01*
Y405399D01*
Y405312D01*
X333331D01*
Y405224D01*
Y405137D01*
X333419D01*
Y405050D01*
Y404962D01*
Y404875D01*
X333506D01*
Y404787D01*
Y404700D01*
Y404612D01*
Y404525D01*
Y404438D01*
X333593D01*
Y404350D01*
Y404263D01*
Y404175D01*
Y404088D01*
Y404001D01*
Y403913D01*
X333681D01*
Y403826D01*
Y403738D01*
Y403651D01*
X333768D01*
Y403563D01*
Y403476D01*
X333856D01*
Y403389D01*
Y403301D01*
Y403214D01*
X333943D01*
Y403126D01*
Y403039D01*
Y402951D01*
Y402864D01*
Y402777D01*
Y402689D01*
X334031D01*
Y402602D01*
Y402514D01*
Y402427D01*
Y402340D01*
Y402252D01*
X334118D01*
Y402165D01*
Y402077D01*
X334205D01*
Y401990D01*
Y401902D01*
Y401815D01*
X334293D01*
Y401728D01*
Y401640D01*
Y401553D01*
X334380D01*
Y401465D01*
Y401378D01*
Y401291D01*
Y401203D01*
Y401116D01*
X334468D01*
Y401028D01*
Y400941D01*
Y400853D01*
Y400766D01*
Y400679D01*
X334555D01*
Y400591D01*
Y400504D01*
X334642D01*
Y400416D01*
Y400329D01*
X334730D01*
Y400242D01*
Y400154D01*
Y400067D01*
Y399979D01*
X334817D01*
Y399892D01*
Y399804D01*
Y399717D01*
Y399630D01*
Y399542D01*
Y399455D01*
X334905D01*
Y399367D01*
Y399280D01*
Y399193D01*
Y399105D01*
X334992D01*
Y399018D01*
Y398930D01*
X335080D01*
Y398843D01*
Y398756D01*
X335167D01*
Y398668D01*
Y398581D01*
Y398493D01*
Y398406D01*
X335254D01*
Y398318D01*
Y398231D01*
Y398144D01*
Y398056D01*
Y397969D01*
X335342D01*
Y397881D01*
Y397794D01*
Y397706D01*
X335429D01*
Y397619D01*
Y397532D01*
X335517D01*
Y397444D01*
Y397357D01*
X335604D01*
Y397269D01*
Y397182D01*
Y397094D01*
Y397007D01*
X335691D01*
Y396920D01*
Y396832D01*
Y396745D01*
Y396657D01*
X335779D01*
Y396570D01*
Y396483D01*
Y396395D01*
X335866D01*
Y396308D01*
X335954D01*
Y396220D01*
Y396133D01*
X336041D01*
Y396045D01*
Y395958D01*
Y395871D01*
Y395783D01*
Y395696D01*
X336128D01*
Y395608D01*
Y395521D01*
Y395434D01*
Y395346D01*
X336216D01*
Y395259D01*
Y395171D01*
X336303D01*
Y395084D01*
X336391D01*
Y394997D01*
Y394909D01*
X336478D01*
Y394822D01*
Y394734D01*
Y394647D01*
Y394559D01*
X336566D01*
Y394472D01*
Y394385D01*
Y394297D01*
X336653D01*
Y394210D01*
Y394122D01*
X336740D01*
Y394035D01*
Y393948D01*
X336828D01*
Y393860D01*
Y393773D01*
X336915D01*
Y393685D01*
Y393598D01*
Y393510D01*
Y393423D01*
X337003D01*
Y393336D01*
Y393248D01*
Y393161D01*
X337090D01*
Y393073D01*
Y392986D01*
X337177D01*
Y392899D01*
X337265D01*
Y392811D01*
Y392724D01*
Y392636D01*
X337352D01*
Y392549D01*
Y392461D01*
Y392374D01*
Y392287D01*
X337440D01*
Y392199D01*
Y392112D01*
Y392024D01*
X337527D01*
Y391937D01*
X337615D01*
Y391849D01*
Y391762D01*
X337702D01*
Y391675D01*
Y391587D01*
Y391500D01*
X337789D01*
Y391412D01*
Y391325D01*
Y391238D01*
X337877D01*
Y391150D01*
Y391063D01*
X337964D01*
Y390975D01*
X338052D01*
Y390888D01*
Y390800D01*
X338139D01*
Y390713D01*
Y390626D01*
Y390538D01*
X338227D01*
Y390451D01*
Y390363D01*
Y390276D01*
Y390189D01*
X338314D01*
Y390101D01*
X338401D01*
Y390014D01*
Y389926D01*
X338489D01*
Y389839D01*
X338576D01*
Y389752D01*
Y389664D01*
Y389577D01*
Y389489D01*
X338664D01*
Y389402D01*
Y389314D01*
Y389227D01*
X338751D01*
Y389140D01*
X338839D01*
Y389052D01*
Y388965D01*
X338926D01*
Y388877D01*
Y388790D01*
X339013D01*
Y388703D01*
Y388615D01*
Y388528D01*
X339101D01*
Y388440D01*
Y388353D01*
X339188D01*
Y388265D01*
Y388178D01*
X339276D01*
Y388091D01*
X339363D01*
Y388003D01*
Y387916D01*
X339450D01*
Y387828D01*
Y387741D01*
Y387653D01*
X339538D01*
Y387566D01*
Y387479D01*
X339625D01*
Y387391D01*
X339713D01*
Y387304D01*
Y387216D01*
X339800D01*
Y387129D01*
Y387042D01*
X339887D01*
Y386954D01*
Y386867D01*
Y386779D01*
X339975D01*
Y386692D01*
Y386604D01*
X340062D01*
Y386517D01*
X340150D01*
Y386430D01*
X340237D01*
Y386342D01*
Y386255D01*
Y386167D01*
X340324D01*
Y386080D01*
Y385993D01*
Y385905D01*
X340412D01*
Y385818D01*
X340499D01*
Y385730D01*
X340587D01*
Y385643D01*
Y385556D01*
X340674D01*
Y385468D01*
Y385381D01*
Y385293D01*
X340762D01*
Y385206D01*
Y385118D01*
X340849D01*
Y385031D01*
Y384944D01*
X340936D01*
Y384856D01*
X341024D01*
Y384769D01*
Y384681D01*
X341111D01*
Y384594D01*
Y384507D01*
Y384419D01*
X341199D01*
Y384332D01*
Y384244D01*
X341286D01*
Y384157D01*
X341373D01*
Y384069D01*
X341461D01*
Y383982D01*
Y383894D01*
X341548D01*
Y383807D01*
Y383720D01*
Y383632D01*
X341636D01*
Y383545D01*
Y383457D01*
X341723D01*
Y383370D01*
X341811D01*
Y383283D01*
X341898D01*
Y383195D01*
Y383108D01*
Y383020D01*
X341986D01*
Y382933D01*
Y382845D01*
Y382758D01*
X342073D01*
Y382671D01*
X342160D01*
Y382583D01*
X342248D01*
Y382496D01*
Y382408D01*
X342335D01*
Y382321D01*
Y382234D01*
X342423D01*
Y382146D01*
Y382059D01*
X342510D01*
Y381971D01*
X342597D01*
Y381884D01*
X342685D01*
Y381797D01*
Y381709D01*
X342772D01*
Y381622D01*
Y381534D01*
X342860D01*
Y381447D01*
X342947D01*
Y381359D01*
X343035D01*
Y381272D01*
X343122D01*
Y381185D01*
Y381097D01*
X343209D01*
Y381010D01*
Y380922D01*
X343297D01*
Y380835D01*
Y380748D01*
X343384D01*
Y380660D01*
X343472D01*
Y380573D01*
X343559D01*
Y380485D01*
Y380398D01*
X343646D01*
Y380310D01*
Y380223D01*
X343734D01*
Y380136D01*
X343821D01*
Y380048D01*
X343909D01*
Y379961D01*
Y379873D01*
X343996D01*
Y379786D01*
X344083D01*
Y379698D01*
Y379611D01*
X344171D01*
Y379524D01*
Y379436D01*
X344258D01*
Y379349D01*
X344346D01*
Y379261D01*
X344433D01*
Y379174D01*
Y379087D01*
X344521D01*
Y378999D01*
Y378912D01*
X344608D01*
Y378824D01*
X344695D01*
Y378737D01*
X344783D01*
Y378649D01*
X344870D01*
Y378562D01*
Y378475D01*
X344958D01*
Y378387D01*
Y378300D01*
X345045D01*
Y378212D01*
X345132D01*
Y378125D01*
X345220D01*
Y378038D01*
Y377950D01*
X345307D01*
Y377863D01*
Y377775D01*
X345395D01*
Y377688D01*
X345482D01*
Y377601D01*
X345570D01*
Y377513D01*
X345657D01*
Y377426D01*
X345744D01*
Y377338D01*
Y377251D01*
X345832D01*
Y377163D01*
X345919D01*
Y377076D01*
X346007D01*
Y376989D01*
X346094D01*
Y376901D01*
Y376814D01*
X346182D01*
Y376726D01*
X346269D01*
Y376639D01*
X346356D01*
Y376552D01*
X346444D01*
Y376464D01*
X346531D01*
Y376377D01*
X346619D01*
Y376289D01*
Y376202D01*
X346706D01*
Y376114D01*
X346881D01*
Y376027D01*
X346968D01*
Y375940D01*
Y375852D01*
X347056D01*
Y375765D01*
X347143D01*
Y375677D01*
X347318D01*
Y375590D01*
X347405D01*
Y375502D01*
X347493D01*
Y375415D01*
X347580D01*
Y375328D01*
X347668D01*
Y375240D01*
X347755D01*
Y375153D01*
X347930D01*
Y375065D01*
X348017D01*
Y374978D01*
X348105D01*
Y374891D01*
X348192D01*
Y374803D01*
X348280D01*
Y374716D01*
X348454D01*
Y374628D01*
X348542D01*
Y374541D01*
X348629D01*
Y374453D01*
X348717D01*
Y374366D01*
X348891D01*
Y374279D01*
X349066D01*
Y374191D01*
X349154D01*
Y374104D01*
Y374016D01*
X349241D01*
Y373929D01*
X349328D01*
Y373842D01*
X349940D01*
Y373754D01*
X350115D01*
Y373667D01*
X350989D01*
Y373754D01*
X351601D01*
Y373842D01*
X352476D01*
Y373929D01*
X353000D01*
Y374016D01*
X353175D01*
Y374104D01*
X353350D01*
Y374191D01*
X353612D01*
Y374279D01*
X353874D01*
Y374366D01*
X354049D01*
Y374453D01*
X354136D01*
Y374541D01*
X354224D01*
Y374628D01*
X354399D01*
Y374716D01*
X354486D01*
Y374803D01*
X354573D01*
Y374891D01*
X354661D01*
Y374978D01*
X354748D01*
Y375065D01*
X354923D01*
Y375153D01*
X355011D01*
Y375240D01*
X355098D01*
Y375328D01*
X355185D01*
Y375415D01*
X355273D01*
Y375502D01*
X355360D01*
Y375590D01*
X355448D01*
Y375677D01*
Y375765D01*
X355535D01*
Y375852D01*
X355623D01*
Y375940D01*
X355710D01*
Y376027D01*
X355797D01*
Y376114D01*
Y376202D01*
X355885D01*
Y376289D01*
X355972D01*
Y376377D01*
X356060D01*
Y376464D01*
X356147D01*
Y376552D01*
Y376639D01*
X356235D01*
Y376726D01*
Y376814D01*
X356322D01*
Y376901D01*
Y376989D01*
X356409D01*
Y377076D01*
X356497D01*
Y377163D01*
Y377251D01*
X356584D01*
Y377338D01*
Y377426D01*
X356672D01*
Y377513D01*
Y377601D01*
Y377688D01*
X356759D01*
Y377775D01*
Y377863D01*
X356846D01*
Y377950D01*
X356934D01*
Y378038D01*
Y378125D01*
X357021D01*
Y378212D01*
Y378300D01*
Y378387D01*
Y378475D01*
X357109D01*
Y378562D01*
Y378649D01*
Y378737D01*
X357196D01*
Y378824D01*
Y378912D01*
X357283D01*
Y378999D01*
Y379087D01*
X357371D01*
Y379174D01*
Y379261D01*
Y379349D01*
X357458D01*
Y379436D01*
Y379524D01*
Y379611D01*
Y379698D01*
X357546D01*
Y379786D01*
Y379873D01*
Y379961D01*
Y380048D01*
X357633D01*
Y380136D01*
Y380223D01*
X357721D01*
Y380310D01*
Y380398D01*
X357808D01*
Y380485D01*
Y380573D01*
Y380660D01*
X357895D01*
Y380748D01*
Y380835D01*
Y380922D01*
Y381010D01*
Y381097D01*
X357983D01*
Y381185D01*
Y381272D01*
Y381359D01*
Y381447D01*
X358070D01*
Y381534D01*
Y381622D01*
X358158D01*
Y381709D01*
Y381797D01*
X358245D01*
Y381884D01*
Y381971D01*
Y382059D01*
Y382146D01*
X358332D01*
Y382234D01*
Y382321D01*
Y382408D01*
Y382496D01*
Y382583D01*
Y382671D01*
X358420D01*
Y382758D01*
Y382845D01*
Y382933D01*
Y383020D01*
Y383108D01*
Y383195D01*
Y383283D01*
X358507D01*
Y383370D01*
Y383457D01*
Y383545D01*
Y383632D01*
Y383720D01*
X358595D01*
Y383807D01*
Y383894D01*
Y383982D01*
Y384069D01*
Y384157D01*
Y384244D01*
X358682D01*
Y384332D01*
Y384419D01*
Y384507D01*
Y384594D01*
Y384681D01*
Y384769D01*
Y384856D01*
Y384944D01*
Y385031D01*
Y385118D01*
X358769D01*
Y385206D01*
Y385293D01*
Y385381D01*
Y385468D01*
Y385556D01*
Y385643D01*
Y385730D01*
Y385818D01*
Y385905D01*
Y385993D01*
Y386080D01*
Y386167D01*
Y386255D01*
Y386342D01*
X358857D01*
Y386430D01*
Y386517D01*
Y386604D01*
Y386692D01*
Y386779D01*
Y386867D01*
Y386954D01*
Y387042D01*
Y387129D01*
Y387216D01*
Y387304D01*
Y387391D01*
Y387479D01*
Y387566D01*
Y387653D01*
Y387741D01*
X358944D01*
Y387828D01*
Y387916D01*
Y388003D01*
Y388091D01*
Y388178D01*
Y388265D01*
Y388353D01*
Y388440D01*
X358857D01*
Y388528D01*
Y388615D01*
Y388703D01*
Y388790D01*
Y388877D01*
Y388965D01*
Y389052D01*
Y389140D01*
Y389227D01*
Y389314D01*
Y389402D01*
Y389489D01*
Y389577D01*
X358769D01*
Y389664D01*
Y389752D01*
Y389839D01*
Y389926D01*
Y390014D01*
Y390101D01*
Y390189D01*
Y390276D01*
Y390363D01*
Y390451D01*
Y390538D01*
Y390626D01*
Y390713D01*
X358682D01*
Y390800D01*
Y390888D01*
Y390975D01*
Y391063D01*
Y391150D01*
Y391238D01*
Y391325D01*
Y391412D01*
X358595D01*
Y391500D01*
Y391587D01*
Y391675D01*
Y391762D01*
X358507D01*
Y391849D01*
Y391937D01*
Y392024D01*
Y392112D01*
X358420D01*
Y392199D01*
Y392287D01*
Y392374D01*
Y392461D01*
X358332D01*
Y392549D01*
Y392636D01*
Y392724D01*
Y392811D01*
Y392899D01*
Y392986D01*
Y393073D01*
X358245D01*
Y393161D01*
Y393248D01*
Y393336D01*
Y393423D01*
X358158D01*
Y393510D01*
Y393598D01*
Y393685D01*
X358070D01*
Y393773D01*
Y393860D01*
X357983D01*
Y393948D01*
Y394035D01*
Y394122D01*
Y394210D01*
X357895D01*
Y394297D01*
Y394385D01*
Y394472D01*
Y394559D01*
Y394647D01*
Y394734D01*
X357808D01*
Y394822D01*
Y394909D01*
X357721D01*
Y394997D01*
Y395084D01*
X357633D01*
Y395171D01*
Y395259D01*
X357546D01*
Y395346D01*
Y395434D01*
Y395521D01*
Y395608D01*
X357458D01*
Y395696D01*
Y395783D01*
Y395871D01*
Y395958D01*
X357371D01*
Y396045D01*
Y396133D01*
X357283D01*
Y396220D01*
Y396308D01*
X357196D01*
Y396395D01*
Y396483D01*
X357109D01*
Y396570D01*
Y396657D01*
Y396745D01*
X357021D01*
Y396832D01*
Y396920D01*
Y397007D01*
Y397094D01*
X356934D01*
Y397182D01*
X356846D01*
Y397269D01*
X356759D01*
Y397357D01*
Y397444D01*
X356672D01*
Y397532D01*
Y397619D01*
Y397706D01*
Y397794D01*
X356584D01*
Y397881D01*
Y397969D01*
X356497D01*
Y398056D01*
Y398144D01*
X356409D01*
Y398231D01*
X356322D01*
Y398318D01*
Y398406D01*
X356235D01*
Y398493D01*
Y398581D01*
Y398668D01*
X356147D01*
Y398756D01*
Y398843D01*
X356060D01*
Y398930D01*
X355972D01*
Y399018D01*
Y399105D01*
X355885D01*
Y399193D01*
Y399280D01*
X355797D01*
Y399367D01*
Y399455D01*
X355710D01*
Y399542D01*
Y399630D01*
X355623D01*
Y399717D01*
X355535D01*
Y399804D01*
X355448D01*
Y399892D01*
Y399979D01*
X355360D01*
Y400067D01*
Y400154D01*
Y400242D01*
X355273D01*
Y400329D01*
X355185D01*
Y400416D01*
X355098D01*
Y400504D01*
Y400591D01*
X355011D01*
Y400679D01*
X354923D01*
Y400766D01*
Y400853D01*
Y400941D01*
X354836D01*
Y401028D01*
X354748D01*
Y401116D01*
X354661D01*
Y401203D01*
X354573D01*
Y401291D01*
Y401378D01*
X354486D01*
Y401465D01*
Y401553D01*
X354399D01*
Y401640D01*
X354311D01*
Y401728D01*
X354224D01*
Y401815D01*
X354136D01*
Y401902D01*
Y401990D01*
X354049D01*
Y402077D01*
Y402165D01*
X353962D01*
Y402252D01*
X353874D01*
Y402340D01*
X353787D01*
Y402427D01*
X353699D01*
Y402514D01*
Y402602D01*
X353612D01*
Y402689D01*
X353524D01*
Y402777D01*
X353437D01*
Y402864D01*
X353350D01*
Y402951D01*
X353262D01*
Y403039D01*
Y403126D01*
X353175D01*
Y403214D01*
X353087D01*
Y403301D01*
X353000D01*
Y403389D01*
X352913D01*
Y403476D01*
X352825D01*
Y403563D01*
X352738D01*
Y403651D01*
X352650D01*
Y403738D01*
X352563D01*
Y403826D01*
X352476D01*
Y403913D01*
Y404001D01*
X352388D01*
Y404088D01*
X352301D01*
Y404175D01*
X352213D01*
Y404263D01*
X352126D01*
Y404350D01*
X352038D01*
Y404438D01*
X351951D01*
Y404525D01*
X351864D01*
Y404612D01*
X351776D01*
Y404700D01*
X351689D01*
Y404787D01*
X351601D01*
Y404875D01*
X351514D01*
Y404962D01*
X351427D01*
Y405050D01*
X351339D01*
Y405137D01*
X351252D01*
Y405224D01*
X351164D01*
Y405312D01*
X350989D01*
Y405399D01*
X350902D01*
Y405487D01*
X350815D01*
Y405574D01*
X350727D01*
Y405661D01*
X350640D01*
Y405749D01*
X350552D01*
Y405836D01*
X350465D01*
Y405924D01*
X350377D01*
Y406011D01*
X350290D01*
Y406099D01*
X350115D01*
Y406186D01*
X350028D01*
Y406273D01*
X349940D01*
Y406361D01*
X349853D01*
Y406448D01*
X349766D01*
Y406536D01*
X349591D01*
Y406623D01*
X349503D01*
Y406710D01*
X349416D01*
Y406798D01*
X349328D01*
Y406885D01*
X349154D01*
Y406973D01*
X349066D01*
Y407060D01*
X348891D01*
Y407148D01*
X348804D01*
Y407235D01*
Y407322D01*
X348629D01*
Y407410D01*
X348454D01*
Y407497D01*
X348367D01*
Y407585D01*
X348280D01*
Y407672D01*
X348192D01*
Y407759D01*
X348105D01*
Y407847D01*
X347842D01*
Y407934D01*
X347755D01*
Y408022D01*
X347668D01*
Y408109D01*
Y408196D01*
X347493D01*
Y408284D01*
X347231D01*
Y408371D01*
X347143D01*
Y408459D01*
X347056D01*
Y408546D01*
Y408634D01*
X346968D01*
Y408721D01*
X346706D01*
Y408808D01*
X346531D01*
Y408896D01*
Y408983D01*
Y409071D01*
X346881D01*
Y408983D01*
X346968D01*
Y408896D01*
X347056D01*
Y408808D01*
X347143D01*
Y408721D01*
X347493D01*
Y408634D01*
X347668D01*
Y408546D01*
X347755D01*
Y408459D01*
X347842D01*
Y408371D01*
X347930D01*
Y408284D01*
X348192D01*
Y408196D01*
X348280D01*
Y408109D01*
X348367D01*
Y408022D01*
X348454D01*
Y407934D01*
X348629D01*
Y407847D01*
X348804D01*
Y407759D01*
X348891D01*
Y407672D01*
X348979D01*
Y407585D01*
X349154D01*
Y407497D01*
X349328D01*
Y407410D01*
X349416D01*
Y407322D01*
X349503D01*
Y407235D01*
X349591D01*
Y407148D01*
X349766D01*
Y407060D01*
X349940D01*
Y406973D01*
X350028D01*
Y406885D01*
X350115D01*
Y406798D01*
X350203D01*
Y406710D01*
X350377D01*
Y406623D01*
X350465D01*
Y406536D01*
X350552D01*
Y406448D01*
X350640D01*
Y406361D01*
X350727D01*
Y406273D01*
X350902D01*
Y406186D01*
X350989D01*
Y406099D01*
X351077D01*
Y406011D01*
X351164D01*
Y405924D01*
X351339D01*
Y405836D01*
X351427D01*
Y405749D01*
X351514D01*
Y405661D01*
X351689D01*
Y405574D01*
X351776D01*
Y405487D01*
X351864D01*
Y405399D01*
X351951D01*
Y405312D01*
X352038D01*
Y405224D01*
X352213D01*
Y405137D01*
X352301D01*
Y405050D01*
X352388D01*
Y404962D01*
X352476D01*
Y404875D01*
X352563D01*
Y404787D01*
X352650D01*
Y404700D01*
X352738D01*
Y404612D01*
X352825D01*
Y404525D01*
X352913D01*
Y404438D01*
X353087D01*
Y404350D01*
X353175D01*
Y404263D01*
Y404175D01*
X353262D01*
Y404088D01*
X353350D01*
Y404001D01*
X353524D01*
Y403913D01*
X353612D01*
Y403826D01*
Y403738D01*
X353699D01*
Y403651D01*
X353787D01*
Y403563D01*
X353962D01*
Y403476D01*
Y403389D01*
X354049D01*
Y403301D01*
X354136D01*
Y403214D01*
X354224D01*
Y403126D01*
X354311D01*
Y403039D01*
X354399D01*
Y402951D01*
X354486D01*
Y402864D01*
Y402777D01*
X354573D01*
Y402689D01*
X354661D01*
Y402602D01*
X354748D01*
Y402514D01*
X354836D01*
Y402427D01*
X354923D01*
Y402340D01*
Y402252D01*
X355011D01*
Y402165D01*
X355098D01*
Y402077D01*
X355185D01*
Y401990D01*
X355273D01*
Y401902D01*
X355360D01*
Y401815D01*
Y401728D01*
X355448D01*
Y401640D01*
X355535D01*
Y401553D01*
X355623D01*
Y401465D01*
X355710D01*
Y401378D01*
X355797D01*
Y401291D01*
Y401203D01*
X355885D01*
Y401116D01*
Y401028D01*
X355972D01*
Y400941D01*
X356060D01*
Y400853D01*
X356147D01*
Y400766D01*
Y400679D01*
X356235D01*
Y400591D01*
Y400504D01*
X356322D01*
Y400416D01*
X356409D01*
Y400329D01*
X356497D01*
Y400242D01*
X356584D01*
Y400154D01*
Y400067D01*
X356672D01*
Y399979D01*
Y399892D01*
X356759D01*
Y399804D01*
X356846D01*
Y399717D01*
Y399630D01*
X356934D01*
Y399542D01*
X357021D01*
Y399455D01*
Y399367D01*
X357109D01*
Y399280D01*
Y399193D01*
X357196D01*
Y399105D01*
Y399018D01*
X357283D01*
Y398930D01*
X357371D01*
Y398843D01*
X357458D01*
Y398756D01*
Y398668D01*
Y398581D01*
X357546D01*
Y398493D01*
Y398406D01*
X357633D01*
Y398318D01*
X357721D01*
Y398231D01*
Y398144D01*
X357808D01*
Y398056D01*
X357895D01*
Y397969D01*
Y397881D01*
Y397794D01*
Y397706D01*
X357983D01*
Y397619D01*
Y397532D01*
X358070D01*
Y397444D01*
X358158D01*
Y397357D01*
X358245D01*
Y397269D01*
Y397182D01*
Y397094D01*
X358332D01*
Y397007D01*
Y396920D01*
Y396832D01*
X358420D01*
Y396745D01*
Y396657D01*
X358507D01*
Y396570D01*
X358595D01*
Y396483D01*
Y396395D01*
X358682D01*
Y396308D01*
Y396220D01*
Y396133D01*
X358769D01*
Y396045D01*
Y395958D01*
Y395871D01*
Y395783D01*
X358857D01*
Y395696D01*
Y395608D01*
X358944D01*
Y395521D01*
X359032D01*
Y395434D01*
Y395346D01*
X359119D01*
Y395259D01*
Y395171D01*
Y395084D01*
Y394997D01*
X359207D01*
Y394909D01*
Y394822D01*
Y394734D01*
Y394647D01*
X359294D01*
Y394559D01*
Y394472D01*
X359382D01*
Y394385D01*
Y394297D01*
X359469D01*
Y394210D01*
Y394122D01*
Y394035D01*
X359556D01*
Y393948D01*
Y393860D01*
Y393773D01*
Y393685D01*
Y393598D01*
X359644D01*
Y393510D01*
Y393423D01*
Y393336D01*
Y393248D01*
X359731D01*
Y393161D01*
Y393073D01*
Y392986D01*
X359819D01*
Y392899D01*
Y392811D01*
X359906D01*
Y392724D01*
Y392636D01*
Y392549D01*
Y392461D01*
X359993D01*
Y392374D01*
Y392287D01*
Y392199D01*
Y392112D01*
Y392024D01*
Y391937D01*
Y391849D01*
X360081D01*
Y391762D01*
Y391675D01*
Y391587D01*
Y391500D01*
X360168D01*
Y391412D01*
Y391325D01*
Y391238D01*
Y391150D01*
X360256D01*
Y391063D01*
Y390975D01*
Y390888D01*
Y390800D01*
X360343D01*
Y390713D01*
Y390626D01*
Y390538D01*
Y390451D01*
Y390363D01*
Y390276D01*
X360431D01*
Y390189D01*
Y390101D01*
Y390014D01*
Y389926D01*
Y389839D01*
Y389752D01*
Y389664D01*
Y389577D01*
Y389489D01*
Y389402D01*
Y389314D01*
Y389227D01*
X360518D01*
Y389140D01*
Y389052D01*
Y388965D01*
Y388877D01*
Y388790D01*
Y388703D01*
Y388615D01*
Y388528D01*
Y388440D01*
Y388353D01*
Y388265D01*
X360605D01*
Y388178D01*
Y388091D01*
Y388003D01*
Y387916D01*
Y387828D01*
Y387741D01*
Y387653D01*
Y387566D01*
Y387479D01*
Y387391D01*
Y387304D01*
Y387216D01*
Y387129D01*
Y387042D01*
Y386954D01*
Y386867D01*
Y386779D01*
Y386692D01*
Y386604D01*
Y386517D01*
Y386430D01*
Y386342D01*
Y386255D01*
Y386167D01*
Y386080D01*
Y385993D01*
Y385905D01*
Y385818D01*
Y385730D01*
Y385643D01*
X360518D01*
Y385556D01*
Y385468D01*
Y385381D01*
Y385293D01*
Y385206D01*
Y385118D01*
Y385031D01*
Y384944D01*
Y384856D01*
X360431D01*
Y384769D01*
Y384681D01*
Y384594D01*
Y384507D01*
Y384419D01*
Y384332D01*
Y384244D01*
Y384157D01*
Y384069D01*
Y383982D01*
Y383894D01*
Y383807D01*
Y383720D01*
Y383632D01*
X360343D01*
Y383545D01*
Y383457D01*
Y383370D01*
Y383283D01*
Y383195D01*
Y383108D01*
Y383020D01*
Y382933D01*
X360256D01*
Y382845D01*
Y382758D01*
Y382671D01*
Y382583D01*
Y382496D01*
Y382408D01*
X360168D01*
Y382321D01*
Y382234D01*
Y382146D01*
Y382059D01*
Y381971D01*
X360081D01*
Y381884D01*
Y381797D01*
Y381709D01*
Y381622D01*
Y381534D01*
Y381447D01*
X359993D01*
Y381359D01*
Y381272D01*
Y381185D01*
Y381097D01*
Y381010D01*
Y380922D01*
X359906D01*
Y380835D01*
Y380748D01*
Y380660D01*
X359819D01*
Y380573D01*
Y380485D01*
X359731D01*
Y380398D01*
Y380310D01*
X359644D01*
Y380223D01*
Y380136D01*
Y380048D01*
Y379961D01*
X359556D01*
Y379873D01*
Y379786D01*
Y379698D01*
Y379611D01*
Y379524D01*
X359469D01*
Y379436D01*
Y379349D01*
Y379261D01*
X359382D01*
Y379174D01*
Y379087D01*
X359294D01*
Y378999D01*
Y378912D01*
X359207D01*
Y378824D01*
Y378737D01*
Y378649D01*
Y378562D01*
X359119D01*
Y378475D01*
Y378387D01*
Y378300D01*
Y378212D01*
Y378125D01*
X359032D01*
Y378038D01*
Y377950D01*
X358944D01*
Y377863D01*
X358857D01*
Y377775D01*
Y377688D01*
X358769D01*
Y377601D01*
Y377513D01*
Y377426D01*
Y377338D01*
Y377251D01*
X358682D01*
Y377163D01*
Y377076D01*
Y376989D01*
X358595D01*
Y376901D01*
X358507D01*
Y376814D01*
Y376726D01*
X358420D01*
Y376639D01*
Y376552D01*
X358332D01*
Y376464D01*
Y376377D01*
Y376289D01*
X358245D01*
Y376202D01*
Y376114D01*
X358158D01*
Y376027D01*
X358070D01*
Y375940D01*
Y375852D01*
X357983D01*
Y375765D01*
X357895D01*
Y375677D01*
Y375590D01*
Y375502D01*
X357808D01*
Y375415D01*
X357721D01*
Y375328D01*
Y375240D01*
X357633D01*
Y375153D01*
X357546D01*
Y375065D01*
X357458D01*
Y374978D01*
Y374891D01*
X357371D01*
Y374803D01*
X357283D01*
Y374716D01*
X357196D01*
Y374628D01*
X357109D01*
Y374541D01*
Y374453D01*
X357021D01*
Y374366D01*
X356934D01*
Y374279D01*
X356846D01*
Y374191D01*
X356759D01*
Y374104D01*
X356672D01*
Y374016D01*
X356584D01*
Y373929D01*
X356497D01*
Y373842D01*
X356322D01*
Y373754D01*
X356235D01*
Y373667D01*
X356147D01*
Y373579D01*
X356060D01*
Y373492D01*
X355972D01*
Y373405D01*
X355797D01*
Y373317D01*
X355710D01*
Y373230D01*
X355623D01*
Y373142D01*
X355448D01*
Y373055D01*
X355273D01*
Y372967D01*
X355011D01*
Y372880D01*
X354923D01*
Y372793D01*
X354748D01*
Y372705D01*
X354573D01*
Y372618D01*
X353962D01*
Y372530D01*
X352476D01*
Y372618D01*
X351864D01*
Y372705D01*
X351514D01*
Y372793D01*
X351339D01*
Y372880D01*
X351077D01*
Y372967D01*
X350727D01*
Y373055D01*
X350377D01*
Y373142D01*
X350203D01*
Y373230D01*
X350115D01*
Y373317D01*
X350028D01*
Y373405D01*
X349853D01*
Y373492D01*
X349416D01*
Y373579D01*
X349241D01*
Y373667D01*
Y373754D01*
X349154D01*
Y373842D01*
X348717D01*
Y373929D01*
X348629D01*
Y374016D01*
X348542D01*
Y374104D01*
X348454D01*
Y374191D01*
X348280D01*
Y374279D01*
X348017D01*
Y374366D01*
X347930D01*
Y374453D01*
X347842D01*
Y374541D01*
X347755D01*
Y374628D01*
X347580D01*
Y374716D01*
X347493D01*
Y374803D01*
X347318D01*
Y374891D01*
X347231D01*
Y374978D01*
X347143D01*
Y375065D01*
X346968D01*
Y375153D01*
X346881D01*
Y375240D01*
X346793D01*
Y375328D01*
X346706D01*
Y375415D01*
X346531D01*
Y375502D01*
X346444D01*
Y375590D01*
X346356D01*
Y375677D01*
X346269D01*
Y375765D01*
X346182D01*
Y375852D01*
X346094D01*
Y375940D01*
X346007D01*
Y376027D01*
X345832D01*
Y376114D01*
X345744D01*
Y376202D01*
Y376289D01*
X345570D01*
Y376377D01*
X345482D01*
Y376464D01*
X345395D01*
Y376552D01*
X345307D01*
Y376639D01*
Y376726D01*
X345132D01*
Y376814D01*
X345045D01*
Y376901D01*
X344958D01*
Y376989D01*
X344870D01*
Y377076D01*
Y377163D01*
X344783D01*
Y377251D01*
X344608D01*
Y377338D01*
X344521D01*
Y377426D01*
Y377513D01*
X344433D01*
Y377601D01*
X344346D01*
Y377688D01*
X344258D01*
Y377775D01*
X344171D01*
Y377863D01*
X344083D01*
Y377950D01*
Y378038D01*
X343996D01*
Y378125D01*
X343909D01*
Y378212D01*
X343821D01*
Y378300D01*
X343734D01*
Y378387D01*
Y378475D01*
X343646D01*
Y378562D01*
Y378649D01*
X343559D01*
Y378737D01*
X343472D01*
Y378824D01*
X343384D01*
Y378912D01*
X343297D01*
Y378999D01*
X343209D01*
Y379087D01*
Y379174D01*
X343122D01*
Y379261D01*
Y379349D01*
X343035D01*
Y379436D01*
X342947D01*
Y379524D01*
X342860D01*
Y379611D01*
X342772D01*
Y379698D01*
Y379786D01*
Y379873D01*
X342685D01*
Y379961D01*
X342597D01*
Y380048D01*
X342510D01*
Y380136D01*
X342423D01*
Y380223D01*
Y380310D01*
X342335D01*
Y380398D01*
Y380485D01*
X342248D01*
Y380573D01*
X342160D01*
Y380660D01*
X342073D01*
Y380748D01*
Y380835D01*
X341986D01*
Y380922D01*
Y381010D01*
X341898D01*
Y381097D01*
Y381185D01*
X341811D01*
Y381272D01*
X341723D01*
Y381359D01*
X341636D01*
Y381447D01*
Y381534D01*
X341548D01*
Y381622D01*
Y381709D01*
X341461D01*
Y381797D01*
Y381884D01*
X341373D01*
Y381971D01*
X341286D01*
Y382059D01*
X341199D01*
Y382146D01*
Y382234D01*
X341111D01*
Y382321D01*
Y382408D01*
X341024D01*
Y382496D01*
Y382583D01*
X340936D01*
Y382671D01*
X340849D01*
Y382758D01*
X340762D01*
Y382845D01*
X340674D01*
Y382933D01*
Y383020D01*
Y383108D01*
X340587D01*
Y383195D01*
X340499D01*
Y383283D01*
Y383370D01*
X340412D01*
Y383457D01*
X340324D01*
Y383545D01*
Y383632D01*
X340237D01*
Y383720D01*
Y383807D01*
Y383894D01*
X340150D01*
Y383982D01*
Y384069D01*
X340062D01*
Y384157D01*
X339975D01*
Y384244D01*
X339887D01*
Y384332D01*
Y384419D01*
Y384507D01*
X339800D01*
Y384594D01*
Y384681D01*
Y384769D01*
X339713D01*
Y384856D01*
X339625D01*
Y384944D01*
X339538D01*
Y385031D01*
Y385118D01*
X339450D01*
Y385206D01*
Y385293D01*
Y385381D01*
X339363D01*
Y385468D01*
Y385556D01*
X339276D01*
Y385643D01*
X339188D01*
Y385730D01*
X339101D01*
Y385818D01*
Y385905D01*
X339013D01*
Y385993D01*
Y386080D01*
Y386167D01*
X338926D01*
Y386255D01*
Y386342D01*
X338839D01*
Y386430D01*
X338751D01*
Y386517D01*
Y386604D01*
X338664D01*
Y386692D01*
Y386779D01*
X338576D01*
Y386867D01*
Y386954D01*
Y387042D01*
X338489D01*
Y387129D01*
Y387216D01*
X338401D01*
Y387304D01*
X338314D01*
Y387391D01*
Y387479D01*
X338227D01*
Y387566D01*
Y387653D01*
X338139D01*
Y387741D01*
Y387828D01*
Y387916D01*
X338052D01*
Y388003D01*
Y388091D01*
X337964D01*
Y388178D01*
X337877D01*
Y388265D01*
X337789D01*
Y388353D01*
Y388440D01*
Y388528D01*
X337702D01*
Y388615D01*
Y388703D01*
Y388790D01*
X337615D01*
Y388877D01*
X337527D01*
Y388965D01*
X337440D01*
Y389052D01*
Y389140D01*
X337352D01*
Y389227D01*
Y389314D01*
Y389402D01*
X337265D01*
Y389489D01*
Y389577D01*
Y389664D01*
X337177D01*
Y389752D01*
X337090D01*
Y389839D01*
Y389926D01*
X337003D01*
Y390014D01*
Y390101D01*
X336915D01*
Y390189D01*
Y390276D01*
Y390363D01*
Y390451D01*
X336828D01*
Y390538D01*
Y390626D01*
X336740D01*
Y390713D01*
Y390800D01*
X336653D01*
Y390888D01*
X336566D01*
Y390975D01*
Y391063D01*
Y391150D01*
X336478D01*
Y391238D01*
Y391325D01*
Y391412D01*
X336391D01*
Y391500D01*
Y391587D01*
X336303D01*
Y391675D01*
Y391762D01*
X336216D01*
Y391849D01*
X336128D01*
Y391937D01*
Y392024D01*
Y392112D01*
X336041D01*
Y392199D01*
Y392287D01*
Y392374D01*
Y392461D01*
X335954D01*
Y392549D01*
X335866D01*
Y392636D01*
Y392724D01*
X335779D01*
Y392811D01*
Y392899D01*
X335691D01*
Y392986D01*
Y393073D01*
Y393161D01*
X335604D01*
Y393248D01*
Y393336D01*
Y393423D01*
Y393510D01*
X335517D01*
Y393598D01*
Y393685D01*
X335429D01*
Y393773D01*
X335342D01*
Y393860D01*
Y393948D01*
X335254D01*
Y394035D01*
Y394122D01*
Y394210D01*
Y394297D01*
Y394385D01*
X335167D01*
Y394472D01*
Y394559D01*
X335080D01*
Y394647D01*
Y394734D01*
X334992D01*
Y394822D01*
Y394909D01*
X334905D01*
Y394997D01*
Y395084D01*
X334817D01*
Y395171D01*
Y395259D01*
Y395346D01*
Y395434D01*
X334730D01*
Y395521D01*
Y395608D01*
Y395696D01*
X334642D01*
Y395783D01*
Y395871D01*
X334555D01*
Y395958D01*
X334468D01*
Y396045D01*
Y396133D01*
Y396220D01*
X334380D01*
Y396308D01*
Y396395D01*
Y396483D01*
Y396570D01*
Y396657D01*
X334293D01*
Y396745D01*
Y396832D01*
X334205D01*
Y396920D01*
Y397007D01*
X334118D01*
Y397094D01*
Y397182D01*
X334031D01*
Y397269D01*
Y397357D01*
Y397444D01*
Y397532D01*
X333943D01*
Y397619D01*
Y397706D01*
Y397794D01*
Y397881D01*
X333856D01*
Y397969D01*
Y398056D01*
Y398144D01*
X333768D01*
Y398231D01*
X333681D01*
Y398318D01*
Y398406D01*
Y398493D01*
X333593D01*
Y398581D01*
Y398668D01*
Y398756D01*
Y398843D01*
Y398930D01*
X333506D01*
Y399018D01*
Y399105D01*
Y399193D01*
Y399280D01*
X333419D01*
Y399367D01*
Y399455D01*
X333331D01*
Y399542D01*
Y399630D01*
X333244D01*
Y399717D01*
Y399804D01*
Y399892D01*
X333156D01*
Y399979D01*
Y400067D01*
Y400154D01*
Y400242D01*
Y400329D01*
X333069D01*
Y400416D01*
Y400504D01*
Y400591D01*
Y400679D01*
Y400766D01*
X332981D01*
Y400853D01*
Y400941D01*
X332894D01*
Y401028D01*
Y401116D01*
X332807D01*
Y401203D01*
Y401291D01*
Y401378D01*
Y401465D01*
X332719D01*
Y401553D01*
Y401640D01*
Y401728D01*
Y401815D01*
Y401902D01*
Y401990D01*
X332632D01*
Y402077D01*
Y402165D01*
Y402252D01*
X332544D01*
Y402340D01*
Y402427D01*
X332457D01*
Y402514D01*
Y402602D01*
Y402689D01*
X332370D01*
Y402777D01*
Y402864D01*
Y402951D01*
Y403039D01*
X332282D01*
Y403126D01*
Y403214D01*
Y403301D01*
Y403389D01*
Y403476D01*
X332195D01*
Y403563D01*
Y403651D01*
Y403738D01*
Y403826D01*
X332107D01*
Y403913D01*
Y404001D01*
X332020D01*
Y404088D01*
Y404175D01*
Y404263D01*
X331932D01*
Y404350D01*
Y404438D01*
Y404525D01*
Y404612D01*
X331845D01*
Y404700D01*
Y404787D01*
Y404875D01*
Y404962D01*
Y405050D01*
Y405137D01*
X331758D01*
Y405224D01*
Y405312D01*
Y405399D01*
X331670D01*
Y405487D01*
Y405574D01*
Y405661D01*
X331583D01*
Y405749D01*
Y405836D01*
X331495D01*
Y405924D01*
Y406011D01*
Y406099D01*
Y406186D01*
Y406273D01*
Y406361D01*
X331408D01*
Y406448D01*
Y406536D01*
Y406623D01*
Y406710D01*
Y406798D01*
X331321D01*
Y406885D01*
Y406973D01*
Y407060D01*
X331233D01*
Y407148D01*
Y407235D01*
X331146D01*
Y407322D01*
Y407410D01*
Y407497D01*
X331058D01*
Y407585D01*
Y407672D01*
Y407759D01*
Y407847D01*
Y407934D01*
Y408022D01*
X330971D01*
Y408109D01*
Y408196D01*
Y408284D01*
X330884D01*
Y408371D01*
Y408459D01*
Y408546D01*
X330796D01*
Y408634D01*
Y408721D01*
X330709D01*
Y408808D01*
Y408896D01*
Y408983D01*
Y409071D01*
X330621D01*
Y409158D01*
Y409245D01*
Y409333D01*
Y409420D01*
Y409508D01*
X330534D01*
Y409595D01*
Y409683D01*
Y409770D01*
Y409857D01*
X330446D01*
Y409945D01*
Y410032D01*
X330359D01*
Y410120D01*
Y410207D01*
X330272D01*
Y410294D01*
Y410382D01*
Y410469D01*
Y410557D01*
X330184D01*
Y410644D01*
X330272D01*
Y410732D01*
Y410819D01*
Y410906D01*
X330621D01*
Y410819D01*
D02*
G37*
G36*
X277646Y387129D02*
X277821D01*
Y387042D01*
X277909D01*
Y386954D01*
X278084D01*
Y386867D01*
X278433D01*
Y386779D01*
X278608D01*
Y386692D01*
X278696D01*
Y386604D01*
X278870D01*
Y386517D01*
X278958D01*
Y386430D01*
X279045D01*
Y386342D01*
X279133D01*
Y386255D01*
Y386167D01*
X279220D01*
Y386080D01*
X279307D01*
Y385993D01*
Y385905D01*
X279395D01*
Y385818D01*
Y385730D01*
Y385643D01*
X279482D01*
Y385556D01*
Y385468D01*
Y385381D01*
X279570D01*
Y385293D01*
Y385206D01*
X279657D01*
Y385118D01*
X279745D01*
Y385031D01*
Y384944D01*
Y384856D01*
X279832D01*
Y384769D01*
Y384681D01*
Y384594D01*
Y384507D01*
X279919D01*
Y384419D01*
Y384332D01*
Y384244D01*
X280007D01*
Y384157D01*
Y384069D01*
X280094D01*
Y383982D01*
Y383894D01*
X280182D01*
Y383807D01*
Y383720D01*
Y383632D01*
X280269D01*
Y383545D01*
Y383457D01*
Y383370D01*
Y383283D01*
Y383195D01*
X280356D01*
Y383108D01*
Y383020D01*
Y382933D01*
Y382845D01*
X280444D01*
Y382758D01*
Y382671D01*
X280531D01*
Y382583D01*
Y382496D01*
X280619D01*
Y382408D01*
Y382321D01*
Y382234D01*
Y382146D01*
X280706D01*
Y382059D01*
Y381971D01*
Y381884D01*
Y381797D01*
Y381709D01*
Y381622D01*
X280793D01*
Y381534D01*
Y381447D01*
Y381359D01*
Y381272D01*
X280881D01*
Y381185D01*
Y381097D01*
Y381010D01*
X280968D01*
Y380922D01*
Y380835D01*
Y380748D01*
X281056D01*
Y380660D01*
Y380573D01*
Y380485D01*
Y380398D01*
Y380310D01*
X281143D01*
Y380223D01*
Y380136D01*
Y380048D01*
Y379961D01*
Y379873D01*
Y379786D01*
Y379698D01*
X281231D01*
Y379611D01*
Y379524D01*
Y379436D01*
X281318D01*
Y379349D01*
Y379261D01*
Y379174D01*
X281405D01*
Y379087D01*
Y378999D01*
Y378912D01*
Y378824D01*
X281493D01*
Y378737D01*
Y378649D01*
Y378562D01*
Y378475D01*
Y378387D01*
Y378300D01*
Y378212D01*
Y378125D01*
X281580D01*
Y378038D01*
Y377950D01*
Y377863D01*
Y377775D01*
Y377688D01*
Y377601D01*
X281668D01*
Y377513D01*
Y377426D01*
Y377338D01*
X281755D01*
Y377251D01*
Y377163D01*
Y377076D01*
X281842D01*
Y376989D01*
Y376901D01*
Y376814D01*
X281930D01*
Y376726D01*
Y376639D01*
Y376552D01*
Y376464D01*
Y376377D01*
X282017D01*
Y376289D01*
Y376202D01*
Y376114D01*
Y376027D01*
X282105D01*
Y375940D01*
Y375852D01*
Y375765D01*
X282192D01*
Y375677D01*
Y375590D01*
X282280D01*
Y375502D01*
Y375415D01*
Y375328D01*
X282367D01*
Y375240D01*
Y375153D01*
Y375065D01*
Y374978D01*
Y374891D01*
X282454D01*
Y374803D01*
Y374716D01*
Y374628D01*
X282542D01*
Y374541D01*
X282629D01*
Y374453D01*
Y374366D01*
X282717D01*
Y374279D01*
Y374191D01*
Y374104D01*
X282804D01*
Y374016D01*
Y373929D01*
Y373842D01*
Y373754D01*
Y373667D01*
X282892D01*
Y373579D01*
Y373492D01*
X282979D01*
Y373405D01*
Y373317D01*
X283066D01*
Y373230D01*
Y373142D01*
X283154D01*
Y373055D01*
Y372967D01*
X283241D01*
Y372880D01*
Y372793D01*
Y372705D01*
Y372618D01*
X283329D01*
Y372530D01*
X283416D01*
Y372443D01*
Y372356D01*
X283503D01*
Y372268D01*
X283591D01*
Y372181D01*
Y372093D01*
Y372006D01*
X283678D01*
Y371918D01*
Y371831D01*
Y371744D01*
X283766D01*
Y371656D01*
Y371569D01*
X283853D01*
Y371481D01*
X283941D01*
Y371394D01*
Y371306D01*
X284028D01*
Y371219D01*
Y371132D01*
Y371044D01*
X284115D01*
Y370957D01*
Y370869D01*
X284203D01*
Y370782D01*
X284290D01*
Y370694D01*
X284378D01*
Y370607D01*
Y370520D01*
X284465D01*
Y370432D01*
Y370345D01*
X284552D01*
Y370257D01*
Y370170D01*
X284640D01*
Y370083D01*
X284727D01*
Y369995D01*
X284815D01*
Y369908D01*
Y369820D01*
X284902D01*
Y369733D01*
Y369646D01*
X284990D01*
Y369558D01*
X285077D01*
Y369471D01*
X285164D01*
Y369383D01*
X285252D01*
Y369296D01*
Y369209D01*
X285339D01*
Y369121D01*
Y369034D01*
X285427D01*
Y368946D01*
X285514D01*
Y368859D01*
X285601D01*
Y368771D01*
X285689D01*
Y368684D01*
Y368597D01*
X285776D01*
Y368509D01*
X285864D01*
Y368422D01*
X285951D01*
Y368334D01*
X286038D01*
Y368247D01*
X286126D01*
Y368160D01*
Y368072D01*
X286213D01*
Y367985D01*
X286301D01*
Y367897D01*
X286388D01*
Y367810D01*
X286476D01*
Y367722D01*
Y367635D01*
X286563D01*
Y367547D01*
Y367460D01*
X286650D01*
Y367373D01*
X286738D01*
Y367285D01*
X286825D01*
Y367198D01*
X286913D01*
Y367110D01*
X287000D01*
Y367023D01*
Y366936D01*
X287087D01*
Y366848D01*
X287175D01*
Y366761D01*
X287262D01*
Y366673D01*
X287350D01*
Y366586D01*
X287437D01*
Y366498D01*
X287525D01*
Y366411D01*
X287612D01*
Y366324D01*
X287699D01*
Y366236D01*
X287787D01*
Y366149D01*
X287874D01*
Y366061D01*
Y365974D01*
X287962D01*
Y365887D01*
X288137D01*
Y365799D01*
Y365712D01*
X288224D01*
Y365624D01*
X288311D01*
Y365537D01*
X288399D01*
Y365450D01*
X288486D01*
Y365362D01*
X288574D01*
Y365275D01*
X288661D01*
Y365187D01*
X288748D01*
Y365100D01*
X288836D01*
Y365012D01*
X288923D01*
Y364925D01*
X289011D01*
Y364838D01*
X289098D01*
Y364750D01*
X289186D01*
Y364663D01*
X289273D01*
Y364575D01*
X289360D01*
Y364488D01*
X289448D01*
Y364401D01*
X289535D01*
Y364313D01*
X289623D01*
Y364226D01*
X289710D01*
Y364138D01*
X289797D01*
Y364051D01*
X289885D01*
Y363963D01*
X289972D01*
Y363876D01*
X290060D01*
Y363789D01*
X290147D01*
Y363701D01*
X290234D01*
Y363614D01*
X290322D01*
Y363526D01*
X290409D01*
Y363439D01*
X290497D01*
Y363351D01*
X290584D01*
Y363264D01*
X290672D01*
Y363177D01*
X290759D01*
Y363089D01*
X290846D01*
Y363002D01*
X290934D01*
Y362914D01*
X291021D01*
Y362827D01*
X291109D01*
Y362740D01*
X291196D01*
Y362652D01*
X291371D01*
Y362565D01*
X291458D01*
Y362477D01*
X291546D01*
Y362390D01*
X291633D01*
Y362302D01*
X291721D01*
Y362215D01*
X291808D01*
Y362128D01*
X291983D01*
Y362040D01*
X292070D01*
Y361953D01*
X292158D01*
Y361865D01*
X292245D01*
Y361778D01*
X292333D01*
Y361691D01*
X292420D01*
Y361603D01*
X292507D01*
Y361516D01*
X292595D01*
Y361428D01*
X292770D01*
Y361341D01*
X292857D01*
Y361253D01*
X292945D01*
Y361166D01*
X293032D01*
Y361079D01*
X293119D01*
Y360991D01*
X293294D01*
Y360904D01*
X293382D01*
Y360816D01*
X293556D01*
Y360729D01*
X293644D01*
Y360642D01*
X293731D01*
Y360554D01*
X293819D01*
Y360467D01*
X293993D01*
Y360379D01*
X294081D01*
Y360292D01*
X294168D01*
Y360205D01*
X294256D01*
Y360117D01*
X294431D01*
Y360030D01*
X294518D01*
Y359942D01*
X294605D01*
Y359855D01*
X294693D01*
Y359767D01*
X294868D01*
Y359680D01*
X295042D01*
Y359593D01*
X295130D01*
Y359505D01*
X295305D01*
Y359418D01*
X295392D01*
Y359330D01*
X295480D01*
Y359243D01*
X295654D01*
Y359156D01*
X295742D01*
Y359068D01*
X295829D01*
Y358981D01*
X295917D01*
Y358893D01*
X296004D01*
Y358806D01*
X296266D01*
Y358718D01*
X296441D01*
Y358631D01*
Y358544D01*
X296529D01*
Y358456D01*
Y358369D01*
X295917D01*
Y358456D01*
X295742D01*
Y358544D01*
X295654D01*
Y358631D01*
X295567D01*
Y358718D01*
X295305D01*
Y358806D01*
X295217D01*
Y358893D01*
X295130D01*
Y358981D01*
X295042D01*
Y359068D01*
X294868D01*
Y359156D01*
X294693D01*
Y359243D01*
X294605D01*
Y359330D01*
X294518D01*
Y359418D01*
X294431D01*
Y359505D01*
X294343D01*
Y359593D01*
X294081D01*
Y359680D01*
X293993D01*
Y359767D01*
X293906D01*
Y359855D01*
X293819D01*
Y359942D01*
X293644D01*
Y360030D01*
X293556D01*
Y360117D01*
X293469D01*
Y360205D01*
X293382D01*
Y360292D01*
X293207D01*
Y360379D01*
X293119D01*
Y360467D01*
X292945D01*
Y360554D01*
X292857D01*
Y360642D01*
X292770D01*
Y360729D01*
X292682D01*
Y360816D01*
X292507D01*
Y360904D01*
X292420D01*
Y360991D01*
X292333D01*
Y361079D01*
X292245D01*
Y361166D01*
X292070D01*
Y361253D01*
X291983D01*
Y361341D01*
X291808D01*
Y361428D01*
X291721D01*
Y361516D01*
X291633D01*
Y361603D01*
X291546D01*
Y361691D01*
X291371D01*
Y361778D01*
X291283D01*
Y361865D01*
X291196D01*
Y361953D01*
X291109D01*
Y362040D01*
X291021D01*
Y362128D01*
X290934D01*
Y362215D01*
X290759D01*
Y362302D01*
X290672D01*
Y362390D01*
X290584D01*
Y362477D01*
X290497D01*
Y362565D01*
X290409D01*
Y362652D01*
X290322D01*
Y362740D01*
X290234D01*
Y362827D01*
X290147D01*
Y362914D01*
X290060D01*
Y363002D01*
X289885D01*
Y363089D01*
X289797D01*
Y363177D01*
X289710D01*
Y363264D01*
X289623D01*
Y363351D01*
X289535D01*
Y363439D01*
X289360D01*
Y363526D01*
X289273D01*
Y363614D01*
X289186D01*
Y363701D01*
X289098D01*
Y363789D01*
X289011D01*
Y363876D01*
X288923D01*
Y363963D01*
X288836D01*
Y364051D01*
X288748D01*
Y364138D01*
X288661D01*
Y364226D01*
X288574D01*
Y364313D01*
X288486D01*
Y364401D01*
X288399D01*
Y364488D01*
X288311D01*
Y364575D01*
X288224D01*
Y364663D01*
X288137D01*
Y364750D01*
X288049D01*
Y364838D01*
X287962D01*
Y364925D01*
X287874D01*
Y365012D01*
X287787D01*
Y365100D01*
X287699D01*
Y365187D01*
X287612D01*
Y365275D01*
X287525D01*
Y365362D01*
X287437D01*
Y365450D01*
X287350D01*
Y365537D01*
X287262D01*
Y365624D01*
X287175D01*
Y365712D01*
X287087D01*
Y365799D01*
X287000D01*
Y365887D01*
X286913D01*
Y365974D01*
X286825D01*
Y366061D01*
X286738D01*
Y366149D01*
X286650D01*
Y366236D01*
X286563D01*
Y366324D01*
Y366411D01*
X286476D01*
Y366498D01*
X286388D01*
Y366586D01*
X286301D01*
Y366673D01*
X286213D01*
Y366761D01*
X286126D01*
Y366848D01*
X286038D01*
Y366936D01*
X285951D01*
Y367023D01*
X285864D01*
Y367110D01*
X285776D01*
Y367198D01*
Y367285D01*
X285689D01*
Y367373D01*
X285601D01*
Y367460D01*
X285514D01*
Y367547D01*
X285427D01*
Y367635D01*
X285339D01*
Y367722D01*
X285252D01*
Y367810D01*
Y367897D01*
X285164D01*
Y367985D01*
X284990D01*
Y368072D01*
X284902D01*
Y368160D01*
Y368247D01*
X284815D01*
Y368334D01*
X284727D01*
Y368422D01*
X284640D01*
Y368509D01*
X284552D01*
Y368597D01*
Y368684D01*
X284465D01*
Y368771D01*
Y368859D01*
X284378D01*
Y368946D01*
X284290D01*
Y369034D01*
X284203D01*
Y369121D01*
X284115D01*
Y369209D01*
Y369296D01*
X284028D01*
Y369383D01*
X283941D01*
Y369471D01*
Y369558D01*
X283853D01*
Y369646D01*
X283766D01*
Y369733D01*
X283678D01*
Y369820D01*
X283591D01*
Y369908D01*
Y369995D01*
X283503D01*
Y370083D01*
X283416D01*
Y370170D01*
X283329D01*
Y370257D01*
X283241D01*
Y370345D01*
Y370432D01*
X283154D01*
Y370520D01*
Y370607D01*
X283066D01*
Y370694D01*
X282979D01*
Y370782D01*
X282892D01*
Y370869D01*
X282804D01*
Y370957D01*
Y371044D01*
Y371132D01*
X282717D01*
Y371219D01*
X282629D01*
Y371306D01*
X282542D01*
Y371394D01*
Y371481D01*
X282454D01*
Y371569D01*
X282367D01*
Y371656D01*
Y371744D01*
Y371831D01*
X282280D01*
Y371918D01*
Y372006D01*
X282192D01*
Y372093D01*
X282105D01*
Y372181D01*
X282017D01*
Y372268D01*
Y372356D01*
Y372443D01*
X281930D01*
Y372530D01*
Y372618D01*
Y372705D01*
X281842D01*
Y372793D01*
Y372880D01*
X281755D01*
Y372967D01*
X281668D01*
Y373055D01*
Y373142D01*
X281580D01*
Y373230D01*
Y373317D01*
X281493D01*
Y373405D01*
Y373492D01*
Y373579D01*
X281405D01*
Y373667D01*
Y373754D01*
X281318D01*
Y373842D01*
Y373929D01*
X281231D01*
Y374016D01*
X281143D01*
Y374104D01*
Y374191D01*
Y374279D01*
Y374366D01*
X281056D01*
Y374453D01*
Y374541D01*
Y374628D01*
Y374716D01*
X280968D01*
Y374803D01*
Y374891D01*
X280881D01*
Y374978D01*
X280793D01*
Y375065D01*
Y375153D01*
Y375240D01*
X280706D01*
Y375328D01*
Y375415D01*
Y375502D01*
Y375590D01*
X280619D01*
Y375677D01*
Y375765D01*
Y375852D01*
X280531D01*
Y375940D01*
Y376027D01*
X280444D01*
Y376114D01*
Y376202D01*
X280356D01*
Y376289D01*
Y376377D01*
Y376464D01*
Y376552D01*
X280269D01*
Y376639D01*
Y376726D01*
Y376814D01*
Y376901D01*
Y376989D01*
Y377076D01*
X280182D01*
Y377163D01*
Y377251D01*
Y377338D01*
X280094D01*
Y377426D01*
Y377513D01*
X280007D01*
Y377601D01*
Y377688D01*
Y377775D01*
X279919D01*
Y377863D01*
Y377950D01*
Y378038D01*
Y378125D01*
X279832D01*
Y378212D01*
Y378300D01*
Y378387D01*
Y378475D01*
Y378562D01*
Y378649D01*
Y378737D01*
X279745D01*
Y378824D01*
Y378912D01*
Y378999D01*
Y379087D01*
X279657D01*
Y379174D01*
Y379261D01*
Y379349D01*
X279570D01*
Y379436D01*
Y379524D01*
Y379611D01*
Y379698D01*
X279482D01*
Y379786D01*
Y379873D01*
Y379961D01*
Y380048D01*
Y380136D01*
Y380223D01*
X279395D01*
Y380310D01*
Y380398D01*
Y380485D01*
Y380573D01*
Y380660D01*
Y380748D01*
Y380835D01*
X279307D01*
Y380922D01*
Y381010D01*
Y381097D01*
X279220D01*
Y381185D01*
Y381272D01*
Y381359D01*
X279133D01*
Y381447D01*
Y381534D01*
Y381622D01*
X279045D01*
Y381709D01*
Y381797D01*
Y381884D01*
Y381971D01*
Y382059D01*
Y382146D01*
Y382234D01*
X278958D01*
Y382321D01*
Y382408D01*
Y382496D01*
Y382583D01*
Y382671D01*
X278870D01*
Y382758D01*
Y382845D01*
Y382933D01*
X278783D01*
Y383020D01*
Y383108D01*
X278696D01*
Y383195D01*
Y383283D01*
Y383370D01*
X278608D01*
Y383457D01*
Y383545D01*
Y383632D01*
Y383720D01*
Y383807D01*
X278521D01*
Y383894D01*
Y383982D01*
Y384069D01*
X278433D01*
Y384157D01*
Y384244D01*
X278346D01*
Y384332D01*
Y384419D01*
X278258D01*
Y384507D01*
Y384594D01*
Y384681D01*
Y384769D01*
X278171D01*
Y384856D01*
Y384944D01*
Y385031D01*
Y385118D01*
Y385206D01*
X278084D01*
Y385293D01*
Y385381D01*
X277996D01*
Y385468D01*
Y385556D01*
X277909D01*
Y385643D01*
Y385730D01*
X277821D01*
Y385818D01*
Y385905D01*
Y385993D01*
X277734D01*
Y386080D01*
Y386167D01*
Y386255D01*
X277646D01*
Y386342D01*
Y386430D01*
X277559D01*
Y386517D01*
X277472D01*
Y386604D01*
Y386692D01*
X277384D01*
Y386779D01*
Y386867D01*
X277297D01*
Y386954D01*
Y387042D01*
Y387129D01*
X277384D01*
Y387216D01*
X277646D01*
Y387129D01*
D02*
G37*
G36*
X426256Y335116D02*
X426343D01*
Y335028D01*
X426430D01*
Y334941D01*
X427042D01*
Y334854D01*
X427392D01*
Y334766D01*
X427567D01*
Y334679D01*
X427829D01*
Y334591D01*
X428179D01*
Y334504D01*
X429490D01*
Y334416D01*
X431763D01*
Y334329D01*
X431938D01*
Y334242D01*
X432025D01*
Y334154D01*
X432200D01*
Y334067D01*
X432287D01*
Y333979D01*
X432462D01*
Y333892D01*
X432550D01*
Y333804D01*
X432637D01*
Y333717D01*
X432724D01*
Y333630D01*
X432899D01*
Y333542D01*
X432987D01*
Y333455D01*
X433074D01*
Y333367D01*
X433161D01*
Y333280D01*
Y333193D01*
X429577D01*
Y333280D01*
Y333367D01*
X429403D01*
Y333455D01*
X429228D01*
Y333542D01*
X428878D01*
Y333630D01*
X428441D01*
Y333717D01*
X428266D01*
Y333804D01*
X428179D01*
Y333892D01*
X428004D01*
Y333979D01*
X427742D01*
Y334067D01*
X427479D01*
Y334154D01*
X427392D01*
Y334242D01*
X427305D01*
Y334329D01*
X427130D01*
Y334416D01*
X426693D01*
Y334504D01*
X426605D01*
Y334591D01*
X426518D01*
Y334679D01*
X426430D01*
Y334766D01*
Y334854D01*
X426256D01*
Y334941D01*
X425731D01*
Y335028D01*
X425644D01*
Y335116D01*
X425731D01*
Y335203D01*
X426256D01*
Y335116D01*
D02*
G37*
%LPC*%
G36*
X334555Y379087D02*
X334205D01*
Y378999D01*
X333943D01*
Y378912D01*
X333681D01*
Y378824D01*
X333593D01*
Y378737D01*
X333506D01*
Y378649D01*
Y378562D01*
X333419D01*
Y378475D01*
Y378387D01*
Y378300D01*
Y378212D01*
X333506D01*
Y378125D01*
X333768D01*
Y378038D01*
X333943D01*
Y377950D01*
X334031D01*
Y377863D01*
X334118D01*
Y377775D01*
Y377688D01*
X334555D01*
Y377601D01*
X334817D01*
Y377513D01*
X334905D01*
Y377426D01*
X334992D01*
Y377338D01*
X335167D01*
Y377251D01*
X335604D01*
Y377163D01*
X335779D01*
Y377076D01*
X335954D01*
Y376989D01*
X336391D01*
Y377076D01*
Y377163D01*
X336478D01*
Y377251D01*
Y377338D01*
Y377426D01*
Y377513D01*
X336391D01*
Y377601D01*
X336303D01*
Y377688D01*
Y377775D01*
X336216D01*
Y377863D01*
X336128D01*
Y377950D01*
X336041D01*
Y378038D01*
X335954D01*
Y378125D01*
X335866D01*
Y378212D01*
X335779D01*
Y378300D01*
X335691D01*
Y378387D01*
Y378475D01*
X335604D01*
Y378562D01*
X335517D01*
Y378649D01*
Y378737D01*
X335429D01*
Y378824D01*
X335254D01*
Y378912D01*
X334817D01*
Y378999D01*
X334555D01*
Y379087D01*
D02*
G37*
%LPD*%
M02*
