G04*
G04 #@! TF.GenerationSoftware,Altium Limited,Altium Designer,21.1.1 (26)*
G04*
G04 Layer_Color=65535*
%FSLAX25Y25*%
%MOIN*%
G70*
G04*
G04 #@! TF.SameCoordinates,D135156B-8277-4391-89A8-FDCD94A43821*
G04*
G04*
G04 #@! TF.FilePolarity,Positive*
G04*
G01*
G75*
%ADD10C,0.00787*%
%ADD11C,0.00394*%
%ADD12C,0.01000*%
%ADD13C,0.00984*%
%ADD14C,0.02362*%
%ADD15C,0.00591*%
%ADD16C,0.02000*%
G36*
X380650Y183110D02*
X380650Y183110D01*
X377500D01*
Y184291D01*
X379468Y186260D01*
X380256D01*
X380650Y183110D01*
D02*
G37*
D10*
X220807Y213425D02*
Y213819D01*
Y213425D01*
Y213819D01*
X285575Y389843D02*
X284831Y390272D01*
Y389413D01*
X285575Y389843D01*
X220807Y398465D02*
Y398858D01*
Y398465D01*
Y398858D01*
X380650Y186260D02*
X379676Y186106D01*
X378798Y185658D01*
X378101Y184961D01*
X377654Y184083D01*
X377500Y183110D01*
X427303Y396161D02*
Y420650D01*
Y396161D02*
X453799D01*
Y420650D01*
X453445D02*
X453799D01*
X427303D02*
X427658D01*
X462563Y363740D02*
X484563D01*
X462563Y323740D02*
Y363740D01*
Y323740D02*
X484563D01*
X482563Y327740D02*
X484563D01*
X482563D02*
Y359740D01*
X484563D01*
Y323740D02*
Y363740D01*
X503150Y289370D02*
X507480D01*
Y260236D02*
Y289370D01*
X503150Y260236D02*
X507480D01*
X503150D02*
Y289370D01*
X500394Y260236D02*
X503150D01*
X490945D02*
X492913D01*
X485433Y266535D02*
Y267717D01*
Y281890D02*
Y283071D01*
X490945Y289370D02*
X492913D01*
X500394D02*
X503150D01*
X307716Y289803D02*
X311850D01*
X306339Y290000D02*
Y301417D01*
X304567D02*
X306339D01*
X304567Y290000D02*
Y301417D01*
Y290000D02*
X306339D01*
X278366Y413114D02*
X318366D01*
Y444153D01*
X278366Y413114D02*
Y444153D01*
X353091Y327992D02*
X379862D01*
Y257520D02*
Y327992D01*
X353091Y257520D02*
X379862D01*
X353091D02*
Y327992D01*
X344429Y327913D02*
X351713D01*
X268209Y181197D02*
X287209D01*
X268209Y179197D02*
Y181197D01*
X238209Y179197D02*
Y181197D01*
X213209Y179197D02*
X293209D01*
X287209D02*
Y181197D01*
X219209D02*
X238209D01*
X219209Y179197D02*
Y181197D01*
X213209Y179197D02*
Y201197D01*
X293209D01*
Y179197D02*
Y201197D01*
X337874Y204272D02*
Y204626D01*
Y178130D02*
Y178484D01*
X313386Y178130D02*
X337874D01*
X313386D02*
Y204626D01*
X337874D01*
X380650Y183110D02*
Y202795D01*
X371988Y183110D02*
Y202795D01*
Y183110D02*
X380650D01*
X371988Y202795D02*
X380650D01*
X421496Y288524D02*
X440394D01*
X421496Y329862D02*
X440394D01*
Y288524D02*
Y329862D01*
X421496Y288524D02*
Y329862D01*
X360177Y214213D02*
X372776D01*
X360177D02*
Y233504D01*
X372776D01*
Y214213D02*
Y233504D01*
X374153Y213701D02*
X380157D01*
X331831Y340197D02*
Y352402D01*
X283012Y340197D02*
X331831D01*
X283012D02*
Y352402D01*
X331831Y376811D02*
Y389016D01*
X283012Y376811D02*
Y389016D01*
X331831D01*
X267854Y266142D02*
X273957D01*
X266476Y266870D02*
Y300925D01*
X253878D02*
X266476D01*
X253878Y266870D02*
Y300925D01*
Y266870D02*
X266476D01*
X248957Y319331D02*
X263524D01*
X248957D02*
Y339016D01*
X263524D01*
Y319331D02*
Y339016D01*
X264902Y317953D02*
X270709D01*
D11*
X334980Y425630D02*
X334717Y426614D01*
X333996Y427335D01*
X333012Y427598D01*
X332028Y427335D01*
X331307Y426614D01*
X331043Y425630D01*
X331307Y424646D01*
X332028Y423925D01*
X333012Y423661D01*
X333996Y423925D01*
X334717Y424646D01*
X334980Y425630D01*
X250335Y374449D02*
X250071Y375433D01*
X249350Y376154D01*
X248366Y376417D01*
X247382Y376154D01*
X246661Y375433D01*
X246398Y374449D01*
X246661Y373465D01*
X247382Y372744D01*
X248366Y372480D01*
X249350Y372744D01*
X250071Y373465D01*
X250335Y374449D01*
X264114Y421693D02*
X263850Y422677D01*
X263130Y423398D01*
X262146Y423661D01*
X261161Y423398D01*
X260441Y422677D01*
X260177Y421693D01*
X260441Y420709D01*
X261161Y419988D01*
X262146Y419724D01*
X263130Y419988D01*
X263850Y420709D01*
X264114Y421693D01*
X205847Y215984D02*
Y243543D01*
X234587D01*
Y215984D02*
Y243543D01*
X205847Y215984D02*
X234587D01*
X411358Y175236D02*
X476713D01*
X476713Y255945D02*
X476713Y175236D01*
X411358Y255945D02*
X411358Y175236D01*
X411358Y255945D02*
X476713D01*
X331043Y425630D02*
X334980D01*
X333012Y423661D02*
Y427598D01*
X205847Y401024D02*
X234587D01*
Y428583D01*
X205847D02*
X234587D01*
X205847Y401024D02*
Y428583D01*
X248366Y372480D02*
Y376417D01*
X246398Y374449D02*
X250335D01*
X260177Y421693D02*
X264114D01*
X262146Y419724D02*
Y423661D01*
D12*
X374350Y419724D02*
X374331Y420723D01*
X374272Y421720D01*
X374175Y422714D01*
X374039Y423703D01*
X373865Y424686D01*
X373652Y425662D01*
X373401Y426629D01*
X373113Y427585D01*
X372788Y428529D01*
X372426Y429460D01*
X372028Y430376D01*
X371595Y431276D01*
X371127Y432158D01*
X370625Y433021D01*
X370090Y433864D01*
X369522Y434685D01*
X368922Y435484D01*
X368292Y436259D01*
X367632Y437008D01*
X366943Y437731D01*
X366227Y438427D01*
X365484Y439094D01*
X364715Y439732D01*
X363923Y440339D01*
X363107Y440915D01*
X362269Y441459D01*
X361411Y441969D01*
X360533Y442446D01*
X359638Y442888D01*
X358726Y443295D01*
X357799Y443666D01*
X356857Y444000D01*
X355904Y444298D01*
X354940Y444558D01*
X353966Y444780D01*
X352985Y444964D01*
X351997Y445109D01*
X351004Y445216D01*
X350008Y445285D01*
X349009Y445314D01*
X348011Y445304D01*
X347013Y445255D01*
X346019Y445168D01*
X345028Y445041D01*
X344043Y444876D01*
X343065Y444673D01*
X342096Y444432D01*
X341137Y444153D01*
X340190Y443837D01*
X339256Y443485D01*
X338336Y443096D01*
X337432Y442671D01*
X336545Y442212D01*
X335677Y441718D01*
X334829Y441191D01*
X334002Y440631D01*
X333198Y440039D01*
X332417Y439417D01*
X331661Y438764D01*
X330931Y438083D01*
X330229Y437373D01*
X329554Y436636D01*
X328909Y435874D01*
X328294Y435087D01*
X327710Y434277D01*
X327158Y433445D01*
X326640Y432592D01*
X326154Y431719D01*
X325704Y430828D01*
X325288Y429920D01*
X324908Y428996D01*
X324564Y428058D01*
X324258Y427108D01*
X323988Y426147D01*
X323757Y425175D01*
X323563Y424195D01*
X323408Y423209D01*
X323291Y422217D01*
X323213Y421222D01*
X323174Y420224D01*
Y419225D01*
X323213Y418227D01*
X323291Y417232D01*
X323408Y416240D01*
X323563Y415253D01*
X323757Y414274D01*
X323988Y413302D01*
X324258Y412341D01*
X324564Y411390D01*
X324908Y410453D01*
X325288Y409529D01*
X325704Y408621D01*
X326154Y407730D01*
X326640Y406857D01*
X327158Y406004D01*
X327710Y405172D01*
X328294Y404361D01*
X328909Y403575D01*
X329554Y402812D01*
X330229Y402076D01*
X330931Y401366D01*
X331661Y400685D01*
X332417Y400032D01*
X333198Y399409D01*
X334002Y398818D01*
X334829Y398258D01*
X335677Y397731D01*
X336545Y397237D01*
X337432Y396778D01*
X338336Y396353D01*
X339256Y395964D01*
X340190Y395612D01*
X341137Y395295D01*
X342096Y395017D01*
X343065Y394776D01*
X344043Y394572D01*
X345028Y394407D01*
X346019Y394281D01*
X347013Y394194D01*
X348011Y394145D01*
X349009Y394135D01*
X350008Y394164D01*
X351004Y394232D01*
X351997Y394339D01*
X352985Y394485D01*
X353966Y394669D01*
X354940Y394891D01*
X355904Y395151D01*
X356857Y395449D01*
X357798Y395783D01*
X358726Y396154D01*
X359638Y396561D01*
X360533Y397003D01*
X361411Y397480D01*
X362269Y397990D01*
X363107Y398534D01*
X363922Y399110D01*
X364715Y399717D01*
X365484Y400355D01*
X366227Y401022D01*
X366943Y401718D01*
X367632Y402441D01*
X368292Y403190D01*
X368922Y403965D01*
X369521Y404764D01*
X370089Y405585D01*
X370625Y406428D01*
X371127Y407291D01*
X371595Y408173D01*
X372028Y409073D01*
X372426Y409989D01*
X372788Y410920D01*
X373113Y411864D01*
X373401Y412820D01*
X373652Y413787D01*
X373865Y414762D01*
X374039Y415746D01*
X374175Y416735D01*
X374272Y417729D01*
X374331Y418726D01*
X374350Y419724D01*
X271988Y368543D02*
X271956Y369542D01*
X271862Y370537D01*
X271704Y371524D01*
X271483Y372498D01*
X271202Y373457D01*
X270860Y374396D01*
X270460Y375312D01*
X270002Y376200D01*
X269488Y377057D01*
X268922Y377880D01*
X268304Y378666D01*
X267637Y379411D01*
X266925Y380112D01*
X266170Y380766D01*
X265375Y381371D01*
X264543Y381925D01*
X263678Y382424D01*
X262782Y382868D01*
X261860Y383254D01*
X260916Y383581D01*
X259953Y383847D01*
X258975Y384052D01*
X257986Y384194D01*
X256990Y384274D01*
X255990Y384289D01*
X254992Y384242D01*
X253999Y384131D01*
X253015Y383958D01*
X252044Y383722D01*
X251090Y383425D01*
X250156Y383069D01*
X249247Y382653D01*
X248366Y382182D01*
X247517Y381655D01*
X246703Y381075D01*
X245927Y380445D01*
X245193Y379767D01*
X244504Y379044D01*
X243861Y378278D01*
X243269Y377473D01*
X242729Y376633D01*
X242243Y375760D01*
X241813Y374857D01*
X241442Y373929D01*
X241130Y372980D01*
X240879Y372013D01*
X240690Y371031D01*
X240563Y370040D01*
X240500Y369043D01*
Y368044D01*
X240563Y367046D01*
X240690Y366055D01*
X240879Y365074D01*
X241130Y364107D01*
X241442Y363157D01*
X241813Y362229D01*
X242243Y361327D01*
X242729Y360454D01*
X243269Y359613D01*
X243861Y358808D01*
X244504Y358043D01*
X245193Y357320D01*
X245927Y356642D01*
X246703Y356012D01*
X247517Y355432D01*
X248366Y354905D01*
X249247Y354433D01*
X250156Y354018D01*
X251090Y353661D01*
X252044Y353365D01*
X253015Y353129D01*
X253999Y352956D01*
X254992Y352845D01*
X255990Y352797D01*
X256990Y352813D01*
X257986Y352892D01*
X258975Y353034D01*
X259953Y353239D01*
X260916Y353505D01*
X261860Y353832D01*
X262782Y354218D01*
X263678Y354662D01*
X264543Y355162D01*
X265375Y355715D01*
X266170Y356321D01*
X266925Y356975D01*
X267637Y357676D01*
X268304Y358421D01*
X268921Y359206D01*
X269488Y360029D01*
X270002Y360887D01*
X270459Y361775D01*
X270860Y362690D01*
X271202Y363629D01*
X271483Y364588D01*
X271704Y365563D01*
X271862Y366550D01*
X271956Y367544D01*
X271988Y368543D01*
X307480Y224803D02*
X307414Y225800D01*
X307214Y226779D01*
X306887Y227723D01*
X306436Y228615D01*
X305871Y229439D01*
X305200Y230180D01*
X304437Y230825D01*
X303595Y231363D01*
X302689Y231784D01*
X301734Y232080D01*
X300749Y232246D01*
X299750Y232279D01*
X298756Y232179D01*
X297784Y231948D01*
X296851Y231589D01*
X295975Y231108D01*
X295170Y230516D01*
X294452Y229821D01*
X293833Y229037D01*
X293324Y228177D01*
X292934Y227257D01*
X292670Y226293D01*
X292536Y225303D01*
Y224304D01*
X292670Y223313D01*
X292934Y222349D01*
X293324Y221429D01*
X293833Y220570D01*
X294452Y219785D01*
X295170Y219091D01*
X295975Y218498D01*
X296851Y218018D01*
X297784Y217659D01*
X298756Y217427D01*
X299750Y217327D01*
X300749Y217360D01*
X301734Y217527D01*
X302689Y217823D01*
X303595Y218243D01*
X304437Y218781D01*
X305200Y219426D01*
X305871Y220167D01*
X306436Y220991D01*
X306887Y221883D01*
X307214Y222827D01*
X307414Y223806D01*
X307480Y224803D01*
X496850Y449606D02*
X496784Y450603D01*
X496585Y451583D01*
X496257Y452527D01*
X495806Y453418D01*
X495241Y454242D01*
X494570Y454983D01*
X493807Y455628D01*
X492965Y456166D01*
X492059Y456587D01*
X491104Y456883D01*
X490119Y457049D01*
X489120Y457082D01*
X488126Y456982D01*
X487154Y456751D01*
X486221Y456392D01*
X485345Y455911D01*
X484541Y455319D01*
X483822Y454624D01*
X483203Y453840D01*
X482694Y452980D01*
X482304Y452060D01*
X482040Y451096D01*
X481907Y450106D01*
Y449107D01*
X482040Y448116D01*
X482304Y447153D01*
X482694Y446233D01*
X483203Y445373D01*
X483822Y444589D01*
X484541Y443894D01*
X485345Y443301D01*
X486221Y442821D01*
X487154Y442462D01*
X488126Y442230D01*
X489120Y442130D01*
X490119Y442164D01*
X491104Y442330D01*
X492059Y442626D01*
X492965Y443047D01*
X493807Y443584D01*
X494570Y444229D01*
X495241Y444970D01*
X495806Y445794D01*
X496257Y446686D01*
X496585Y447630D01*
X496784Y448609D01*
X496850Y449606D01*
X215018D02*
X214951Y450603D01*
X214752Y451583D01*
X214424Y452527D01*
X213973Y453418D01*
X213408Y454242D01*
X212738Y454983D01*
X211975Y455628D01*
X211132Y456166D01*
X210226Y456587D01*
X209272Y456883D01*
X208286Y457049D01*
X207288Y457082D01*
X206293Y456982D01*
X205321Y456751D01*
X204389Y456392D01*
X203512Y455911D01*
X202708Y455319D01*
X201990Y454624D01*
X201370Y453840D01*
X200861Y452980D01*
X200471Y452060D01*
X200207Y451096D01*
X200074Y450106D01*
Y449107D01*
X200207Y448116D01*
X200471Y447153D01*
X200861Y446233D01*
X201370Y445373D01*
X201990Y444589D01*
X202708Y443894D01*
X203513Y443301D01*
X204389Y442821D01*
X205321Y442462D01*
X206293Y442230D01*
X207288Y442130D01*
X208286Y442164D01*
X209272Y442330D01*
X210226Y442626D01*
X211132Y443047D01*
X211975Y443584D01*
X212738Y444229D01*
X213408Y444970D01*
X213973Y445794D01*
X214424Y446686D01*
X214752Y447630D01*
X214951Y448609D01*
X215018Y449606D01*
X496850Y183071D02*
X496784Y184068D01*
X496585Y185047D01*
X496257Y185991D01*
X495806Y186883D01*
X495241Y187707D01*
X494570Y188448D01*
X493807Y189093D01*
X492965Y189631D01*
X492059Y190051D01*
X491104Y190347D01*
X490119Y190514D01*
X489120Y190547D01*
X488126Y190447D01*
X487154Y190215D01*
X486221Y189856D01*
X485345Y189376D01*
X484541Y188783D01*
X483822Y188089D01*
X483203Y187304D01*
X482694Y186445D01*
X482304Y185525D01*
X482040Y184561D01*
X481907Y183571D01*
Y182571D01*
X482040Y181581D01*
X482304Y180617D01*
X482694Y179697D01*
X483203Y178837D01*
X483822Y178053D01*
X484541Y177358D01*
X485345Y176766D01*
X486221Y176286D01*
X487154Y175926D01*
X488126Y175695D01*
X489120Y175595D01*
X490119Y175628D01*
X491104Y175794D01*
X492059Y176090D01*
X492965Y176511D01*
X493807Y177049D01*
X494570Y177694D01*
X495241Y178435D01*
X495806Y179259D01*
X496257Y180151D01*
X496585Y181095D01*
X496784Y182074D01*
X496850Y183071D01*
X329621Y372679D02*
X329261Y373607D01*
X328863Y374519D01*
X328426Y375413D01*
X327952Y376289D01*
X327442Y377143D01*
X326896Y377976D01*
X326315Y378784D01*
X325701Y379568D01*
X325055Y380324D01*
X324377Y381053D01*
X323669Y381753D01*
X322933Y382422D01*
X322168Y383060D01*
X321378Y383664D01*
X320563Y384236D01*
X319724Y384772D01*
X318864Y385272D01*
X317983Y385736D01*
X317083Y386162D01*
X316167Y386550D01*
X315234Y386899D01*
X314288Y387208D01*
X313330Y387477D01*
X312362Y387706D01*
X311384Y387894D01*
X310400Y388040D01*
X309410Y388144D01*
X308416Y388207D01*
X307421Y388228D01*
X306426Y388207D01*
X305433Y388144D01*
X304443Y388040D01*
X303458Y387894D01*
X302481Y387706D01*
X301512Y387477D01*
X300554Y387208D01*
X299608Y386899D01*
X298676Y386550D01*
X297759Y386162D01*
X296860Y385736D01*
X295979Y385272D01*
X295119Y384772D01*
X294280Y384236D01*
X293465Y383664D01*
X292674Y383060D01*
X291910Y382422D01*
X291173Y381753D01*
X290465Y381053D01*
X289788Y380324D01*
X289141Y379568D01*
X288527Y378784D01*
X287947Y377976D01*
X287401Y377143D01*
X286890Y376289D01*
X286416Y375413D01*
X285980Y374519D01*
X285581Y373607D01*
X285221Y372679D01*
X285221Y356534D02*
X285581Y355606D01*
X285980Y354694D01*
X286416Y353799D01*
X286890Y352924D01*
X287401Y352069D01*
X287947Y351237D01*
X288527Y350429D01*
X289141Y349645D01*
X289788Y348888D01*
X290465Y348160D01*
X291173Y347460D01*
X291910Y346791D01*
X292674Y346153D01*
X293465Y345548D01*
X294280Y344977D01*
X295118Y344441D01*
X295979Y343940D01*
X296860Y343477D01*
X297759Y343051D01*
X298676Y342663D01*
X299608Y342314D01*
X300554Y342004D01*
X301512Y341735D01*
X302481Y341507D01*
X303458Y341319D01*
X304443Y341173D01*
X305433Y341068D01*
X306426Y341005D01*
X307421Y340984D01*
X308416Y341005D01*
X309410Y341068D01*
X310399Y341173D01*
X311384Y341319D01*
X312361Y341507D01*
X313330Y341735D01*
X314288Y342004D01*
X315234Y342314D01*
X316167Y342663D01*
X317083Y343051D01*
X317983Y343477D01*
X318863Y343940D01*
X319724Y344441D01*
X320562Y344977D01*
X321378Y345548D01*
X322168Y346153D01*
X322932Y346790D01*
X323669Y347460D01*
X324377Y348159D01*
X325055Y348888D01*
X325701Y349645D01*
X326315Y350428D01*
X326896Y351237D01*
X327442Y352069D01*
X327952Y352924D01*
X328426Y353799D01*
X328863Y354693D01*
X329261Y355605D01*
X329621Y356533D01*
X271988Y413819D02*
X271956Y414818D01*
X271862Y415812D01*
X271704Y416799D01*
X271483Y417774D01*
X271202Y418733D01*
X270860Y419672D01*
X270460Y420587D01*
X270002Y421476D01*
X269488Y422333D01*
X268922Y423156D01*
X268304Y423942D01*
X267637Y424686D01*
X266925Y425387D01*
X266170Y426042D01*
X265375Y426647D01*
X264543Y427200D01*
X263678Y427700D01*
X262782Y428144D01*
X261860Y428530D01*
X260916Y428857D01*
X259953Y429123D01*
X258975Y429328D01*
X257986Y429470D01*
X256990Y429549D01*
X255990Y429565D01*
X254992Y429517D01*
X253999Y429407D01*
X253015Y429233D01*
X252044Y428998D01*
X251090Y428701D01*
X250156Y428344D01*
X249247Y427929D01*
X248366Y427457D01*
X247517Y426930D01*
X246703Y426351D01*
X245927Y425721D01*
X245193Y425042D01*
X244504Y424319D01*
X243861Y423554D01*
X243269Y422749D01*
X242729Y421908D01*
X242243Y421035D01*
X241813Y420133D01*
X241442Y419205D01*
X241130Y418256D01*
X240879Y417288D01*
X240690Y416307D01*
X240563Y415316D01*
X240500Y414319D01*
Y413319D01*
X240563Y412322D01*
X240690Y411331D01*
X240879Y410349D01*
X241130Y409382D01*
X241442Y408433D01*
X241813Y407505D01*
X242243Y406603D01*
X242729Y405729D01*
X243269Y404889D01*
X243861Y404084D01*
X244504Y403319D01*
X245193Y402595D01*
X245927Y401917D01*
X246703Y401287D01*
X247517Y400707D01*
X248366Y400181D01*
X249247Y399709D01*
X250156Y399294D01*
X251090Y398937D01*
X252044Y398640D01*
X253015Y398405D01*
X253999Y398231D01*
X254992Y398120D01*
X255990Y398073D01*
X256990Y398089D01*
X257986Y398168D01*
X258975Y398310D01*
X259953Y398515D01*
X260916Y398781D01*
X261860Y399108D01*
X262782Y399494D01*
X263678Y399938D01*
X264543Y400437D01*
X265375Y400991D01*
X266170Y401596D01*
X266925Y402250D01*
X267637Y402951D01*
X268304Y403696D01*
X268921Y404482D01*
X269488Y405305D01*
X270002Y406162D01*
X270459Y407050D01*
X270860Y407966D01*
X271202Y408905D01*
X271483Y409864D01*
X271704Y410839D01*
X271862Y411825D01*
X271956Y412820D01*
X271988Y413819D01*
X429311Y378449D02*
Y380949D01*
X431811D01*
X449311Y378449D02*
Y380949D01*
X446811D02*
X449311D01*
X429311Y367949D02*
Y370449D01*
Y367949D02*
X431811D01*
X446811D02*
X449311D01*
Y370449D01*
X203150Y361811D02*
Y382283D01*
X379927Y330984D02*
X382427D01*
X379927D02*
Y333484D01*
Y348484D02*
Y350984D01*
X382427D01*
X390677Y330984D02*
Y333484D01*
X388177Y330984D02*
X390677D01*
Y348484D02*
Y350984D01*
X388177D02*
X390677D01*
X451949Y314207D02*
Y316707D01*
X454449D01*
X469449D02*
X471949D01*
Y314207D02*
Y316707D01*
X451949Y305957D02*
X454449D01*
X451949D02*
Y308457D01*
X469449Y305957D02*
X471949D01*
Y308457D01*
X424390Y280008D02*
Y282508D01*
X426890D01*
X444390Y280008D02*
Y282508D01*
X441890D02*
X444390D01*
X424390Y271758D02*
Y274258D01*
Y271758D02*
X426890D01*
X441890D02*
X444390D01*
Y274258D01*
X423721Y276429D02*
Y278929D01*
X421220Y276429D02*
X423721D01*
X403721D02*
Y278929D01*
Y276429D02*
X406220D01*
X423721Y284679D02*
Y287179D01*
X421220D02*
X423721D01*
X403721D02*
X406220D01*
X403721Y284679D02*
Y287179D01*
X390488Y267992D02*
X392988D01*
X390488D02*
Y270492D01*
Y287992D02*
X392988D01*
X390488Y285492D02*
Y287992D01*
X400988Y267992D02*
X403488D01*
Y270492D01*
Y285492D02*
Y287992D01*
X400988D02*
X403488D01*
X389941Y301661D02*
Y304161D01*
X392441D01*
X409941Y301661D02*
Y304161D01*
X407441D02*
X409941D01*
X389941Y293411D02*
Y295911D01*
Y293411D02*
X392441D01*
X407441D02*
X409941D01*
Y295911D01*
X372829Y350000D02*
X375329D01*
Y347500D02*
Y350000D01*
Y330000D02*
Y332500D01*
X372829Y330000D02*
X375329D01*
X364579Y347500D02*
Y350000D01*
X367079D01*
X364579Y330000D02*
Y332500D01*
Y330000D02*
X367079D01*
X333169Y289209D02*
Y291709D01*
X330669Y289209D02*
X333169D01*
X313169D02*
Y291709D01*
Y289209D02*
X315669D01*
X333169Y299709D02*
Y302209D01*
X330669D02*
X333169D01*
X313169D02*
X315669D01*
X313169Y299709D02*
Y302209D01*
X454465Y393189D02*
X456965D01*
X454465D02*
Y395689D01*
Y413189D02*
X456965D01*
X454465Y410689D02*
Y413189D01*
X464965Y393189D02*
X467465D01*
Y395689D01*
Y410689D02*
Y413189D01*
X464965D02*
X467465D01*
X476313D02*
X478813D01*
Y410689D02*
Y413189D01*
Y393189D02*
Y395689D01*
X476313Y393189D02*
X478813D01*
X468063Y410689D02*
Y413189D01*
X470563D01*
X468063Y393189D02*
Y395689D01*
Y393189D02*
X470563D01*
X378524Y444522D02*
Y447022D01*
X381024D01*
X396024D02*
X398524D01*
Y444522D02*
Y447022D01*
X378524Y436272D02*
X381024D01*
X378524D02*
Y438772D01*
X396024Y436272D02*
X398524D01*
Y438772D01*
X206437Y261260D02*
X235177D01*
Y385276D01*
X206437D02*
X235177D01*
X206437Y261260D02*
Y385276D01*
X478051Y380366D02*
Y382866D01*
X475551Y380366D02*
X478051D01*
X458051D02*
Y382866D01*
Y380366D02*
X460551D01*
X478051Y388616D02*
Y391116D01*
X475551D02*
X478051D01*
X458051D02*
X460551D01*
X458051Y388616D02*
Y391116D01*
X347772Y182953D02*
X350272D01*
X347772D02*
Y185453D01*
Y202953D02*
X350272D01*
X347772Y200453D02*
Y202953D01*
X358272Y182953D02*
X360772D01*
Y185453D01*
Y200453D02*
Y202953D01*
X358272D02*
X360772D01*
X402067Y204579D02*
Y207079D01*
X399567Y204579D02*
X402067D01*
X382067D02*
Y207079D01*
Y204579D02*
X384567D01*
X402067Y212829D02*
Y215329D01*
X399567D02*
X402067D01*
X382067D02*
X384567D01*
X382067Y212829D02*
Y215329D01*
X362697Y350248D02*
Y352748D01*
X360197Y350248D02*
X362697D01*
X342697D02*
Y352748D01*
Y350248D02*
X345197D01*
X362697Y358498D02*
Y360998D01*
X360197D02*
X362697D01*
X342697D02*
X345197D01*
X342697Y358498D02*
Y360998D01*
X342276Y330000D02*
X344776D01*
X342276D02*
Y332500D01*
Y350000D02*
X344776D01*
X342276Y347500D02*
Y350000D01*
X350526Y330000D02*
X353026D01*
Y332500D01*
Y347500D02*
Y350000D01*
X350526D02*
X353026D01*
X353352Y330000D02*
X355852D01*
X353352D02*
Y332500D01*
Y347500D02*
Y350000D01*
X355852D01*
X364102Y330000D02*
Y332500D01*
X361602Y330000D02*
X364102D01*
Y347500D02*
Y350000D01*
X361602D02*
X364102D01*
X444390Y260931D02*
Y263431D01*
X441890Y260931D02*
X444390D01*
X424390D02*
X426890D01*
X424390D02*
Y263431D01*
X441890Y271681D02*
X444390D01*
Y269181D02*
Y271681D01*
X424390D02*
X426890D01*
X424390Y269181D02*
Y271681D01*
X453872Y286024D02*
X456372D01*
Y283524D02*
Y286024D01*
Y266024D02*
Y268524D01*
X453872Y266024D02*
X456372D01*
X445622Y283524D02*
Y286024D01*
X448122D01*
X445622Y266024D02*
Y268524D01*
Y266024D02*
X448122D01*
X451949Y303380D02*
Y305880D01*
X454449D01*
X469449D02*
X471949D01*
Y303380D02*
Y305880D01*
X451949Y295130D02*
X454449D01*
X451949D02*
Y297630D01*
X469449Y295130D02*
X471949D01*
Y297630D01*
X410925Y330813D02*
Y333313D01*
X408425Y330813D02*
X410925D01*
X390925D02*
X393425D01*
X390925D02*
Y333313D01*
X408425Y341563D02*
X410925D01*
Y339063D02*
Y341563D01*
X390925D02*
X393425D01*
X390925Y339063D02*
Y341563D01*
X410925Y319986D02*
Y322486D01*
X408425Y319986D02*
X410925D01*
X390925D02*
X393425D01*
X390925D02*
Y322486D01*
X408425Y330736D02*
X410925D01*
Y328236D02*
Y330736D01*
X390925D02*
X393425D01*
X390925Y328236D02*
Y330736D01*
Y263026D02*
Y265526D01*
X393425D01*
X408425D02*
X410925D01*
Y263026D02*
Y265526D01*
X390925Y254776D02*
X393425D01*
X390925D02*
Y257276D01*
X408425Y254776D02*
X410925D01*
Y257276D01*
X403721Y273852D02*
Y276352D01*
X406220D01*
X421220D02*
X423721D01*
Y273852D02*
Y276352D01*
X403721Y265602D02*
X406220D01*
X403721D02*
Y268102D01*
X421220Y265602D02*
X423721D01*
Y268102D01*
X446410Y334528D02*
X448910D01*
X446410D02*
Y337028D01*
Y354528D02*
X448910D01*
X446410Y352028D02*
Y354528D01*
X454660Y334528D02*
X457160D01*
Y337028D01*
Y352028D02*
Y354528D01*
X454660D02*
X457160D01*
X435610Y364063D02*
Y366563D01*
X438110D01*
X455610Y364063D02*
Y366563D01*
X453110D02*
X455610D01*
X435610Y355813D02*
Y358313D01*
Y355813D02*
X438110D01*
X453110D02*
X455610D01*
Y358313D01*
X410925Y341640D02*
Y344140D01*
X408425Y341640D02*
X410925D01*
X390925D02*
X393425D01*
X390925D02*
Y344140D01*
X408425Y352390D02*
X410925D01*
Y349890D02*
Y352390D01*
X390925D02*
X393425D01*
X390925Y349890D02*
Y352390D01*
X410925Y309159D02*
Y311660D01*
X408425Y309159D02*
X410925D01*
X390925D02*
X393425D01*
X390925D02*
Y311660D01*
X408425Y319910D02*
X410925D01*
Y317409D02*
Y319910D01*
X390925D02*
X393425D01*
X390925Y317409D02*
Y319910D01*
X340683Y269291D02*
X343183D01*
Y266791D02*
Y269291D01*
Y249291D02*
Y251791D01*
X340683Y249291D02*
X343183D01*
X332433Y266791D02*
Y269291D01*
X334933D01*
X332433Y249291D02*
Y251791D01*
Y249291D02*
X334933D01*
X350886Y207782D02*
Y210281D01*
X348386Y207782D02*
X350886D01*
X330886D02*
X333386D01*
X330886D02*
Y210281D01*
X348386Y218531D02*
X350886D01*
Y216032D02*
Y218531D01*
X330886D02*
X333386D01*
X330886Y216032D02*
Y218531D01*
Y226608D02*
Y229108D01*
X333386D01*
X348386D02*
X350886D01*
Y226608D02*
Y229108D01*
X330886Y218358D02*
X333386D01*
X330886D02*
Y220858D01*
X348386Y218358D02*
X350886D01*
Y220858D01*
X402067Y226232D02*
Y228732D01*
X399567Y226232D02*
X402067D01*
X382067D02*
Y228732D01*
Y226232D02*
X384567D01*
X402067Y234482D02*
Y236982D01*
X399567D02*
X402067D01*
X382067D02*
X384567D01*
X382067Y234482D02*
Y236982D01*
X402067Y215406D02*
Y217905D01*
X399567Y215406D02*
X402067D01*
X382067D02*
Y217905D01*
Y215406D02*
X384567D01*
X402067Y223656D02*
Y226155D01*
X399567D02*
X402067D01*
X382067D02*
X384567D01*
X382067Y223656D02*
Y226155D01*
X376116Y255512D02*
X378616D01*
Y253012D02*
Y255512D01*
Y235512D02*
Y238012D01*
X376116Y235512D02*
X378616D01*
X367866Y253012D02*
Y255512D01*
X370366D01*
X367866Y235512D02*
Y238012D01*
Y235512D02*
X370366D01*
X351870Y236325D02*
Y238825D01*
X349370Y236325D02*
X351870D01*
X331870D02*
X334370D01*
X331870D02*
Y238825D01*
X349370Y247075D02*
X351870D01*
Y244575D02*
Y247075D01*
X331870D02*
X334370D01*
X331870Y244575D02*
Y247075D01*
X364305Y255512D02*
X366805D01*
Y253012D02*
Y255512D01*
Y235512D02*
Y238012D01*
X364305Y235512D02*
X366805D01*
X356055Y253012D02*
Y255512D01*
X358555D01*
X356055Y235512D02*
Y238012D01*
Y235512D02*
X358555D01*
X381083Y249246D02*
Y251746D01*
X383583D01*
X398583D02*
X401083D01*
Y249246D02*
Y251746D01*
X381083Y240996D02*
X383583D01*
X381083D02*
Y243496D01*
X398583Y240996D02*
X401083D01*
Y243496D01*
X318516Y231339D02*
X321016D01*
X318516D02*
Y233839D01*
Y251339D02*
X321016D01*
X318516Y248839D02*
Y251339D01*
X326766Y231339D02*
X329266D01*
Y233839D01*
Y248839D02*
Y251339D01*
X326766D02*
X329266D01*
X338386Y363425D02*
Y389409D01*
Y363425D02*
X424921D01*
Y389409D01*
X338386D02*
X424921D01*
X261209Y453346D02*
X263709D01*
Y450846D02*
Y453346D01*
X261209Y433347D02*
X263709D01*
Y435847D01*
X252959Y453346D02*
X255459D01*
X252959Y450846D02*
Y453346D01*
Y433347D02*
Y435847D01*
Y433347D02*
X255459D01*
X275937Y286496D02*
X278437D01*
X275937D02*
Y288996D01*
Y306496D02*
X278437D01*
X275937Y303996D02*
Y306496D01*
X284187Y286496D02*
X286687D01*
Y288996D01*
Y303996D02*
Y306496D01*
X284187D02*
X286687D01*
X265846Y221472D02*
Y223972D01*
X263347Y221472D02*
X265846D01*
X245847D02*
Y223972D01*
Y221472D02*
X248346D01*
X265846Y229722D02*
Y232222D01*
X263347D02*
X265846D01*
X245847D02*
X248346D01*
X245847Y229722D02*
Y232222D01*
Y262094D02*
Y264595D01*
X248346D01*
X265846Y262094D02*
Y264595D01*
X263347D02*
X265846D01*
X245847Y253844D02*
Y256345D01*
Y253844D02*
X248346D01*
X263347D02*
X265846D01*
Y256345D01*
X245847Y251304D02*
Y253804D01*
X248346D01*
X265846Y251304D02*
Y253804D01*
X263347D02*
X265846D01*
X245847Y243054D02*
Y245554D01*
Y243054D02*
X248346D01*
X263347D02*
X265846D01*
Y245554D01*
X275937Y262087D02*
X278437D01*
X275937D02*
Y264587D01*
Y282087D02*
X278437D01*
X275937Y279587D02*
Y282087D01*
X284187Y262087D02*
X286687D01*
Y264587D01*
Y279587D02*
Y282087D01*
X284187D02*
X286687D01*
X286817Y286496D02*
X289317D01*
X286817D02*
Y288996D01*
Y303996D02*
Y306496D01*
X289317D01*
X297567Y286496D02*
Y288996D01*
X295067Y286496D02*
X297567D01*
Y303996D02*
Y306496D01*
X295067D02*
X297567D01*
X265846Y210681D02*
Y213181D01*
X263347Y210681D02*
X265846D01*
X245847D02*
Y213181D01*
Y210681D02*
X248346D01*
X265846Y218931D02*
Y221431D01*
X263347D02*
X265846D01*
X245847D02*
X248346D01*
X245847Y218931D02*
Y221431D01*
Y240513D02*
Y243013D01*
X248346D01*
X265846Y240513D02*
Y243013D01*
X263347D02*
X265846D01*
X245847Y232263D02*
Y234763D01*
Y232263D02*
X248346D01*
X263347D02*
X265846D01*
Y234763D01*
X264272Y305957D02*
Y308457D01*
X261772Y305957D02*
X264272D01*
X244272D02*
Y308457D01*
Y305957D02*
X246772D01*
X264272Y314207D02*
Y316707D01*
X261772D02*
X264272D01*
X244272D02*
X246772D01*
X244272Y314207D02*
Y316707D01*
X433266Y444338D02*
Y439339D01*
X434266Y438340D01*
X436265D01*
X437265Y439339D01*
Y444338D01*
X439264Y438340D02*
X441263D01*
X440264D01*
Y444338D01*
X439264Y443338D01*
X444262Y438340D02*
X446262D01*
X445262D01*
Y444338D01*
X444262Y443338D01*
X437446Y435070D02*
X436446Y436070D01*
X434447D01*
X433447Y435070D01*
Y431072D01*
X434447Y430072D01*
X436446D01*
X437446Y431072D01*
X439445Y430072D02*
X441445D01*
X440445D01*
Y436070D01*
X439445Y435070D01*
X444444D02*
X445443Y436070D01*
X447443D01*
X448443Y435070D01*
Y434071D01*
X447443Y433071D01*
X446443D01*
X447443D01*
X448443Y432071D01*
Y431072D01*
X447443Y430072D01*
X445443D01*
X444444Y431072D01*
X457857Y369928D02*
Y363930D01*
X460856D01*
X461856Y364930D01*
Y368929D01*
X460856Y369928D01*
X457857D01*
X463855Y363930D02*
X465854D01*
X464854D01*
Y369928D01*
X463855Y368929D01*
X468853D02*
X469853Y369928D01*
X471852D01*
X472852Y368929D01*
Y367929D01*
X471852Y366929D01*
X470853D01*
X471852D01*
X472852Y365929D01*
Y364930D01*
X471852Y363930D01*
X469853D01*
X468853Y364930D01*
X481253Y368442D02*
Y366443D01*
Y367442D01*
X486251D01*
X487251Y366443D01*
Y365443D01*
X486251Y364443D01*
X481253Y374440D02*
Y370442D01*
X484252D01*
X483252Y372441D01*
Y373441D01*
X484252Y374440D01*
X486251D01*
X487251Y373441D01*
Y371441D01*
X486251Y370442D01*
X487251Y380438D02*
Y376440D01*
X483252Y380438D01*
X482253D01*
X481253Y379439D01*
Y377439D01*
X482253Y376440D01*
X194307Y251756D02*
X200305D01*
Y248757D01*
X199305Y247757D01*
X197306D01*
X196306Y248757D01*
Y251756D01*
X198306Y245758D02*
X194307D01*
X196306D01*
X197306Y244758D01*
X198306Y243759D01*
Y242759D01*
X194307Y238760D02*
Y236761D01*
X195307Y235761D01*
X197306D01*
X198306Y236761D01*
Y238760D01*
X197306Y239760D01*
X195307D01*
X194307Y238760D01*
X199305Y232762D02*
X198306D01*
Y233762D01*
Y231762D01*
Y232762D01*
X195307D01*
X194307Y231762D01*
Y225764D02*
Y227764D01*
X195307Y228763D01*
X197306D01*
X198306Y227764D01*
Y225764D01*
X197306Y224765D01*
X196306D01*
Y228763D01*
X198306Y218767D02*
Y221766D01*
X197306Y222765D01*
X195307D01*
X194307Y221766D01*
Y218767D01*
X199305Y215768D02*
X198306D01*
Y216767D01*
Y214768D01*
Y215768D01*
X195307D01*
X194307Y214768D01*
Y211769D02*
Y209770D01*
Y210769D01*
X198306D01*
Y211769D01*
X194307Y205771D02*
Y203771D01*
X195307Y202772D01*
X197306D01*
X198306Y203771D01*
Y205771D01*
X197306Y206770D01*
X195307D01*
X194307Y205771D01*
Y200772D02*
X198306D01*
Y197773D01*
X197306Y196774D01*
X194307D01*
X287221Y172927D02*
X288220Y173927D01*
X290219D01*
X291219Y172927D01*
Y171928D01*
X290219Y170928D01*
X291219Y169929D01*
Y168929D01*
X290219Y167929D01*
X288220D01*
X287221Y168929D01*
Y169929D01*
X288220Y170928D01*
X287221Y171928D01*
Y172927D01*
X288220Y170928D02*
X290219D01*
X216354Y167929D02*
X218354D01*
X217354D01*
Y173927D01*
X216354Y172927D01*
X200978Y266197D02*
X201977Y267197D01*
Y269196D01*
X200978Y270196D01*
X196979D01*
X195979Y269196D01*
Y267197D01*
X196979Y266197D01*
X198978D01*
Y268197D01*
X201977Y279981D02*
Y283980D01*
X198978D01*
Y281980D01*
Y283980D01*
X195979D01*
X201977Y293823D02*
Y297822D01*
X195979D01*
Y293823D01*
X198978Y297822D02*
Y295823D01*
X201977Y311548D02*
X195979D01*
Y308549D01*
X196979Y307549D01*
X200978D01*
X201977Y308549D01*
Y311548D01*
X200978Y321275D02*
X201977Y322274D01*
Y324274D01*
X200978Y325273D01*
X196979D01*
X195979Y324274D01*
Y322274D01*
X196979Y321275D01*
X201977Y339115D02*
X195979D01*
Y336116D01*
X196979Y335117D01*
X197979D01*
X198978Y336116D01*
Y339115D01*
Y336116D01*
X199978Y335117D01*
X200978D01*
X201977Y336116D01*
Y339115D01*
X195979Y352899D02*
X199978D01*
X201977Y350900D01*
X199978Y348901D01*
X195979D01*
X198978D01*
Y352899D01*
X192339Y377346D02*
X198337D01*
Y374347D01*
X197337Y373348D01*
X195338D01*
X194338Y374347D01*
Y377346D01*
Y375347D02*
X192339Y373348D01*
X198337Y371348D02*
X192339D01*
X195338D01*
Y367350D01*
X198337D01*
X192339D01*
X196943Y408387D02*
X197943Y409387D01*
Y411386D01*
X196943Y412386D01*
X192945D01*
X191945Y411386D01*
Y409387D01*
X192945Y408387D01*
X194944D01*
Y410387D01*
X191945Y406388D02*
X197943D01*
X191945Y402389D01*
X197943D01*
Y400390D02*
X191945D01*
Y397391D01*
X192945Y396391D01*
X196943D01*
X197943Y397391D01*
Y400390D01*
X194944Y437976D02*
Y433978D01*
X196943Y435977D02*
X192945D01*
X191945Y431978D02*
Y429979D01*
Y430979D01*
X197943D01*
X196943Y431978D01*
X191945Y422981D02*
Y426980D01*
X195944Y422981D01*
X196943D01*
X197943Y423981D01*
Y425980D01*
X196943Y426980D01*
X197943Y420982D02*
X193944D01*
X191945Y418983D01*
X193944Y416983D01*
X197943D01*
X391188Y392396D02*
X385190D01*
Y395395D01*
X386190Y396395D01*
X388189D01*
X389189Y395395D01*
Y392396D01*
Y394396D02*
X391188Y396395D01*
X385190Y402393D02*
X386190Y400394D01*
X388189Y398394D01*
X390188D01*
X391188Y399394D01*
Y401393D01*
X390188Y402393D01*
X389189D01*
X388189Y401393D01*
Y398394D01*
X390188Y404392D02*
X391188Y405392D01*
Y407391D01*
X390188Y408391D01*
X386190D01*
X385190Y407391D01*
Y405392D01*
X386190Y404392D01*
X387189D01*
X388189Y405392D01*
Y408391D01*
X459719Y258025D02*
Y264023D01*
X462718D01*
X463718Y263023D01*
Y261024D01*
X462718Y260024D01*
X459719D01*
X461719D02*
X463718Y258025D01*
X469716Y264023D02*
X467717Y263023D01*
X465717Y261024D01*
Y259024D01*
X466717Y258025D01*
X468716D01*
X469716Y259024D01*
Y260024D01*
X468716Y261024D01*
X465717D01*
X471715Y263023D02*
X472715Y264023D01*
X474714D01*
X475714Y263023D01*
Y262023D01*
X474714Y261024D01*
X475714Y260024D01*
Y259024D01*
X474714Y258025D01*
X472715D01*
X471715Y259024D01*
Y260024D01*
X472715Y261024D01*
X471715Y262023D01*
Y263023D01*
X472715Y261024D02*
X474714D01*
X395152Y392670D02*
Y398668D01*
X398151D01*
X399151Y397669D01*
Y395669D01*
X398151Y394670D01*
X395152D01*
X397151D02*
X399151Y392670D01*
X405149Y398668D02*
X403150Y397669D01*
X401150Y395669D01*
Y393670D01*
X402150Y392670D01*
X404149D01*
X405149Y393670D01*
Y394670D01*
X404149Y395669D01*
X401150D01*
X407148Y398668D02*
X411147D01*
Y397669D01*
X407148Y393670D01*
Y392670D01*
X426255Y282434D02*
Y288432D01*
X429254D01*
X430253Y287432D01*
Y285433D01*
X429254Y284433D01*
X426255D01*
X428254D02*
X430253Y282434D01*
X436251Y288432D02*
X434252Y287432D01*
X432253Y285433D01*
Y283434D01*
X433252Y282434D01*
X435252D01*
X436251Y283434D01*
Y284433D01*
X435252Y285433D01*
X432253D01*
X442249Y288432D02*
X440250Y287432D01*
X438251Y285433D01*
Y283434D01*
X439250Y282434D01*
X441250D01*
X442249Y283434D01*
Y284433D01*
X441250Y285433D01*
X438251D01*
X393971Y429284D02*
Y435283D01*
X396970D01*
X397970Y434283D01*
Y432283D01*
X396970Y431284D01*
X393971D01*
X395970D02*
X397970Y429284D01*
X403968Y435283D02*
X401968Y434283D01*
X399969Y432283D01*
Y430284D01*
X400969Y429284D01*
X402968D01*
X403968Y430284D01*
Y431284D01*
X402968Y432283D01*
X399969D01*
X409966Y435283D02*
X405967D01*
Y432283D01*
X407967Y433283D01*
X408966D01*
X409966Y432283D01*
Y430284D01*
X408966Y429284D01*
X406967D01*
X405967Y430284D01*
X395152Y408025D02*
Y414023D01*
X398151D01*
X399151Y413023D01*
Y411024D01*
X398151Y410024D01*
X395152D01*
X397151D02*
X399151Y408025D01*
X405149Y414023D02*
X403150Y413023D01*
X401150Y411024D01*
Y409024D01*
X402150Y408025D01*
X404149D01*
X405149Y409024D01*
Y410024D01*
X404149Y411024D01*
X401150D01*
X410147Y408025D02*
Y414023D01*
X407148Y411024D01*
X411147D01*
X395152Y400938D02*
Y406936D01*
X398151D01*
X399151Y405936D01*
Y403937D01*
X398151Y402937D01*
X395152D01*
X397151D02*
X399151Y400938D01*
X405149Y406936D02*
X403150Y405936D01*
X401150Y403937D01*
Y401938D01*
X402150Y400938D01*
X404149D01*
X405149Y401938D01*
Y402937D01*
X404149Y403937D01*
X401150D01*
X407148Y405936D02*
X408148Y406936D01*
X410147D01*
X411147Y405936D01*
Y404937D01*
X410147Y403937D01*
X409148D01*
X410147D01*
X411147Y402937D01*
Y401938D01*
X410147Y400938D01*
X408148D01*
X407148Y401938D01*
X466018Y277316D02*
Y283314D01*
X469017D01*
X470017Y282314D01*
Y280315D01*
X469017Y279315D01*
X466018D01*
X468018D02*
X470017Y277316D01*
X476015Y283314D02*
X474016Y282314D01*
X472016Y280315D01*
Y278316D01*
X473016Y277316D01*
X475015D01*
X476015Y278316D01*
Y279315D01*
X475015Y280315D01*
X472016D01*
X482013Y277316D02*
X478015D01*
X482013Y281315D01*
Y282314D01*
X481013Y283314D01*
X479014D01*
X478015Y282314D01*
X466231Y285584D02*
Y291582D01*
X469230D01*
X470229Y290582D01*
Y288583D01*
X469230Y287583D01*
X466231D01*
X468230D02*
X470229Y285584D01*
X476227Y291582D02*
X474228Y290582D01*
X472229Y288583D01*
Y286583D01*
X473228Y285584D01*
X475228D01*
X476227Y286583D01*
Y287583D01*
X475228Y288583D01*
X472229D01*
X478227Y285584D02*
X480226D01*
X479226D01*
Y291582D01*
X478227Y290582D01*
X308905Y241215D02*
X302906D01*
Y244214D01*
X303906Y245214D01*
X305906D01*
X306905Y244214D01*
Y241215D01*
Y243215D02*
X308905Y245214D01*
X302906Y251212D02*
X303906Y249213D01*
X305906Y247213D01*
X307905D01*
X308905Y248213D01*
Y250212D01*
X307905Y251212D01*
X306905D01*
X305906Y250212D01*
Y247213D01*
X303906Y253211D02*
X302906Y254211D01*
Y256210D01*
X303906Y257210D01*
X307905D01*
X308905Y256210D01*
Y254211D01*
X307905Y253211D01*
X303906D01*
X301030Y241215D02*
X295033D01*
Y244214D01*
X296032Y245214D01*
X298031D01*
X299031Y244214D01*
Y241215D01*
Y243215D02*
X301030Y245214D01*
X295033Y251212D02*
Y247213D01*
X298031D01*
X297032Y249213D01*
Y250212D01*
X298031Y251212D01*
X300031D01*
X301030Y250212D01*
Y248213D01*
X300031Y247213D01*
Y253211D02*
X301030Y254211D01*
Y256210D01*
X300031Y257210D01*
X296032D01*
X295033Y256210D01*
Y254211D01*
X296032Y253211D01*
X297032D01*
X298031Y254211D01*
Y257210D01*
X495912Y229404D02*
X489914D01*
Y232403D01*
X490914Y233403D01*
X492913D01*
X493913Y232403D01*
Y229404D01*
Y231403D02*
X495912Y233403D01*
X489914Y239401D02*
Y235402D01*
X492913D01*
X491914Y237402D01*
Y238401D01*
X492913Y239401D01*
X494913D01*
X495912Y238401D01*
Y236402D01*
X494913Y235402D01*
X490914Y241400D02*
X489914Y242400D01*
Y244399D01*
X490914Y245399D01*
X491914D01*
X492913Y244399D01*
X493913Y245399D01*
X494913D01*
X495912Y244399D01*
Y242400D01*
X494913Y241400D01*
X493913D01*
X492913Y242400D01*
X491914Y241400D01*
X490914D01*
X492913Y242400D02*
Y244399D01*
X409692Y231766D02*
X403694D01*
Y234765D01*
X404694Y235765D01*
X406693D01*
X407693Y234765D01*
Y231766D01*
Y233766D02*
X409692Y235765D01*
X403694Y241763D02*
Y237764D01*
X406693D01*
X405693Y239764D01*
Y240763D01*
X406693Y241763D01*
X408692D01*
X409692Y240763D01*
Y238764D01*
X408692Y237764D01*
X403694Y243762D02*
Y247761D01*
X404694D01*
X408692Y243762D01*
X409692D01*
X318880Y175834D02*
Y170835D01*
X319880Y169836D01*
X321879D01*
X322879Y170835D01*
Y175834D01*
X324878Y169836D02*
X326878D01*
X325878D01*
Y175834D01*
X324878Y174834D01*
X329877D02*
X330876Y175834D01*
X332876D01*
X333875Y174834D01*
Y170835D01*
X332876Y169836D01*
X330876D01*
X329877Y170835D01*
Y174834D01*
X311174Y250017D02*
X317172D01*
Y247018D01*
X316173Y246019D01*
X314173D01*
X313174Y247018D01*
Y250017D01*
Y248018D02*
X311174Y246019D01*
Y244019D02*
Y242020D01*
Y243020D01*
X317172D01*
X316173Y244019D01*
Y239021D02*
X317172Y238021D01*
Y236022D01*
X316173Y235022D01*
X315173D01*
X314173Y236022D01*
Y237021D01*
Y236022D01*
X313174Y235022D01*
X312174D01*
X311174Y236022D01*
Y238021D01*
X312174Y239021D01*
X316385Y226395D02*
X310387D01*
Y223396D01*
X311386Y222396D01*
X315385D01*
X316385Y223396D01*
Y226395D01*
X310387Y220397D02*
Y218398D01*
Y219397D01*
X316385D01*
X315385Y220397D01*
X310387Y212400D02*
X316385D01*
X313386Y215399D01*
Y211400D01*
X339808Y175228D02*
X338809Y176227D01*
X336809D01*
X335809Y175228D01*
Y171229D01*
X336809Y170229D01*
X338809D01*
X339808Y171229D01*
X341808Y170229D02*
X343807D01*
X342807D01*
Y176227D01*
X341808Y175228D01*
X350805Y176227D02*
X346806D01*
Y173228D01*
X348805Y174228D01*
X349805D01*
X350805Y173228D01*
Y171229D01*
X349805Y170229D01*
X347806D01*
X346806Y171229D01*
X275126Y462448D02*
X277125D01*
X276125D01*
Y456450D01*
X275126D01*
X277125D01*
X284123Y461448D02*
X283123Y462448D01*
X281124D01*
X280124Y461448D01*
Y457449D01*
X281124Y456450D01*
X283123D01*
X284123Y457449D01*
X286122Y456450D02*
X288122D01*
X287122D01*
Y462448D01*
X286122Y461448D01*
X291121D02*
X292120Y462448D01*
X294120D01*
X295119Y461448D01*
Y457449D01*
X294120Y456450D01*
X292120D01*
X291121Y457449D01*
Y461448D01*
X279678Y259086D02*
X278678Y260086D01*
X276679D01*
X275679Y259086D01*
Y255087D01*
X276679Y254088D01*
X278678D01*
X279678Y255087D01*
X281678Y259086D02*
X282677Y260086D01*
X284677D01*
X285676Y259086D01*
Y258086D01*
X284677Y257087D01*
X283677D01*
X284677D01*
X285676Y256087D01*
Y255087D01*
X284677Y254088D01*
X282677D01*
X281678Y255087D01*
X287676Y254088D02*
X289675D01*
X288675D01*
Y260086D01*
X287676Y259086D01*
X279860Y250818D02*
X278860Y251818D01*
X276860D01*
X275861Y250818D01*
Y246819D01*
X276860Y245820D01*
X278860D01*
X279860Y246819D01*
X281859Y250818D02*
X282859Y251818D01*
X284858D01*
X285858Y250818D01*
Y249819D01*
X284858Y248819D01*
X283858D01*
X284858D01*
X285858Y247819D01*
Y246819D01*
X284858Y245820D01*
X282859D01*
X281859Y246819D01*
X287857Y250818D02*
X288857Y251818D01*
X290856D01*
X291856Y250818D01*
Y246819D01*
X290856Y245820D01*
X288857D01*
X287857Y246819D01*
Y250818D01*
X208206Y255755D02*
X206207D01*
X207206D01*
Y250757D01*
X206207Y249757D01*
X205207D01*
X204207Y250757D01*
X210205Y254755D02*
X211205Y255755D01*
X213204D01*
X214204Y254755D01*
Y253756D01*
X213204Y252756D01*
X212205D01*
X213204D01*
X214204Y251756D01*
Y250757D01*
X213204Y249757D01*
X211205D01*
X210205Y250757D01*
X216203Y254755D02*
X217203Y255755D01*
X219202D01*
X220202Y254755D01*
Y250757D01*
X219202Y249757D01*
X217203D01*
X216203Y250757D01*
Y254755D01*
X479678Y232222D02*
Y230222D01*
Y231222D01*
X484677D01*
X485676Y230222D01*
Y229223D01*
X484677Y228223D01*
X485676Y237220D02*
X479678D01*
X482677Y234221D01*
Y238220D01*
X480678Y240219D02*
X479678Y241219D01*
Y243218D01*
X480678Y244218D01*
X484677D01*
X485676Y243218D01*
Y241219D01*
X484677Y240219D01*
X480678D01*
X415111Y394471D02*
X421109D01*
Y397470D01*
X420110Y398470D01*
X416111D01*
X415111Y397470D01*
Y394471D01*
X421109Y400469D02*
Y402468D01*
Y401469D01*
X415111D01*
X416111Y400469D01*
X421109Y409466D02*
Y405467D01*
X417110Y409466D01*
X416111D01*
X415111Y408466D01*
Y406467D01*
X416111Y405467D01*
X481647Y296984D02*
Y298983D01*
Y297983D01*
X487645D01*
Y296984D01*
Y298983D01*
X482646Y305981D02*
X481647Y304981D01*
Y302982D01*
X482646Y301982D01*
X486645D01*
X487645Y302982D01*
Y304981D01*
X486645Y305981D01*
X481647Y311979D02*
Y307980D01*
X484646D01*
X483646Y309980D01*
Y310979D01*
X484646Y311979D01*
X486645D01*
X487645Y310979D01*
Y308980D01*
X486645Y307980D01*
X487645Y317977D02*
Y313978D01*
X483646Y317977D01*
X482646D01*
X481647Y316977D01*
Y314978D01*
X482646Y313978D01*
X485283Y192396D02*
X479284D01*
Y195395D01*
X480284Y196395D01*
X482283D01*
X483283Y195395D01*
Y192396D01*
Y194396D02*
X485283Y196395D01*
X479284Y202393D02*
Y198394D01*
X482283D01*
X481284Y200394D01*
Y201393D01*
X482283Y202393D01*
X484283D01*
X485283Y201393D01*
Y199394D01*
X484283Y198394D01*
X479284Y208391D02*
X480284Y206392D01*
X482283Y204392D01*
X484283D01*
X485283Y205392D01*
Y207391D01*
X484283Y208391D01*
X483283D01*
X482283Y207391D01*
Y204392D01*
X485676Y210507D02*
X479678D01*
Y213506D01*
X480678Y214505D01*
X482677D01*
X483677Y213506D01*
Y210507D01*
Y212506D02*
X485676Y214505D01*
X479678Y220503D02*
Y216505D01*
X482677D01*
X481677Y218504D01*
Y219504D01*
X482677Y220503D01*
X484677D01*
X485676Y219504D01*
Y217504D01*
X484677Y216505D01*
X479678Y226501D02*
Y222503D01*
X482677D01*
X481677Y224502D01*
Y225502D01*
X482677Y226501D01*
X484677D01*
X485676Y225502D01*
Y223502D01*
X484677Y222503D01*
X412869Y362355D02*
Y368353D01*
X415868D01*
X416867Y367354D01*
Y365354D01*
X415868Y364355D01*
X412869D01*
X414868D02*
X416867Y362355D01*
X422865Y368353D02*
X418867D01*
Y365354D01*
X420866Y366354D01*
X421866D01*
X422865Y365354D01*
Y363355D01*
X421866Y362355D01*
X419867D01*
X418867Y363355D01*
X427864Y362355D02*
Y368353D01*
X424865Y365354D01*
X428864D01*
X412475Y354875D02*
Y360873D01*
X415474D01*
X416474Y359873D01*
Y357874D01*
X415474Y356874D01*
X412475D01*
X414474D02*
X416474Y354875D01*
X422472Y360873D02*
X418473D01*
Y357874D01*
X420472Y358874D01*
X421472D01*
X422472Y357874D01*
Y355875D01*
X421472Y354875D01*
X419473D01*
X418473Y355875D01*
X424471Y359873D02*
X425471Y360873D01*
X427470D01*
X428470Y359873D01*
Y358874D01*
X427470Y357874D01*
X426471D01*
X427470D01*
X428470Y356874D01*
Y355875D01*
X427470Y354875D01*
X425471D01*
X424471Y355875D01*
X410479Y214443D02*
X404481D01*
Y217442D01*
X405481Y218442D01*
X407480D01*
X408480Y217442D01*
Y214443D01*
Y216443D02*
X410479Y218442D01*
X404481Y224440D02*
Y220442D01*
X407480D01*
X406481Y222441D01*
Y223441D01*
X407480Y224440D01*
X409480D01*
X410479Y223441D01*
Y221441D01*
X409480Y220442D01*
X410479Y230438D02*
Y226440D01*
X406481Y230438D01*
X405481D01*
X404481Y229439D01*
Y227439D01*
X405481Y226440D01*
X341188Y338671D02*
X335190D01*
Y341671D01*
X336190Y342670D01*
X338189D01*
X339189Y341671D01*
Y338671D01*
Y340671D02*
X341188Y342670D01*
X335190Y348668D02*
Y344670D01*
X338189D01*
X337189Y346669D01*
Y347669D01*
X338189Y348668D01*
X340188D01*
X341188Y347669D01*
Y345669D01*
X340188Y344670D01*
X341188Y350668D02*
Y352667D01*
Y351667D01*
X335190D01*
X336190Y350668D01*
X340822Y364324D02*
Y370322D01*
X343821D01*
X344820Y369322D01*
Y367323D01*
X343821Y366323D01*
X340822D01*
X342821D02*
X344820Y364324D01*
X350818Y370322D02*
X346819D01*
Y367323D01*
X348819Y368322D01*
X349819D01*
X350818Y367323D01*
Y365323D01*
X349819Y364324D01*
X347819D01*
X346819Y365323D01*
X352818Y369322D02*
X353817Y370322D01*
X355817D01*
X356816Y369322D01*
Y365323D01*
X355817Y364324D01*
X353817D01*
X352818Y365323D01*
Y369322D01*
X273499Y213536D02*
Y219534D01*
X276498D01*
X277497Y218535D01*
Y216535D01*
X276498Y215536D01*
X273499D01*
X275498D02*
X277497Y213536D01*
X279497Y218535D02*
X280496Y219534D01*
X282496D01*
X283495Y218535D01*
Y217535D01*
X282496Y216535D01*
X281496D01*
X282496D01*
X283495Y215536D01*
Y214536D01*
X282496Y213536D01*
X280496D01*
X279497Y214536D01*
X288494Y213536D02*
Y219534D01*
X285495Y216535D01*
X289493D01*
X266018Y308418D02*
Y314416D01*
X269017D01*
X270017Y313417D01*
Y311417D01*
X269017Y310418D01*
X266018D01*
X268018D02*
X270017Y308418D01*
X272016Y313417D02*
X273016Y314416D01*
X275015D01*
X276015Y313417D01*
Y312417D01*
X275015Y311417D01*
X274016D01*
X275015D01*
X276015Y310418D01*
Y309418D01*
X275015Y308418D01*
X273016D01*
X272016Y309418D01*
X278014Y313417D02*
X279014Y314416D01*
X281013D01*
X282013Y313417D01*
Y312417D01*
X281013Y311417D01*
X280014D01*
X281013D01*
X282013Y310418D01*
Y309418D01*
X281013Y308418D01*
X279014D01*
X278014Y309418D01*
X294338Y264837D02*
X288339D01*
Y267836D01*
X289339Y268836D01*
X291339D01*
X292338Y267836D01*
Y264837D01*
Y266837D02*
X294338Y268836D01*
X289339Y270835D02*
X288339Y271835D01*
Y273834D01*
X289339Y274834D01*
X290339D01*
X291339Y273834D01*
Y272835D01*
Y273834D01*
X292338Y274834D01*
X293338D01*
X294338Y273834D01*
Y271835D01*
X293338Y270835D01*
X294338Y280832D02*
Y276833D01*
X290339Y280832D01*
X289339D01*
X288339Y279832D01*
Y277833D01*
X289339Y276833D01*
X285676Y317018D02*
X279678D01*
Y320017D01*
X280678Y321017D01*
X282677D01*
X283677Y320017D01*
Y317018D01*
Y319017D02*
X285676Y321017D01*
X280678Y323016D02*
X279678Y324016D01*
Y326015D01*
X280678Y327015D01*
X281678D01*
X282677Y326015D01*
Y325015D01*
Y326015D01*
X283677Y327015D01*
X284677D01*
X285676Y326015D01*
Y324016D01*
X284677Y323016D01*
X285676Y329014D02*
Y331013D01*
Y330014D01*
X279678D01*
X280678Y329014D01*
X270349Y234402D02*
Y240401D01*
X273348D01*
X274348Y239401D01*
Y237402D01*
X273348Y236402D01*
X270349D01*
X272348D02*
X274348Y234402D01*
X276347Y239401D02*
X277347Y240401D01*
X279346D01*
X280346Y239401D01*
Y238401D01*
X279346Y237402D01*
X278346D01*
X279346D01*
X280346Y236402D01*
Y235402D01*
X279346Y234402D01*
X277347D01*
X276347Y235402D01*
X282345Y239401D02*
X283345Y240401D01*
X285344D01*
X286344Y239401D01*
Y235402D01*
X285344Y234402D01*
X283345D01*
X282345Y235402D01*
Y239401D01*
X488038Y382660D02*
X482040D01*
Y385659D01*
X483040Y386659D01*
X485039D01*
X486039Y385659D01*
Y382660D01*
Y384659D02*
X488038Y386659D01*
Y388658D02*
Y390657D01*
Y389658D01*
X482040D01*
X483040Y388658D01*
X488038Y397655D02*
Y393656D01*
X484040Y397655D01*
X483040D01*
X482040Y396655D01*
Y394656D01*
X483040Y393656D01*
X376179Y423773D02*
Y429771D01*
X379178D01*
X380178Y428771D01*
Y426772D01*
X379178Y425772D01*
X376179D01*
X378179D02*
X380178Y423773D01*
X382177D02*
X384177D01*
X383177D01*
Y429771D01*
X382177Y428771D01*
X387176Y423773D02*
X389175D01*
X388175D01*
Y429771D01*
X387176Y428771D01*
X266686Y456317D02*
X272684D01*
Y453317D01*
X271684Y452318D01*
X269685D01*
X268685Y453317D01*
Y456317D01*
Y454317D02*
X266686Y452318D01*
Y450318D02*
Y448319D01*
Y449319D01*
X272684D01*
X271684Y450318D01*
Y445320D02*
X272684Y444320D01*
Y442321D01*
X271684Y441321D01*
X267686D01*
X266686Y442321D01*
Y444320D01*
X267686Y445320D01*
X271684D01*
X245659Y344278D02*
Y348277D01*
X244659Y349277D01*
X242659D01*
X241660Y348277D01*
Y344278D01*
X242659Y343279D01*
X244659D01*
X243659Y345278D02*
X245659Y343279D01*
X244659D02*
X245659Y344278D01*
X247658Y348277D02*
X248658Y349277D01*
X250657D01*
X251657Y348277D01*
Y347277D01*
X250657Y346278D01*
X249657D01*
X250657D01*
X251657Y345278D01*
Y344278D01*
X250657Y343279D01*
X248658D01*
X247658Y344278D01*
X253656Y348277D02*
X254656Y349277D01*
X256655D01*
X257655Y348277D01*
Y344278D01*
X256655Y343279D01*
X254656D01*
X253656Y344278D01*
Y348277D01*
X272198Y342109D02*
X278196D01*
Y346107D01*
Y348107D02*
Y350106D01*
Y349107D01*
X272198D01*
X273198Y348107D01*
Y353105D02*
X272198Y354105D01*
Y356104D01*
X273198Y357104D01*
X277196D01*
X278196Y356104D01*
Y354105D01*
X277196Y353105D01*
X273198D01*
X494639Y256149D02*
X492639D01*
X493639D01*
Y251150D01*
X492639Y250151D01*
X491640D01*
X490640Y251150D01*
X500637Y256149D02*
X496638D01*
Y253150D01*
X498637Y254149D01*
X499637D01*
X500637Y253150D01*
Y251150D01*
X499637Y250151D01*
X497638D01*
X496638Y251150D01*
X502636Y250151D02*
X504635D01*
X503636D01*
Y256149D01*
X502636Y255149D01*
X214853Y213578D02*
X212854D01*
X213853D01*
Y208579D01*
X212854Y207579D01*
X211854D01*
X210854Y208579D01*
X220851Y213578D02*
X216852D01*
Y210579D01*
X218852Y211578D01*
X219851D01*
X220851Y210579D01*
Y208579D01*
X219851Y207579D01*
X217852D01*
X216852Y208579D01*
X222850Y212578D02*
X223850Y213578D01*
X225850D01*
X226849Y212578D01*
Y208579D01*
X225850Y207579D01*
X223850D01*
X222850Y208579D01*
Y212578D01*
X210387Y393550D02*
X208387D01*
X209387D01*
Y388552D01*
X208387Y387552D01*
X207388D01*
X206388Y388552D01*
X212386Y392550D02*
X213386Y393550D01*
X215385D01*
X216385Y392550D01*
Y391551D01*
X215385Y390551D01*
X214386D01*
X215385D01*
X216385Y389551D01*
Y388552D01*
X215385Y387552D01*
X213386D01*
X212386Y388552D01*
X218384Y387552D02*
X220384D01*
X219384D01*
Y393550D01*
X218384Y392550D01*
X226029Y441188D02*
X224029D01*
X225029D01*
Y436190D01*
X224029Y435190D01*
X223030D01*
X222030Y436190D01*
X228028Y435190D02*
X230027D01*
X229028D01*
Y441188D01*
X228028Y440188D01*
X233026D02*
X234026Y441188D01*
X236026D01*
X237025Y440188D01*
Y436190D01*
X236026Y435190D01*
X234026D01*
X233026Y436190D01*
Y440188D01*
X359401Y211267D02*
X361400D01*
X360400D01*
Y205269D01*
X359401D01*
X361400D01*
X368398Y210267D02*
X367398Y211267D01*
X365399D01*
X364399Y210267D01*
Y206268D01*
X365399Y205269D01*
X367398D01*
X368398Y206268D01*
X374396Y211267D02*
X370397D01*
Y208268D01*
X372396Y209267D01*
X373396D01*
X374396Y208268D01*
Y206268D01*
X373396Y205269D01*
X371397D01*
X370397Y206268D01*
X376395Y205269D02*
X378395D01*
X377395D01*
Y211267D01*
X376395Y210267D01*
X335584Y295803D02*
Y297802D01*
Y296802D01*
X341582D01*
Y295803D01*
Y297802D01*
X336583Y304800D02*
X335584Y303800D01*
Y301801D01*
X336583Y300801D01*
X340582D01*
X341582Y301801D01*
Y303800D01*
X340582Y304800D01*
X335584Y310798D02*
Y306799D01*
X338583D01*
X337583Y308798D01*
Y309798D01*
X338583Y310798D01*
X340582D01*
X341582Y309798D01*
Y307799D01*
X340582Y306799D01*
X336583Y312797D02*
X335584Y313797D01*
Y315796D01*
X336583Y316796D01*
X340582D01*
X341582Y315796D01*
Y313797D01*
X340582Y312797D01*
X336583D01*
X353677Y176621D02*
X355676D01*
X354676D01*
Y170623D01*
X353677D01*
X355676D01*
X362674Y175621D02*
X361674Y176621D01*
X359675D01*
X358675Y175621D01*
Y171623D01*
X359675Y170623D01*
X361674D01*
X362674Y171623D01*
X367672Y170623D02*
Y176621D01*
X364673Y173622D01*
X368672D01*
X370671Y175621D02*
X371671Y176621D01*
X373670D01*
X374670Y175621D01*
Y171623D01*
X373670Y170623D01*
X371671D01*
X370671Y171623D01*
Y175621D01*
X221787Y255755D02*
X223786D01*
X222786D01*
Y249757D01*
X221787D01*
X223786D01*
X230784Y254755D02*
X229784Y255755D01*
X227785D01*
X226785Y254755D01*
Y250757D01*
X227785Y249757D01*
X229784D01*
X230784Y250757D01*
X232783Y254755D02*
X233783Y255755D01*
X235782D01*
X236782Y254755D01*
Y253756D01*
X235782Y252756D01*
X234783D01*
X235782D01*
X236782Y251756D01*
Y250757D01*
X235782Y249757D01*
X233783D01*
X232783Y250757D01*
X238781Y254755D02*
X239781Y255755D01*
X241780D01*
X242780Y254755D01*
Y250757D01*
X241780Y249757D01*
X239781D01*
X238781Y250757D01*
Y254755D01*
X412749Y337491D02*
X418747D01*
Y340490D01*
X417747Y341489D01*
X413749D01*
X412749Y340490D01*
Y337491D01*
Y347487D02*
Y343489D01*
X415748D01*
X414748Y345488D01*
Y346487D01*
X415748Y347487D01*
X417747D01*
X418747Y346487D01*
Y344488D01*
X417747Y343489D01*
X418747Y349487D02*
Y351486D01*
Y350486D01*
X412749D01*
X413749Y349487D01*
X420623Y337278D02*
X426621D01*
Y340277D01*
X425621Y341277D01*
X421623D01*
X420623Y340277D01*
Y337278D01*
Y347275D02*
Y343276D01*
X423622D01*
X422622Y345276D01*
Y346275D01*
X423622Y347275D01*
X425621D01*
X426621Y346275D01*
Y344276D01*
X425621Y343276D01*
X421623Y349274D02*
X420623Y350274D01*
Y352273D01*
X421623Y353273D01*
X425621D01*
X426621Y352273D01*
Y350274D01*
X425621Y349274D01*
X421623D01*
X300544Y305388D02*
X306542D01*
Y308387D01*
X305543Y309387D01*
X301544D01*
X300544Y308387D01*
Y305388D01*
X301544Y311386D02*
X300544Y312386D01*
Y314386D01*
X301544Y315385D01*
X302544D01*
X303543Y314386D01*
Y313386D01*
Y314386D01*
X304543Y315385D01*
X305543D01*
X306542Y314386D01*
Y312386D01*
X305543Y311386D01*
X301544Y317385D02*
X300544Y318384D01*
Y320384D01*
X301544Y321383D01*
X305543D01*
X306542Y320384D01*
Y318384D01*
X305543Y317385D01*
X301544D01*
X416686Y420274D02*
X422684D01*
Y423273D01*
X421684Y424272D01*
X417686D01*
X416686Y423273D01*
Y420274D01*
X422684Y426272D02*
Y428271D01*
Y427272D01*
X416686D01*
X417686Y426272D01*
X422684Y431270D02*
Y433270D01*
Y432270D01*
X416686D01*
X417686Y431270D01*
X222593Y452605D02*
Y446607D01*
X225592D01*
X226592Y447607D01*
Y451606D01*
X225592Y452605D01*
X222593D01*
X228591Y446607D02*
X230591D01*
X229591D01*
Y452605D01*
X228591Y451606D01*
X233590D02*
X234589Y452605D01*
X236589D01*
X237588Y451606D01*
Y447607D01*
X236589Y446607D01*
X234589D01*
X233590Y447607D01*
Y451606D01*
X459418Y280253D02*
X458418Y279254D01*
Y277254D01*
X459418Y276255D01*
X463417D01*
X464416Y277254D01*
Y279254D01*
X463417Y280253D01*
X458418Y286251D02*
X459418Y284252D01*
X461417Y282253D01*
X463417D01*
X464416Y283252D01*
Y285252D01*
X463417Y286251D01*
X462417D01*
X461417Y285252D01*
Y282253D01*
X459418Y288251D02*
X458418Y289250D01*
Y291250D01*
X459418Y292249D01*
X463417D01*
X464416Y291250D01*
Y289250D01*
X463417Y288251D01*
X459418D01*
X490914Y196789D02*
X489914Y195789D01*
Y193790D01*
X490914Y192790D01*
X494913D01*
X495912Y193790D01*
Y195789D01*
X494913Y196789D01*
X489914Y202787D02*
Y198788D01*
X492913D01*
X491914Y200787D01*
Y201787D01*
X492913Y202787D01*
X494913D01*
X495912Y201787D01*
Y199788D01*
X494913Y198788D01*
Y204786D02*
X495912Y205786D01*
Y207785D01*
X494913Y208785D01*
X490914D01*
X489914Y207785D01*
Y205786D01*
X490914Y204786D01*
X491914D01*
X492913Y205786D01*
Y208785D01*
X490520Y214899D02*
X489521Y213899D01*
Y211900D01*
X490520Y210900D01*
X494519D01*
X495519Y211900D01*
Y213899D01*
X494519Y214899D01*
X489521Y220897D02*
Y216898D01*
X492520D01*
X491520Y218898D01*
Y219897D01*
X492520Y220897D01*
X494519D01*
X495519Y219897D01*
Y217898D01*
X494519Y216898D01*
X490520Y222896D02*
X489521Y223896D01*
Y225895D01*
X490520Y226895D01*
X491520D01*
X492520Y225895D01*
X493519Y226895D01*
X494519D01*
X495519Y225895D01*
Y223896D01*
X494519Y222896D01*
X493519D01*
X492520Y223896D01*
X491520Y222896D01*
X490520D01*
X492520Y223896D02*
Y225895D01*
X450726Y332708D02*
X449726Y333708D01*
X447727D01*
X446727Y332708D01*
Y328709D01*
X447727Y327710D01*
X449726D01*
X450726Y328709D01*
X456724Y333708D02*
X452725D01*
Y330709D01*
X454724Y331708D01*
X455724D01*
X456724Y330709D01*
Y328709D01*
X455724Y327710D01*
X453725D01*
X452725Y328709D01*
X458723Y333708D02*
X462722D01*
Y332708D01*
X458723Y328709D01*
Y327710D01*
X336190Y274741D02*
X335190Y273742D01*
Y271742D01*
X336190Y270743D01*
X340188D01*
X341188Y271742D01*
Y273742D01*
X340188Y274741D01*
X335190Y280739D02*
Y276741D01*
X338189D01*
X337189Y278740D01*
Y279740D01*
X338189Y280739D01*
X340188D01*
X341188Y279740D01*
Y277741D01*
X340188Y276741D01*
X335190Y286738D02*
X336190Y284738D01*
X338189Y282739D01*
X340188D01*
X341188Y283738D01*
Y285738D01*
X340188Y286738D01*
X339189D01*
X338189Y285738D01*
Y282739D01*
X461356Y322472D02*
X460356Y323471D01*
X458357D01*
X457357Y322472D01*
Y318473D01*
X458357Y317473D01*
X460356D01*
X461356Y318473D01*
X467354Y323471D02*
X463355D01*
Y320472D01*
X465354Y321472D01*
X466354D01*
X467354Y320472D01*
Y318473D01*
X466354Y317473D01*
X464355D01*
X463355Y318473D01*
X473352Y323471D02*
X469353D01*
Y320472D01*
X471352Y321472D01*
X472352D01*
X473352Y320472D01*
Y318473D01*
X472352Y317473D01*
X470353D01*
X469353Y318473D01*
X398363Y420110D02*
X397364Y421109D01*
X395364D01*
X394365Y420110D01*
Y416111D01*
X395364Y415111D01*
X397364D01*
X398363Y416111D01*
X404362Y421109D02*
X400363D01*
Y418110D01*
X402362Y419110D01*
X403362D01*
X404362Y418110D01*
Y416111D01*
X403362Y415111D01*
X401363D01*
X400363Y416111D01*
X409360Y415111D02*
Y421109D01*
X406361Y418110D01*
X410360D01*
X463718Y271684D02*
X462718Y272684D01*
X460719D01*
X459719Y271684D01*
Y267686D01*
X460719Y266686D01*
X462718D01*
X463718Y267686D01*
X469716Y272684D02*
X465717D01*
Y269685D01*
X467717Y270685D01*
X468716D01*
X469716Y269685D01*
Y267686D01*
X468716Y266686D01*
X466717D01*
X465717Y267686D01*
X471715Y271684D02*
X472715Y272684D01*
X474714D01*
X475714Y271684D01*
Y270685D01*
X474714Y269685D01*
X473715D01*
X474714D01*
X475714Y268685D01*
Y267686D01*
X474714Y266686D01*
X472715D01*
X471715Y267686D01*
X397970Y427196D02*
X396970Y428196D01*
X394971D01*
X393971Y427196D01*
Y423198D01*
X394971Y422198D01*
X396970D01*
X397970Y423198D01*
X403968Y428196D02*
X399969D01*
Y425197D01*
X401968Y426196D01*
X402968D01*
X403968Y425197D01*
Y423198D01*
X402968Y422198D01*
X400969D01*
X399969Y423198D01*
X409966Y422198D02*
X405967D01*
X409966Y426196D01*
Y427196D01*
X408966Y428196D01*
X406967D01*
X405967Y427196D01*
X378316Y397001D02*
X377316Y396001D01*
Y394002D01*
X378316Y393002D01*
X382314D01*
X383314Y394002D01*
Y396001D01*
X382314Y397001D01*
X377316Y402999D02*
Y399000D01*
X380315D01*
X379315Y401000D01*
Y401999D01*
X380315Y402999D01*
X382314D01*
X383314Y401999D01*
Y400000D01*
X382314Y399000D01*
X383314Y404998D02*
Y406998D01*
Y405998D01*
X377316D01*
X378316Y404998D01*
X380647Y357511D02*
X379647Y358511D01*
X377648D01*
X376648Y357511D01*
Y353513D01*
X377648Y352513D01*
X379647D01*
X380647Y353513D01*
X386645Y358511D02*
X382646D01*
Y355512D01*
X384646Y356511D01*
X385645D01*
X386645Y355512D01*
Y353513D01*
X385645Y352513D01*
X383646D01*
X382646Y353513D01*
X388644Y357511D02*
X389644Y358511D01*
X391643D01*
X392643Y357511D01*
Y353513D01*
X391643Y352513D01*
X389644D01*
X388644Y353513D01*
Y357511D01*
X400151Y175621D02*
X399151Y176621D01*
X397152D01*
X396152Y175621D01*
Y171623D01*
X397152Y170623D01*
X399151D01*
X400151Y171623D01*
X405149Y170623D02*
Y176621D01*
X402150Y173622D01*
X406149D01*
X408148Y170623D02*
X410147D01*
X409148D01*
Y176621D01*
X408148Y175621D01*
X381434D02*
X380435Y176621D01*
X378435D01*
X377436Y175621D01*
Y171623D01*
X378435Y170623D01*
X380435D01*
X381434Y171623D01*
X386433Y170623D02*
Y176621D01*
X383434Y173622D01*
X387432D01*
X389432Y175621D02*
X390431Y176621D01*
X392431D01*
X393430Y175621D01*
Y171623D01*
X392431Y170623D01*
X390431D01*
X389432Y171623D01*
Y175621D01*
X273954Y228771D02*
X272954Y229771D01*
X270955D01*
X269955Y228771D01*
Y224772D01*
X270955Y223773D01*
X272954D01*
X273954Y224772D01*
X275953Y228771D02*
X276953Y229771D01*
X278952D01*
X279952Y228771D01*
Y227771D01*
X278952Y226772D01*
X277953D01*
X278952D01*
X279952Y225772D01*
Y224772D01*
X278952Y223773D01*
X276953D01*
X275953Y224772D01*
X281951Y228771D02*
X282951Y229771D01*
X284950D01*
X285950Y228771D01*
Y227771D01*
X284950Y226772D01*
X285950Y225772D01*
Y224772D01*
X284950Y223773D01*
X282951D01*
X281951Y224772D01*
Y225772D01*
X282951Y226772D01*
X281951Y227771D01*
Y228771D01*
X282951Y226772D02*
X284950D01*
X288946Y320804D02*
X287946Y319805D01*
Y317805D01*
X288946Y316806D01*
X292944D01*
X293944Y317805D01*
Y319805D01*
X292944Y320804D01*
X288946Y322804D02*
X287946Y323803D01*
Y325803D01*
X288946Y326802D01*
X289945D01*
X290945Y325803D01*
Y324803D01*
Y325803D01*
X291945Y326802D01*
X292944D01*
X293944Y325803D01*
Y323803D01*
X292944Y322804D01*
X287946Y328802D02*
Y332801D01*
X288946D01*
X292944Y328802D01*
X293944D01*
X317261Y312236D02*
X316262Y313235D01*
X314262D01*
X313262Y312236D01*
Y308237D01*
X314262Y307237D01*
X316262D01*
X317261Y308237D01*
X319261Y312236D02*
X320260Y313235D01*
X322259D01*
X323259Y312236D01*
Y311236D01*
X322259Y310236D01*
X321260D01*
X322259D01*
X323259Y309237D01*
Y308237D01*
X322259Y307237D01*
X320260D01*
X319261Y308237D01*
X329257Y313235D02*
X327258Y312236D01*
X325259Y310236D01*
Y308237D01*
X326258Y307237D01*
X328258D01*
X329257Y308237D01*
Y309237D01*
X328258Y310236D01*
X325259D01*
X243639Y390976D02*
X242639Y391975D01*
X240640D01*
X239640Y390976D01*
Y386977D01*
X240640Y385977D01*
X242639D01*
X243639Y386977D01*
X245638Y390976D02*
X246638Y391975D01*
X248638D01*
X249637Y390976D01*
Y389976D01*
X248638Y388976D01*
X247638D01*
X248638D01*
X249637Y387977D01*
Y386977D01*
X248638Y385977D01*
X246638D01*
X245638Y386977D01*
X255635Y385977D02*
X251637D01*
X255635Y389976D01*
Y390976D01*
X254636Y391975D01*
X252636D01*
X251637Y390976D01*
X262643Y395700D02*
X261643Y396700D01*
X259644D01*
X258644Y395700D01*
Y391701D01*
X259644Y390702D01*
X261643D01*
X262643Y391701D01*
X264642Y390702D02*
X266642D01*
X265642D01*
Y396700D01*
X264642Y395700D01*
X272640Y390702D02*
Y396700D01*
X269641Y393701D01*
X273639D01*
X471623Y419336D02*
X470623Y418336D01*
Y416337D01*
X471623Y415337D01*
X475621D01*
X476621Y416337D01*
Y418336D01*
X475621Y419336D01*
X476621Y421335D02*
Y423335D01*
Y422335D01*
X470623D01*
X471623Y421335D01*
X476621Y430332D02*
Y426334D01*
X472622Y430332D01*
X471623D01*
X470623Y429332D01*
Y427333D01*
X471623Y426334D01*
X459024Y419154D02*
X458025Y418155D01*
Y416155D01*
X459024Y415156D01*
X463023D01*
X464023Y416155D01*
Y418155D01*
X463023Y419154D01*
X464023Y421154D02*
Y423153D01*
Y422153D01*
X458025D01*
X459024Y421154D01*
X464023Y426152D02*
Y428151D01*
Y427152D01*
X458025D01*
X459024Y426152D01*
X380753Y421291D02*
X379753Y422290D01*
X377754D01*
X376754Y421291D01*
Y417292D01*
X377754Y416292D01*
X379753D01*
X380753Y417292D01*
X382752Y416292D02*
X384752D01*
X383752D01*
Y422290D01*
X382752Y421291D01*
X387751D02*
X388751Y422290D01*
X390750D01*
X391750Y421291D01*
Y417292D01*
X390750Y416292D01*
X388751D01*
X387751Y417292D01*
Y421291D01*
D13*
X386516Y182244D02*
X385778Y182670D01*
Y181818D01*
X386516Y182244D01*
X417165Y328976D02*
X416427Y329403D01*
Y328550D01*
X417165Y328976D01*
D14*
X426614Y325925D02*
X426169Y326849D01*
X425170Y327077D01*
X424369Y326438D01*
Y325413D01*
X425170Y324774D01*
X426169Y325002D01*
X426614Y325925D01*
D15*
X478657Y375449D02*
X479157D01*
Y378780D01*
X478657D02*
X479157D01*
X478657Y373449D02*
X479157D01*
Y370118D02*
Y373449D01*
X478657Y370118D02*
X479157D01*
X465658Y372949D02*
Y375949D01*
X464657Y374449D02*
X465658D01*
X467658D02*
X468657D01*
X465658Y372949D02*
X467658Y374449D01*
X465658Y375949D02*
X467658Y374449D01*
Y370118D02*
Y378780D01*
X456157Y370118D02*
Y371299D01*
Y370118D02*
X478657D01*
Y373449D01*
Y375449D02*
Y378780D01*
X456157D02*
X478657D01*
X456157Y377598D02*
Y378780D01*
X425614Y437441D02*
Y438622D01*
X403114Y437441D02*
X425614D01*
X403114D02*
Y440772D01*
Y442772D02*
Y446102D01*
X425614D01*
Y444921D02*
Y446102D01*
X414114Y437441D02*
Y446102D01*
Y441772D02*
X416114Y440272D01*
X414114Y441772D02*
X416114Y443272D01*
X413114Y441772D02*
X414114D01*
X416114D02*
X417114D01*
X416114Y440272D02*
Y443272D01*
X402614Y446102D02*
X403114D01*
X402614Y442772D02*
Y446102D01*
Y442772D02*
X403114D01*
X402614Y437441D02*
X403114D01*
X402614D02*
Y440772D01*
X403114D01*
X409291Y184390D02*
X410276D01*
Y203091D01*
X409291D02*
X410276D01*
X401417D02*
X402402D01*
X401417Y184390D02*
Y203091D01*
Y184390D02*
X402402D01*
X401417Y193740D02*
X410276D01*
X400138Y184291D02*
X401122D01*
Y202992D01*
X400138D02*
X401122D01*
X392264D02*
X393248D01*
X392264Y184291D02*
Y202992D01*
Y184291D02*
X393248D01*
X392264Y193642D02*
X401122D01*
X444921Y355437D02*
X446102D01*
Y332937D02*
Y355437D01*
X442772Y332937D02*
X446102D01*
X437441D02*
X440772D01*
X437441D02*
Y355437D01*
X438622D01*
X437441Y343937D02*
X446102D01*
X441772D02*
X443272Y345937D01*
X440272D02*
X441772Y343937D01*
Y342937D02*
Y343937D01*
Y345937D02*
Y346937D01*
X440272Y345937D02*
X443272D01*
X437441Y332437D02*
Y332937D01*
Y332437D02*
X440772D01*
Y332937D01*
X446102Y332437D02*
Y332937D01*
X442772Y332437D02*
X446102D01*
X442772D02*
Y332937D01*
X434882Y355339D02*
X436063D01*
Y332839D02*
Y355339D01*
X432732Y332839D02*
X436063D01*
X427402D02*
X430732D01*
X427402D02*
Y355339D01*
X428583D01*
X427402Y343839D02*
X436063D01*
X431732D02*
X433232Y345839D01*
X430232D02*
X431732Y343839D01*
Y342839D02*
Y343839D01*
Y345839D02*
Y346839D01*
X430232Y345839D02*
X433232D01*
X427402Y332339D02*
Y332839D01*
Y332339D02*
X430732D01*
Y332839D01*
X436063Y332339D02*
Y332839D01*
X432732Y332339D02*
X436063D01*
X432732D02*
Y332839D01*
X323016Y229110D02*
Y229610D01*
X319685D02*
X323016D01*
X319685Y229110D02*
Y229610D01*
X325016Y229110D02*
Y229610D01*
X328346D01*
Y229110D02*
Y229610D01*
X322516Y216110D02*
X325516D01*
X324016Y215110D02*
Y216110D01*
Y218110D02*
Y219110D01*
Y218110D02*
X325516Y216110D01*
X322516D02*
X324016Y218110D01*
X319685D02*
X328346D01*
X327165Y206610D02*
X328346D01*
Y229110D01*
X325016D02*
X328346D01*
X319685D02*
X323016D01*
X319685Y206610D02*
Y229110D01*
Y206610D02*
X320866D01*
X242067Y431847D02*
X243248D01*
X242067D02*
Y454347D01*
X245398D01*
X247398D02*
X250728D01*
Y431847D02*
Y454347D01*
X249547Y431847D02*
X250728D01*
X242067Y443347D02*
X250728D01*
X244898Y441347D02*
X246398Y443347D01*
X247898Y441347D01*
X246398Y443347D02*
Y444347D01*
Y440346D02*
Y441347D01*
X244898D02*
X247898D01*
X250728Y454347D02*
Y454846D01*
X247398D02*
X250728D01*
X247398Y454347D02*
Y454846D01*
X242067Y454347D02*
Y454846D01*
X245398D01*
Y454347D02*
Y454846D01*
D16*
X328772Y453575D02*
Y462572D01*
X333270D01*
X334770Y461072D01*
Y458073D01*
X333270Y456574D01*
X328772D01*
X331771D02*
X334770Y453575D01*
X342267Y462572D02*
X339268D01*
X337769Y461072D01*
Y455074D01*
X339268Y453575D01*
X342267D01*
X343767Y455074D01*
Y461072D01*
X342267Y462572D01*
X361761Y459573D02*
X357262D01*
X355763Y458073D01*
Y455074D01*
X357262Y453575D01*
X361761D01*
X366260D02*
X369259D01*
X370758Y455074D01*
Y458073D01*
X369259Y459573D01*
X366260D01*
X364760Y458073D01*
Y455074D01*
X366260Y453575D01*
X373757D02*
Y459573D01*
X378256D01*
X379755Y458073D01*
Y453575D01*
X384254Y461072D02*
Y459573D01*
X382754D01*
X385753D01*
X384254D01*
Y455074D01*
X385753Y453575D01*
X390252Y459573D02*
Y453575D01*
Y456574D01*
X391751Y458073D01*
X393251Y459573D01*
X394750D01*
X400748Y453575D02*
X403747D01*
X405247Y455074D01*
Y458073D01*
X403747Y459573D01*
X400748D01*
X399249Y458073D01*
Y455074D01*
X400748Y453575D01*
X408246D02*
X411245D01*
X409746D01*
Y462572D01*
X408246D01*
X415743Y453575D02*
X418743D01*
X417243D01*
Y462572D01*
X415743D01*
X427740Y453575D02*
X424741D01*
X423241Y455074D01*
Y458073D01*
X424741Y459573D01*
X427740D01*
X429239Y458073D01*
Y456574D01*
X423241D01*
X432238Y459573D02*
Y453575D01*
Y456574D01*
X433738Y458073D01*
X435237Y459573D01*
X436737D01*
X450232Y453575D02*
X453231D01*
X451732D01*
Y462572D01*
X450232Y461072D01*
X457730Y453575D02*
Y455074D01*
X459230D01*
Y453575D01*
X457730D01*
X465228Y461072D02*
X466727Y462572D01*
X469726D01*
X471226Y461072D01*
Y455074D01*
X469726Y453575D01*
X466727D01*
X465228Y455074D01*
Y461072D01*
M02*
