G04*
G04 #@! TF.GenerationSoftware,Altium Limited,Altium Designer,21.1.1 (26)*
G04*
G04 Layer_Color=10517442*
%FSLAX25Y25*%
%MOIN*%
G70*
G04*
G04 #@! TF.SameCoordinates,BBBE4658-4D14-4CED-8B08-E313B85CDB7B*
G04*
G04*
G04 #@! TF.FilePolarity,Positive*
G04*
G01*
G75*
%ADD12C,0.01000*%
D12*
X187852Y183071D02*
X187878Y182074D01*
X187953Y181079D01*
X188079Y180090D01*
X188255Y179108D01*
X188481Y178137D01*
X188755Y177178D01*
X189078Y176234D01*
X189448Y175308D01*
X189864Y174402D01*
X190326Y173518D01*
X190832Y172658D01*
X191381Y171825D01*
X191971Y171021D01*
X192601Y170249D01*
X193270Y169509D01*
X193975Y168803D01*
X194715Y168135D01*
X195488Y167504D01*
X196292Y166914D01*
X197125Y166365D01*
X197984Y165859D01*
X198868Y165398D01*
X199775Y164981D01*
X200701Y164611D01*
X201644Y164289D01*
X202603Y164014D01*
X203575Y163789D01*
X204557Y163613D01*
X205546Y163487D01*
X206540Y163411D01*
X207538Y163386D01*
X489370D02*
X490367Y163411D01*
X491362Y163487D01*
X492351Y163613D01*
X493333Y163789D01*
X494304Y164014D01*
X495263Y164289D01*
X496207Y164611D01*
X497133Y164981D01*
X498039Y165398D01*
X498923Y165859D01*
X499783Y166365D01*
X500616Y166914D01*
X501419Y167504D01*
X502192Y168135D01*
X502932Y168803D01*
X503638Y169509D01*
X504306Y170249D01*
X504937Y171022D01*
X505527Y171826D01*
X506076Y172658D01*
X506582Y173518D01*
X507043Y174402D01*
X507460Y175308D01*
X507830Y176234D01*
X508152Y177178D01*
X508427Y178137D01*
X508652Y179108D01*
X508828Y180090D01*
X508954Y181079D01*
X509030Y182074D01*
X509055Y183071D01*
Y449606D02*
X509030Y450603D01*
X508954Y451598D01*
X508828Y452587D01*
X508652Y453569D01*
X508427Y454540D01*
X508152Y455499D01*
X507830Y456443D01*
X507460Y457369D01*
X507043Y458276D01*
X506582Y459160D01*
X506076Y460019D01*
X505527Y460852D01*
X504937Y461656D01*
X504306Y462429D01*
X503638Y463169D01*
X502932Y463874D01*
X502192Y464542D01*
X501419Y465173D01*
X500616Y465763D01*
X499783Y466312D01*
X498923Y466818D01*
X498039Y467280D01*
X497133Y467696D01*
X496207Y468066D01*
X495263Y468389D01*
X494304Y468663D01*
X493333Y468888D01*
X492351Y469064D01*
X491362Y469190D01*
X490367Y469266D01*
X489370Y469291D01*
X207538D02*
X206540Y469266D01*
X205546Y469190D01*
X204557Y469064D01*
X203575Y468888D01*
X202603Y468663D01*
X201644Y468389D01*
X200701Y468066D01*
X199775Y467696D01*
X198868Y467280D01*
X197984Y466818D01*
X197125Y466312D01*
X196292Y465763D01*
X195488Y465173D01*
X194715Y464542D01*
X193975Y463874D01*
X193270Y463169D01*
X192601Y462429D01*
X191971Y461656D01*
X191381Y460852D01*
X190832Y460019D01*
X190326Y459160D01*
X189864Y458276D01*
X189448Y457369D01*
X189078Y456443D01*
X188755Y455499D01*
X188481Y454540D01*
X188255Y453569D01*
X188079Y452587D01*
X187953Y451598D01*
X187878Y450603D01*
X187852Y449606D01*
Y183071D02*
Y449606D01*
X207538Y469291D02*
X489370D01*
X509055Y183071D02*
Y449606D01*
X207538Y163386D02*
X489370D01*
M02*
