G04*
G04 #@! TF.GenerationSoftware,Altium Limited,Altium Designer,21.1.1 (26)*
G04*
G04 Layer_Physical_Order=4*
G04 Layer_Color=16711680*
%FSLAX25Y25*%
%MOIN*%
G70*
G04*
G04 #@! TF.SameCoordinates,48ED7441-6B8D-405F-B593-7732F9BA20C5*
G04*
G04*
G04 #@! TF.FilePolarity,Positive*
G04*
G01*
G75*
%ADD80C,0.08268*%
%ADD81O,0.11811X0.07874*%
%ADD82C,0.06496*%
%ADD83C,0.08858*%
%ADD84O,0.06299X0.03543*%
%ADD85C,0.06000*%
%ADD86C,0.08661*%
%ADD87O,0.07874X0.11811*%
%ADD88C,0.09055*%
%ADD89C,0.05000*%
G36*
X492748Y466587D02*
X494935Y466001D01*
X497028Y465134D01*
X498989Y464002D01*
X500786Y462623D01*
X502387Y461022D01*
X503766Y459225D01*
X504898Y457264D01*
X505765Y455172D01*
X506351Y452984D01*
X506647Y450739D01*
Y449606D01*
Y183071D01*
Y181939D01*
X506351Y179693D01*
X505765Y177506D01*
X504898Y175413D01*
X503766Y173452D01*
X502387Y171655D01*
X500786Y170054D01*
X498989Y168675D01*
X497028Y167543D01*
X494935Y166676D01*
X492748Y166090D01*
X490502Y165794D01*
X206405D01*
X204160Y166090D01*
X201972Y166676D01*
X199880Y167543D01*
X197918Y168675D01*
X196122Y170054D01*
X194520Y171655D01*
X193142Y173452D01*
X192009Y175413D01*
X191143Y177506D01*
X190557Y179693D01*
X190261Y181939D01*
Y183071D01*
Y449606D01*
Y450739D01*
X190557Y452984D01*
X191143Y455172D01*
X192009Y457264D01*
X193142Y459225D01*
X194520Y461022D01*
X196122Y462623D01*
X197918Y464002D01*
X199880Y465134D01*
X201972Y466001D01*
X204160Y466587D01*
X206405Y466883D01*
X490503D01*
X492748Y466587D01*
D02*
G37*
%LPC*%
G36*
X489370Y460468D02*
X488401D01*
X488302Y460449D01*
X488202D01*
X486300Y460071D01*
X486207Y460032D01*
X486109Y460013D01*
X484318Y459271D01*
X484234Y459215D01*
X484141Y459176D01*
X482529Y458099D01*
X482458Y458028D01*
X482375Y457972D01*
X481004Y456601D01*
X480948Y456518D01*
X480877Y456447D01*
X479800Y454835D01*
X479762Y454742D01*
X479706Y454659D01*
X478964Y452867D01*
X478944Y452769D01*
X478906Y452676D01*
X478528Y450775D01*
Y450674D01*
X478508Y450576D01*
X478508Y449606D01*
Y448637D01*
X478528Y448538D01*
Y448438D01*
X478906Y446536D01*
X478944Y446444D01*
X478964Y446345D01*
X479706Y444554D01*
X479762Y444470D01*
X479800Y444378D01*
X480877Y442766D01*
X480948Y442695D01*
X481004Y442611D01*
X482375Y441240D01*
X482458Y441184D01*
X482529Y441113D01*
X484141Y440036D01*
X484234Y439998D01*
X484318Y439942D01*
X486109Y439200D01*
X486207Y439181D01*
X486300Y439142D01*
X488202Y438764D01*
X488302D01*
X488401Y438744D01*
X490340D01*
X490438Y438764D01*
X490538D01*
X492440Y439142D01*
X492533Y439181D01*
X492631Y439200D01*
X494422Y439942D01*
X494506Y439998D01*
X494599Y440036D01*
X496211Y441113D01*
X496282Y441184D01*
X496365Y441240D01*
X497736Y442611D01*
X497792Y442695D01*
X497863Y442766D01*
X498940Y444378D01*
X498979Y444470D01*
X499034Y444554D01*
X499776Y446345D01*
X499796Y446444D01*
X499834Y446536D01*
X500213Y448438D01*
Y448538D01*
X500232Y448637D01*
Y450576D01*
X500213Y450674D01*
Y450775D01*
X499834Y452676D01*
X499796Y452769D01*
X499776Y452867D01*
X499034Y454659D01*
X498979Y454742D01*
X498940Y454835D01*
X497863Y456447D01*
X497792Y456518D01*
X497736Y456601D01*
X496365Y457972D01*
X496282Y458028D01*
X496211Y458099D01*
X494599Y459176D01*
X494506Y459215D01*
X494422Y459271D01*
X492631Y460013D01*
X492533Y460032D01*
X492440Y460071D01*
X490538Y460449D01*
X490438D01*
X490340Y460468D01*
X489370Y460468D01*
D02*
G37*
G36*
X208507D02*
X206568D01*
X206470Y460449D01*
X206369D01*
X204468Y460071D01*
X204375Y460032D01*
X204276Y460013D01*
X202485Y459271D01*
X202402Y459215D01*
X202309Y459176D01*
X200697Y458099D01*
X200626Y458028D01*
X200542Y457972D01*
X199171Y456601D01*
X199116Y456518D01*
X199045Y456447D01*
X197967Y454835D01*
X197929Y454742D01*
X197873Y454659D01*
X197131Y452867D01*
X197112Y452769D01*
X197073Y452676D01*
X196695Y450775D01*
Y450674D01*
X196675Y450576D01*
Y448637D01*
X196695Y448538D01*
Y448438D01*
X197073Y446536D01*
X197112Y446444D01*
X197131Y446345D01*
X197873Y444554D01*
X197929Y444470D01*
X197967Y444378D01*
X199045Y442766D01*
X199116Y442695D01*
X199171Y442611D01*
X200542Y441240D01*
X200626Y441184D01*
X200697Y441113D01*
X202309Y440036D01*
X202402Y439998D01*
X202485Y439942D01*
X204276Y439200D01*
X204375Y439181D01*
X204468Y439142D01*
X206369Y438764D01*
X206470D01*
X206568Y438744D01*
X208507D01*
X208605Y438764D01*
X208706D01*
X210607Y439142D01*
X210700Y439181D01*
X210799Y439200D01*
X212590Y439942D01*
X212673Y439998D01*
X212766Y440036D01*
X214378Y441113D01*
X214449Y441184D01*
X214533Y441240D01*
X215904Y442611D01*
X215959Y442695D01*
X216030Y442766D01*
X217108Y444378D01*
X217146Y444470D01*
X217202Y444554D01*
X217944Y446345D01*
X217963Y446444D01*
X218002Y446536D01*
X218380Y448438D01*
Y448538D01*
X218400Y448637D01*
Y450576D01*
X218380Y450674D01*
Y450775D01*
X218002Y452676D01*
X217963Y452769D01*
X217944Y452867D01*
X217202Y454659D01*
X217146Y454742D01*
X217108Y454835D01*
X216030Y456447D01*
X215959Y456518D01*
X215904Y456601D01*
X214533Y457972D01*
X214449Y458028D01*
X214378Y458099D01*
X212766Y459176D01*
X212673Y459215D01*
X212590Y459271D01*
X210799Y460013D01*
X210700Y460032D01*
X210607Y460071D01*
X208706Y460449D01*
X208605D01*
X208507Y460468D01*
D02*
G37*
G36*
X267390Y440902D02*
X266468D01*
X265578Y440663D01*
X264780Y440202D01*
X264128Y439551D01*
X263668Y438753D01*
X263429Y437862D01*
Y436941D01*
X263668Y436051D01*
X264128Y435253D01*
X264780Y434601D01*
X265578Y434140D01*
X266468Y433902D01*
X267390D01*
X268280Y434140D01*
X269078Y434601D01*
X269730Y435253D01*
X270191Y436051D01*
X270429Y436941D01*
Y437862D01*
X270191Y438753D01*
X269730Y439551D01*
X269078Y440202D01*
X268280Y440663D01*
X267390Y440902D01*
D02*
G37*
G36*
X383138Y436965D02*
X382216D01*
X381326Y436726D01*
X380528Y436265D01*
X379876Y435614D01*
X379416Y434816D01*
X379177Y433925D01*
Y433004D01*
X379416Y432114D01*
X379876Y431316D01*
X380528Y430664D01*
X381326Y430203D01*
X382216Y429965D01*
X383138D01*
X384028Y430203D01*
X384826Y430664D01*
X385478Y431316D01*
X385939Y432114D01*
X386177Y433004D01*
Y433925D01*
X385939Y434816D01*
X385478Y435614D01*
X384826Y436265D01*
X384028Y436726D01*
X383138Y436965D01*
D02*
G37*
G36*
X339365Y423124D02*
X339117D01*
Y419924D01*
X342317D01*
Y420172D01*
X342086Y421037D01*
X341638Y421812D01*
X341005Y422445D01*
X340230Y422893D01*
X339365Y423124D01*
D02*
G37*
G36*
X338717D02*
X338470D01*
X337605Y422893D01*
X336830Y422445D01*
X336197Y421812D01*
X335749Y421037D01*
X335517Y420172D01*
Y419924D01*
X338717D01*
Y423124D01*
D02*
G37*
G36*
X256767Y427661D02*
X255714D01*
X254696Y427389D01*
X253784Y426862D01*
X253039Y426118D01*
X252513Y425205D01*
X252240Y424188D01*
Y423135D01*
X252513Y422118D01*
X253039Y421205D01*
X253784Y420461D01*
X254696Y419934D01*
X255714Y419661D01*
X256767D01*
X257784Y419934D01*
X258696Y420461D01*
X259441Y421205D01*
X259968Y422118D01*
X260240Y423135D01*
Y424188D01*
X259968Y425205D01*
X259441Y426118D01*
X258696Y426862D01*
X257784Y427389D01*
X256767Y427661D01*
D02*
G37*
G36*
X298886Y426335D02*
X297964D01*
X297074Y426096D01*
X296276Y425635D01*
X295624Y424984D01*
X295164Y424186D01*
X294925Y423295D01*
Y422374D01*
X295164Y421484D01*
X295624Y420686D01*
X296276Y420034D01*
X297074Y419573D01*
X297964Y419335D01*
X298886D01*
X299776Y419573D01*
X300574Y420034D01*
X301226Y420686D01*
X301687Y421484D01*
X301925Y422374D01*
Y423295D01*
X301687Y424186D01*
X301226Y424984D01*
X300574Y425635D01*
X299776Y426096D01*
X298886Y426335D01*
D02*
G37*
G36*
X221366Y425941D02*
X220248D01*
X219167Y425651D01*
X218199Y425092D01*
X217408Y424301D01*
X216848Y423333D01*
X216559Y422252D01*
Y421134D01*
X216848Y420053D01*
X217408Y419085D01*
X218199Y418294D01*
X219167Y417734D01*
X220248Y417445D01*
X221366D01*
X222447Y417734D01*
X223415Y418294D01*
X224206Y419085D01*
X224766Y420053D01*
X225055Y421134D01*
Y422252D01*
X224766Y423333D01*
X224206Y424301D01*
X223415Y425092D01*
X222447Y425651D01*
X221366Y425941D01*
D02*
G37*
G36*
X342317Y419524D02*
X339117D01*
Y416324D01*
X339365D01*
X340230Y416556D01*
X341005Y417004D01*
X341638Y417637D01*
X342086Y418412D01*
X342317Y419277D01*
Y419524D01*
D02*
G37*
G36*
X338717D02*
X335517D01*
Y419277D01*
X335749Y418412D01*
X336197Y417637D01*
X336830Y417004D01*
X337605Y416556D01*
X338470Y416324D01*
X338717D01*
Y419524D01*
D02*
G37*
G36*
X359129Y423724D02*
X358076D01*
X357058Y423452D01*
X356146Y422925D01*
X355402Y422181D01*
X354875Y421268D01*
X354602Y420251D01*
Y419198D01*
X354875Y418181D01*
X355402Y417268D01*
X356146Y416524D01*
X357058Y415997D01*
X358076Y415724D01*
X359129D01*
X360146Y415997D01*
X361058Y416524D01*
X361803Y417268D01*
X362330Y418181D01*
X362602Y419198D01*
Y420251D01*
X362330Y421268D01*
X361803Y422181D01*
X361058Y422925D01*
X360146Y423452D01*
X359129Y423724D01*
D02*
G37*
G36*
X298886Y411374D02*
X297964D01*
X297074Y411135D01*
X296276Y410675D01*
X295624Y410023D01*
X295164Y409225D01*
X294925Y408335D01*
Y407413D01*
X295164Y406523D01*
X295624Y405725D01*
X296276Y405073D01*
X297074Y404612D01*
X297964Y404374D01*
X298886D01*
X299776Y404612D01*
X300574Y405073D01*
X301226Y405725D01*
X301687Y406523D01*
X301925Y407413D01*
Y408335D01*
X301687Y409225D01*
X301226Y410023D01*
X300574Y410675D01*
X299776Y411135D01*
X298886Y411374D01*
D02*
G37*
G36*
X312272Y410980D02*
X311350D01*
X310460Y410742D01*
X309662Y410281D01*
X309010Y409629D01*
X308549Y408831D01*
X308311Y407941D01*
Y407020D01*
X308549Y406129D01*
X309010Y405331D01*
X309662Y404680D01*
X310460Y404219D01*
X311350Y403980D01*
X312272D01*
X313162Y404219D01*
X313960Y404680D01*
X314612Y405331D01*
X315072Y406129D01*
X315311Y407020D01*
Y407941D01*
X315072Y408831D01*
X314612Y409629D01*
X313960Y410281D01*
X313162Y410742D01*
X312272Y410980D01*
D02*
G37*
G36*
X221366Y412161D02*
X220248D01*
X219167Y411872D01*
X218199Y411313D01*
X217408Y410522D01*
X216848Y409553D01*
X216559Y408473D01*
Y407354D01*
X216848Y406274D01*
X217408Y405305D01*
X218199Y404514D01*
X219167Y403955D01*
X220248Y403665D01*
X221366D01*
X222447Y403955D01*
X223415Y404514D01*
X224206Y405305D01*
X224766Y406274D01*
X225055Y407354D01*
Y408473D01*
X224766Y409553D01*
X224206Y410522D01*
X223415Y411313D01*
X222447Y411872D01*
X221366Y412161D01*
D02*
G37*
G36*
X256767Y407976D02*
X255714D01*
X254696Y407704D01*
X253784Y407177D01*
X253039Y406432D01*
X252513Y405520D01*
X252240Y404503D01*
Y403450D01*
X252513Y402432D01*
X253039Y401520D01*
X253784Y400776D01*
X254696Y400249D01*
X255714Y399976D01*
X256767D01*
X257784Y400249D01*
X258696Y400776D01*
X259441Y401520D01*
X259968Y402432D01*
X260240Y403450D01*
Y404503D01*
X259968Y405520D01*
X259441Y406432D01*
X258696Y407177D01*
X257784Y407704D01*
X256767Y407976D01*
D02*
G37*
G36*
X462272Y406256D02*
X461350D01*
X460460Y406017D01*
X459662Y405557D01*
X459010Y404905D01*
X458549Y404107D01*
X458311Y403217D01*
Y402295D01*
X458549Y401405D01*
X459010Y400607D01*
X459662Y399955D01*
X460460Y399494D01*
X461350Y399256D01*
X462272D01*
X463162Y399494D01*
X463960Y399955D01*
X464612Y400607D01*
X465072Y401405D01*
X465311Y402295D01*
Y403217D01*
X465072Y404107D01*
X464612Y404905D01*
X463960Y405557D01*
X463162Y406017D01*
X462272Y406256D01*
D02*
G37*
G36*
X441406Y403894D02*
X440484D01*
X439594Y403655D01*
X438796Y403194D01*
X438144Y402543D01*
X437683Y401745D01*
X437445Y400854D01*
Y399933D01*
X437683Y399043D01*
X438144Y398245D01*
X438796Y397593D01*
X439594Y397132D01*
X440484Y396894D01*
X441406D01*
X442296Y397132D01*
X443094Y397593D01*
X443746Y398245D01*
X444206Y399043D01*
X444445Y399933D01*
Y400854D01*
X444206Y401745D01*
X443746Y402543D01*
X443094Y403194D01*
X442296Y403655D01*
X441406Y403894D01*
D02*
G37*
G36*
X440756Y390539D02*
X439835D01*
X438944Y390300D01*
X438146Y389839D01*
X437495Y389188D01*
X437034Y388390D01*
X436795Y387499D01*
Y386578D01*
X437034Y385688D01*
X437495Y384890D01*
X438146Y384238D01*
X438944Y383777D01*
X439835Y383539D01*
X440756D01*
X441646Y383777D01*
X442444Y384238D01*
X443096Y384890D01*
X443557Y385688D01*
X443795Y386578D01*
Y387499D01*
X443557Y388390D01*
X443096Y389188D01*
X442444Y389839D01*
X441646Y390300D01*
X440756Y390539D01*
D02*
G37*
G36*
X221509Y383717D02*
X220105D01*
X218749Y383353D01*
X217534Y382651D01*
X216541Y381659D01*
X215840Y380443D01*
X215476Y379088D01*
Y377684D01*
X215840Y376328D01*
X216541Y375113D01*
X217534Y374120D01*
X218749Y373418D01*
X220105Y373055D01*
X221509D01*
X222865Y373418D01*
X224080Y374120D01*
X225073Y375113D01*
X225775Y376328D01*
X226138Y377684D01*
Y379088D01*
X225775Y380443D01*
X225073Y381659D01*
X224080Y382651D01*
X222865Y383353D01*
X221509Y383717D01*
D02*
G37*
G36*
X417243Y381945D02*
X415788D01*
X414382Y381568D01*
X413122Y380840D01*
X412093Y379811D01*
X411365Y378551D01*
X410988Y377145D01*
Y375690D01*
X411365Y374284D01*
X412093Y373023D01*
X413122Y371994D01*
X414382Y371266D01*
X415788Y370890D01*
X417243D01*
X418649Y371266D01*
X419910Y371994D01*
X420939Y373023D01*
X421667Y374284D01*
X422043Y375690D01*
Y377145D01*
X421667Y378551D01*
X420939Y379811D01*
X419910Y380840D01*
X418649Y381568D01*
X417243Y381945D01*
D02*
G37*
G36*
X347519D02*
X346064D01*
X344658Y381568D01*
X343397Y380840D01*
X342368Y379811D01*
X341640Y378551D01*
X341264Y377145D01*
Y375690D01*
X341640Y374284D01*
X342368Y373023D01*
X343397Y371994D01*
X344658Y371266D01*
X346064Y370890D01*
X347519D01*
X348925Y371266D01*
X350185Y371994D01*
X351215Y373023D01*
X351942Y374284D01*
X352319Y375690D01*
Y377145D01*
X351942Y378551D01*
X351215Y379811D01*
X350185Y380840D01*
X348925Y381568D01*
X347519Y381945D01*
D02*
G37*
G36*
X266609Y372543D02*
X265556D01*
X264539Y372271D01*
X263627Y371744D01*
X262882Y370999D01*
X262355Y370087D01*
X262083Y369070D01*
Y368017D01*
X262355Y366999D01*
X262882Y366087D01*
X263627Y365342D01*
X264539Y364816D01*
X265556Y364543D01*
X266609D01*
X267627Y364816D01*
X268539Y365342D01*
X269284Y366087D01*
X269810Y366999D01*
X270083Y368017D01*
Y369070D01*
X269810Y370087D01*
X269284Y370999D01*
X268539Y371744D01*
X267627Y372271D01*
X266609Y372543D01*
D02*
G37*
G36*
X246924D02*
X245871D01*
X244854Y372271D01*
X243942Y371744D01*
X243197Y370999D01*
X242670Y370087D01*
X242398Y369070D01*
Y368017D01*
X242670Y366999D01*
X243197Y366087D01*
X243942Y365342D01*
X244854Y364816D01*
X245871Y364543D01*
X246924D01*
X247942Y364816D01*
X248854Y365342D01*
X249598Y366087D01*
X250125Y366999D01*
X250398Y368017D01*
Y369070D01*
X250125Y370087D01*
X249598Y370999D01*
X248854Y371744D01*
X247942Y372271D01*
X246924Y372543D01*
D02*
G37*
G36*
X221509Y369937D02*
X220105D01*
X218749Y369574D01*
X217534Y368872D01*
X216541Y367879D01*
X215840Y366664D01*
X215476Y365308D01*
Y363905D01*
X215840Y362549D01*
X216541Y361333D01*
X217534Y360341D01*
X218749Y359639D01*
X220105Y359276D01*
X221509D01*
X222865Y359639D01*
X224080Y360341D01*
X225073Y361333D01*
X225775Y362549D01*
X226138Y363905D01*
Y365308D01*
X225775Y366664D01*
X225073Y367879D01*
X224080Y368872D01*
X222865Y369574D01*
X221509Y369937D01*
D02*
G37*
G36*
X366602Y359405D02*
X365681D01*
X364791Y359167D01*
X363993Y358706D01*
X363341Y358055D01*
X362880Y357257D01*
X362642Y356366D01*
Y355445D01*
X362880Y354555D01*
X363341Y353756D01*
X363993Y353105D01*
X364791Y352644D01*
X365681Y352406D01*
X366602D01*
X367493Y352644D01*
X368291Y353105D01*
X368942Y353756D01*
X369403Y354555D01*
X369642Y355445D01*
Y356366D01*
X369403Y357257D01*
X368942Y358055D01*
X368291Y358706D01*
X367493Y359167D01*
X366602Y359405D01*
D02*
G37*
G36*
X221509Y356157D02*
X220105D01*
X218749Y355794D01*
X217534Y355092D01*
X216541Y354100D01*
X215840Y352884D01*
X215476Y351529D01*
Y350125D01*
X215840Y348769D01*
X216541Y347554D01*
X217534Y346561D01*
X218749Y345859D01*
X220105Y345496D01*
X221509D01*
X222865Y345859D01*
X224080Y346561D01*
X225073Y347554D01*
X225775Y348769D01*
X226138Y350125D01*
Y351529D01*
X225775Y352884D01*
X225073Y354100D01*
X224080Y355092D01*
X222865Y355794D01*
X221509Y356157D01*
D02*
G37*
G36*
X388650Y344445D02*
X387728D01*
X386838Y344206D01*
X386040Y343746D01*
X385388Y343094D01*
X385289Y342923D01*
X384789D01*
X384690Y343094D01*
X384039Y343746D01*
X383241Y344206D01*
X382350Y344445D01*
X381429D01*
X380539Y344206D01*
X379741Y343746D01*
X379089Y343094D01*
X378628Y342296D01*
X378390Y341406D01*
Y340484D01*
X378628Y339594D01*
X379089Y338796D01*
X379741Y338144D01*
X380539Y337683D01*
X381429Y337445D01*
X382350D01*
X383241Y337683D01*
X384039Y338144D01*
X384690Y338796D01*
X384789Y338967D01*
X385289D01*
X385388Y338796D01*
X386040Y338144D01*
X386838Y337683D01*
X387728Y337445D01*
X388650D01*
X389540Y337683D01*
X390338Y338144D01*
X390990Y338796D01*
X391451Y339594D01*
X391689Y340484D01*
Y341406D01*
X391451Y342296D01*
X390990Y343094D01*
X390338Y343746D01*
X389540Y344206D01*
X388650Y344445D01*
D02*
G37*
G36*
X262272Y349169D02*
X261350D01*
X260460Y348931D01*
X259662Y348470D01*
X259010Y347818D01*
X258549Y347020D01*
X258311Y346130D01*
Y345209D01*
X258549Y344318D01*
X259010Y343520D01*
X259662Y342869D01*
X260460Y342408D01*
X261350Y342169D01*
X262272D01*
X263162Y342408D01*
X263960Y342869D01*
X264612Y343520D01*
X265072Y344318D01*
X265311Y345209D01*
Y346130D01*
X265072Y347020D01*
X264612Y347818D01*
X263960Y348470D01*
X263162Y348931D01*
X262272Y349169D01*
D02*
G37*
G36*
X364634Y343264D02*
X363712D01*
X362822Y343025D01*
X362024Y342565D01*
X361372Y341913D01*
X360912Y341115D01*
X360673Y340225D01*
Y339303D01*
X360912Y338413D01*
X361372Y337615D01*
X362024Y336963D01*
X362822Y336502D01*
X363712Y336264D01*
X364634D01*
X365524Y336502D01*
X366322Y336963D01*
X366974Y337615D01*
X367435Y338413D01*
X367673Y339303D01*
Y340225D01*
X367435Y341115D01*
X366974Y341913D01*
X366322Y342565D01*
X365524Y343025D01*
X364634Y343264D01*
D02*
G37*
G36*
X475531Y363720D02*
X471594D01*
X470306Y363550D01*
X469105Y363053D01*
X468073Y362261D01*
X467282Y361230D01*
X466785Y360029D01*
X466615Y358740D01*
X466785Y357451D01*
X467282Y356250D01*
X468073Y355219D01*
X469105Y354428D01*
X470111Y354011D01*
Y353470D01*
X469105Y353053D01*
X468073Y352261D01*
X467282Y351230D01*
X466785Y350029D01*
X466615Y348740D01*
X466785Y347451D01*
X467282Y346250D01*
X468073Y345219D01*
X469105Y344428D01*
X470111Y344011D01*
Y343470D01*
X469105Y343053D01*
X468073Y342261D01*
X467282Y341230D01*
X466785Y340029D01*
X466615Y338740D01*
X466785Y337451D01*
X467282Y336250D01*
X468073Y335219D01*
X469105Y334428D01*
X470306Y333930D01*
X471594Y333761D01*
X475531D01*
X476820Y333930D01*
X478021Y334428D01*
X479053Y335219D01*
X479844Y336250D01*
X480341Y337451D01*
X480511Y338740D01*
X480341Y340029D01*
X479844Y341230D01*
X479053Y342261D01*
X478021Y343053D01*
X477015Y343470D01*
Y344011D01*
X478021Y344428D01*
X479053Y345219D01*
X479844Y346250D01*
X480341Y347451D01*
X480511Y348740D01*
X480341Y350029D01*
X479844Y351230D01*
X479053Y352261D01*
X478021Y353053D01*
X477015Y353470D01*
Y354011D01*
X478021Y354428D01*
X479053Y355219D01*
X479844Y356250D01*
X480341Y357451D01*
X480511Y358740D01*
X480341Y360029D01*
X479844Y361230D01*
X479053Y362261D01*
X478021Y363053D01*
X476820Y363550D01*
X475531Y363720D01*
D02*
G37*
G36*
X221509Y342378D02*
X220105D01*
X218749Y342015D01*
X217534Y341313D01*
X216541Y340320D01*
X215840Y339105D01*
X215476Y337749D01*
Y336345D01*
X215840Y334990D01*
X216541Y333774D01*
X217534Y332782D01*
X218749Y332080D01*
X220105Y331716D01*
X221509D01*
X222865Y332080D01*
X224080Y332782D01*
X225073Y333774D01*
X225775Y334990D01*
X226138Y336345D01*
Y337749D01*
X225775Y339105D01*
X225073Y340320D01*
X224080Y341313D01*
X222865Y342015D01*
X221509Y342378D01*
D02*
G37*
G36*
X475531Y333115D02*
X473763D01*
Y328940D01*
X479880D01*
X479757Y329872D01*
X479320Y330927D01*
X478625Y331833D01*
X477719Y332528D01*
X476664Y332965D01*
X475531Y333115D01*
D02*
G37*
G36*
X473363D02*
X471594D01*
X470462Y332965D01*
X469407Y332528D01*
X468501Y331833D01*
X467806Y330927D01*
X467369Y329872D01*
X467246Y328940D01*
X473363D01*
Y333115D01*
D02*
G37*
G36*
X331898Y335035D02*
X330976D01*
X330086Y334797D01*
X329288Y334336D01*
X328636Y333684D01*
X328175Y332886D01*
X327937Y331996D01*
Y331075D01*
X328175Y330185D01*
X328636Y329386D01*
X329288Y328735D01*
X330086Y328274D01*
X330976Y328035D01*
X331898D01*
X332788Y328274D01*
X333586Y328735D01*
X334238Y329386D01*
X334699Y330185D01*
X334937Y331075D01*
Y331996D01*
X334699Y332886D01*
X334238Y333684D01*
X333586Y334336D01*
X332788Y334797D01*
X331898Y335035D01*
D02*
G37*
G36*
X479880Y328540D02*
X473763D01*
Y324366D01*
X475531D01*
X476664Y324515D01*
X477719Y324952D01*
X478625Y325647D01*
X479320Y326553D01*
X479757Y327608D01*
X479880Y328540D01*
D02*
G37*
G36*
X473363D02*
X467246D01*
X467369Y327608D01*
X467806Y326553D01*
X468501Y325647D01*
X469407Y324952D01*
X470462Y324515D01*
X471594Y324366D01*
X473363D01*
Y328540D01*
D02*
G37*
G36*
X338623Y327194D02*
X337702D01*
X336811Y326955D01*
X336013Y326495D01*
X335362Y325843D01*
X334901Y325045D01*
X334662Y324155D01*
Y323233D01*
X334901Y322343D01*
X335362Y321545D01*
X336013Y320893D01*
X336811Y320432D01*
X337702Y320194D01*
X338623D01*
X339513Y320432D01*
X340311Y320893D01*
X340963Y321545D01*
X341424Y322343D01*
X341662Y323233D01*
Y324155D01*
X341424Y325045D01*
X340963Y325843D01*
X340311Y326495D01*
X339513Y326955D01*
X338623Y327194D01*
D02*
G37*
G36*
X221509Y328598D02*
X220105D01*
X218749Y328235D01*
X217534Y327533D01*
X216541Y326541D01*
X215840Y325325D01*
X215476Y323970D01*
Y322566D01*
X215840Y321210D01*
X216541Y319995D01*
X217534Y319002D01*
X218749Y318300D01*
X220105Y317937D01*
X221509D01*
X222865Y318300D01*
X224080Y319002D01*
X225073Y319995D01*
X225775Y321210D01*
X226138Y322566D01*
Y323970D01*
X225775Y325325D01*
X225073Y326541D01*
X224080Y327533D01*
X222865Y328235D01*
X221509Y328598D01*
D02*
G37*
G36*
X453283Y323592D02*
X452361D01*
X451471Y323354D01*
X450673Y322893D01*
X450021Y322241D01*
X449560Y321443D01*
X449322Y320553D01*
Y319631D01*
X449560Y318741D01*
X450021Y317943D01*
X450673Y317291D01*
X451471Y316831D01*
X452361Y316592D01*
X453283D01*
X454173Y316831D01*
X454971Y317291D01*
X455623Y317943D01*
X456083Y318741D01*
X456322Y319631D01*
Y320553D01*
X456083Y321443D01*
X455623Y322241D01*
X454971Y322893D01*
X454173Y323354D01*
X453283Y323592D01*
D02*
G37*
G36*
X423689Y321610D02*
X422768D01*
X421877Y321372D01*
X421079Y320911D01*
X420428Y320259D01*
X419967Y319461D01*
X419728Y318571D01*
Y317650D01*
X419967Y316759D01*
X420428Y315961D01*
X421079Y315310D01*
X421877Y314849D01*
X422768Y314610D01*
X423689D01*
X424579Y314849D01*
X425377Y315310D01*
X426029Y315961D01*
X426490Y316759D01*
X426728Y317650D01*
Y318571D01*
X426490Y319461D01*
X426029Y320259D01*
X425377Y320911D01*
X424579Y321372D01*
X423689Y321610D01*
D02*
G37*
G36*
X478020Y314917D02*
X477098D01*
X476208Y314679D01*
X475410Y314218D01*
X474758Y313566D01*
X474298Y312768D01*
X474059Y311878D01*
Y310957D01*
X474298Y310066D01*
X474758Y309268D01*
X475410Y308617D01*
X476208Y308156D01*
X477098Y307917D01*
X478020D01*
X478910Y308156D01*
X479708Y308617D01*
X480360Y309268D01*
X480821Y310066D01*
X481059Y310957D01*
Y311878D01*
X480821Y312768D01*
X480360Y313566D01*
X479708Y314218D01*
X478910Y314679D01*
X478020Y314917D01*
D02*
G37*
G36*
X221509Y314819D02*
X220105D01*
X218749Y314456D01*
X217534Y313754D01*
X216541Y312761D01*
X215840Y311546D01*
X215476Y310190D01*
Y308786D01*
X215840Y307431D01*
X216541Y306215D01*
X217534Y305223D01*
X218749Y304521D01*
X220105Y304157D01*
X221509D01*
X222865Y304521D01*
X224080Y305223D01*
X225073Y306215D01*
X225775Y307431D01*
X226138Y308786D01*
Y310190D01*
X225775Y311546D01*
X225073Y312761D01*
X224080Y313754D01*
X222865Y314456D01*
X221509Y314819D01*
D02*
G37*
G36*
X356307Y314957D02*
X355386D01*
X354496Y314718D01*
X353697Y314257D01*
X353046Y313606D01*
X352585Y312808D01*
X352346Y311917D01*
Y310996D01*
X352585Y310106D01*
X353046Y309308D01*
X353697Y308656D01*
X354496Y308195D01*
X354737Y308130D01*
X354887Y307573D01*
X354621Y307307D01*
X354160Y306508D01*
X353921Y305618D01*
Y304697D01*
X354160Y303806D01*
X354621Y303008D01*
X355272Y302357D01*
X356070Y301896D01*
X356961Y301658D01*
X357882D01*
X358772Y301896D01*
X359570Y302357D01*
X360222Y303008D01*
X360683Y303806D01*
X360921Y304697D01*
Y305618D01*
X360683Y306508D01*
X360222Y307307D01*
X359570Y307958D01*
X358772Y308419D01*
X358530Y308484D01*
X358381Y309041D01*
X358647Y309308D01*
X359108Y310106D01*
X359347Y310996D01*
Y311917D01*
X359108Y312808D01*
X358647Y313606D01*
X357996Y314257D01*
X357197Y314718D01*
X356307Y314957D01*
D02*
G37*
G36*
X329507Y308258D02*
X328586D01*
X327695Y308020D01*
X326897Y307559D01*
X326246Y306907D01*
X325785Y306109D01*
X325547Y305219D01*
Y304297D01*
X325785Y303407D01*
X326246Y302609D01*
X326897Y301958D01*
X327695Y301497D01*
X328586Y301258D01*
X329507D01*
X330397Y301497D01*
X331195Y301958D01*
X331847Y302609D01*
X332308Y303407D01*
X332546Y304297D01*
Y305219D01*
X332308Y306109D01*
X331847Y306907D01*
X331195Y307559D01*
X330397Y308020D01*
X329507Y308258D01*
D02*
G37*
G36*
X437075Y307831D02*
X436153D01*
X435263Y307592D01*
X434465Y307131D01*
X433813Y306480D01*
X433353Y305682D01*
X433114Y304791D01*
Y303870D01*
X433353Y302980D01*
X433813Y302182D01*
X434465Y301530D01*
X435263Y301069D01*
X436153Y300831D01*
X437075D01*
X437965Y301069D01*
X438763Y301530D01*
X439415Y302182D01*
X439876Y302980D01*
X440114Y303870D01*
Y304791D01*
X439876Y305682D01*
X439415Y306480D01*
X438763Y307131D01*
X437965Y307592D01*
X437075Y307831D01*
D02*
G37*
G36*
X271721Y306256D02*
X270799D01*
X269909Y306017D01*
X269111Y305557D01*
X268459Y304905D01*
X267998Y304107D01*
X267760Y303217D01*
Y302295D01*
X267998Y301405D01*
X268459Y300607D01*
X269111Y299955D01*
X269909Y299494D01*
X270799Y299256D01*
X271721D01*
X272611Y299494D01*
X273409Y299955D01*
X274061Y300607D01*
X274521Y301405D01*
X274760Y302295D01*
Y303217D01*
X274521Y304107D01*
X274061Y304905D01*
X273409Y305557D01*
X272611Y306017D01*
X271721Y306256D01*
D02*
G37*
G36*
X258729Y302319D02*
X257807D01*
X256917Y302080D01*
X256119Y301620D01*
X255467Y300968D01*
X255006Y300170D01*
X254768Y299280D01*
Y298358D01*
X255006Y297468D01*
X255467Y296670D01*
X256119Y296018D01*
X256917Y295557D01*
X257807Y295319D01*
X258729D01*
X259619Y295557D01*
X260417Y296018D01*
X261068Y296670D01*
X261529Y297468D01*
X261768Y298358D01*
Y299280D01*
X261529Y300170D01*
X261068Y300968D01*
X260417Y301620D01*
X259619Y302080D01*
X258729Y302319D01*
D02*
G37*
G36*
X425264Y300350D02*
X424342D01*
X423452Y300112D01*
X422654Y299651D01*
X422003Y298999D01*
X421542Y298201D01*
X421303Y297311D01*
Y296390D01*
X421542Y295499D01*
X422003Y294701D01*
X422654Y294050D01*
X423452Y293589D01*
X424342Y293350D01*
X425264D01*
X426154Y293589D01*
X426952Y294050D01*
X427604Y294701D01*
X428065Y295499D01*
X428303Y296390D01*
Y297311D01*
X428065Y298201D01*
X427604Y298999D01*
X426952Y299651D01*
X426154Y300112D01*
X425264Y300350D01*
D02*
G37*
G36*
X281957Y299847D02*
X281035D01*
X280145Y299608D01*
X279347Y299147D01*
X278695Y298496D01*
X278235Y297697D01*
X277996Y296807D01*
Y295886D01*
X278235Y294995D01*
X278695Y294197D01*
X279347Y293546D01*
X280145Y293085D01*
X281035Y292846D01*
X281957D01*
X282847Y293085D01*
X283645Y293546D01*
X284297Y294197D01*
X284757Y294995D01*
X284996Y295886D01*
Y296807D01*
X284757Y297697D01*
X284297Y298496D01*
X283645Y299147D01*
X282847Y299608D01*
X281957Y299847D01*
D02*
G37*
G36*
X221509Y301039D02*
X220105D01*
X218749Y300676D01*
X217534Y299974D01*
X216541Y298982D01*
X215840Y297766D01*
X215476Y296410D01*
Y295007D01*
X215840Y293651D01*
X216541Y292436D01*
X217534Y291443D01*
X218749Y290741D01*
X220105Y290378D01*
X221509D01*
X222865Y290741D01*
X224080Y291443D01*
X225073Y292436D01*
X225775Y293651D01*
X226138Y295007D01*
Y296410D01*
X225775Y297766D01*
X225073Y298982D01*
X224080Y299974D01*
X222865Y300676D01*
X221509Y301039D01*
D02*
G37*
G36*
X356760Y293657D02*
X355838D01*
X354948Y293419D01*
X354150Y292958D01*
X353499Y292306D01*
X353038Y291508D01*
X352799Y290618D01*
Y289697D01*
X353038Y288807D01*
X353499Y288008D01*
X354150Y287357D01*
X354948Y286896D01*
X355838Y286658D01*
X356760D01*
X357650Y286896D01*
X358448Y287357D01*
X359100Y288008D01*
X359561Y288807D01*
X359799Y289697D01*
Y290618D01*
X359561Y291508D01*
X359100Y292306D01*
X358448Y292958D01*
X357650Y293419D01*
X356760Y293657D01*
D02*
G37*
G36*
X302036Y292870D02*
X301114D01*
X300224Y292632D01*
X299426Y292171D01*
X298774Y291519D01*
X298313Y290721D01*
X298075Y289831D01*
Y288909D01*
X298313Y288019D01*
X298774Y287221D01*
X299426Y286569D01*
X300224Y286109D01*
X301114Y285870D01*
X302036D01*
X302926Y286109D01*
X303724Y286569D01*
X304376Y287221D01*
X304836Y288019D01*
X305075Y288909D01*
Y289831D01*
X304836Y290721D01*
X304376Y291519D01*
X303724Y292171D01*
X302926Y292632D01*
X302036Y292870D01*
D02*
G37*
G36*
X498032Y290591D02*
X495276D01*
X494552Y290496D01*
X493878Y290216D01*
X493299Y289772D01*
X492855Y289193D01*
X492575Y288519D01*
X492480Y287795D01*
X492575Y287072D01*
X492855Y286398D01*
X493299Y285819D01*
X493878Y285374D01*
X494552Y285095D01*
X495276Y285000D01*
X498032D01*
X498755Y285095D01*
X499429Y285374D01*
X500008Y285819D01*
X500453Y286398D01*
X500732Y287072D01*
X500827Y287795D01*
X500732Y288519D01*
X500453Y289193D01*
X500008Y289772D01*
X499429Y290216D01*
X498755Y290496D01*
X498032Y290591D01*
D02*
G37*
G36*
X473275Y285429D02*
X472354D01*
X471464Y285191D01*
X470666Y284730D01*
X470014Y284078D01*
X469553Y283280D01*
X469315Y282390D01*
Y281468D01*
X469553Y280578D01*
X470014Y279780D01*
X470666Y279128D01*
X471464Y278668D01*
X472354Y278429D01*
X473275D01*
X474165Y278668D01*
X474964Y279128D01*
X475615Y279780D01*
X476076Y280578D01*
X476315Y281468D01*
Y282390D01*
X476076Y283280D01*
X475615Y284078D01*
X474964Y284730D01*
X474165Y285191D01*
X473275Y285429D01*
D02*
G37*
G36*
X376839Y283815D02*
X375917D01*
X375027Y283576D01*
X374229Y283116D01*
X373577Y282464D01*
X373116Y281666D01*
X372878Y280776D01*
Y279854D01*
X373116Y278964D01*
X373577Y278166D01*
X374229Y277514D01*
X375027Y277053D01*
X375917Y276815D01*
X376839D01*
X377729Y277053D01*
X378527Y277514D01*
X379179Y278166D01*
X379639Y278964D01*
X379878Y279854D01*
Y280776D01*
X379639Y281666D01*
X379179Y282464D01*
X378527Y283116D01*
X377729Y283576D01*
X376839Y283815D01*
D02*
G37*
G36*
X221509Y287260D02*
X220105D01*
X218749Y286896D01*
X217534Y286195D01*
X216541Y285202D01*
X215840Y283987D01*
X215476Y282631D01*
Y281227D01*
X215840Y279872D01*
X216541Y278656D01*
X217534Y277663D01*
X218749Y276962D01*
X220105Y276598D01*
X221509D01*
X222865Y276962D01*
X224080Y277663D01*
X225073Y278656D01*
X225775Y279872D01*
X226138Y281227D01*
Y282631D01*
X225775Y283987D01*
X225073Y285202D01*
X224080Y286195D01*
X222865Y286896D01*
X221509Y287260D01*
D02*
G37*
G36*
X313394Y282898D02*
X312472D01*
X311582Y282659D01*
X310784Y282198D01*
X310132Y281547D01*
X309672Y280749D01*
X309433Y279858D01*
Y278937D01*
X309672Y278047D01*
X310132Y277249D01*
X310784Y276597D01*
X311582Y276136D01*
X312472Y275898D01*
X313394D01*
X314284Y276136D01*
X314355Y276177D01*
X314938Y275937D01*
X315288Y275332D01*
X315939Y274680D01*
X316737Y274219D01*
X317628Y273981D01*
X318549D01*
X319181Y274150D01*
X319644Y273831D01*
X319669Y273784D01*
Y273201D01*
X319908Y272310D01*
X320369Y271512D01*
X321020Y270861D01*
X321818Y270400D01*
X322709Y270161D01*
X323630D01*
X324520Y270400D01*
X325318Y270861D01*
X325970Y271512D01*
X326431Y272310D01*
X326669Y273201D01*
Y274122D01*
X326431Y275012D01*
X325970Y275811D01*
X325318Y276462D01*
X324520Y276923D01*
X323630Y277161D01*
X322709D01*
X322077Y276992D01*
X321613Y277311D01*
X321588Y277359D01*
Y277942D01*
X321350Y278832D01*
X320889Y279630D01*
X320237Y280282D01*
X319439Y280742D01*
X318549Y280981D01*
X317628D01*
X316737Y280742D01*
X316517Y280615D01*
X316195Y280749D01*
X315734Y281547D01*
X315082Y282198D01*
X314284Y282659D01*
X313394Y282898D01*
D02*
G37*
G36*
X221509Y273480D02*
X220105D01*
X218749Y273117D01*
X217534Y272415D01*
X216541Y271423D01*
X215840Y270207D01*
X215476Y268851D01*
Y267448D01*
X215840Y266092D01*
X216541Y264877D01*
X217534Y263884D01*
X218749Y263182D01*
X220105Y262819D01*
X221509D01*
X222865Y263182D01*
X224080Y263884D01*
X225073Y264877D01*
X225775Y266092D01*
X226138Y267448D01*
Y268851D01*
X225775Y270207D01*
X225073Y271423D01*
X224080Y272415D01*
X222865Y273117D01*
X221509Y273480D01*
D02*
G37*
G36*
X401642Y269248D02*
X400720D01*
X399830Y269009D01*
X399032Y268549D01*
X398380Y267897D01*
X397920Y267099D01*
X397681Y266209D01*
Y265287D01*
X397920Y264397D01*
X398380Y263599D01*
X399032Y262947D01*
X399830Y262487D01*
X400720Y262248D01*
X401642D01*
X402532Y262487D01*
X403330Y262947D01*
X403982Y263599D01*
X404443Y264397D01*
X404681Y265287D01*
Y266209D01*
X404443Y267099D01*
X403982Y267897D01*
X403330Y268549D01*
X402532Y269009D01*
X401642Y269248D01*
D02*
G37*
G36*
X329595Y268854D02*
X328673D01*
X327783Y268616D01*
X326985Y268155D01*
X326333Y267503D01*
X325872Y266705D01*
X325634Y265815D01*
Y264894D01*
X325872Y264003D01*
X326333Y263205D01*
X326985Y262554D01*
X327783Y262093D01*
X328673Y261854D01*
X329595D01*
X330485Y262093D01*
X331283Y262554D01*
X331935Y263205D01*
X332395Y264003D01*
X332634Y264894D01*
Y265815D01*
X332395Y266705D01*
X331935Y267503D01*
X331283Y268155D01*
X330485Y268616D01*
X329595Y268854D01*
D02*
G37*
G36*
X498032Y264607D02*
X495276D01*
X494552Y264511D01*
X493878Y264232D01*
X493299Y263788D01*
X492855Y263209D01*
X492575Y262535D01*
X492480Y261811D01*
X492575Y261087D01*
X492855Y260413D01*
X493299Y259834D01*
X493878Y259390D01*
X494552Y259111D01*
X495276Y259015D01*
X498032D01*
X498755Y259111D01*
X499429Y259390D01*
X500008Y259834D01*
X500453Y260413D01*
X500732Y261087D01*
X500827Y261811D01*
X500732Y262535D01*
X500453Y263209D01*
X500008Y263788D01*
X499429Y264232D01*
X498755Y264511D01*
X498032Y264607D01*
D02*
G37*
G36*
X271721Y262555D02*
X270799D01*
X269909Y262317D01*
X269111Y261856D01*
X268459Y261204D01*
X267998Y260406D01*
X267760Y259516D01*
Y258594D01*
X267998Y257704D01*
X268459Y256906D01*
X269111Y256254D01*
X269909Y255794D01*
X270799Y255555D01*
X271721D01*
X272611Y255794D01*
X273409Y256254D01*
X274061Y256906D01*
X274521Y257704D01*
X274760Y258594D01*
Y259516D01*
X274521Y260406D01*
X274061Y261204D01*
X273409Y261856D01*
X272611Y262317D01*
X271721Y262555D01*
D02*
G37*
G36*
X324870Y257831D02*
X323949D01*
X323059Y257592D01*
X322260Y257131D01*
X321609Y256480D01*
X321148Y255682D01*
X320910Y254791D01*
Y253870D01*
X321148Y252980D01*
X321609Y252182D01*
X322260Y251530D01*
X323059Y251069D01*
X323949Y250831D01*
X324870D01*
X325760Y251069D01*
X326558Y251530D01*
X327210Y252182D01*
X327671Y252980D01*
X327909Y253870D01*
Y254791D01*
X327671Y255682D01*
X327210Y256480D01*
X326558Y257131D01*
X325760Y257592D01*
X324870Y257831D01*
D02*
G37*
G36*
X406366Y254681D02*
X405445D01*
X404555Y254443D01*
X403757Y253982D01*
X403105Y253330D01*
X402644Y252532D01*
X402406Y251642D01*
Y250720D01*
X402644Y249830D01*
X403105Y249032D01*
X403757Y248380D01*
X404555Y247920D01*
X405445Y247681D01*
X406366D01*
X407257Y247920D01*
X408055Y248380D01*
X408706Y249032D01*
X409167Y249830D01*
X409406Y250720D01*
Y251642D01*
X409167Y252532D01*
X408706Y253330D01*
X408055Y253982D01*
X407257Y254443D01*
X406366Y254681D01*
D02*
G37*
G36*
X270539Y251925D02*
X269618D01*
X268728Y251687D01*
X267930Y251226D01*
X267278Y250574D01*
X266817Y249776D01*
X266579Y248886D01*
Y247964D01*
X266817Y247074D01*
X267278Y246276D01*
X267930Y245624D01*
X268728Y245164D01*
X269618Y244925D01*
X270539D01*
X271430Y245164D01*
X272228Y245624D01*
X272879Y246276D01*
X273340Y247074D01*
X273579Y247964D01*
Y248886D01*
X273340Y249776D01*
X272879Y250574D01*
X272228Y251226D01*
X271430Y251687D01*
X270539Y251925D01*
D02*
G37*
G36*
X342981Y237752D02*
X342059D01*
X341169Y237513D01*
X340371Y237053D01*
X339719Y236401D01*
X339258Y235603D01*
X339020Y234713D01*
Y234465D01*
X338520Y234331D01*
X338234Y234826D01*
X337582Y235478D01*
X336784Y235939D01*
X335894Y236177D01*
X334972D01*
X334082Y235939D01*
X333284Y235478D01*
X332632Y234826D01*
X332172Y234028D01*
X331933Y233138D01*
Y232216D01*
X332172Y231326D01*
X332632Y230528D01*
X333284Y229876D01*
X334082Y229416D01*
X334972Y229177D01*
X335894D01*
X336784Y229416D01*
X337582Y229876D01*
X338234Y230528D01*
X338695Y231326D01*
X338933Y232216D01*
Y232464D01*
X339433Y232598D01*
X339719Y232103D01*
X340371Y231451D01*
X341169Y230991D01*
X342059Y230752D01*
X342981D01*
X343871Y230991D01*
X344669Y231451D01*
X345320Y232103D01*
X345781Y232901D01*
X346020Y233791D01*
Y234713D01*
X345781Y235603D01*
X345320Y236401D01*
X344669Y237053D01*
X343871Y237513D01*
X342981Y237752D01*
D02*
G37*
G36*
X460301Y244642D02*
X458872D01*
X457491Y244272D01*
X456253Y243557D01*
X455242Y242546D01*
X454528Y241308D01*
X454157Y239927D01*
Y238498D01*
X454528Y237117D01*
X455242Y235879D01*
X456253Y234868D01*
X457491Y234154D01*
X458872Y233784D01*
X460301D01*
X461682Y234154D01*
X462920Y234868D01*
X463931Y235879D01*
X464646Y237117D01*
X465016Y238498D01*
Y239927D01*
X464646Y241308D01*
X463931Y242546D01*
X462920Y243557D01*
X461682Y244272D01*
X460301Y244642D01*
D02*
G37*
G36*
X429199D02*
X427770D01*
X426389Y244272D01*
X425151Y243557D01*
X424140Y242546D01*
X423425Y241308D01*
X423055Y239927D01*
Y238498D01*
X423425Y237117D01*
X424140Y235879D01*
X425151Y234868D01*
X426389Y234154D01*
X427770Y233784D01*
X429199D01*
X430580Y234154D01*
X431818Y234868D01*
X432829Y235879D01*
X433543Y237117D01*
X433913Y238498D01*
Y239927D01*
X433543Y241308D01*
X432829Y242546D01*
X431818Y243557D01*
X430580Y244272D01*
X429199Y244642D01*
D02*
G37*
G36*
X221366Y240902D02*
X220248D01*
X219167Y240612D01*
X218199Y240053D01*
X217408Y239262D01*
X216848Y238293D01*
X216559Y237213D01*
Y236094D01*
X216848Y235014D01*
X217408Y234045D01*
X218199Y233254D01*
X219167Y232695D01*
X220248Y232405D01*
X221366D01*
X222447Y232695D01*
X223415Y233254D01*
X224206Y234045D01*
X224766Y235014D01*
X225055Y236094D01*
Y237213D01*
X224766Y238293D01*
X224206Y239262D01*
X223415Y240053D01*
X222447Y240612D01*
X221366Y240902D01*
D02*
G37*
G36*
Y227122D02*
X220248D01*
X219167Y226833D01*
X218199Y226273D01*
X217408Y225482D01*
X216848Y224514D01*
X216559Y223433D01*
Y222315D01*
X216848Y221234D01*
X217408Y220266D01*
X218199Y219475D01*
X219167Y218916D01*
X220248Y218626D01*
X221366D01*
X222447Y218916D01*
X223415Y219475D01*
X224206Y220266D01*
X224766Y221234D01*
X225055Y222315D01*
Y223433D01*
X224766Y224514D01*
X224206Y225482D01*
X223415Y226273D01*
X222447Y226833D01*
X221366Y227122D01*
D02*
G37*
G36*
X365028Y224760D02*
X364106D01*
X363216Y224521D01*
X362418Y224061D01*
X361766Y223409D01*
X361305Y222611D01*
X361067Y221721D01*
Y220799D01*
X361305Y219909D01*
X361766Y219111D01*
X362418Y218459D01*
X363216Y217998D01*
X364106Y217760D01*
X365028D01*
X365918Y217998D01*
X366716Y218459D01*
X367368Y219111D01*
X367828Y219909D01*
X368067Y220799D01*
Y221721D01*
X367828Y222611D01*
X367368Y223409D01*
X366716Y224061D01*
X365918Y224521D01*
X365028Y224760D01*
D02*
G37*
G36*
X405018Y224366D02*
X404096D01*
X403206Y224128D01*
X402408Y223667D01*
X401756Y223015D01*
X401296Y222217D01*
X401057Y221327D01*
Y220405D01*
X401296Y219515D01*
X401756Y218717D01*
X402408Y218065D01*
X403206Y217605D01*
X404096Y217366D01*
X405018D01*
X405908Y217605D01*
X406706Y218065D01*
X407358Y218717D01*
X407819Y219515D01*
X408057Y220405D01*
Y221327D01*
X407819Y222217D01*
X407358Y223015D01*
X406706Y223667D01*
X405908Y224128D01*
X405018Y224366D01*
D02*
G37*
G36*
X300969Y235665D02*
X299031D01*
X298932Y235646D01*
X298832D01*
X296930Y235267D01*
X296837Y235229D01*
X296739Y235209D01*
X294948Y234468D01*
X294864Y234412D01*
X294771Y234373D01*
X293159Y233296D01*
X293088Y233225D01*
X293005Y233169D01*
X291634Y231798D01*
X291578Y231715D01*
X291507Y231644D01*
X290430Y230032D01*
X290391Y229939D01*
X290336Y229855D01*
X289594Y228064D01*
X289574Y227966D01*
X289536Y227873D01*
X289158Y225972D01*
Y225871D01*
X289138Y225773D01*
Y223834D01*
X289158Y223735D01*
Y223635D01*
X289536Y221733D01*
X289574Y221640D01*
X289594Y221542D01*
X290336Y219751D01*
X290391Y219667D01*
X290430Y219574D01*
X291507Y217962D01*
X291578Y217891D01*
X291634Y217808D01*
X293005Y216437D01*
X293088Y216381D01*
X293159Y216310D01*
X294771Y215233D01*
X294864Y215195D01*
X294948Y215139D01*
X296739Y214397D01*
X296837Y214377D01*
X296930Y214339D01*
X298832Y213961D01*
X298932D01*
X299031Y213941D01*
X300969D01*
X301068Y213961D01*
X301168D01*
X303070Y214339D01*
X303163Y214377D01*
X303261Y214397D01*
X305052Y215139D01*
X305136Y215195D01*
X305229Y215233D01*
X306841Y216310D01*
X306912Y216381D01*
X306995Y216437D01*
X308366Y217808D01*
X308422Y217891D01*
X308493Y217962D01*
X309570Y219574D01*
X309609Y219667D01*
X309664Y219751D01*
X310406Y221542D01*
X310426Y221640D01*
X310464Y221733D01*
X310842Y223635D01*
Y223735D01*
X310862Y223834D01*
Y225773D01*
X310842Y225871D01*
Y225972D01*
X310464Y227873D01*
X310426Y227966D01*
X310406Y228064D01*
X309664Y229855D01*
X309609Y229939D01*
X309570Y230032D01*
X308493Y231644D01*
X308422Y231715D01*
X308366Y231798D01*
X306995Y233169D01*
X306912Y233225D01*
X306841Y233296D01*
X305229Y234373D01*
X305136Y234412D01*
X305052Y234468D01*
X303261Y235209D01*
X303163Y235229D01*
X303070Y235267D01*
X301168Y235646D01*
X301068D01*
X300969Y235665D01*
D02*
G37*
G36*
X408655Y209799D02*
X407733D01*
X406843Y209561D01*
X406045Y209100D01*
X405394Y208448D01*
X404933Y207650D01*
X404694Y206760D01*
Y205838D01*
X404933Y204948D01*
X405394Y204150D01*
X406045Y203499D01*
X406843Y203038D01*
X407733Y202799D01*
X408655D01*
X409545Y203038D01*
X410343Y203499D01*
X410995Y204150D01*
X411456Y204948D01*
X411694Y205838D01*
Y206760D01*
X411456Y207650D01*
X410995Y208448D01*
X410343Y209100D01*
X409545Y209561D01*
X408655Y209799D01*
D02*
G37*
G36*
X355185Y209012D02*
X354264D01*
X353374Y208773D01*
X352575Y208313D01*
X351924Y207661D01*
X351463Y206863D01*
X351224Y205973D01*
Y205051D01*
X351463Y204161D01*
X351924Y203363D01*
X352575Y202711D01*
X353374Y202250D01*
X354264Y202012D01*
X355185D01*
X356075Y202250D01*
X356873Y202711D01*
X357525Y203363D01*
X357986Y204161D01*
X358224Y205051D01*
Y205973D01*
X357986Y206863D01*
X357525Y207661D01*
X356873Y208313D01*
X356075Y208773D01*
X355185Y209012D01*
D02*
G37*
G36*
X377626Y202319D02*
X376705D01*
X375814Y202080D01*
X375016Y201620D01*
X374365Y200968D01*
X373904Y200170D01*
X373665Y199280D01*
Y198358D01*
X373904Y197468D01*
X374365Y196670D01*
X375016Y196018D01*
X375814Y195557D01*
X376705Y195319D01*
X377626D01*
X378516Y195557D01*
X379314Y196018D01*
X379966Y196670D01*
X380427Y197468D01*
X380665Y198358D01*
Y199280D01*
X380427Y200170D01*
X379966Y200968D01*
X379314Y201620D01*
X378516Y202080D01*
X377626Y202319D01*
D02*
G37*
G36*
X288209Y197145D02*
X286920Y196975D01*
X285719Y196478D01*
X284687Y195686D01*
X283896Y194655D01*
X283479Y193649D01*
X282938D01*
X282521Y194655D01*
X281730Y195686D01*
X280698Y196478D01*
X279498Y196975D01*
X278209Y197145D01*
X276920Y196975D01*
X275719Y196478D01*
X274688Y195686D01*
X273896Y194655D01*
X273479Y193649D01*
X272938D01*
X272521Y194655D01*
X271730Y195686D01*
X270698Y196478D01*
X269497Y196975D01*
X268209Y197145D01*
X266920Y196975D01*
X265719Y196478D01*
X264687Y195686D01*
X263896Y194655D01*
X263479Y193649D01*
X262938D01*
X262521Y194655D01*
X261730Y195686D01*
X260699Y196478D01*
X259497Y196975D01*
X258209Y197145D01*
X256920Y196975D01*
X255719Y196478D01*
X254688Y195686D01*
X253896Y194655D01*
X253479Y193649D01*
X252938D01*
X252521Y194655D01*
X251730Y195686D01*
X250698Y196478D01*
X249498Y196975D01*
X248209Y197145D01*
X246920Y196975D01*
X245719Y196478D01*
X244688Y195686D01*
X243896Y194655D01*
X243479Y193649D01*
X242938D01*
X242521Y194655D01*
X241730Y195686D01*
X240699Y196478D01*
X239497Y196975D01*
X238209Y197145D01*
X236920Y196975D01*
X235719Y196478D01*
X234687Y195686D01*
X233896Y194655D01*
X233479Y193649D01*
X232938D01*
X232521Y194655D01*
X231730Y195686D01*
X230698Y196478D01*
X229498Y196975D01*
X228209Y197145D01*
X226920Y196975D01*
X225719Y196478D01*
X224688Y195686D01*
X223896Y194655D01*
X223479Y193649D01*
X222938D01*
X222521Y194655D01*
X221730Y195686D01*
X220698Y196478D01*
X219497Y196975D01*
X218209Y197145D01*
X216920Y196975D01*
X215719Y196478D01*
X214687Y195686D01*
X213896Y194655D01*
X213399Y193454D01*
X213229Y192165D01*
Y188228D01*
X213399Y186940D01*
X213896Y185739D01*
X214687Y184707D01*
X215719Y183916D01*
X216920Y183418D01*
X218209Y183249D01*
X219497Y183418D01*
X220698Y183916D01*
X221730Y184707D01*
X222521Y185739D01*
X222938Y186745D01*
X223479D01*
X223896Y185739D01*
X224688Y184707D01*
X225719Y183916D01*
X226920Y183418D01*
X228209Y183249D01*
X229498Y183418D01*
X230698Y183916D01*
X231730Y184707D01*
X232521Y185739D01*
X232938Y186745D01*
X233479D01*
X233896Y185739D01*
X234687Y184707D01*
X235719Y183916D01*
X236920Y183418D01*
X238209Y183249D01*
X239497Y183418D01*
X240699Y183916D01*
X241730Y184707D01*
X242521Y185739D01*
X242938Y186745D01*
X243479D01*
X243896Y185739D01*
X244688Y184707D01*
X245719Y183916D01*
X246920Y183418D01*
X248209Y183249D01*
X249498Y183418D01*
X250698Y183916D01*
X251730Y184707D01*
X252521Y185739D01*
X252938Y186745D01*
X253479D01*
X253896Y185739D01*
X254688Y184707D01*
X255719Y183916D01*
X256920Y183418D01*
X258209Y183249D01*
X259497Y183418D01*
X260699Y183916D01*
X261730Y184707D01*
X262521Y185739D01*
X262938Y186745D01*
X263479D01*
X263896Y185739D01*
X264687Y184707D01*
X265719Y183916D01*
X266920Y183418D01*
X268209Y183249D01*
X269497Y183418D01*
X270698Y183916D01*
X271730Y184707D01*
X272521Y185739D01*
X272938Y186745D01*
X273479D01*
X273896Y185739D01*
X274688Y184707D01*
X275719Y183916D01*
X276920Y183418D01*
X278209Y183249D01*
X279498Y183418D01*
X280698Y183916D01*
X281730Y184707D01*
X282521Y185739D01*
X282938Y186745D01*
X283479D01*
X283896Y185739D01*
X284687Y184707D01*
X285719Y183916D01*
X286920Y183418D01*
X288209Y183249D01*
X289497Y183418D01*
X290699Y183916D01*
X291730Y184707D01*
X292521Y185739D01*
X293019Y186940D01*
X293188Y188228D01*
Y192165D01*
X293019Y193454D01*
X292521Y194655D01*
X291730Y195686D01*
X290699Y196478D01*
X289497Y196975D01*
X288209Y197145D01*
D02*
G37*
G36*
X444657Y205173D02*
X443413D01*
X442193Y204930D01*
X441044Y204454D01*
X440010Y203763D01*
X439130Y202884D01*
X438439Y201850D01*
X437963Y200700D01*
X437720Y199480D01*
Y198236D01*
X437963Y197016D01*
X438439Y195867D01*
X439130Y194833D01*
X440010Y193953D01*
X441044Y193262D01*
X442193Y192786D01*
X443413Y192543D01*
X444657D01*
X445877Y192786D01*
X447027Y193262D01*
X448061Y193953D01*
X448941Y194833D01*
X449632Y195867D01*
X450108Y197016D01*
X450350Y198236D01*
Y199480D01*
X450108Y200700D01*
X449632Y201850D01*
X448941Y202884D01*
X448061Y203763D01*
X447027Y204454D01*
X445877Y204930D01*
X444657Y205173D01*
D02*
G37*
G36*
X305579Y196807D02*
X304657D01*
X303767Y196569D01*
X302969Y196108D01*
X302317Y195456D01*
X301857Y194658D01*
X301618Y193768D01*
Y192846D01*
X301857Y191956D01*
X302317Y191158D01*
X302969Y190506D01*
X303767Y190046D01*
X304657Y189807D01*
X305579D01*
X306469Y190046D01*
X307267Y190506D01*
X307919Y191158D01*
X308380Y191956D01*
X308618Y192846D01*
Y193768D01*
X308380Y194658D01*
X307919Y195456D01*
X307267Y196108D01*
X306469Y196569D01*
X305579Y196807D01*
D02*
G37*
G36*
X354791Y196020D02*
X353870D01*
X352980Y195781D01*
X352182Y195320D01*
X351530Y194669D01*
X351069Y193871D01*
X350831Y192981D01*
Y192059D01*
X351069Y191169D01*
X351530Y190371D01*
X352182Y189719D01*
X352980Y189258D01*
X353870Y189020D01*
X354791D01*
X355682Y189258D01*
X356480Y189719D01*
X357131Y190371D01*
X357592Y191169D01*
X357831Y192059D01*
Y192981D01*
X357592Y193871D01*
X357131Y194669D01*
X356480Y195320D01*
X355682Y195781D01*
X354791Y196020D01*
D02*
G37*
G36*
X415815Y192083D02*
X414893D01*
X414003Y191844D01*
X413205Y191383D01*
X412554Y190732D01*
X412093Y189934D01*
X411854Y189043D01*
Y188122D01*
X412093Y187232D01*
X412554Y186434D01*
X413205Y185782D01*
X414003Y185321D01*
X414893Y185083D01*
X415815D01*
X416705Y185321D01*
X417503Y185782D01*
X418155Y186434D01*
X418616Y187232D01*
X418854Y188122D01*
Y189043D01*
X418616Y189934D01*
X418155Y190732D01*
X417503Y191383D01*
X416705Y191844D01*
X415815Y192083D01*
D02*
G37*
G36*
X490340Y193933D02*
X488401D01*
X488302Y193913D01*
X488202D01*
X486300Y193535D01*
X486207Y193497D01*
X486109Y193477D01*
X484318Y192735D01*
X484234Y192679D01*
X484141Y192641D01*
X482529Y191564D01*
X482458Y191493D01*
X482375Y191437D01*
X481004Y190066D01*
X480948Y189983D01*
X480877Y189912D01*
X479800Y188300D01*
X479762Y188207D01*
X479706Y188123D01*
X478964Y186332D01*
X478944Y186233D01*
X478906Y186141D01*
X478528Y184239D01*
Y184139D01*
X478508Y184040D01*
Y182102D01*
X478528Y182003D01*
Y181903D01*
X478906Y180001D01*
X478944Y179908D01*
X478964Y179810D01*
X479706Y178018D01*
X479762Y177935D01*
X479800Y177842D01*
X480877Y176230D01*
X480948Y176159D01*
X481004Y176076D01*
X482375Y174705D01*
X482458Y174649D01*
X482529Y174578D01*
X484141Y173501D01*
X484234Y173462D01*
X484318Y173407D01*
X486109Y172665D01*
X486207Y172645D01*
X486300Y172607D01*
X488202Y172228D01*
X488302D01*
X488401Y172209D01*
X490340D01*
X490438Y172228D01*
X490538D01*
X492440Y172607D01*
X492533Y172645D01*
X492631Y172665D01*
X494422Y173407D01*
X494506Y173462D01*
X494599Y173501D01*
X496211Y174578D01*
X496282Y174649D01*
X496365Y174705D01*
X497736Y176076D01*
X497792Y176159D01*
X497863Y176230D01*
X498940Y177842D01*
X498979Y177935D01*
X499034Y178018D01*
X499776Y179810D01*
X499796Y179908D01*
X499834Y180001D01*
X500213Y181903D01*
Y182003D01*
X500232Y182102D01*
Y184040D01*
X500213Y184139D01*
Y184239D01*
X499834Y186141D01*
X499796Y186233D01*
X499776Y186332D01*
X499034Y188123D01*
X498979Y188207D01*
X498940Y188300D01*
X497863Y189912D01*
X497792Y189983D01*
X497736Y190066D01*
X496365Y191437D01*
X496282Y191493D01*
X496211Y191564D01*
X494599Y192641D01*
X494506Y192679D01*
X494422Y192735D01*
X492631Y193477D01*
X492533Y193497D01*
X492440Y193535D01*
X490538Y193913D01*
X490438D01*
X490340Y193933D01*
D02*
G37*
%LPD*%
D80*
X300000Y224803D02*
D03*
X489370Y449606D02*
D03*
X207538D02*
D03*
X489370Y183071D02*
D03*
D81*
X473563Y348740D02*
D03*
Y328740D02*
D03*
Y358740D02*
D03*
Y338740D02*
D03*
D82*
X220807Y222874D02*
D03*
Y236653D02*
D03*
Y421693D02*
D03*
Y407913D02*
D03*
D83*
X428484Y239213D02*
D03*
X459587D02*
D03*
D84*
X496654Y261811D02*
D03*
Y287795D02*
D03*
D85*
X358602Y419724D02*
D03*
X338917D02*
D03*
X246398Y368543D02*
D03*
X266083D02*
D03*
X256240Y423661D02*
D03*
Y403976D02*
D03*
D86*
X220807Y378386D02*
D03*
Y364606D02*
D03*
Y350827D02*
D03*
Y337047D02*
D03*
Y323268D02*
D03*
Y309488D02*
D03*
Y295709D02*
D03*
Y281929D02*
D03*
Y268150D02*
D03*
D87*
X268209Y190197D02*
D03*
X258209D02*
D03*
X248209D02*
D03*
X228209D02*
D03*
X288209D02*
D03*
X218209D02*
D03*
X238209D02*
D03*
X278209D02*
D03*
D88*
X346791Y376417D02*
D03*
X416516D02*
D03*
D89*
X381890Y340945D02*
D03*
X388189D02*
D03*
X301575Y289370D02*
D03*
X472815Y281929D02*
D03*
X298425Y422835D02*
D03*
X423228Y318110D02*
D03*
X366142Y355906D02*
D03*
X364173Y339764D02*
D03*
X440945Y400394D02*
D03*
X452362Y374410D02*
D03*
X461811Y300394D02*
D03*
X342520Y234252D02*
D03*
X329134Y265354D02*
D03*
X405905Y251181D02*
D03*
X377165Y198819D02*
D03*
X408194Y206299D02*
D03*
X354724Y205512D02*
D03*
X309842Y188976D02*
D03*
X269291Y216142D02*
D03*
X240945Y259055D02*
D03*
X320079Y364961D02*
D03*
X305118Y384646D02*
D03*
X271260Y259055D02*
D03*
X261811Y345669D02*
D03*
X364567Y221260D02*
D03*
X324410Y254331D02*
D03*
X335433Y232677D02*
D03*
X404557Y220866D02*
D03*
X281496Y296346D02*
D03*
X356299Y290158D02*
D03*
X401181Y265748D02*
D03*
X376378Y280315D02*
D03*
X424803Y296850D02*
D03*
X436614Y304331D02*
D03*
X452822Y320092D02*
D03*
X461811Y402756D02*
D03*
X440295Y387039D02*
D03*
X477559Y311417D02*
D03*
X415354Y188583D02*
D03*
X354331Y192520D02*
D03*
X305118Y193307D02*
D03*
X270079Y248425D02*
D03*
X258268Y298819D02*
D03*
X271260Y302756D02*
D03*
X382677Y433465D02*
D03*
X311811Y407480D02*
D03*
X298425Y407874D02*
D03*
X266929Y437402D02*
D03*
X357421Y305157D02*
D03*
X355847Y311457D02*
D03*
X338162Y323694D02*
D03*
X318088Y277481D02*
D03*
X323169Y273661D02*
D03*
X329047Y304758D02*
D03*
X331437Y331535D02*
D03*
X312933Y279398D02*
D03*
M02*
