G04*
G04 #@! TF.GenerationSoftware,Altium Limited,Altium Designer,21.1.1 (26)*
G04*
G04 Layer_Physical_Order=2*
G04 Layer_Color=36540*
%FSLAX25Y25*%
%MOIN*%
G70*
G04*
G04 #@! TF.SameCoordinates,48ED7441-6B8D-405F-B593-7732F9BA20C5*
G04*
G04*
G04 #@! TF.FilePolarity,Positive*
G04*
G01*
G75*
%ADD81O,0.11811X0.07874*%
%ADD82C,0.06496*%
%ADD84O,0.06299X0.03543*%
%ADD85C,0.06000*%
%ADD87O,0.07874X0.11811*%
%ADD88C,0.09055*%
%ADD89C,0.05000*%
G36*
X492748Y466587D02*
X494935Y466001D01*
X497028Y465134D01*
X498989Y464002D01*
X500786Y462623D01*
X502387Y461022D01*
X503766Y459225D01*
X504898Y457264D01*
X505765Y455172D01*
X506351Y452984D01*
X506647Y450739D01*
Y449606D01*
Y183071D01*
Y181939D01*
X506351Y179693D01*
X505765Y177506D01*
X504898Y175413D01*
X503766Y173452D01*
X502387Y171655D01*
X500786Y170054D01*
X498989Y168675D01*
X497028Y167543D01*
X494935Y166676D01*
X492748Y166090D01*
X490502Y165794D01*
X206405D01*
X204160Y166090D01*
X201972Y166676D01*
X199880Y167543D01*
X197918Y168675D01*
X196122Y170054D01*
X194520Y171655D01*
X193142Y173452D01*
X192009Y175413D01*
X191143Y177506D01*
X190557Y179693D01*
X190261Y181939D01*
Y183071D01*
Y449606D01*
Y450739D01*
X190557Y452984D01*
X191143Y455172D01*
X192009Y457264D01*
X193142Y459225D01*
X194520Y461022D01*
X196122Y462623D01*
X197918Y464002D01*
X199880Y465134D01*
X201972Y466001D01*
X204160Y466587D01*
X206405Y466883D01*
X490503D01*
X492748Y466587D01*
D02*
G37*
%LPC*%
G36*
X489370Y460468D02*
X488401D01*
X488302Y460449D01*
X488202D01*
X486300Y460071D01*
X486207Y460032D01*
X486109Y460013D01*
X484318Y459271D01*
X484234Y459215D01*
X484141Y459176D01*
X482529Y458099D01*
X482458Y458028D01*
X482375Y457972D01*
X481004Y456601D01*
X480948Y456518D01*
X480877Y456447D01*
X479800Y454835D01*
X479762Y454742D01*
X479706Y454659D01*
X478964Y452867D01*
X478944Y452769D01*
X478906Y452676D01*
X478528Y450775D01*
Y450674D01*
X478508Y450576D01*
X478508Y449606D01*
Y448637D01*
X478528Y448538D01*
Y448438D01*
X478906Y446536D01*
X478944Y446444D01*
X478964Y446345D01*
X479706Y444554D01*
X479762Y444470D01*
X479800Y444378D01*
X480877Y442766D01*
X480948Y442695D01*
X481004Y442611D01*
X482375Y441240D01*
X482458Y441184D01*
X482529Y441113D01*
X484141Y440036D01*
X484234Y439998D01*
X484318Y439942D01*
X486109Y439200D01*
X486207Y439181D01*
X486300Y439142D01*
X488202Y438764D01*
X488302D01*
X488401Y438744D01*
X490340D01*
X490438Y438764D01*
X490538D01*
X492440Y439142D01*
X492533Y439181D01*
X492631Y439200D01*
X494422Y439942D01*
X494506Y439998D01*
X494599Y440036D01*
X496211Y441113D01*
X496282Y441184D01*
X496365Y441240D01*
X497736Y442611D01*
X497792Y442695D01*
X497863Y442766D01*
X498940Y444378D01*
X498979Y444470D01*
X499034Y444554D01*
X499776Y446345D01*
X499796Y446444D01*
X499834Y446536D01*
X500213Y448438D01*
Y448538D01*
X500232Y448637D01*
Y450576D01*
X500213Y450674D01*
Y450775D01*
X499834Y452676D01*
X499796Y452769D01*
X499776Y452867D01*
X499034Y454659D01*
X498979Y454742D01*
X498940Y454835D01*
X497863Y456447D01*
X497792Y456518D01*
X497736Y456601D01*
X496365Y457972D01*
X496282Y458028D01*
X496211Y458099D01*
X494599Y459176D01*
X494506Y459215D01*
X494422Y459271D01*
X492631Y460013D01*
X492533Y460032D01*
X492440Y460071D01*
X490538Y460449D01*
X490438D01*
X490340Y460468D01*
X489370Y460468D01*
D02*
G37*
G36*
X208507D02*
X206568D01*
X206470Y460449D01*
X206369D01*
X204468Y460071D01*
X204375Y460032D01*
X204276Y460013D01*
X202485Y459271D01*
X202402Y459215D01*
X202309Y459176D01*
X200697Y458099D01*
X200626Y458028D01*
X200542Y457972D01*
X199171Y456601D01*
X199116Y456518D01*
X199045Y456447D01*
X197967Y454835D01*
X197929Y454742D01*
X197873Y454659D01*
X197131Y452867D01*
X197112Y452769D01*
X197073Y452676D01*
X196695Y450775D01*
Y450674D01*
X196675Y450576D01*
Y448637D01*
X196695Y448538D01*
Y448438D01*
X197073Y446536D01*
X197112Y446444D01*
X197131Y446345D01*
X197873Y444554D01*
X197929Y444470D01*
X197967Y444378D01*
X199045Y442766D01*
X199116Y442695D01*
X199171Y442611D01*
X200542Y441240D01*
X200626Y441184D01*
X200697Y441113D01*
X202309Y440036D01*
X202402Y439998D01*
X202485Y439942D01*
X204276Y439200D01*
X204375Y439181D01*
X204468Y439142D01*
X206369Y438764D01*
X206470D01*
X206568Y438744D01*
X208507D01*
X208605Y438764D01*
X208706D01*
X210607Y439142D01*
X210700Y439181D01*
X210799Y439200D01*
X212590Y439942D01*
X212673Y439998D01*
X212766Y440036D01*
X214378Y441113D01*
X214449Y441184D01*
X214533Y441240D01*
X215904Y442611D01*
X215959Y442695D01*
X216030Y442766D01*
X217108Y444378D01*
X217146Y444470D01*
X217202Y444554D01*
X217944Y446345D01*
X217963Y446444D01*
X218002Y446536D01*
X218380Y448438D01*
Y448538D01*
X218400Y448637D01*
Y450576D01*
X218380Y450674D01*
Y450775D01*
X218002Y452676D01*
X217963Y452769D01*
X217944Y452867D01*
X217202Y454659D01*
X217146Y454742D01*
X217108Y454835D01*
X216030Y456447D01*
X215959Y456518D01*
X215904Y456601D01*
X214533Y457972D01*
X214449Y458028D01*
X214378Y458099D01*
X212766Y459176D01*
X212673Y459215D01*
X212590Y459271D01*
X210799Y460013D01*
X210700Y460032D01*
X210607Y460071D01*
X208706Y460449D01*
X208605D01*
X208507Y460468D01*
D02*
G37*
G36*
X359050Y423124D02*
X358802D01*
Y419924D01*
X362002D01*
Y420172D01*
X361771Y421037D01*
X361323Y421812D01*
X360690Y422445D01*
X359915Y422893D01*
X359050Y423124D01*
D02*
G37*
G36*
X358402D02*
X358155D01*
X357290Y422893D01*
X356515Y422445D01*
X355882Y421812D01*
X355434Y421037D01*
X355202Y420172D01*
Y419924D01*
X358402D01*
Y423124D01*
D02*
G37*
G36*
X256767Y427661D02*
X255714D01*
X254696Y427389D01*
X253784Y426862D01*
X253039Y426118D01*
X252513Y425205D01*
X252240Y424188D01*
Y423135D01*
X252513Y422118D01*
X253039Y421205D01*
X253784Y420461D01*
X254696Y419934D01*
X255714Y419661D01*
X256767D01*
X257784Y419934D01*
X258696Y420461D01*
X259441Y421205D01*
X259968Y422118D01*
X260240Y423135D01*
Y424188D01*
X259968Y425205D01*
X259441Y426118D01*
X258696Y426862D01*
X257784Y427389D01*
X256767Y427661D01*
D02*
G37*
G36*
X221366Y425941D02*
X220248D01*
X219167Y425651D01*
X218199Y425092D01*
X217408Y424301D01*
X216848Y423333D01*
X216559Y422252D01*
Y421134D01*
X216848Y420053D01*
X217408Y419085D01*
X218199Y418294D01*
X219167Y417734D01*
X220248Y417445D01*
X221366D01*
X222447Y417734D01*
X223415Y418294D01*
X224206Y419085D01*
X224766Y420053D01*
X225055Y421134D01*
Y422252D01*
X224766Y423333D01*
X224206Y424301D01*
X223415Y425092D01*
X222447Y425651D01*
X221366Y425941D01*
D02*
G37*
G36*
X362002Y419524D02*
X358802D01*
Y416324D01*
X359050D01*
X359915Y416556D01*
X360690Y417004D01*
X361323Y417637D01*
X361771Y418412D01*
X362002Y419277D01*
Y419524D01*
D02*
G37*
G36*
X358402D02*
X355202D01*
Y419277D01*
X355434Y418412D01*
X355882Y417637D01*
X356515Y417004D01*
X357290Y416556D01*
X358155Y416324D01*
X358402D01*
Y419524D01*
D02*
G37*
G36*
X339444Y423724D02*
X338391D01*
X337373Y423452D01*
X336461Y422925D01*
X335717Y422181D01*
X335190Y421268D01*
X334917Y420251D01*
Y419198D01*
X335190Y418181D01*
X335717Y417268D01*
X336461Y416524D01*
X337373Y415997D01*
X338391Y415724D01*
X339444D01*
X340461Y415997D01*
X341373Y416524D01*
X342118Y417268D01*
X342645Y418181D01*
X342917Y419198D01*
Y420251D01*
X342645Y421268D01*
X342118Y422181D01*
X341373Y422925D01*
X340461Y423452D01*
X339444Y423724D01*
D02*
G37*
G36*
X221287Y411561D02*
X221007D01*
Y408113D01*
X224455D01*
Y408394D01*
X224206Y409321D01*
X223726Y410153D01*
X223047Y410833D01*
X222215Y411313D01*
X221287Y411561D01*
D02*
G37*
G36*
X220607D02*
X220327D01*
X219399Y411313D01*
X218567Y410833D01*
X217888Y410153D01*
X217408Y409321D01*
X217159Y408394D01*
Y408113D01*
X220607D01*
Y411561D01*
D02*
G37*
G36*
X224455Y407713D02*
X221007D01*
Y404265D01*
X221287D01*
X222215Y404514D01*
X223047Y404994D01*
X223726Y405673D01*
X224206Y406505D01*
X224455Y407433D01*
Y407713D01*
D02*
G37*
G36*
X220607D02*
X217159D01*
Y407433D01*
X217408Y406505D01*
X217888Y405673D01*
X218567Y404994D01*
X219399Y404514D01*
X220327Y404265D01*
X220607D01*
Y407713D01*
D02*
G37*
G36*
X256688Y407376D02*
X256440D01*
Y404176D01*
X259640D01*
Y404424D01*
X259408Y405289D01*
X258961Y406064D01*
X258328Y406697D01*
X257553Y407145D01*
X256688Y407376D01*
D02*
G37*
G36*
X256040D02*
X255792D01*
X254928Y407145D01*
X254152Y406697D01*
X253520Y406064D01*
X253072Y405289D01*
X252840Y404424D01*
Y404176D01*
X256040D01*
Y407376D01*
D02*
G37*
G36*
X259640Y403776D02*
X256440D01*
Y400576D01*
X256688D01*
X257553Y400808D01*
X258328Y401256D01*
X258961Y401889D01*
X259408Y402664D01*
X259640Y403529D01*
Y403776D01*
D02*
G37*
G36*
X256040D02*
X252840D01*
Y403529D01*
X253072Y402664D01*
X253520Y401889D01*
X254152Y401256D01*
X254928Y400808D01*
X255792Y400576D01*
X256040D01*
Y403776D01*
D02*
G37*
G36*
X441406Y403894D02*
X440484D01*
X439594Y403655D01*
X438796Y403194D01*
X438144Y402543D01*
X437683Y401745D01*
X437445Y400854D01*
Y399933D01*
X437683Y399043D01*
X438144Y398245D01*
X438796Y397593D01*
X439594Y397132D01*
X440484Y396894D01*
X441406D01*
X442296Y397132D01*
X443094Y397593D01*
X443746Y398245D01*
X444206Y399043D01*
X444445Y399933D01*
Y400854D01*
X444206Y401745D01*
X443746Y402543D01*
X443094Y403194D01*
X442296Y403655D01*
X441406Y403894D01*
D02*
G37*
G36*
X305579Y388146D02*
X304657D01*
X303767Y387907D01*
X302969Y387446D01*
X302317Y386795D01*
X301857Y385997D01*
X301618Y385106D01*
Y384185D01*
X301857Y383295D01*
X302317Y382497D01*
X302969Y381845D01*
X303767Y381384D01*
X304657Y381146D01*
X305579D01*
X306469Y381384D01*
X307267Y381845D01*
X307919Y382497D01*
X308380Y383295D01*
X308618Y384185D01*
Y385106D01*
X308380Y385997D01*
X307919Y386795D01*
X307267Y387446D01*
X306469Y387907D01*
X305579Y388146D01*
D02*
G37*
G36*
X417165Y381345D02*
X416716D01*
Y376617D01*
X421443D01*
Y377066D01*
X421107Y378319D01*
X420459Y379443D01*
X419541Y380360D01*
X418418Y381009D01*
X417165Y381345D01*
D02*
G37*
G36*
X416316D02*
X415867D01*
X414614Y381009D01*
X413490Y380360D01*
X412573Y379443D01*
X411924Y378319D01*
X411588Y377066D01*
Y376617D01*
X416316D01*
Y381345D01*
D02*
G37*
G36*
X221509Y383717D02*
X220105D01*
X218749Y383353D01*
X217534Y382651D01*
X216541Y381659D01*
X215840Y380443D01*
X215476Y379088D01*
Y377684D01*
X215840Y376328D01*
X216541Y375113D01*
X217534Y374120D01*
X218749Y373418D01*
X220105Y373055D01*
X221509D01*
X222865Y373418D01*
X224080Y374120D01*
X225073Y375113D01*
X225775Y376328D01*
X226138Y377684D01*
Y379088D01*
X225775Y380443D01*
X225073Y381659D01*
X224080Y382651D01*
X222865Y383353D01*
X221509Y383717D01*
D02*
G37*
G36*
X421443Y376217D02*
X416716D01*
Y371490D01*
X417165D01*
X418418Y371826D01*
X419541Y372474D01*
X420459Y373392D01*
X421107Y374515D01*
X421443Y375769D01*
Y376217D01*
D02*
G37*
G36*
X416316D02*
X411588D01*
Y375769D01*
X411924Y374515D01*
X412573Y373392D01*
X413490Y372474D01*
X414614Y371826D01*
X415867Y371490D01*
X416316D01*
Y376217D01*
D02*
G37*
G36*
X452823Y377909D02*
X451901D01*
X451011Y377671D01*
X450213Y377210D01*
X449562Y376558D01*
X449101Y375760D01*
X448862Y374870D01*
Y373949D01*
X449101Y373059D01*
X449562Y372260D01*
X450213Y371609D01*
X451011Y371148D01*
X451901Y370910D01*
X452823D01*
X453713Y371148D01*
X454511Y371609D01*
X455163Y372260D01*
X455624Y373059D01*
X455862Y373949D01*
Y374870D01*
X455624Y375760D01*
X455163Y376558D01*
X454511Y377210D01*
X453713Y377671D01*
X452823Y377909D01*
D02*
G37*
G36*
X347519Y381945D02*
X346064D01*
X344658Y381568D01*
X343397Y380840D01*
X342368Y379811D01*
X341640Y378551D01*
X341264Y377145D01*
Y375690D01*
X341640Y374284D01*
X342368Y373023D01*
X343397Y371994D01*
X344658Y371266D01*
X346064Y370890D01*
X347519D01*
X348925Y371266D01*
X350185Y371994D01*
X351215Y373023D01*
X351942Y374284D01*
X352319Y375690D01*
Y377145D01*
X351942Y378551D01*
X351215Y379811D01*
X350185Y380840D01*
X348925Y381568D01*
X347519Y381945D01*
D02*
G37*
G36*
X266530Y371943D02*
X266283D01*
Y368743D01*
X269483D01*
Y368991D01*
X269251Y369856D01*
X268803Y370631D01*
X268170Y371264D01*
X267395Y371712D01*
X266530Y371943D01*
D02*
G37*
G36*
X265883D02*
X265635D01*
X264770Y371712D01*
X263995Y371264D01*
X263362Y370631D01*
X262914Y369856D01*
X262683Y368991D01*
Y368743D01*
X265883D01*
Y371943D01*
D02*
G37*
G36*
X269483Y368343D02*
X266283D01*
Y365143D01*
X266530D01*
X267395Y365375D01*
X268170Y365823D01*
X268803Y366456D01*
X269251Y367231D01*
X269483Y368096D01*
Y368343D01*
D02*
G37*
G36*
X265883D02*
X262683D01*
Y368096D01*
X262914Y367231D01*
X263362Y366456D01*
X263995Y365823D01*
X264770Y365375D01*
X265635Y365143D01*
X265883D01*
Y368343D01*
D02*
G37*
G36*
X246924Y372543D02*
X245871D01*
X244854Y372271D01*
X243942Y371744D01*
X243197Y370999D01*
X242670Y370087D01*
X242398Y369070D01*
Y368017D01*
X242670Y366999D01*
X243197Y366087D01*
X243942Y365342D01*
X244854Y364816D01*
X245871Y364543D01*
X246924D01*
X247942Y364816D01*
X248854Y365342D01*
X249598Y366087D01*
X250125Y366999D01*
X250398Y368017D01*
Y369070D01*
X250125Y370087D01*
X249598Y370999D01*
X248854Y371744D01*
X247942Y372271D01*
X246924Y372543D01*
D02*
G37*
G36*
X320539Y368461D02*
X319618D01*
X318728Y368222D01*
X317930Y367761D01*
X317278Y367110D01*
X316817Y366312D01*
X316579Y365421D01*
Y364500D01*
X316817Y363610D01*
X317278Y362812D01*
X317930Y362160D01*
X318728Y361699D01*
X319618Y361461D01*
X320539D01*
X321430Y361699D01*
X322228Y362160D01*
X322879Y362812D01*
X323340Y363610D01*
X323579Y364500D01*
Y365421D01*
X323340Y366312D01*
X322879Y367110D01*
X322228Y367761D01*
X321430Y368222D01*
X320539Y368461D01*
D02*
G37*
G36*
X221509Y369937D02*
X220105D01*
X218749Y369574D01*
X217534Y368872D01*
X216541Y367879D01*
X215840Y366664D01*
X215476Y365308D01*
Y363905D01*
X215840Y362549D01*
X216541Y361333D01*
X217534Y360341D01*
X218749Y359639D01*
X220105Y359276D01*
X221509D01*
X222865Y359639D01*
X224080Y360341D01*
X225073Y361333D01*
X225775Y362549D01*
X226138Y363905D01*
Y365308D01*
X225775Y366664D01*
X225073Y367879D01*
X224080Y368872D01*
X222865Y369574D01*
X221509Y369937D01*
D02*
G37*
G36*
X475531Y363115D02*
X473763D01*
Y358940D01*
X479880D01*
X479757Y359872D01*
X479320Y360927D01*
X478625Y361833D01*
X477719Y362528D01*
X476664Y362965D01*
X475531Y363115D01*
D02*
G37*
G36*
X473363D02*
X471594D01*
X470462Y362965D01*
X469407Y362528D01*
X468501Y361833D01*
X467806Y360927D01*
X467369Y359872D01*
X467246Y358940D01*
X473363D01*
Y363115D01*
D02*
G37*
G36*
X479880Y358540D02*
X473763D01*
Y354366D01*
X475531D01*
X476664Y354515D01*
X477719Y354952D01*
X478625Y355647D01*
X479320Y356553D01*
X479757Y357608D01*
X479880Y358540D01*
D02*
G37*
G36*
X473363D02*
X467246D01*
X467369Y357608D01*
X467806Y356553D01*
X468501Y355647D01*
X469407Y354952D01*
X470462Y354515D01*
X471594Y354366D01*
X473363D01*
Y358540D01*
D02*
G37*
G36*
X366602Y359405D02*
X365681D01*
X364791Y359167D01*
X363993Y358706D01*
X363341Y358055D01*
X362880Y357257D01*
X362642Y356366D01*
Y355445D01*
X362880Y354555D01*
X363341Y353756D01*
X363993Y353105D01*
X364791Y352644D01*
X365681Y352406D01*
X366602D01*
X367493Y352644D01*
X368291Y353105D01*
X368942Y353756D01*
X369403Y354555D01*
X369642Y355445D01*
Y356366D01*
X369403Y357257D01*
X368942Y358055D01*
X368291Y358706D01*
X367493Y359167D01*
X366602Y359405D01*
D02*
G37*
G36*
X221509Y356157D02*
X220105D01*
X218749Y355794D01*
X217534Y355092D01*
X216541Y354100D01*
X215840Y352884D01*
X215476Y351529D01*
Y350125D01*
X215840Y348769D01*
X216541Y347554D01*
X217534Y346561D01*
X218749Y345859D01*
X220105Y345496D01*
X221509D01*
X222865Y345859D01*
X224080Y346561D01*
X225073Y347554D01*
X225775Y348769D01*
X226138Y350125D01*
Y351529D01*
X225775Y352884D01*
X225073Y354100D01*
X224080Y355092D01*
X222865Y355794D01*
X221509Y356157D01*
D02*
G37*
G36*
X382350Y344445D02*
X381429D01*
X380539Y344206D01*
X379741Y343746D01*
X379089Y343094D01*
X378628Y342296D01*
X378390Y341406D01*
Y340484D01*
X378628Y339594D01*
X379089Y338796D01*
X379741Y338144D01*
X380539Y337683D01*
X381429Y337445D01*
X382350D01*
X383241Y337683D01*
X384039Y338144D01*
X384690Y338796D01*
X385151Y339594D01*
X385390Y340484D01*
Y341406D01*
X385151Y342296D01*
X384690Y343094D01*
X384039Y343746D01*
X383241Y344206D01*
X382350Y344445D01*
D02*
G37*
G36*
X221509Y342378D02*
X220105D01*
X218749Y342015D01*
X217534Y341313D01*
X216541Y340320D01*
X215840Y339105D01*
X215476Y337749D01*
Y336345D01*
X215840Y334990D01*
X216541Y333774D01*
X217534Y332782D01*
X218749Y332080D01*
X220105Y331716D01*
X221509D01*
X222865Y332080D01*
X224080Y332782D01*
X225073Y333774D01*
X225775Y334990D01*
X226138Y336345D01*
Y337749D01*
X225775Y339105D01*
X225073Y340320D01*
X224080Y341313D01*
X222865Y342015D01*
X221509Y342378D01*
D02*
G37*
G36*
X331898Y335035D02*
X330976D01*
X330086Y334797D01*
X329288Y334336D01*
X328636Y333684D01*
X328175Y332886D01*
X327937Y331996D01*
Y331075D01*
X328175Y330185D01*
X328636Y329386D01*
X329288Y328735D01*
X330086Y328274D01*
X330976Y328035D01*
X331898D01*
X332788Y328274D01*
X333586Y328735D01*
X334238Y329386D01*
X334699Y330185D01*
X334937Y331075D01*
Y331996D01*
X334699Y332886D01*
X334238Y333684D01*
X333586Y334336D01*
X332788Y334797D01*
X331898Y335035D01*
D02*
G37*
G36*
X475531Y353720D02*
X471594D01*
X470306Y353550D01*
X469105Y353053D01*
X468073Y352261D01*
X467282Y351230D01*
X466785Y350029D01*
X466615Y348740D01*
X466785Y347451D01*
X467282Y346250D01*
X468073Y345219D01*
X469105Y344428D01*
X470111Y344011D01*
Y343470D01*
X469105Y343053D01*
X468073Y342261D01*
X467282Y341230D01*
X466785Y340029D01*
X466615Y338740D01*
X466785Y337451D01*
X467282Y336250D01*
X468073Y335219D01*
X469105Y334428D01*
X470111Y334011D01*
Y333470D01*
X469105Y333053D01*
X468073Y332261D01*
X467282Y331230D01*
X466785Y330029D01*
X466615Y328740D01*
X466785Y327451D01*
X467282Y326250D01*
X468073Y325219D01*
X469105Y324428D01*
X470306Y323930D01*
X471594Y323761D01*
X475531D01*
X476820Y323930D01*
X478021Y324428D01*
X479053Y325219D01*
X479844Y326250D01*
X480341Y327451D01*
X480511Y328740D01*
X480341Y330029D01*
X479844Y331230D01*
X479053Y332261D01*
X478021Y333053D01*
X477015Y333470D01*
Y334011D01*
X478021Y334428D01*
X479053Y335219D01*
X479844Y336250D01*
X480341Y337451D01*
X480511Y338740D01*
X480341Y340029D01*
X479844Y341230D01*
X479053Y342261D01*
X478021Y343053D01*
X477015Y343470D01*
Y344011D01*
X478021Y344428D01*
X479053Y345219D01*
X479844Y346250D01*
X480341Y347451D01*
X480511Y348740D01*
X480341Y350029D01*
X479844Y351230D01*
X479053Y352261D01*
X478021Y353053D01*
X476820Y353550D01*
X475531Y353720D01*
D02*
G37*
G36*
X338623Y327194D02*
X337702D01*
X336811Y326955D01*
X336013Y326495D01*
X335362Y325843D01*
X334901Y325045D01*
X334662Y324155D01*
Y323233D01*
X334901Y322343D01*
X335362Y321545D01*
X336013Y320893D01*
X336811Y320432D01*
X337702Y320194D01*
X338623D01*
X339513Y320432D01*
X340311Y320893D01*
X340963Y321545D01*
X341424Y322343D01*
X341662Y323233D01*
Y324155D01*
X341424Y325045D01*
X340963Y325843D01*
X340311Y326495D01*
X339513Y326955D01*
X338623Y327194D01*
D02*
G37*
G36*
X221509Y328598D02*
X220105D01*
X218749Y328235D01*
X217534Y327533D01*
X216541Y326541D01*
X215840Y325325D01*
X215476Y323970D01*
Y322566D01*
X215840Y321210D01*
X216541Y319995D01*
X217534Y319002D01*
X218749Y318300D01*
X220105Y317937D01*
X221509D01*
X222865Y318300D01*
X224080Y319002D01*
X225073Y319995D01*
X225775Y321210D01*
X226138Y322566D01*
Y323970D01*
X225775Y325325D01*
X225073Y326541D01*
X224080Y327533D01*
X222865Y328235D01*
X221509Y328598D01*
D02*
G37*
G36*
X423689Y321610D02*
X422768D01*
X421877Y321372D01*
X421079Y320911D01*
X420428Y320259D01*
X419967Y319461D01*
X419728Y318571D01*
Y317650D01*
X419967Y316759D01*
X420428Y315961D01*
X421079Y315310D01*
X421877Y314849D01*
X422768Y314610D01*
X423689D01*
X424579Y314849D01*
X425377Y315310D01*
X426029Y315961D01*
X426490Y316759D01*
X426728Y317650D01*
Y318571D01*
X426490Y319461D01*
X426029Y320259D01*
X425377Y320911D01*
X424579Y321372D01*
X423689Y321610D01*
D02*
G37*
G36*
X221509Y314819D02*
X220105D01*
X218749Y314456D01*
X217534Y313754D01*
X216541Y312761D01*
X215840Y311546D01*
X215476Y310190D01*
Y308786D01*
X215840Y307431D01*
X216541Y306215D01*
X217534Y305223D01*
X218749Y304521D01*
X220105Y304157D01*
X221509D01*
X222865Y304521D01*
X224080Y305223D01*
X225073Y306215D01*
X225775Y307431D01*
X226138Y308786D01*
Y310190D01*
X225775Y311546D01*
X225073Y312761D01*
X224080Y313754D01*
X222865Y314456D01*
X221509Y314819D01*
D02*
G37*
G36*
X356307Y314957D02*
X355386D01*
X354496Y314718D01*
X353697Y314257D01*
X353046Y313606D01*
X352585Y312808D01*
X352346Y311917D01*
Y310996D01*
X352585Y310106D01*
X353046Y309308D01*
X353697Y308656D01*
X354496Y308195D01*
X354737Y308130D01*
X354887Y307573D01*
X354621Y307307D01*
X354160Y306508D01*
X353921Y305618D01*
Y304697D01*
X354160Y303806D01*
X354621Y303008D01*
X355272Y302357D01*
X356070Y301896D01*
X356961Y301658D01*
X357882D01*
X358772Y301896D01*
X359570Y302357D01*
X360222Y303008D01*
X360683Y303806D01*
X360921Y304697D01*
Y305618D01*
X360683Y306508D01*
X360222Y307307D01*
X359570Y307958D01*
X358772Y308419D01*
X358530Y308484D01*
X358381Y309041D01*
X358647Y309308D01*
X359108Y310106D01*
X359347Y310996D01*
Y311917D01*
X359108Y312808D01*
X358647Y313606D01*
X357996Y314257D01*
X357197Y314718D01*
X356307Y314957D01*
D02*
G37*
G36*
X329507Y308258D02*
X328586D01*
X327695Y308020D01*
X326897Y307559D01*
X326246Y306907D01*
X325785Y306109D01*
X325547Y305219D01*
Y304297D01*
X325785Y303407D01*
X326246Y302609D01*
X326897Y301958D01*
X327695Y301497D01*
X328586Y301258D01*
X329507D01*
X330397Y301497D01*
X331195Y301958D01*
X331847Y302609D01*
X332308Y303407D01*
X332546Y304297D01*
Y305219D01*
X332308Y306109D01*
X331847Y306907D01*
X331195Y307559D01*
X330397Y308020D01*
X329507Y308258D01*
D02*
G37*
G36*
X462272Y303894D02*
X461350D01*
X460460Y303655D01*
X459662Y303194D01*
X459010Y302543D01*
X458549Y301745D01*
X458311Y300854D01*
Y299933D01*
X458549Y299043D01*
X459010Y298245D01*
X459662Y297593D01*
X460460Y297132D01*
X461350Y296894D01*
X462272D01*
X463162Y297132D01*
X463960Y297593D01*
X464612Y298245D01*
X465072Y299043D01*
X465311Y299933D01*
Y300854D01*
X465072Y301745D01*
X464612Y302543D01*
X463960Y303194D01*
X463162Y303655D01*
X462272Y303894D01*
D02*
G37*
G36*
X221509Y301039D02*
X220105D01*
X218749Y300676D01*
X217534Y299974D01*
X216541Y298982D01*
X215840Y297766D01*
X215476Y296410D01*
Y295007D01*
X215840Y293651D01*
X216541Y292436D01*
X217534Y291443D01*
X218749Y290741D01*
X220105Y290378D01*
X221509D01*
X222865Y290741D01*
X224080Y291443D01*
X225073Y292436D01*
X225775Y293651D01*
X226138Y295007D01*
Y296410D01*
X225775Y297766D01*
X225073Y298982D01*
X224080Y299974D01*
X222865Y300676D01*
X221509Y301039D01*
D02*
G37*
G36*
X498032Y290009D02*
X496853D01*
Y287995D01*
X500206D01*
X500077Y288643D01*
X499597Y289361D01*
X498879Y289841D01*
X498032Y290009D01*
D02*
G37*
G36*
X496454D02*
X495276D01*
X494428Y289841D01*
X493710Y289361D01*
X493230Y288643D01*
X493101Y287995D01*
X496454D01*
Y290009D01*
D02*
G37*
G36*
X500206Y287595D02*
X496853D01*
Y285581D01*
X498032D01*
X498879Y285750D01*
X499597Y286230D01*
X500077Y286948D01*
X500206Y287595D01*
D02*
G37*
G36*
X496454D02*
X493101D01*
X493230Y286948D01*
X493710Y286230D01*
X494428Y285750D01*
X495276Y285581D01*
X496454D01*
Y287595D01*
D02*
G37*
G36*
X221509Y287260D02*
X220105D01*
X218749Y286896D01*
X217534Y286195D01*
X216541Y285202D01*
X215840Y283987D01*
X215476Y282631D01*
Y281227D01*
X215840Y279872D01*
X216541Y278656D01*
X217534Y277663D01*
X218749Y276962D01*
X220105Y276598D01*
X221509D01*
X222865Y276962D01*
X224080Y277663D01*
X225073Y278656D01*
X225775Y279872D01*
X226138Y281227D01*
Y282631D01*
X225775Y283987D01*
X225073Y285202D01*
X224080Y286195D01*
X222865Y286896D01*
X221509Y287260D01*
D02*
G37*
G36*
X313394Y282898D02*
X312472D01*
X311582Y282659D01*
X310784Y282198D01*
X310132Y281547D01*
X309672Y280749D01*
X309433Y279858D01*
Y278937D01*
X309672Y278047D01*
X310132Y277249D01*
X310784Y276597D01*
X311582Y276136D01*
X312472Y275898D01*
X313394D01*
X314284Y276136D01*
X314504Y276263D01*
X314827Y276130D01*
X315288Y275332D01*
X315939Y274680D01*
X316737Y274219D01*
X317628Y273981D01*
X318549D01*
X319181Y274150D01*
X319644Y273831D01*
X319669Y273784D01*
Y273201D01*
X319908Y272310D01*
X320369Y271512D01*
X321020Y270861D01*
X321818Y270400D01*
X322709Y270161D01*
X323630D01*
X324520Y270400D01*
X325318Y270861D01*
X325970Y271512D01*
X326431Y272310D01*
X326669Y273201D01*
Y274122D01*
X326431Y275012D01*
X325970Y275811D01*
X325318Y276462D01*
X324520Y276923D01*
X323630Y277161D01*
X322709D01*
X322077Y276992D01*
X321613Y277311D01*
X321588Y277359D01*
Y277942D01*
X321350Y278832D01*
X320889Y279630D01*
X320237Y280282D01*
X319439Y280742D01*
X318549Y280981D01*
X317628D01*
X316737Y280742D01*
X316517Y280615D01*
X316195Y280749D01*
X315734Y281547D01*
X315082Y282198D01*
X314284Y282659D01*
X313394Y282898D01*
D02*
G37*
G36*
X221509Y273480D02*
X220105D01*
X218749Y273117D01*
X217534Y272415D01*
X216541Y271423D01*
X215840Y270207D01*
X215476Y268851D01*
Y267448D01*
X215840Y266092D01*
X216541Y264877D01*
X217534Y263884D01*
X218749Y263182D01*
X220105Y262819D01*
X221509D01*
X222865Y263182D01*
X224080Y263884D01*
X225073Y264877D01*
X225775Y266092D01*
X226138Y267448D01*
Y268851D01*
X225775Y270207D01*
X225073Y271423D01*
X224080Y272415D01*
X222865Y273117D01*
X221509Y273480D01*
D02*
G37*
G36*
X498032Y264025D02*
X496853D01*
Y262011D01*
X500206D01*
X500077Y262658D01*
X499597Y263377D01*
X498879Y263857D01*
X498032Y264025D01*
D02*
G37*
G36*
X496454D02*
X495276D01*
X494428Y263857D01*
X493710Y263377D01*
X493230Y262658D01*
X493101Y262011D01*
X496454D01*
Y264025D01*
D02*
G37*
G36*
X329595Y268854D02*
X328673D01*
X327783Y268616D01*
X326985Y268155D01*
X326333Y267503D01*
X325872Y266705D01*
X325634Y265815D01*
Y264894D01*
X325872Y264003D01*
X326333Y263205D01*
X326985Y262554D01*
X327783Y262093D01*
X328673Y261854D01*
X329595D01*
X330485Y262093D01*
X331283Y262554D01*
X331935Y263205D01*
X332395Y264003D01*
X332634Y264894D01*
Y265815D01*
X332395Y266705D01*
X331935Y267503D01*
X331283Y268155D01*
X330485Y268616D01*
X329595Y268854D01*
D02*
G37*
G36*
X500206Y261611D02*
X496853D01*
Y259597D01*
X498032D01*
X498879Y259765D01*
X499597Y260245D01*
X500077Y260964D01*
X500206Y261611D01*
D02*
G37*
G36*
X496454D02*
X493101D01*
X493230Y260964D01*
X493710Y260245D01*
X494428Y259765D01*
X495276Y259597D01*
X496454D01*
Y261611D01*
D02*
G37*
G36*
X241406Y262555D02*
X240484D01*
X239594Y262317D01*
X238796Y261856D01*
X238144Y261204D01*
X237683Y260406D01*
X237445Y259516D01*
Y258594D01*
X237683Y257704D01*
X238144Y256906D01*
X238796Y256254D01*
X239594Y255794D01*
X240484Y255555D01*
X241406D01*
X242296Y255794D01*
X243094Y256254D01*
X243746Y256906D01*
X244206Y257704D01*
X244445Y258594D01*
Y259516D01*
X244206Y260406D01*
X243746Y261204D01*
X243094Y261856D01*
X242296Y262317D01*
X241406Y262555D01*
D02*
G37*
G36*
X406366Y254681D02*
X405445D01*
X404555Y254443D01*
X403757Y253982D01*
X403105Y253330D01*
X402644Y252532D01*
X402406Y251642D01*
Y250720D01*
X402644Y249830D01*
X403105Y249032D01*
X403757Y248380D01*
X404555Y247920D01*
X405445Y247681D01*
X406366D01*
X407257Y247920D01*
X408055Y248380D01*
X408706Y249032D01*
X409167Y249830D01*
X409406Y250720D01*
Y251642D01*
X409167Y252532D01*
X408706Y253330D01*
X408055Y253982D01*
X407257Y254443D01*
X406366Y254681D01*
D02*
G37*
G36*
X460301Y244642D02*
X458872D01*
X457491Y244272D01*
X456253Y243557D01*
X455242Y242546D01*
X454528Y241308D01*
X454157Y239927D01*
Y238498D01*
X454528Y237117D01*
X455242Y235879D01*
X456253Y234868D01*
X457491Y234154D01*
X458872Y233784D01*
X460301D01*
X461682Y234154D01*
X462920Y234868D01*
X463931Y235879D01*
X464646Y237117D01*
X465016Y238498D01*
Y239927D01*
X464646Y241308D01*
X463931Y242546D01*
X462920Y243557D01*
X461682Y244272D01*
X460301Y244642D01*
D02*
G37*
G36*
X429199D02*
X427770D01*
X426389Y244272D01*
X425151Y243557D01*
X424140Y242546D01*
X423425Y241308D01*
X423055Y239927D01*
Y238498D01*
X423425Y237117D01*
X424140Y235879D01*
X425151Y234868D01*
X426389Y234154D01*
X427770Y233784D01*
X429199D01*
X430580Y234154D01*
X431818Y234868D01*
X432829Y235879D01*
X433543Y237117D01*
X433913Y238498D01*
Y239927D01*
X433543Y241308D01*
X432829Y242546D01*
X431818Y243557D01*
X430580Y244272D01*
X429199Y244642D01*
D02*
G37*
G36*
X221366Y240902D02*
X220248D01*
X219167Y240612D01*
X218199Y240053D01*
X217408Y239262D01*
X216848Y238293D01*
X216559Y237213D01*
Y236094D01*
X216848Y235014D01*
X217408Y234045D01*
X218199Y233254D01*
X219167Y232695D01*
X220248Y232405D01*
X221366D01*
X222447Y232695D01*
X223415Y233254D01*
X224206Y234045D01*
X224766Y235014D01*
X225055Y236094D01*
Y237213D01*
X224766Y238293D01*
X224206Y239262D01*
X223415Y240053D01*
X222447Y240612D01*
X221366Y240902D01*
D02*
G37*
G36*
X342981Y237752D02*
X342059D01*
X341169Y237513D01*
X340371Y237053D01*
X339719Y236401D01*
X339258Y235603D01*
X339020Y234713D01*
Y233791D01*
X339258Y232901D01*
X339719Y232103D01*
X340371Y231451D01*
X341169Y230991D01*
X342059Y230752D01*
X342981D01*
X343871Y230991D01*
X344669Y231451D01*
X345320Y232103D01*
X345781Y232901D01*
X346020Y233791D01*
Y234713D01*
X345781Y235603D01*
X345320Y236401D01*
X344669Y237053D01*
X343871Y237513D01*
X342981Y237752D01*
D02*
G37*
G36*
X221366Y227122D02*
X220248D01*
X219167Y226833D01*
X218199Y226273D01*
X217408Y225482D01*
X216848Y224514D01*
X216559Y223433D01*
Y222315D01*
X216848Y221234D01*
X217408Y220266D01*
X218199Y219475D01*
X219167Y218916D01*
X220248Y218626D01*
X221366D01*
X222447Y218916D01*
X223415Y219475D01*
X224206Y220266D01*
X224766Y221234D01*
X225055Y222315D01*
Y223433D01*
X224766Y224514D01*
X224206Y225482D01*
X223415Y226273D01*
X222447Y226833D01*
X221366Y227122D01*
D02*
G37*
G36*
X300969Y235665D02*
X299031D01*
X298932Y235646D01*
X298832D01*
X296930Y235267D01*
X296837Y235229D01*
X296739Y235209D01*
X294948Y234468D01*
X294864Y234412D01*
X294771Y234373D01*
X293159Y233296D01*
X293088Y233225D01*
X293005Y233169D01*
X291634Y231798D01*
X291578Y231715D01*
X291507Y231644D01*
X290430Y230032D01*
X290391Y229939D01*
X290336Y229855D01*
X289594Y228064D01*
X289574Y227966D01*
X289536Y227873D01*
X289158Y225972D01*
Y225871D01*
X289138Y225773D01*
Y223834D01*
X289158Y223735D01*
Y223635D01*
X289536Y221733D01*
X289574Y221640D01*
X289594Y221542D01*
X290336Y219751D01*
X290391Y219667D01*
X290430Y219574D01*
X291507Y217962D01*
X291578Y217891D01*
X291634Y217808D01*
X293005Y216437D01*
X293088Y216381D01*
X293159Y216310D01*
X294771Y215233D01*
X294864Y215195D01*
X294948Y215139D01*
X296739Y214397D01*
X296837Y214377D01*
X296930Y214339D01*
X298832Y213961D01*
X298932D01*
X299031Y213941D01*
X300969D01*
X301068Y213961D01*
X301168D01*
X303070Y214339D01*
X303163Y214377D01*
X303261Y214397D01*
X305052Y215139D01*
X305136Y215195D01*
X305229Y215233D01*
X306841Y216310D01*
X306912Y216381D01*
X306995Y216437D01*
X308366Y217808D01*
X308422Y217891D01*
X308493Y217962D01*
X309570Y219574D01*
X309609Y219667D01*
X309664Y219751D01*
X310406Y221542D01*
X310426Y221640D01*
X310464Y221733D01*
X310842Y223635D01*
Y223735D01*
X310862Y223834D01*
Y225773D01*
X310842Y225871D01*
Y225972D01*
X310464Y227873D01*
X310426Y227966D01*
X310406Y228064D01*
X309664Y229855D01*
X309609Y229939D01*
X309570Y230032D01*
X308493Y231644D01*
X308422Y231715D01*
X308366Y231798D01*
X306995Y233169D01*
X306912Y233225D01*
X306841Y233296D01*
X305229Y234373D01*
X305136Y234412D01*
X305052Y234468D01*
X303261Y235209D01*
X303163Y235229D01*
X303070Y235267D01*
X301168Y235646D01*
X301068D01*
X300969Y235665D01*
D02*
G37*
G36*
X269752Y219642D02*
X268831D01*
X267940Y219403D01*
X267142Y218942D01*
X266491Y218291D01*
X266030Y217493D01*
X265791Y216602D01*
Y215681D01*
X266030Y214791D01*
X266491Y213993D01*
X267142Y213341D01*
X267940Y212880D01*
X268831Y212642D01*
X269752D01*
X270642Y212880D01*
X271440Y213341D01*
X272092Y213993D01*
X272553Y214791D01*
X272791Y215681D01*
Y216602D01*
X272553Y217493D01*
X272092Y218291D01*
X271440Y218942D01*
X270642Y219403D01*
X269752Y219642D01*
D02*
G37*
G36*
X408655Y209799D02*
X407733D01*
X406843Y209561D01*
X406045Y209100D01*
X405394Y208448D01*
X404933Y207650D01*
X404694Y206760D01*
Y205838D01*
X404933Y204948D01*
X405394Y204150D01*
X406045Y203499D01*
X406843Y203038D01*
X407733Y202799D01*
X408655D01*
X409545Y203038D01*
X410343Y203499D01*
X410995Y204150D01*
X411456Y204948D01*
X411694Y205838D01*
Y206760D01*
X411456Y207650D01*
X410995Y208448D01*
X410343Y209100D01*
X409545Y209561D01*
X408655Y209799D01*
D02*
G37*
G36*
X355185Y209012D02*
X354264D01*
X353374Y208773D01*
X352575Y208313D01*
X351924Y207661D01*
X351463Y206863D01*
X351224Y205973D01*
Y205051D01*
X351463Y204161D01*
X351924Y203363D01*
X352575Y202711D01*
X353374Y202250D01*
X354264Y202012D01*
X355185D01*
X356075Y202250D01*
X356873Y202711D01*
X357525Y203363D01*
X357986Y204161D01*
X358224Y205051D01*
Y205973D01*
X357986Y206863D01*
X357525Y207661D01*
X356873Y208313D01*
X356075Y208773D01*
X355185Y209012D01*
D02*
G37*
G36*
X377626Y202319D02*
X376705D01*
X375814Y202080D01*
X375016Y201620D01*
X374365Y200968D01*
X373904Y200170D01*
X373665Y199280D01*
Y198358D01*
X373904Y197468D01*
X374365Y196670D01*
X375016Y196018D01*
X375814Y195557D01*
X376705Y195319D01*
X377626D01*
X378516Y195557D01*
X379314Y196018D01*
X379966Y196670D01*
X380427Y197468D01*
X380665Y198358D01*
Y199280D01*
X380427Y200170D01*
X379966Y200968D01*
X379314Y201620D01*
X378516Y202080D01*
X377626Y202319D01*
D02*
G37*
G36*
X288209Y197145D02*
X286920Y196975D01*
X285719Y196478D01*
X284687Y195686D01*
X283896Y194655D01*
X283479Y193649D01*
X282938D01*
X282521Y194655D01*
X281730Y195686D01*
X280698Y196478D01*
X279498Y196975D01*
X278209Y197145D01*
X276920Y196975D01*
X275719Y196478D01*
X274688Y195686D01*
X273896Y194655D01*
X273479Y193649D01*
X272938D01*
X272521Y194655D01*
X271730Y195686D01*
X270698Y196478D01*
X269497Y196975D01*
X268209Y197145D01*
X266920Y196975D01*
X265719Y196478D01*
X264687Y195686D01*
X263896Y194655D01*
X263479Y193649D01*
X262938D01*
X262521Y194655D01*
X261730Y195686D01*
X260699Y196478D01*
X259497Y196975D01*
X258209Y197145D01*
X256920Y196975D01*
X255719Y196478D01*
X254688Y195686D01*
X253896Y194655D01*
X253479Y193649D01*
X252938D01*
X252521Y194655D01*
X251730Y195686D01*
X250698Y196478D01*
X249498Y196975D01*
X248209Y197145D01*
X246920Y196975D01*
X245719Y196478D01*
X244688Y195686D01*
X243896Y194655D01*
X243399Y193454D01*
X243229Y192165D01*
Y188228D01*
X243399Y186940D01*
X243896Y185739D01*
X244688Y184707D01*
X245719Y183916D01*
X246920Y183418D01*
X248209Y183249D01*
X249498Y183418D01*
X250698Y183916D01*
X251730Y184707D01*
X252521Y185739D01*
X252938Y186745D01*
X253479D01*
X253896Y185739D01*
X254688Y184707D01*
X255719Y183916D01*
X256920Y183418D01*
X258209Y183249D01*
X259497Y183418D01*
X260699Y183916D01*
X261730Y184707D01*
X262521Y185739D01*
X262938Y186745D01*
X263479D01*
X263896Y185739D01*
X264687Y184707D01*
X265719Y183916D01*
X266920Y183418D01*
X268209Y183249D01*
X269497Y183418D01*
X270698Y183916D01*
X271730Y184707D01*
X272521Y185739D01*
X272938Y186745D01*
X273479D01*
X273896Y185739D01*
X274688Y184707D01*
X275719Y183916D01*
X276920Y183418D01*
X278209Y183249D01*
X279498Y183418D01*
X280698Y183916D01*
X281730Y184707D01*
X282521Y185739D01*
X282938Y186745D01*
X283479D01*
X283896Y185739D01*
X284687Y184707D01*
X285719Y183916D01*
X286920Y183418D01*
X288209Y183249D01*
X289497Y183418D01*
X290699Y183916D01*
X291730Y184707D01*
X292521Y185739D01*
X293019Y186940D01*
X293188Y188228D01*
Y192165D01*
X293019Y193454D01*
X292521Y194655D01*
X291730Y195686D01*
X290699Y196478D01*
X289497Y196975D01*
X288209Y197145D01*
D02*
G37*
G36*
X228209D02*
X226920Y196975D01*
X225719Y196478D01*
X224688Y195686D01*
X223896Y194655D01*
X223479Y193649D01*
X222938D01*
X222521Y194655D01*
X221730Y195686D01*
X220698Y196478D01*
X219497Y196975D01*
X218209Y197145D01*
X216920Y196975D01*
X215719Y196478D01*
X214687Y195686D01*
X213896Y194655D01*
X213399Y193454D01*
X213229Y192165D01*
Y188228D01*
X213399Y186940D01*
X213896Y185739D01*
X214687Y184707D01*
X215719Y183916D01*
X216920Y183418D01*
X218209Y183249D01*
X219497Y183418D01*
X220698Y183916D01*
X221730Y184707D01*
X222521Y185739D01*
X222938Y186745D01*
X223479D01*
X223896Y185739D01*
X224688Y184707D01*
X225719Y183916D01*
X226920Y183418D01*
X228209Y183249D01*
X229498Y183418D01*
X230698Y183916D01*
X231730Y184707D01*
X232521Y185739D01*
X233019Y186940D01*
X233188Y188228D01*
Y192165D01*
X233019Y193454D01*
X232521Y194655D01*
X231730Y195686D01*
X230698Y196478D01*
X229498Y196975D01*
X228209Y197145D01*
D02*
G37*
G36*
X444657Y205173D02*
X443413D01*
X442193Y204930D01*
X441044Y204454D01*
X440010Y203763D01*
X439130Y202884D01*
X438439Y201850D01*
X437963Y200700D01*
X437720Y199480D01*
Y198236D01*
X437963Y197016D01*
X438439Y195867D01*
X439130Y194833D01*
X440010Y193953D01*
X441044Y193262D01*
X442193Y192786D01*
X443413Y192543D01*
X444657D01*
X445877Y192786D01*
X447027Y193262D01*
X448061Y193953D01*
X448941Y194833D01*
X449632Y195867D01*
X450108Y197016D01*
X450350Y198236D01*
Y199480D01*
X450108Y200700D01*
X449632Y201850D01*
X448941Y202884D01*
X448061Y203763D01*
X447027Y204454D01*
X445877Y204930D01*
X444657Y205173D01*
D02*
G37*
G36*
X238409Y196513D02*
Y190397D01*
X242583D01*
Y192165D01*
X242434Y193298D01*
X241997Y194353D01*
X241302Y195258D01*
X240396Y195954D01*
X239341Y196391D01*
X238409Y196513D01*
D02*
G37*
G36*
X238009D02*
X237076Y196391D01*
X236021Y195954D01*
X235116Y195258D01*
X234420Y194353D01*
X233983Y193298D01*
X233834Y192165D01*
Y190397D01*
X238009D01*
Y196513D01*
D02*
G37*
G36*
X310303Y192476D02*
X309382D01*
X308492Y192238D01*
X307694Y191777D01*
X307042Y191125D01*
X306581Y190327D01*
X306343Y189437D01*
Y188516D01*
X306581Y187625D01*
X307042Y186827D01*
X307694Y186176D01*
X308492Y185715D01*
X309382Y185476D01*
X310303D01*
X311193Y185715D01*
X311992Y186176D01*
X312643Y186827D01*
X313104Y187625D01*
X313342Y188516D01*
Y189437D01*
X313104Y190327D01*
X312643Y191125D01*
X311992Y191777D01*
X311193Y192238D01*
X310303Y192476D01*
D02*
G37*
G36*
X242583Y189997D02*
X238409D01*
Y183880D01*
X239341Y184003D01*
X240396Y184440D01*
X241302Y185135D01*
X241997Y186041D01*
X242434Y187096D01*
X242583Y188228D01*
Y189997D01*
D02*
G37*
G36*
X238009D02*
X233834D01*
Y188228D01*
X233983Y187096D01*
X234420Y186041D01*
X235116Y185135D01*
X236021Y184440D01*
X237076Y184003D01*
X238009Y183880D01*
Y189997D01*
D02*
G37*
G36*
X490340Y193933D02*
X488401D01*
X488302Y193913D01*
X488202D01*
X486300Y193535D01*
X486207Y193497D01*
X486109Y193477D01*
X484318Y192735D01*
X484234Y192679D01*
X484141Y192641D01*
X482529Y191564D01*
X482458Y191493D01*
X482375Y191437D01*
X481004Y190066D01*
X480948Y189983D01*
X480877Y189912D01*
X479800Y188300D01*
X479762Y188207D01*
X479706Y188123D01*
X478964Y186332D01*
X478944Y186233D01*
X478906Y186141D01*
X478528Y184239D01*
Y184139D01*
X478508Y184040D01*
Y182102D01*
X478528Y182003D01*
Y181903D01*
X478906Y180001D01*
X478944Y179908D01*
X478964Y179810D01*
X479706Y178018D01*
X479762Y177935D01*
X479800Y177842D01*
X480877Y176230D01*
X480948Y176159D01*
X481004Y176076D01*
X482375Y174705D01*
X482458Y174649D01*
X482529Y174578D01*
X484141Y173501D01*
X484234Y173462D01*
X484318Y173407D01*
X486109Y172665D01*
X486207Y172645D01*
X486300Y172607D01*
X488202Y172228D01*
X488302D01*
X488401Y172209D01*
X490340D01*
X490438Y172228D01*
X490538D01*
X492440Y172607D01*
X492533Y172645D01*
X492631Y172665D01*
X494422Y173407D01*
X494506Y173462D01*
X494599Y173501D01*
X496211Y174578D01*
X496282Y174649D01*
X496365Y174705D01*
X497736Y176076D01*
X497792Y176159D01*
X497863Y176230D01*
X498940Y177842D01*
X498979Y177935D01*
X499034Y178018D01*
X499776Y179810D01*
X499796Y179908D01*
X499834Y180001D01*
X500213Y181903D01*
Y182003D01*
X500232Y182102D01*
Y184040D01*
X500213Y184139D01*
Y184239D01*
X499834Y186141D01*
X499796Y186233D01*
X499776Y186332D01*
X499034Y188123D01*
X498979Y188207D01*
X498940Y188300D01*
X497863Y189912D01*
X497792Y189983D01*
X497736Y190066D01*
X496365Y191437D01*
X496282Y191493D01*
X496211Y191564D01*
X494599Y192641D01*
X494506Y192679D01*
X494422Y192735D01*
X492631Y193477D01*
X492533Y193497D01*
X492440Y193535D01*
X490538Y193913D01*
X490438D01*
X490340Y193933D01*
D02*
G37*
%LPD*%
D81*
X473563Y358740D02*
D03*
D82*
X220807Y407913D02*
D03*
D84*
X496654Y261811D02*
D03*
Y287795D02*
D03*
D85*
X358602Y419724D02*
D03*
X266083Y368543D02*
D03*
X256240Y403976D02*
D03*
D87*
X238209Y190197D02*
D03*
D88*
X416516Y376417D02*
D03*
D89*
X388189Y340945D02*
D03*
X301575Y289370D02*
D03*
X472815Y281929D02*
D03*
X298425Y422835D02*
D03*
X364173Y339764D02*
D03*
X271260Y259055D02*
D03*
X261811Y345669D02*
D03*
X364567Y221260D02*
D03*
X324410Y254331D02*
D03*
X335433Y232677D02*
D03*
X404557Y220866D02*
D03*
X281496Y296346D02*
D03*
X356299Y290158D02*
D03*
X401181Y265748D02*
D03*
X376378Y280315D02*
D03*
X424803Y296850D02*
D03*
X436614Y304331D02*
D03*
X452822Y320092D02*
D03*
X461811Y402756D02*
D03*
X440295Y387039D02*
D03*
X477559Y311417D02*
D03*
X415354Y188583D02*
D03*
X354331Y192520D02*
D03*
X305118Y193307D02*
D03*
X270079Y248425D02*
D03*
X258268Y298819D02*
D03*
X271260Y302756D02*
D03*
X382677Y433465D02*
D03*
X311811Y407480D02*
D03*
X298425Y407874D02*
D03*
X266929Y437402D02*
D03*
M02*
